<?xml version="1.0" encoding="utf-8" standalone="no"?>
<!DOCTYPE svg PUBLIC "-//W3C//DTD SVG 1.1//EN"
  "http://www.w3.org/Graphics/SVG/1.1/DTD/svg11.dtd">
<!-- Created with matplotlib (http://matplotlib.org/) -->
<svg height="432pt" version="1.1" viewBox="0 0 576 432" width="576pt" xmlns="http://www.w3.org/2000/svg" xmlns:xlink="http://www.w3.org/1999/xlink">
 <defs>
  <style type="text/css">
*{stroke-linecap:butt;stroke-linejoin:round;stroke-miterlimit:100000;}
  </style>
 </defs>
 <g id="figure_1">
  <g id="patch_1">
   <path d="M 0 432 
L 576 432 
L 576 0 
L 0 0 
z
" style="fill:#ffffff;"/>
  </g>
  <g id="axes_1">
   <g id="patch_2">
    <path d="M 72 388.8 
L 518.4 388.8 
L 518.4 43.2 
L 72 43.2 
z
" style="fill:#ffffff;"/>
   </g>
   <g id="patch_3">
    <path clip-path="url(#p9cac7e6796)" d="M 154.584 388.8 
L 167.976 388.8 
L 167.976 387.837448 
L 154.584 387.837448 
z
" style="fill:#ff0000;"/>
   </g>
   <g id="patch_4">
    <path clip-path="url(#p9cac7e6796)" d="M 172.44 388.8 
L 185.832 388.8 
L 185.832 387.618686 
L 172.44 387.618686 
z
" style="fill:#ff0000;"/>
   </g>
   <g id="patch_5">
    <path clip-path="url(#p9cac7e6796)" d="M 190.296 388.8 
L 203.688 388.8 
L 203.688 382.149639 
L 190.296 382.149639 
z
" style="fill:#ff0000;"/>
   </g>
   <g id="patch_6">
    <path clip-path="url(#p9cac7e6796)" d="M 208.152 388.8 
L 221.544 388.8 
L 221.544 385.649829 
L 208.152 385.649829 
z
" style="fill:#ff0000;"/>
   </g>
   <g id="patch_7">
    <path clip-path="url(#p9cac7e6796)" d="M 226.008 388.8 
L 239.4 388.8 
L 239.4 387.924953 
L 226.008 387.924953 
z
" style="fill:#ff0000;"/>
   </g>
   <g id="patch_8">
    <path clip-path="url(#p9cac7e6796)" d="M 243.864 388.8 
L 257.256 388.8 
L 257.256 385.912343 
L 243.864 385.912343 
z
" style="fill:#ff0000;"/>
   </g>
   <g id="patch_9">
    <path clip-path="url(#p9cac7e6796)" d="M 261.72 388.8 
L 275.112 388.8 
L 275.112 387.574934 
L 261.72 387.574934 
z
" style="fill:#ff0000;"/>
   </g>
   <g id="patch_10">
    <path clip-path="url(#p9cac7e6796)" d="M 279.576 388.8 
L 292.968 388.8 
L 292.968 387.356172 
L 279.576 387.356172 
z
" style="fill:#ff0000;"/>
   </g>
   <g id="patch_11">
    <path clip-path="url(#p9cac7e6796)" d="M 297.432 388.8 
L 310.824 388.8 
L 310.824 387.399924 
L 297.432 387.399924 
z
" style="fill:#ff0000;"/>
   </g>
   <g id="patch_12">
    <path clip-path="url(#p9cac7e6796)" d="M 315.288 388.8 
L 328.68 388.8 
L 328.68 388.712495 
L 315.288 388.712495 
z
" style="fill:#ff0000;"/>
   </g>
   <g id="patch_13">
    <path clip-path="url(#p9cac7e6796)" d="M 333.144 388.8 
L 346.536 388.8 
L 346.536 388.406229 
L 333.144 388.406229 
z
" style="fill:#ff0000;"/>
   </g>
   <g id="patch_14">
    <path clip-path="url(#p9cac7e6796)" d="M 351 388.8 
L 364.392 388.8 
L 364.392 384.206001 
L 351 384.206001 
z
" style="fill:#ff0000;"/>
   </g>
   <g id="patch_15">
    <path clip-path="url(#p9cac7e6796)" d="M 368.856 388.8 
L 382.248 388.8 
L 382.248 385.387315 
L 368.856 385.387315 
z
" style="fill:#ff0000;"/>
   </g>
   <g id="patch_16">
    <path clip-path="url(#p9cac7e6796)" d="M 386.712 388.8 
L 400.104 388.8 
L 400.104 386.699886 
L 386.712 386.699886 
z
" style="fill:#ff0000;"/>
   </g>
   <g id="patch_17">
    <path clip-path="url(#p9cac7e6796)" d="M 404.568 388.8 
L 417.96 388.8 
L 417.96 384.949791 
L 404.568 384.949791 
z
" style="fill:#ff0000;"/>
   </g>
   <g id="patch_18">
    <path clip-path="url(#p9cac7e6796)" d="M 422.424 388.8 
L 435.816 388.8 
L 435.816 387.618686 
L 422.424 387.618686 
z
" style="fill:#ff0000;"/>
   </g>
   <g id="patch_19">
    <path clip-path="url(#p9cac7e6796)" d="M 440.28 388.8 
L 453.672 388.8 
L 453.672 386.393619 
L 440.28 386.393619 
z
" style="fill:#ff0000;"/>
   </g>
   <g id="patch_20">
    <path clip-path="url(#p9cac7e6796)" d="M 458.136 388.8 
L 471.528 388.8 
L 471.528 386.699886 
L 458.136 386.699886 
z
" style="fill:#ff0000;"/>
   </g>
   <g id="patch_21">
    <path clip-path="url(#p9cac7e6796)" d="M 154.584 387.837448 
L 167.976 387.837448 
L 167.976 387.837448 
L 154.584 387.837448 
z
" style="fill:#0000ff;"/>
   </g>
   <g id="patch_22">
    <path clip-path="url(#p9cac7e6796)" d="M 172.44 387.618686 
L 185.832 387.618686 
L 185.832 387.618686 
L 172.44 387.618686 
z
" style="fill:#0000ff;"/>
   </g>
   <g id="patch_23">
    <path clip-path="url(#p9cac7e6796)" d="M 190.296 382.149639 
L 203.688 382.149639 
L 203.688 382.149639 
L 190.296 382.149639 
z
" style="fill:#0000ff;"/>
   </g>
   <g id="patch_24">
    <path clip-path="url(#p9cac7e6796)" d="M 208.152 385.649829 
L 221.544 385.649829 
L 221.544 385.649829 
L 208.152 385.649829 
z
" style="fill:#0000ff;"/>
   </g>
   <g id="patch_25">
    <path clip-path="url(#p9cac7e6796)" d="M 226.008 387.924953 
L 239.4 387.924953 
L 239.4 387.924953 
L 226.008 387.924953 
z
" style="fill:#0000ff;"/>
   </g>
   <g id="patch_26">
    <path clip-path="url(#p9cac7e6796)" d="M 243.864 385.912343 
L 257.256 385.912343 
L 257.256 385.868591 
L 243.864 385.868591 
z
" style="fill:#0000ff;"/>
   </g>
   <g id="patch_27">
    <path clip-path="url(#p9cac7e6796)" d="M 261.72 387.574934 
L 275.112 387.574934 
L 275.112 387.574934 
L 261.72 387.574934 
z
" style="fill:#0000ff;"/>
   </g>
   <g id="patch_28">
    <path clip-path="url(#p9cac7e6796)" d="M 279.576 387.356172 
L 292.968 387.356172 
L 292.968 387.356172 
L 279.576 387.356172 
z
" style="fill:#0000ff;"/>
   </g>
   <g id="patch_29">
    <path clip-path="url(#p9cac7e6796)" d="M 297.432 387.399924 
L 310.824 387.399924 
L 310.824 387.399924 
L 297.432 387.399924 
z
" style="fill:#0000ff;"/>
   </g>
   <g id="patch_30">
    <path clip-path="url(#p9cac7e6796)" d="M 315.288 388.712495 
L 328.68 388.712495 
L 328.68 388.187467 
L 315.288 388.187467 
z
" style="fill:#0000ff;"/>
   </g>
   <g id="patch_31">
    <path clip-path="url(#p9cac7e6796)" d="M 333.144 388.406229 
L 346.536 388.406229 
L 346.536 388.143714 
L 333.144 388.143714 
z
" style="fill:#0000ff;"/>
   </g>
   <g id="patch_32">
    <path clip-path="url(#p9cac7e6796)" d="M 351 384.206001 
L 364.392 384.206001 
L 364.392 384.206001 
L 351 384.206001 
z
" style="fill:#0000ff;"/>
   </g>
   <g id="patch_33">
    <path clip-path="url(#p9cac7e6796)" d="M 368.856 385.387315 
L 382.248 385.387315 
L 382.248 384.512267 
L 368.856 384.512267 
z
" style="fill:#0000ff;"/>
   </g>
   <g id="patch_34">
    <path clip-path="url(#p9cac7e6796)" d="M 386.712 386.699886 
L 400.104 386.699886 
L 400.104 386.656134 
L 386.712 386.656134 
z
" style="fill:#0000ff;"/>
   </g>
   <g id="patch_35">
    <path clip-path="url(#p9cac7e6796)" d="M 404.568 384.949791 
L 417.96 384.949791 
L 417.96 383.768477 
L 404.568 383.768477 
z
" style="fill:#0000ff;"/>
   </g>
   <g id="patch_36">
    <path clip-path="url(#p9cac7e6796)" d="M 422.424 387.618686 
L 435.816 387.618686 
L 435.816 387.574934 
L 422.424 387.574934 
z
" style="fill:#0000ff;"/>
   </g>
   <g id="patch_37">
    <path clip-path="url(#p9cac7e6796)" d="M 440.28 386.393619 
L 453.672 386.393619 
L 453.672 386.306115 
L 440.28 386.306115 
z
" style="fill:#0000ff;"/>
   </g>
   <g id="patch_38">
    <path clip-path="url(#p9cac7e6796)" d="M 458.136 386.699886 
L 471.528 386.699886 
L 471.528 386.524877 
L 458.136 386.524877 
z
" style="fill:#0000ff;"/>
   </g>
   <g id="patch_39">
    <path clip-path="url(#p9cac7e6796)" d="M 154.584 387.837448 
L 167.976 387.837448 
L 167.976 387.837448 
L 154.584 387.837448 
z
" style="fill:#f27304;"/>
   </g>
   <g id="patch_40">
    <path clip-path="url(#p9cac7e6796)" d="M 172.44 387.618686 
L 185.832 387.618686 
L 185.832 387.618686 
L 172.44 387.618686 
z
" style="fill:#f27304;"/>
   </g>
   <g id="patch_41">
    <path clip-path="url(#p9cac7e6796)" d="M 190.296 382.149639 
L 203.688 382.149639 
L 203.688 382.149639 
L 190.296 382.149639 
z
" style="fill:#f27304;"/>
   </g>
   <g id="patch_42">
    <path clip-path="url(#p9cac7e6796)" d="M 208.152 385.649829 
L 221.544 385.649829 
L 221.544 385.649829 
L 208.152 385.649829 
z
" style="fill:#f27304;"/>
   </g>
   <g id="patch_43">
    <path clip-path="url(#p9cac7e6796)" d="M 226.008 387.924953 
L 239.4 387.924953 
L 239.4 387.924953 
L 226.008 387.924953 
z
" style="fill:#f27304;"/>
   </g>
   <g id="patch_44">
    <path clip-path="url(#p9cac7e6796)" d="M 243.864 385.868591 
L 257.256 385.868591 
L 257.256 385.868591 
L 243.864 385.868591 
z
" style="fill:#f27304;"/>
   </g>
   <g id="patch_45">
    <path clip-path="url(#p9cac7e6796)" d="M 261.72 387.574934 
L 275.112 387.574934 
L 275.112 387.268667 
L 261.72 387.268667 
z
" style="fill:#f27304;"/>
   </g>
   <g id="patch_46">
    <path clip-path="url(#p9cac7e6796)" d="M 279.576 387.356172 
L 292.968 387.356172 
L 292.968 386.481124 
L 279.576 386.481124 
z
" style="fill:#f27304;"/>
   </g>
   <g id="patch_47">
    <path clip-path="url(#p9cac7e6796)" d="M 297.432 387.399924 
L 310.824 387.399924 
L 310.824 387.399924 
L 297.432 387.399924 
z
" style="fill:#f27304;"/>
   </g>
   <g id="patch_48">
    <path clip-path="url(#p9cac7e6796)" d="M 315.288 388.187467 
L 328.68 388.187467 
L 328.68 387.924953 
L 315.288 387.924953 
z
" style="fill:#f27304;"/>
   </g>
   <g id="patch_49">
    <path clip-path="url(#p9cac7e6796)" d="M 333.144 388.143714 
L 346.536 388.143714 
L 346.536 385.737334 
L 333.144 385.737334 
z
" style="fill:#f27304;"/>
   </g>
   <g id="patch_50">
    <path clip-path="url(#p9cac7e6796)" d="M 351 384.206001 
L 364.392 384.206001 
L 364.392 384.030991 
L 351 384.030991 
z
" style="fill:#f27304;"/>
   </g>
   <g id="patch_51">
    <path clip-path="url(#p9cac7e6796)" d="M 368.856 384.512267 
L 382.248 384.512267 
L 382.248 380.618306 
L 368.856 380.618306 
z
" style="fill:#f27304;"/>
   </g>
   <g id="patch_52">
    <path clip-path="url(#p9cac7e6796)" d="M 386.712 386.656134 
L 400.104 386.656134 
L 400.104 384.731029 
L 386.712 384.731029 
z
" style="fill:#f27304;"/>
   </g>
   <g id="patch_53">
    <path clip-path="url(#p9cac7e6796)" d="M 404.568 383.768477 
L 417.96 383.768477 
L 417.96 382.849677 
L 404.568 382.849677 
z
" style="fill:#f27304;"/>
   </g>
   <g id="patch_54">
    <path clip-path="url(#p9cac7e6796)" d="M 422.424 387.574934 
L 435.816 387.574934 
L 435.816 386.612381 
L 422.424 386.612381 
z
" style="fill:#f27304;"/>
   </g>
   <g id="patch_55">
    <path clip-path="url(#p9cac7e6796)" d="M 440.28 386.306115 
L 453.672 386.306115 
L 453.672 385.956096 
L 440.28 385.956096 
z
" style="fill:#f27304;"/>
   </g>
   <g id="patch_56">
    <path clip-path="url(#p9cac7e6796)" d="M 458.136 386.524877 
L 471.528 386.524877 
L 471.528 386.481124 
L 458.136 386.481124 
z
" style="fill:#f27304;"/>
   </g>
   <g id="patch_57">
    <path clip-path="url(#p9cac7e6796)" d="M 154.584 387.837448 
L 167.976 387.837448 
L 167.976 387.837448 
L 154.584 387.837448 
z
" style="fill:#008000;"/>
   </g>
   <g id="patch_58">
    <path clip-path="url(#p9cac7e6796)" d="M 172.44 387.618686 
L 185.832 387.618686 
L 185.832 387.618686 
L 172.44 387.618686 
z
" style="fill:#008000;"/>
   </g>
   <g id="patch_59">
    <path clip-path="url(#p9cac7e6796)" d="M 190.296 382.149639 
L 203.688 382.149639 
L 203.688 382.149639 
L 190.296 382.149639 
z
" style="fill:#008000;"/>
   </g>
   <g id="patch_60">
    <path clip-path="url(#p9cac7e6796)" d="M 208.152 385.649829 
L 221.544 385.649829 
L 221.544 385.649829 
L 208.152 385.649829 
z
" style="fill:#008000;"/>
   </g>
   <g id="patch_61">
    <path clip-path="url(#p9cac7e6796)" d="M 226.008 387.924953 
L 239.4 387.924953 
L 239.4 387.8812 
L 226.008 387.8812 
z
" style="fill:#008000;"/>
   </g>
   <g id="patch_62">
    <path clip-path="url(#p9cac7e6796)" d="M 243.864 385.868591 
L 257.256 385.868591 
L 257.256 385.868591 
L 243.864 385.868591 
z
" style="fill:#008000;"/>
   </g>
   <g id="patch_63">
    <path clip-path="url(#p9cac7e6796)" d="M 261.72 387.268667 
L 275.112 387.268667 
L 275.112 387.268667 
L 261.72 387.268667 
z
" style="fill:#008000;"/>
   </g>
   <g id="patch_64">
    <path clip-path="url(#p9cac7e6796)" d="M 279.576 386.481124 
L 292.968 386.481124 
L 292.968 385.956096 
L 279.576 385.956096 
z
" style="fill:#008000;"/>
   </g>
   <g id="patch_65">
    <path clip-path="url(#p9cac7e6796)" d="M 297.432 387.399924 
L 310.824 387.399924 
L 310.824 387.399924 
L 297.432 387.399924 
z
" style="fill:#008000;"/>
   </g>
   <g id="patch_66">
    <path clip-path="url(#p9cac7e6796)" d="M 315.288 387.924953 
L 328.68 387.924953 
L 328.68 386.699886 
L 315.288 386.699886 
z
" style="fill:#008000;"/>
   </g>
   <g id="patch_67">
    <path clip-path="url(#p9cac7e6796)" d="M 333.144 385.737334 
L 346.536 385.737334 
L 346.536 383.549715 
L 333.144 383.549715 
z
" style="fill:#008000;"/>
   </g>
   <g id="patch_68">
    <path clip-path="url(#p9cac7e6796)" d="M 351 384.030991 
L 364.392 384.030991 
L 364.392 380.924573 
L 351 380.924573 
z
" style="fill:#008000;"/>
   </g>
   <g id="patch_69">
    <path clip-path="url(#p9cac7e6796)" d="M 368.856 380.618306 
L 382.248 380.618306 
L 382.248 377.643145 
L 368.856 377.643145 
z
" style="fill:#008000;"/>
   </g>
   <g id="patch_70">
    <path clip-path="url(#p9cac7e6796)" d="M 386.712 384.731029 
L 400.104 384.731029 
L 400.104 383.112191 
L 386.712 383.112191 
z
" style="fill:#008000;"/>
   </g>
   <g id="patch_71">
    <path clip-path="url(#p9cac7e6796)" d="M 404.568 382.849677 
L 417.96 382.849677 
L 417.96 380.005773 
L 404.568 380.005773 
z
" style="fill:#008000;"/>
   </g>
   <g id="patch_72">
    <path clip-path="url(#p9cac7e6796)" d="M 422.424 386.612381 
L 435.816 386.612381 
L 435.816 386.481124 
L 422.424 386.481124 
z
" style="fill:#008000;"/>
   </g>
   <g id="patch_73">
    <path clip-path="url(#p9cac7e6796)" d="M 440.28 385.956096 
L 453.672 385.956096 
L 453.672 385.956096 
L 440.28 385.956096 
z
" style="fill:#008000;"/>
   </g>
   <g id="patch_74">
    <path clip-path="url(#p9cac7e6796)" d="M 458.136 386.481124 
L 471.528 386.481124 
L 471.528 386.481124 
L 458.136 386.481124 
z
" style="fill:#008000;"/>
   </g>
   <g id="patch_75">
    <path clip-path="url(#p9cac7e6796)" d="M 154.584 387.837448 
L 167.976 387.837448 
L 167.976 385.387315 
L 154.584 385.387315 
z
" style="fill:#91278d;"/>
   </g>
   <g id="patch_76">
    <path clip-path="url(#p9cac7e6796)" d="M 172.44 387.618686 
L 185.832 387.618686 
L 185.832 386.524877 
L 172.44 386.524877 
z
" style="fill:#91278d;"/>
   </g>
   <g id="patch_77">
    <path clip-path="url(#p9cac7e6796)" d="M 190.296 382.149639 
L 203.688 382.149639 
L 203.688 379.261983 
L 190.296 379.261983 
z
" style="fill:#91278d;"/>
   </g>
   <g id="patch_78">
    <path clip-path="url(#p9cac7e6796)" d="M 208.152 385.649829 
L 221.544 385.649829 
L 221.544 373.442917 
L 208.152 373.442917 
z
" style="fill:#91278d;"/>
   </g>
   <g id="patch_79">
    <path clip-path="url(#p9cac7e6796)" d="M 226.008 387.8812 
L 239.4 387.8812 
L 239.4 386.262362 
L 226.008 386.262362 
z
" style="fill:#91278d;"/>
   </g>
   <g id="patch_80">
    <path clip-path="url(#p9cac7e6796)" d="M 243.864 385.868591 
L 257.256 385.868591 
L 257.256 363.773642 
L 243.864 363.773642 
z
" style="fill:#91278d;"/>
   </g>
   <g id="patch_81">
    <path clip-path="url(#p9cac7e6796)" d="M 261.72 387.268667 
L 275.112 387.268667 
L 275.112 385.29981 
L 261.72 385.29981 
z
" style="fill:#91278d;"/>
   </g>
   <g id="patch_82">
    <path clip-path="url(#p9cac7e6796)" d="M 279.576 385.956096 
L 292.968 385.956096 
L 292.968 376.855602 
L 279.576 376.855602 
z
" style="fill:#91278d;"/>
   </g>
   <g id="patch_83">
    <path clip-path="url(#p9cac7e6796)" d="M 297.432 387.399924 
L 310.824 387.399924 
L 310.824 387.13741 
L 297.432 387.13741 
z
" style="fill:#91278d;"/>
   </g>
   <g id="patch_84">
    <path clip-path="url(#p9cac7e6796)" d="M 315.288 386.699886 
L 328.68 386.699886 
L 328.68 356.248234 
L 315.288 356.248234 
z
" style="fill:#91278d;"/>
   </g>
   <g id="patch_85">
    <path clip-path="url(#p9cac7e6796)" d="M 333.144 383.549715 
L 346.536 383.549715 
L 346.536 339.534827 
L 333.144 339.534827 
z
" style="fill:#91278d;"/>
   </g>
   <g id="patch_86">
    <path clip-path="url(#p9cac7e6796)" d="M 351 380.924573 
L 364.392 380.924573 
L 364.392 362.592328 
L 351 362.592328 
z
" style="fill:#91278d;"/>
   </g>
   <g id="patch_87">
    <path clip-path="url(#p9cac7e6796)" d="M 368.856 377.643145 
L 382.248 377.643145 
L 382.248 298.888872 
L 368.856 298.888872 
z
" style="fill:#91278d;"/>
   </g>
   <g id="patch_88">
    <path clip-path="url(#p9cac7e6796)" d="M 386.712 383.112191 
L 400.104 383.112191 
L 400.104 325.096544 
L 386.712 325.096544 
z
" style="fill:#91278d;"/>
   </g>
   <g id="patch_89">
    <path clip-path="url(#p9cac7e6796)" d="M 404.568 380.005773 
L 417.96 380.005773 
L 417.96 300.463957 
L 404.568 300.463957 
z
" style="fill:#91278d;"/>
   </g>
   <g id="patch_90">
    <path clip-path="url(#p9cac7e6796)" d="M 422.424 386.481124 
L 435.816 386.481124 
L 435.816 379.655754 
L 422.424 379.655754 
z
" style="fill:#91278d;"/>
   </g>
   <g id="patch_91">
    <path clip-path="url(#p9cac7e6796)" d="M 440.28 385.956096 
L 453.672 385.956096 
L 453.672 384.687277 
L 440.28 384.687277 
z
" style="fill:#91278d;"/>
   </g>
   <g id="patch_92">
    <path clip-path="url(#p9cac7e6796)" d="M 458.136 386.481124 
L 471.528 386.481124 
L 471.528 385.431067 
L 458.136 385.431067 
z
" style="fill:#91278d;"/>
   </g>
   <g id="patch_93">
    <path clip-path="url(#p9cac7e6796)" d="M 154.584 385.387315 
L 167.976 385.387315 
L 167.976 385.387315 
L 154.584 385.387315 
z
" style="fill:#ffff00;"/>
   </g>
   <g id="patch_94">
    <path clip-path="url(#p9cac7e6796)" d="M 172.44 386.524877 
L 185.832 386.524877 
L 185.832 386.524877 
L 172.44 386.524877 
z
" style="fill:#ffff00;"/>
   </g>
   <g id="patch_95">
    <path clip-path="url(#p9cac7e6796)" d="M 190.296 379.261983 
L 203.688 379.261983 
L 203.688 379.261983 
L 190.296 379.261983 
z
" style="fill:#ffff00;"/>
   </g>
   <g id="patch_96">
    <path clip-path="url(#p9cac7e6796)" d="M 208.152 373.442917 
L 221.544 373.442917 
L 221.544 372.39286 
L 208.152 372.39286 
z
" style="fill:#ffff00;"/>
   </g>
   <g id="patch_97">
    <path clip-path="url(#p9cac7e6796)" d="M 226.008 386.262362 
L 239.4 386.262362 
L 239.4 386.21861 
L 226.008 386.21861 
z
" style="fill:#ffff00;"/>
   </g>
   <g id="patch_98">
    <path clip-path="url(#p9cac7e6796)" d="M 243.864 363.773642 
L 257.256 363.773642 
L 257.256 363.72989 
L 243.864 363.72989 
z
" style="fill:#ffff00;"/>
   </g>
   <g id="patch_99">
    <path clip-path="url(#p9cac7e6796)" d="M 261.72 385.29981 
L 275.112 385.29981 
L 275.112 385.212305 
L 261.72 385.212305 
z
" style="fill:#ffff00;"/>
   </g>
   <g id="patch_100">
    <path clip-path="url(#p9cac7e6796)" d="M 279.576 376.855602 
L 292.968 376.855602 
L 292.968 376.63684 
L 279.576 376.63684 
z
" style="fill:#ffff00;"/>
   </g>
   <g id="patch_101">
    <path clip-path="url(#p9cac7e6796)" d="M 297.432 387.13741 
L 310.824 387.13741 
L 310.824 387.13741 
L 297.432 387.13741 
z
" style="fill:#ffff00;"/>
   </g>
   <g id="patch_102">
    <path clip-path="url(#p9cac7e6796)" d="M 315.288 356.248234 
L 328.68 356.248234 
L 328.68 355.504444 
L 315.288 355.504444 
z
" style="fill:#ffff00;"/>
   </g>
   <g id="patch_103">
    <path clip-path="url(#p9cac7e6796)" d="M 333.144 339.534827 
L 346.536 339.534827 
L 346.536 339.447322 
L 333.144 339.447322 
z
" style="fill:#ffff00;"/>
   </g>
   <g id="patch_104">
    <path clip-path="url(#p9cac7e6796)" d="M 351 362.592328 
L 364.392 362.592328 
L 364.392 359.879681 
L 351 359.879681 
z
" style="fill:#ffff00;"/>
   </g>
   <g id="patch_105">
    <path clip-path="url(#p9cac7e6796)" d="M 368.856 298.888872 
L 382.248 298.888872 
L 382.248 293.857349 
L 368.856 293.857349 
z
" style="fill:#ffff00;"/>
   </g>
   <g id="patch_106">
    <path clip-path="url(#p9cac7e6796)" d="M 386.712 325.096544 
L 400.104 325.096544 
L 400.104 320.677554 
L 386.712 320.677554 
z
" style="fill:#ffff00;"/>
   </g>
   <g id="patch_107">
    <path clip-path="url(#p9cac7e6796)" d="M 404.568 300.463957 
L 417.96 300.463957 
L 417.96 295.826206 
L 404.568 295.826206 
z
" style="fill:#ffff00;"/>
   </g>
   <g id="patch_108">
    <path clip-path="url(#p9cac7e6796)" d="M 422.424 379.655754 
L 435.816 379.655754 
L 435.816 379.612002 
L 422.424 379.612002 
z
" style="fill:#ffff00;"/>
   </g>
   <g id="patch_109">
    <path clip-path="url(#p9cac7e6796)" d="M 440.28 384.687277 
L 453.672 384.687277 
L 453.672 384.687277 
L 440.28 384.687277 
z
" style="fill:#ffff00;"/>
   </g>
   <g id="patch_110">
    <path clip-path="url(#p9cac7e6796)" d="M 458.136 385.431067 
L 471.528 385.431067 
L 471.528 385.431067 
L 458.136 385.431067 
z
" style="fill:#ffff00;"/>
   </g>
   <g id="patch_111">
    <path clip-path="url(#p9cac7e6796)" d="M 154.584 385.387315 
L 167.976 385.387315 
L 167.976 385.387315 
L 154.584 385.387315 
z
" style="fill:#7cecf4;"/>
   </g>
   <g id="patch_112">
    <path clip-path="url(#p9cac7e6796)" d="M 172.44 386.524877 
L 185.832 386.524877 
L 185.832 386.437372 
L 172.44 386.437372 
z
" style="fill:#7cecf4;"/>
   </g>
   <g id="patch_113">
    <path clip-path="url(#p9cac7e6796)" d="M 190.296 379.261983 
L 203.688 379.261983 
L 203.688 379.174478 
L 190.296 379.174478 
z
" style="fill:#7cecf4;"/>
   </g>
   <g id="patch_114">
    <path clip-path="url(#p9cac7e6796)" d="M 208.152 372.39286 
L 221.544 372.39286 
L 221.544 369.198937 
L 208.152 369.198937 
z
" style="fill:#7cecf4;"/>
   </g>
   <g id="patch_115">
    <path clip-path="url(#p9cac7e6796)" d="M 226.008 386.21861 
L 239.4 386.21861 
L 239.4 385.868591 
L 226.008 385.868591 
z
" style="fill:#7cecf4;"/>
   </g>
   <g id="patch_116">
    <path clip-path="url(#p9cac7e6796)" d="M 243.864 363.72989 
L 257.256 363.72989 
L 257.256 363.379871 
L 243.864 363.379871 
z
" style="fill:#7cecf4;"/>
   </g>
   <g id="patch_117">
    <path clip-path="url(#p9cac7e6796)" d="M 261.72 385.212305 
L 275.112 385.212305 
L 275.112 385.212305 
L 261.72 385.212305 
z
" style="fill:#7cecf4;"/>
   </g>
   <g id="patch_118">
    <path clip-path="url(#p9cac7e6796)" d="M 279.576 376.63684 
L 292.968 376.63684 
L 292.968 374.755488 
L 279.576 374.755488 
z
" style="fill:#7cecf4;"/>
   </g>
   <g id="patch_119">
    <path clip-path="url(#p9cac7e6796)" d="M 297.432 387.13741 
L 310.824 387.13741 
L 310.824 387.093657 
L 297.432 387.093657 
z
" style="fill:#7cecf4;"/>
   </g>
   <g id="patch_120">
    <path clip-path="url(#p9cac7e6796)" d="M 315.288 355.504444 
L 328.68 355.504444 
L 328.68 350.64793 
L 315.288 350.64793 
z
" style="fill:#7cecf4;"/>
   </g>
   <g id="patch_121">
    <path clip-path="url(#p9cac7e6796)" d="M 333.144 339.447322 
L 346.536 339.447322 
L 346.536 333.190733 
L 333.144 333.190733 
z
" style="fill:#7cecf4;"/>
   </g>
   <g id="patch_122">
    <path clip-path="url(#p9cac7e6796)" d="M 351 359.879681 
L 364.392 359.879681 
L 364.392 352.879301 
L 351 352.879301 
z
" style="fill:#7cecf4;"/>
   </g>
   <g id="patch_123">
    <path clip-path="url(#p9cac7e6796)" d="M 368.856 293.857349 
L 382.248 293.857349 
L 382.248 277.537714 
L 368.856 277.537714 
z
" style="fill:#7cecf4;"/>
   </g>
   <g id="patch_124">
    <path clip-path="url(#p9cac7e6796)" d="M 386.712 320.677554 
L 400.104 320.677554 
L 400.104 310.001975 
L 386.712 310.001975 
z
" style="fill:#7cecf4;"/>
   </g>
   <g id="patch_125">
    <path clip-path="url(#p9cac7e6796)" d="M 404.568 295.826206 
L 417.96 295.826206 
L 417.96 282.350475 
L 404.568 282.350475 
z
" style="fill:#7cecf4;"/>
   </g>
   <g id="patch_126">
    <path clip-path="url(#p9cac7e6796)" d="M 422.424 379.612002 
L 435.816 379.612002 
L 435.816 377.643145 
L 422.424 377.643145 
z
" style="fill:#7cecf4;"/>
   </g>
   <g id="patch_127">
    <path clip-path="url(#p9cac7e6796)" d="M 440.28 384.687277 
L 453.672 384.687277 
L 453.672 384.599772 
L 440.28 384.599772 
z
" style="fill:#7cecf4;"/>
   </g>
   <g id="patch_128">
    <path clip-path="url(#p9cac7e6796)" d="M 458.136 385.431067 
L 471.528 385.431067 
L 471.528 385.168553 
L 458.136 385.168553 
z
" style="fill:#7cecf4;"/>
   </g>
   <g id="patch_129">
    <path clip-path="url(#p9cac7e6796)" d="M 154.584 385.387315 
L 167.976 385.387315 
L 167.976 343.953817 
L 154.584 343.953817 
z
" style="fill:#f49ac2;"/>
   </g>
   <g id="patch_130">
    <path clip-path="url(#p9cac7e6796)" d="M 172.44 386.437372 
L 185.832 386.437372 
L 185.832 299.982681 
L 172.44 299.982681 
z
" style="fill:#f49ac2;"/>
   </g>
   <g id="patch_131">
    <path clip-path="url(#p9cac7e6796)" d="M 190.296 379.174478 
L 203.688 379.174478 
L 203.688 366.442537 
L 190.296 366.442537 
z
" style="fill:#f49ac2;"/>
   </g>
   <g id="patch_132">
    <path clip-path="url(#p9cac7e6796)" d="M 208.152 369.198937 
L 221.544 369.198937 
L 221.544 369.198937 
L 208.152 369.198937 
z
" style="fill:#f49ac2;"/>
   </g>
   <g id="patch_133">
    <path clip-path="url(#p9cac7e6796)" d="M 226.008 385.868591 
L 239.4 385.868591 
L 239.4 385.868591 
L 226.008 385.868591 
z
" style="fill:#f49ac2;"/>
   </g>
   <g id="patch_134">
    <path clip-path="url(#p9cac7e6796)" d="M 243.864 363.379871 
L 257.256 363.379871 
L 257.256 363.379871 
L 243.864 363.379871 
z
" style="fill:#f49ac2;"/>
   </g>
   <g id="patch_135">
    <path clip-path="url(#p9cac7e6796)" d="M 261.72 385.212305 
L 275.112 385.212305 
L 275.112 385.212305 
L 261.72 385.212305 
z
" style="fill:#f49ac2;"/>
   </g>
   <g id="patch_136">
    <path clip-path="url(#p9cac7e6796)" d="M 279.576 374.755488 
L 292.968 374.755488 
L 292.968 374.755488 
L 279.576 374.755488 
z
" style="fill:#f49ac2;"/>
   </g>
   <g id="patch_137">
    <path clip-path="url(#p9cac7e6796)" d="M 297.432 387.093657 
L 310.824 387.093657 
L 310.824 387.093657 
L 297.432 387.093657 
z
" style="fill:#f49ac2;"/>
   </g>
   <g id="patch_138">
    <path clip-path="url(#p9cac7e6796)" d="M 315.288 350.64793 
L 328.68 350.64793 
L 328.68 350.64793 
L 315.288 350.64793 
z
" style="fill:#f49ac2;"/>
   </g>
   <g id="patch_139">
    <path clip-path="url(#p9cac7e6796)" d="M 333.144 333.190733 
L 346.536 333.190733 
L 346.536 333.190733 
L 333.144 333.190733 
z
" style="fill:#f49ac2;"/>
   </g>
   <g id="patch_140">
    <path clip-path="url(#p9cac7e6796)" d="M 351 352.879301 
L 364.392 352.879301 
L 364.392 352.879301 
L 351 352.879301 
z
" style="fill:#f49ac2;"/>
   </g>
   <g id="patch_141">
    <path clip-path="url(#p9cac7e6796)" d="M 368.856 277.537714 
L 382.248 277.537714 
L 382.248 277.537714 
L 368.856 277.537714 
z
" style="fill:#f49ac2;"/>
   </g>
   <g id="patch_142">
    <path clip-path="url(#p9cac7e6796)" d="M 386.712 310.001975 
L 400.104 310.001975 
L 400.104 310.001975 
L 386.712 310.001975 
z
" style="fill:#f49ac2;"/>
   </g>
   <g id="patch_143">
    <path clip-path="url(#p9cac7e6796)" d="M 404.568 282.350475 
L 417.96 282.350475 
L 417.96 281.475427 
L 404.568 281.475427 
z
" style="fill:#f49ac2;"/>
   </g>
   <g id="patch_144">
    <path clip-path="url(#p9cac7e6796)" d="M 422.424 377.643145 
L 435.816 377.643145 
L 435.816 377.643145 
L 422.424 377.643145 
z
" style="fill:#f49ac2;"/>
   </g>
   <g id="patch_145">
    <path clip-path="url(#p9cac7e6796)" d="M 440.28 384.599772 
L 453.672 384.599772 
L 453.672 384.599772 
L 440.28 384.599772 
z
" style="fill:#f49ac2;"/>
   </g>
   <g id="patch_146">
    <path clip-path="url(#p9cac7e6796)" d="M 458.136 385.168553 
L 471.528 385.168553 
L 471.528 385.168553 
L 458.136 385.168553 
z
" style="fill:#f49ac2;"/>
   </g>
   <g id="patch_147">
    <path clip-path="url(#p9cac7e6796)" d="M 154.584 343.953817 
L 167.976 343.953817 
L 167.976 342.72875 
L 154.584 342.72875 
z
" style="fill:#5da09e;"/>
   </g>
   <g id="patch_148">
    <path clip-path="url(#p9cac7e6796)" d="M 172.44 299.982681 
L 185.832 299.982681 
L 185.832 299.982681 
L 172.44 299.982681 
z
" style="fill:#5da09e;"/>
   </g>
   <g id="patch_149">
    <path clip-path="url(#p9cac7e6796)" d="M 190.296 366.442537 
L 203.688 366.442537 
L 203.688 366.442537 
L 190.296 366.442537 
z
" style="fill:#5da09e;"/>
   </g>
   <g id="patch_150">
    <path clip-path="url(#p9cac7e6796)" d="M 208.152 369.198937 
L 221.544 369.198937 
L 221.544 369.198937 
L 208.152 369.198937 
z
" style="fill:#5da09e;"/>
   </g>
   <g id="patch_151">
    <path clip-path="url(#p9cac7e6796)" d="M 226.008 385.868591 
L 239.4 385.868591 
L 239.4 385.868591 
L 226.008 385.868591 
z
" style="fill:#5da09e;"/>
   </g>
   <g id="patch_152">
    <path clip-path="url(#p9cac7e6796)" d="M 243.864 363.379871 
L 257.256 363.379871 
L 257.256 363.379871 
L 243.864 363.379871 
z
" style="fill:#5da09e;"/>
   </g>
   <g id="patch_153">
    <path clip-path="url(#p9cac7e6796)" d="M 261.72 385.212305 
L 275.112 385.212305 
L 275.112 385.212305 
L 261.72 385.212305 
z
" style="fill:#5da09e;"/>
   </g>
   <g id="patch_154">
    <path clip-path="url(#p9cac7e6796)" d="M 279.576 374.755488 
L 292.968 374.755488 
L 292.968 374.755488 
L 279.576 374.755488 
z
" style="fill:#5da09e;"/>
   </g>
   <g id="patch_155">
    <path clip-path="url(#p9cac7e6796)" d="M 297.432 387.093657 
L 310.824 387.093657 
L 310.824 387.093657 
L 297.432 387.093657 
z
" style="fill:#5da09e;"/>
   </g>
   <g id="patch_156">
    <path clip-path="url(#p9cac7e6796)" d="M 315.288 350.64793 
L 328.68 350.64793 
L 328.68 350.64793 
L 315.288 350.64793 
z
" style="fill:#5da09e;"/>
   </g>
   <g id="patch_157">
    <path clip-path="url(#p9cac7e6796)" d="M 333.144 333.190733 
L 346.536 333.190733 
L 346.536 333.190733 
L 333.144 333.190733 
z
" style="fill:#5da09e;"/>
   </g>
   <g id="patch_158">
    <path clip-path="url(#p9cac7e6796)" d="M 351 352.879301 
L 364.392 352.879301 
L 364.392 352.879301 
L 351 352.879301 
z
" style="fill:#5da09e;"/>
   </g>
   <g id="patch_159">
    <path clip-path="url(#p9cac7e6796)" d="M 368.856 277.537714 
L 382.248 277.537714 
L 382.248 277.537714 
L 368.856 277.537714 
z
" style="fill:#5da09e;"/>
   </g>
   <g id="patch_160">
    <path clip-path="url(#p9cac7e6796)" d="M 386.712 310.001975 
L 400.104 310.001975 
L 400.104 310.001975 
L 386.712 310.001975 
z
" style="fill:#5da09e;"/>
   </g>
   <g id="patch_161">
    <path clip-path="url(#p9cac7e6796)" d="M 404.568 281.475427 
L 417.96 281.475427 
L 417.96 280.994151 
L 404.568 280.994151 
z
" style="fill:#5da09e;"/>
   </g>
   <g id="patch_162">
    <path clip-path="url(#p9cac7e6796)" d="M 422.424 377.643145 
L 435.816 377.643145 
L 435.816 377.643145 
L 422.424 377.643145 
z
" style="fill:#5da09e;"/>
   </g>
   <g id="patch_163">
    <path clip-path="url(#p9cac7e6796)" d="M 440.28 384.599772 
L 453.672 384.599772 
L 453.672 384.599772 
L 440.28 384.599772 
z
" style="fill:#5da09e;"/>
   </g>
   <g id="patch_164">
    <path clip-path="url(#p9cac7e6796)" d="M 458.136 385.168553 
L 471.528 385.168553 
L 471.528 385.168553 
L 458.136 385.168553 
z
" style="fill:#5da09e;"/>
   </g>
   <g id="patch_165">
    <path clip-path="url(#p9cac7e6796)" d="M 154.584 342.72875 
L 167.976 342.72875 
L 167.976 336.603418 
L 154.584 336.603418 
z
" style="fill:#6b440b;"/>
   </g>
   <g id="patch_166">
    <path clip-path="url(#p9cac7e6796)" d="M 172.44 299.982681 
L 185.832 299.982681 
L 185.832 244.679681 
L 172.44 244.679681 
z
" style="fill:#6b440b;"/>
   </g>
   <g id="patch_167">
    <path clip-path="url(#p9cac7e6796)" d="M 190.296 366.442537 
L 203.688 366.442537 
L 203.688 223.416027 
L 190.296 223.416027 
z
" style="fill:#6b440b;"/>
   </g>
   <g id="patch_168">
    <path clip-path="url(#p9cac7e6796)" d="M 208.152 369.198937 
L 221.544 369.198937 
L 221.544 369.198937 
L 208.152 369.198937 
z
" style="fill:#6b440b;"/>
   </g>
   <g id="patch_169">
    <path clip-path="url(#p9cac7e6796)" d="M 226.008 385.868591 
L 239.4 385.868591 
L 239.4 385.868591 
L 226.008 385.868591 
z
" style="fill:#6b440b;"/>
   </g>
   <g id="patch_170">
    <path clip-path="url(#p9cac7e6796)" d="M 243.864 363.379871 
L 257.256 363.379871 
L 257.256 363.379871 
L 243.864 363.379871 
z
" style="fill:#6b440b;"/>
   </g>
   <g id="patch_171">
    <path clip-path="url(#p9cac7e6796)" d="M 261.72 385.212305 
L 275.112 385.212305 
L 275.112 385.212305 
L 261.72 385.212305 
z
" style="fill:#6b440b;"/>
   </g>
   <g id="patch_172">
    <path clip-path="url(#p9cac7e6796)" d="M 279.576 374.755488 
L 292.968 374.755488 
L 292.968 374.755488 
L 279.576 374.755488 
z
" style="fill:#6b440b;"/>
   </g>
   <g id="patch_173">
    <path clip-path="url(#p9cac7e6796)" d="M 297.432 387.093657 
L 310.824 387.093657 
L 310.824 387.093657 
L 297.432 387.093657 
z
" style="fill:#6b440b;"/>
   </g>
   <g id="patch_174">
    <path clip-path="url(#p9cac7e6796)" d="M 315.288 350.64793 
L 328.68 350.64793 
L 328.68 350.035397 
L 315.288 350.035397 
z
" style="fill:#6b440b;"/>
   </g>
   <g id="patch_175">
    <path clip-path="url(#p9cac7e6796)" d="M 333.144 333.190733 
L 346.536 333.190733 
L 346.536 332.709457 
L 333.144 332.709457 
z
" style="fill:#6b440b;"/>
   </g>
   <g id="patch_176">
    <path clip-path="url(#p9cac7e6796)" d="M 351 352.879301 
L 364.392 352.879301 
L 364.392 352.879301 
L 351 352.879301 
z
" style="fill:#6b440b;"/>
   </g>
   <g id="patch_177">
    <path clip-path="url(#p9cac7e6796)" d="M 368.856 277.537714 
L 382.248 277.537714 
L 382.248 277.537714 
L 368.856 277.537714 
z
" style="fill:#6b440b;"/>
   </g>
   <g id="patch_178">
    <path clip-path="url(#p9cac7e6796)" d="M 386.712 310.001975 
L 400.104 310.001975 
L 400.104 309.039423 
L 386.712 309.039423 
z
" style="fill:#6b440b;"/>
   </g>
   <g id="patch_179">
    <path clip-path="url(#p9cac7e6796)" d="M 404.568 280.994151 
L 417.96 280.994151 
L 417.96 280.994151 
L 404.568 280.994151 
z
" style="fill:#6b440b;"/>
   </g>
   <g id="patch_180">
    <path clip-path="url(#p9cac7e6796)" d="M 422.424 377.643145 
L 435.816 377.643145 
L 435.816 377.643145 
L 422.424 377.643145 
z
" style="fill:#6b440b;"/>
   </g>
   <g id="patch_181">
    <path clip-path="url(#p9cac7e6796)" d="M 440.28 384.599772 
L 453.672 384.599772 
L 453.672 384.599772 
L 440.28 384.599772 
z
" style="fill:#6b440b;"/>
   </g>
   <g id="patch_182">
    <path clip-path="url(#p9cac7e6796)" d="M 458.136 385.168553 
L 471.528 385.168553 
L 471.528 385.168553 
L 458.136 385.168553 
z
" style="fill:#6b440b;"/>
   </g>
   <g id="patch_183">
    <path clip-path="url(#p9cac7e6796)" d="M 154.584 336.603418 
L 167.976 336.603418 
L 167.976 336.603418 
L 154.584 336.603418 
z
" style="fill:#808080;"/>
   </g>
   <g id="patch_184">
    <path clip-path="url(#p9cac7e6796)" d="M 172.44 244.679681 
L 185.832 244.679681 
L 185.832 244.679681 
L 172.44 244.679681 
z
" style="fill:#808080;"/>
   </g>
   <g id="patch_185">
    <path clip-path="url(#p9cac7e6796)" d="M 190.296 223.416027 
L 203.688 223.416027 
L 203.688 223.416027 
L 190.296 223.416027 
z
" style="fill:#808080;"/>
   </g>
   <g id="patch_186">
    <path clip-path="url(#p9cac7e6796)" d="M 208.152 369.198937 
L 221.544 369.198937 
L 221.544 369.198937 
L 208.152 369.198937 
z
" style="fill:#808080;"/>
   </g>
   <g id="patch_187">
    <path clip-path="url(#p9cac7e6796)" d="M 226.008 385.868591 
L 239.4 385.868591 
L 239.4 385.868591 
L 226.008 385.868591 
z
" style="fill:#808080;"/>
   </g>
   <g id="patch_188">
    <path clip-path="url(#p9cac7e6796)" d="M 243.864 363.379871 
L 257.256 363.379871 
L 257.256 362.767338 
L 243.864 362.767338 
z
" style="fill:#808080;"/>
   </g>
   <g id="patch_189">
    <path clip-path="url(#p9cac7e6796)" d="M 261.72 385.212305 
L 275.112 385.212305 
L 275.112 385.081048 
L 261.72 385.081048 
z
" style="fill:#808080;"/>
   </g>
   <g id="patch_190">
    <path clip-path="url(#p9cac7e6796)" d="M 279.576 374.755488 
L 292.968 374.755488 
L 292.968 374.667983 
L 279.576 374.667983 
z
" style="fill:#808080;"/>
   </g>
   <g id="patch_191">
    <path clip-path="url(#p9cac7e6796)" d="M 297.432 387.093657 
L 310.824 387.093657 
L 310.824 387.093657 
L 297.432 387.093657 
z
" style="fill:#808080;"/>
   </g>
   <g id="patch_192">
    <path clip-path="url(#p9cac7e6796)" d="M 315.288 350.035397 
L 328.68 350.035397 
L 328.68 349.379111 
L 315.288 349.379111 
z
" style="fill:#808080;"/>
   </g>
   <g id="patch_193">
    <path clip-path="url(#p9cac7e6796)" d="M 333.144 332.709457 
L 346.536 332.709457 
L 346.536 330.215572 
L 333.144 330.215572 
z
" style="fill:#808080;"/>
   </g>
   <g id="patch_194">
    <path clip-path="url(#p9cac7e6796)" d="M 351 352.879301 
L 364.392 352.879301 
L 364.392 350.297911 
L 351 350.297911 
z
" style="fill:#808080;"/>
   </g>
   <g id="patch_195">
    <path clip-path="url(#p9cac7e6796)" d="M 368.856 277.537714 
L 382.248 277.537714 
L 382.248 276.92518 
L 368.856 276.92518 
z
" style="fill:#808080;"/>
   </g>
   <g id="patch_196">
    <path clip-path="url(#p9cac7e6796)" d="M 386.712 309.039423 
L 400.104 309.039423 
L 400.104 308.645651 
L 386.712 308.645651 
z
" style="fill:#808080;"/>
   </g>
   <g id="patch_197">
    <path clip-path="url(#p9cac7e6796)" d="M 404.568 280.994151 
L 417.96 280.994151 
L 417.96 277.450209 
L 404.568 277.450209 
z
" style="fill:#808080;"/>
   </g>
   <g id="patch_198">
    <path clip-path="url(#p9cac7e6796)" d="M 422.424 377.643145 
L 435.816 377.643145 
L 435.816 376.899354 
L 422.424 376.899354 
z
" style="fill:#808080;"/>
   </g>
   <g id="patch_199">
    <path clip-path="url(#p9cac7e6796)" d="M 440.28 384.599772 
L 453.672 384.599772 
L 453.672 384.55602 
L 440.28 384.55602 
z
" style="fill:#808080;"/>
   </g>
   <g id="patch_200">
    <path clip-path="url(#p9cac7e6796)" d="M 458.136 385.168553 
L 471.528 385.168553 
L 471.528 385.168553 
L 458.136 385.168553 
z
" style="fill:#808080;"/>
   </g>
   <g id="patch_201">
    <path clip-path="url(#p9cac7e6796)" d="M 154.584 336.603418 
L 167.976 336.603418 
L 167.976 43.2 
L 154.584 43.2 
z
" style="fill:#02f40e;"/>
   </g>
   <g id="patch_202">
    <path clip-path="url(#p9cac7e6796)" d="M 172.44 244.679681 
L 185.832 244.679681 
L 185.832 43.2 
L 172.44 43.2 
z
" style="fill:#02f40e;"/>
   </g>
   <g id="patch_203">
    <path clip-path="url(#p9cac7e6796)" d="M 190.296 223.416027 
L 203.688 223.416027 
L 203.688 43.2 
L 190.296 43.2 
z
" style="fill:#02f40e;"/>
   </g>
   <g id="patch_204">
    <path clip-path="url(#p9cac7e6796)" d="M 208.152 369.198937 
L 221.544 369.198937 
L 221.544 43.2 
L 208.152 43.2 
z
" style="fill:#02f40e;"/>
   </g>
   <g id="patch_205">
    <path clip-path="url(#p9cac7e6796)" d="M 226.008 385.868591 
L 239.4 385.868591 
L 239.4 43.2 
L 226.008 43.2 
z
" style="fill:#02f40e;"/>
   </g>
   <g id="patch_206">
    <path clip-path="url(#p9cac7e6796)" d="M 243.864 362.767338 
L 257.256 362.767338 
L 257.256 43.2 
L 243.864 43.2 
z
" style="fill:#02f40e;"/>
   </g>
   <g id="patch_207">
    <path clip-path="url(#p9cac7e6796)" d="M 261.72 385.081048 
L 275.112 385.081048 
L 275.112 43.2 
L 261.72 43.2 
z
" style="fill:#02f40e;"/>
   </g>
   <g id="patch_208">
    <path clip-path="url(#p9cac7e6796)" d="M 279.576 374.667983 
L 292.968 374.667983 
L 292.968 43.2 
L 279.576 43.2 
z
" style="fill:#02f40e;"/>
   </g>
   <g id="patch_209">
    <path clip-path="url(#p9cac7e6796)" d="M 297.432 387.093657 
L 310.824 387.093657 
L 310.824 43.2 
L 297.432 43.2 
z
" style="fill:#02f40e;"/>
   </g>
   <g id="patch_210">
    <path clip-path="url(#p9cac7e6796)" d="M 315.288 349.379111 
L 328.68 349.379111 
L 328.68 43.2 
L 315.288 43.2 
z
" style="fill:#02f40e;"/>
   </g>
   <g id="patch_211">
    <path clip-path="url(#p9cac7e6796)" d="M 333.144 330.215572 
L 346.536 330.215572 
L 346.536 43.900038 
L 333.144 43.900038 
z
" style="fill:#02f40e;"/>
   </g>
   <g id="patch_212">
    <path clip-path="url(#p9cac7e6796)" d="M 351 350.297911 
L 364.392 350.297911 
L 364.392 43.593771 
L 351 43.593771 
z
" style="fill:#02f40e;"/>
   </g>
   <g id="patch_213">
    <path clip-path="url(#p9cac7e6796)" d="M 368.856 276.92518 
L 382.248 276.92518 
L 382.248 43.2 
L 368.856 43.2 
z
" style="fill:#02f40e;"/>
   </g>
   <g id="patch_214">
    <path clip-path="url(#p9cac7e6796)" d="M 386.712 308.645651 
L 400.104 308.645651 
L 400.104 44.206305 
L 386.712 44.206305 
z
" style="fill:#02f40e;"/>
   </g>
   <g id="patch_215">
    <path clip-path="url(#p9cac7e6796)" d="M 404.568 277.450209 
L 417.96 277.450209 
L 417.96 43.287505 
L 404.568 43.287505 
z
" style="fill:#02f40e;"/>
   </g>
   <g id="patch_216">
    <path clip-path="url(#p9cac7e6796)" d="M 422.424 376.899354 
L 435.816 376.899354 
L 435.816 43.2 
L 422.424 43.2 
z
" style="fill:#02f40e;"/>
   </g>
   <g id="patch_217">
    <path clip-path="url(#p9cac7e6796)" d="M 440.28 384.55602 
L 453.672 384.55602 
L 453.672 43.243752 
L 440.28 43.243752 
z
" style="fill:#02f40e;"/>
   </g>
   <g id="patch_218">
    <path clip-path="url(#p9cac7e6796)" d="M 458.136 385.168553 
L 471.528 385.168553 
L 471.528 43.2 
L 458.136 43.2 
z
" style="fill:#02f40e;"/>
   </g>
   <g id="patch_219">
    <path clip-path="url(#p9cac7e6796)" d="M 154.584 43.2 
L 167.976 43.2 
L 167.976 43.2 
L 154.584 43.2 
z
" style="fill:#f79679;"/>
   </g>
   <g id="patch_220">
    <path clip-path="url(#p9cac7e6796)" d="M 172.44 43.2 
L 185.832 43.2 
L 185.832 43.2 
L 172.44 43.2 
z
" style="fill:#f79679;"/>
   </g>
   <g id="patch_221">
    <path clip-path="url(#p9cac7e6796)" d="M 190.296 43.2 
L 203.688 43.2 
L 203.688 43.2 
L 190.296 43.2 
z
" style="fill:#f79679;"/>
   </g>
   <g id="patch_222">
    <path clip-path="url(#p9cac7e6796)" d="M 208.152 43.2 
L 221.544 43.2 
L 221.544 43.2 
L 208.152 43.2 
z
" style="fill:#f79679;"/>
   </g>
   <g id="patch_223">
    <path clip-path="url(#p9cac7e6796)" d="M 226.008 43.2 
L 239.4 43.2 
L 239.4 43.2 
L 226.008 43.2 
z
" style="fill:#f79679;"/>
   </g>
   <g id="patch_224">
    <path clip-path="url(#p9cac7e6796)" d="M 243.864 43.2 
L 257.256 43.2 
L 257.256 43.2 
L 243.864 43.2 
z
" style="fill:#f79679;"/>
   </g>
   <g id="patch_225">
    <path clip-path="url(#p9cac7e6796)" d="M 261.72 43.2 
L 275.112 43.2 
L 275.112 43.2 
L 261.72 43.2 
z
" style="fill:#f79679;"/>
   </g>
   <g id="patch_226">
    <path clip-path="url(#p9cac7e6796)" d="M 279.576 43.2 
L 292.968 43.2 
L 292.968 43.2 
L 279.576 43.2 
z
" style="fill:#f79679;"/>
   </g>
   <g id="patch_227">
    <path clip-path="url(#p9cac7e6796)" d="M 297.432 43.2 
L 310.824 43.2 
L 310.824 43.2 
L 297.432 43.2 
z
" style="fill:#f79679;"/>
   </g>
   <g id="patch_228">
    <path clip-path="url(#p9cac7e6796)" d="M 315.288 43.2 
L 328.68 43.2 
L 328.68 43.2 
L 315.288 43.2 
z
" style="fill:#f79679;"/>
   </g>
   <g id="patch_229">
    <path clip-path="url(#p9cac7e6796)" d="M 333.144 43.900038 
L 346.536 43.900038 
L 346.536 43.2 
L 333.144 43.2 
z
" style="fill:#f79679;"/>
   </g>
   <g id="patch_230">
    <path clip-path="url(#p9cac7e6796)" d="M 351 43.593771 
L 364.392 43.593771 
L 364.392 43.593771 
L 351 43.593771 
z
" style="fill:#f79679;"/>
   </g>
   <g id="patch_231">
    <path clip-path="url(#p9cac7e6796)" d="M 368.856 43.2 
L 382.248 43.2 
L 382.248 43.2 
L 368.856 43.2 
z
" style="fill:#f79679;"/>
   </g>
   <g id="patch_232">
    <path clip-path="url(#p9cac7e6796)" d="M 386.712 44.206305 
L 400.104 44.206305 
L 400.104 43.94379 
L 386.712 43.94379 
z
" style="fill:#f79679;"/>
   </g>
   <g id="patch_233">
    <path clip-path="url(#p9cac7e6796)" d="M 404.568 43.287505 
L 417.96 43.287505 
L 417.96 43.287505 
L 404.568 43.287505 
z
" style="fill:#f79679;"/>
   </g>
   <g id="patch_234">
    <path clip-path="url(#p9cac7e6796)" d="M 422.424 43.2 
L 435.816 43.2 
L 435.816 43.2 
L 422.424 43.2 
z
" style="fill:#f79679;"/>
   </g>
   <g id="patch_235">
    <path clip-path="url(#p9cac7e6796)" d="M 440.28 43.243752 
L 453.672 43.243752 
L 453.672 43.2 
L 440.28 43.2 
z
" style="fill:#f79679;"/>
   </g>
   <g id="patch_236">
    <path clip-path="url(#p9cac7e6796)" d="M 458.136 43.2 
L 471.528 43.2 
L 471.528 43.2 
L 458.136 43.2 
z
" style="fill:#f79679;"/>
   </g>
   <g id="patch_237">
    <path clip-path="url(#p9cac7e6796)" d="M 154.584 43.2 
L 167.976 43.2 
L 167.976 43.2 
L 154.584 43.2 
z
" style="fill:#7da9d8;"/>
   </g>
   <g id="patch_238">
    <path clip-path="url(#p9cac7e6796)" d="M 172.44 43.2 
L 185.832 43.2 
L 185.832 43.2 
L 172.44 43.2 
z
" style="fill:#7da9d8;"/>
   </g>
   <g id="patch_239">
    <path clip-path="url(#p9cac7e6796)" d="M 190.296 43.2 
L 203.688 43.2 
L 203.688 43.2 
L 190.296 43.2 
z
" style="fill:#7da9d8;"/>
   </g>
   <g id="patch_240">
    <path clip-path="url(#p9cac7e6796)" d="M 208.152 43.2 
L 221.544 43.2 
L 221.544 43.2 
L 208.152 43.2 
z
" style="fill:#7da9d8;"/>
   </g>
   <g id="patch_241">
    <path clip-path="url(#p9cac7e6796)" d="M 226.008 43.2 
L 239.4 43.2 
L 239.4 43.2 
L 226.008 43.2 
z
" style="fill:#7da9d8;"/>
   </g>
   <g id="patch_242">
    <path clip-path="url(#p9cac7e6796)" d="M 243.864 43.2 
L 257.256 43.2 
L 257.256 43.2 
L 243.864 43.2 
z
" style="fill:#7da9d8;"/>
   </g>
   <g id="patch_243">
    <path clip-path="url(#p9cac7e6796)" d="M 261.72 43.2 
L 275.112 43.2 
L 275.112 43.2 
L 261.72 43.2 
z
" style="fill:#7da9d8;"/>
   </g>
   <g id="patch_244">
    <path clip-path="url(#p9cac7e6796)" d="M 279.576 43.2 
L 292.968 43.2 
L 292.968 43.2 
L 279.576 43.2 
z
" style="fill:#7da9d8;"/>
   </g>
   <g id="patch_245">
    <path clip-path="url(#p9cac7e6796)" d="M 297.432 43.2 
L 310.824 43.2 
L 310.824 43.2 
L 297.432 43.2 
z
" style="fill:#7da9d8;"/>
   </g>
   <g id="patch_246">
    <path clip-path="url(#p9cac7e6796)" d="M 315.288 43.2 
L 328.68 43.2 
L 328.68 43.2 
L 315.288 43.2 
z
" style="fill:#7da9d8;"/>
   </g>
   <g id="patch_247">
    <path clip-path="url(#p9cac7e6796)" d="M 333.144 43.2 
L 346.536 43.2 
L 346.536 43.2 
L 333.144 43.2 
z
" style="fill:#7da9d8;"/>
   </g>
   <g id="patch_248">
    <path clip-path="url(#p9cac7e6796)" d="M 351 43.593771 
L 364.392 43.593771 
L 364.392 43.2 
L 351 43.2 
z
" style="fill:#7da9d8;"/>
   </g>
   <g id="patch_249">
    <path clip-path="url(#p9cac7e6796)" d="M 368.856 43.2 
L 382.248 43.2 
L 382.248 43.2 
L 368.856 43.2 
z
" style="fill:#7da9d8;"/>
   </g>
   <g id="patch_250">
    <path clip-path="url(#p9cac7e6796)" d="M 386.712 43.94379 
L 400.104 43.94379 
L 400.104 43.725028 
L 386.712 43.725028 
z
" style="fill:#7da9d8;"/>
   </g>
   <g id="patch_251">
    <path clip-path="url(#p9cac7e6796)" d="M 404.568 43.287505 
L 417.96 43.287505 
L 417.96 43.2 
L 404.568 43.2 
z
" style="fill:#7da9d8;"/>
   </g>
   <g id="patch_252">
    <path clip-path="url(#p9cac7e6796)" d="M 422.424 43.2 
L 435.816 43.2 
L 435.816 43.2 
L 422.424 43.2 
z
" style="fill:#7da9d8;"/>
   </g>
   <g id="patch_253">
    <path clip-path="url(#p9cac7e6796)" d="M 440.28 43.2 
L 453.672 43.2 
L 453.672 43.2 
L 440.28 43.2 
z
" style="fill:#7da9d8;"/>
   </g>
   <g id="patch_254">
    <path clip-path="url(#p9cac7e6796)" d="M 458.136 43.2 
L 471.528 43.2 
L 471.528 43.2 
L 458.136 43.2 
z
" style="fill:#7da9d8;"/>
   </g>
   <g id="patch_255">
    <path clip-path="url(#p9cac7e6796)" d="M 154.584 43.2 
L 167.976 43.2 
L 167.976 43.2 
L 154.584 43.2 
z
" style="fill:#fcc688;"/>
   </g>
   <g id="patch_256">
    <path clip-path="url(#p9cac7e6796)" d="M 172.44 43.2 
L 185.832 43.2 
L 185.832 43.2 
L 172.44 43.2 
z
" style="fill:#fcc688;"/>
   </g>
   <g id="patch_257">
    <path clip-path="url(#p9cac7e6796)" d="M 190.296 43.2 
L 203.688 43.2 
L 203.688 43.2 
L 190.296 43.2 
z
" style="fill:#fcc688;"/>
   </g>
   <g id="patch_258">
    <path clip-path="url(#p9cac7e6796)" d="M 208.152 43.2 
L 221.544 43.2 
L 221.544 43.2 
L 208.152 43.2 
z
" style="fill:#fcc688;"/>
   </g>
   <g id="patch_259">
    <path clip-path="url(#p9cac7e6796)" d="M 226.008 43.2 
L 239.4 43.2 
L 239.4 43.2 
L 226.008 43.2 
z
" style="fill:#fcc688;"/>
   </g>
   <g id="patch_260">
    <path clip-path="url(#p9cac7e6796)" d="M 243.864 43.2 
L 257.256 43.2 
L 257.256 43.2 
L 243.864 43.2 
z
" style="fill:#fcc688;"/>
   </g>
   <g id="patch_261">
    <path clip-path="url(#p9cac7e6796)" d="M 261.72 43.2 
L 275.112 43.2 
L 275.112 43.2 
L 261.72 43.2 
z
" style="fill:#fcc688;"/>
   </g>
   <g id="patch_262">
    <path clip-path="url(#p9cac7e6796)" d="M 279.576 43.2 
L 292.968 43.2 
L 292.968 43.2 
L 279.576 43.2 
z
" style="fill:#fcc688;"/>
   </g>
   <g id="patch_263">
    <path clip-path="url(#p9cac7e6796)" d="M 297.432 43.2 
L 310.824 43.2 
L 310.824 43.2 
L 297.432 43.2 
z
" style="fill:#fcc688;"/>
   </g>
   <g id="patch_264">
    <path clip-path="url(#p9cac7e6796)" d="M 315.288 43.2 
L 328.68 43.2 
L 328.68 43.2 
L 315.288 43.2 
z
" style="fill:#fcc688;"/>
   </g>
   <g id="patch_265">
    <path clip-path="url(#p9cac7e6796)" d="M 333.144 43.2 
L 346.536 43.2 
L 346.536 43.2 
L 333.144 43.2 
z
" style="fill:#fcc688;"/>
   </g>
   <g id="patch_266">
    <path clip-path="url(#p9cac7e6796)" d="M 351 43.2 
L 364.392 43.2 
L 364.392 43.2 
L 351 43.2 
z
" style="fill:#fcc688;"/>
   </g>
   <g id="patch_267">
    <path clip-path="url(#p9cac7e6796)" d="M 368.856 43.2 
L 382.248 43.2 
L 382.248 43.2 
L 368.856 43.2 
z
" style="fill:#fcc688;"/>
   </g>
   <g id="patch_268">
    <path clip-path="url(#p9cac7e6796)" d="M 386.712 43.725028 
L 400.104 43.725028 
L 400.104 43.2 
L 386.712 43.2 
z
" style="fill:#fcc688;"/>
   </g>
   <g id="patch_269">
    <path clip-path="url(#p9cac7e6796)" d="M 404.568 43.2 
L 417.96 43.2 
L 417.96 43.2 
L 404.568 43.2 
z
" style="fill:#fcc688;"/>
   </g>
   <g id="patch_270">
    <path clip-path="url(#p9cac7e6796)" d="M 422.424 43.2 
L 435.816 43.2 
L 435.816 43.2 
L 422.424 43.2 
z
" style="fill:#fcc688;"/>
   </g>
   <g id="patch_271">
    <path clip-path="url(#p9cac7e6796)" d="M 440.28 43.2 
L 453.672 43.2 
L 453.672 43.2 
L 440.28 43.2 
z
" style="fill:#fcc688;"/>
   </g>
   <g id="patch_272">
    <path clip-path="url(#p9cac7e6796)" d="M 458.136 43.2 
L 471.528 43.2 
L 471.528 43.2 
L 458.136 43.2 
z
" style="fill:#fcc688;"/>
   </g>
   <g id="patch_273">
    <path d="M 72 43.2 
L 518.4 43.2 
" style="fill:none;"/>
   </g>
   <g id="patch_274">
    <path d="M 518.4 388.8 
L 518.4 43.2 
" style="fill:none;"/>
   </g>
   <g id="patch_275">
    <path d="M 72 388.8 
L 518.4 388.8 
" style="fill:none;"/>
   </g>
   <g id="patch_276">
    <path d="M 72 388.8 
L 72 43.2 
" style="fill:none;"/>
   </g>
   <g id="matplotlib.axis_1">
    <g id="xtick_1">
     <g id="line2d_1"/>
     <g id="line2d_2"/>
     <g id="text_1">
      <!-- MN12 -->
      <defs>
       <path d="M 19.1875 8.296875 
L 53.609375 8.296875 
L 53.609375 0 
L 7.328125 0 
L 7.328125 8.296875 
Q 12.9375 14.109375 22.625 23.890625 
Q 32.328125 33.6875 34.8125 36.53125 
Q 39.546875 41.84375 41.421875 45.53125 
Q 43.3125 49.21875 43.3125 52.78125 
Q 43.3125 58.59375 39.234375 62.25 
Q 35.15625 65.921875 28.609375 65.921875 
Q 23.96875 65.921875 18.8125 64.3125 
Q 13.671875 62.703125 7.8125 59.421875 
L 7.8125 69.390625 
Q 13.765625 71.78125 18.9375 73 
Q 24.125 74.21875 28.421875 74.21875 
Q 39.75 74.21875 46.484375 68.546875 
Q 53.21875 62.890625 53.21875 53.421875 
Q 53.21875 48.921875 51.53125 44.890625 
Q 49.859375 40.875 45.40625 35.40625 
Q 44.1875 33.984375 37.640625 27.21875 
Q 31.109375 20.453125 19.1875 8.296875 
" id="BitstreamVeraSans-Roman-32"/>
       <path d="M 9.8125 72.90625 
L 23.09375 72.90625 
L 55.421875 11.921875 
L 55.421875 72.90625 
L 64.984375 72.90625 
L 64.984375 0 
L 51.703125 0 
L 19.390625 60.984375 
L 19.390625 0 
L 9.8125 0 
z
" id="BitstreamVeraSans-Roman-4e"/>
       <path d="M 9.8125 72.90625 
L 24.515625 72.90625 
L 43.109375 23.296875 
L 61.8125 72.90625 
L 76.515625 72.90625 
L 76.515625 0 
L 66.890625 0 
L 66.890625 64.015625 
L 48.09375 14.015625 
L 38.1875 14.015625 
L 19.390625 64.015625 
L 19.390625 0 
L 9.8125 0 
z
" id="BitstreamVeraSans-Roman-4d"/>
       <path d="M 12.40625 8.296875 
L 28.515625 8.296875 
L 28.515625 63.921875 
L 10.984375 60.40625 
L 10.984375 69.390625 
L 28.421875 72.90625 
L 38.28125 72.90625 
L 38.28125 8.296875 
L 54.390625 8.296875 
L 54.390625 0 
L 12.40625 0 
z
" id="BitstreamVeraSans-Roman-31"/>
      </defs>
      <g transform="translate(163.7634375 418.7509375)rotate(-90.0)scale(0.09 -0.09)">
       <use xlink:href="#BitstreamVeraSans-Roman-4d"/>
       <use x="86.279296875" xlink:href="#BitstreamVeraSans-Roman-4e"/>
       <use x="161.083984375" xlink:href="#BitstreamVeraSans-Roman-31"/>
       <use x="224.70703125" xlink:href="#BitstreamVeraSans-Roman-32"/>
      </g>
     </g>
    </g>
    <g id="xtick_2">
     <g id="line2d_3"/>
     <g id="line2d_4"/>
     <g id="text_2">
      <!-- MN13 -->
      <defs>
       <path d="M 40.578125 39.3125 
Q 47.65625 37.796875 51.625 33 
Q 55.609375 28.21875 55.609375 21.1875 
Q 55.609375 10.40625 48.1875 4.484375 
Q 40.765625 -1.421875 27.09375 -1.421875 
Q 22.515625 -1.421875 17.65625 -0.515625 
Q 12.796875 0.390625 7.625 2.203125 
L 7.625 11.71875 
Q 11.71875 9.328125 16.59375 8.109375 
Q 21.484375 6.890625 26.8125 6.890625 
Q 36.078125 6.890625 40.9375 10.546875 
Q 45.796875 14.203125 45.796875 21.1875 
Q 45.796875 27.640625 41.28125 31.265625 
Q 36.765625 34.90625 28.71875 34.90625 
L 20.21875 34.90625 
L 20.21875 43.015625 
L 29.109375 43.015625 
Q 36.375 43.015625 40.234375 45.921875 
Q 44.09375 48.828125 44.09375 54.296875 
Q 44.09375 59.90625 40.109375 62.90625 
Q 36.140625 65.921875 28.71875 65.921875 
Q 24.65625 65.921875 20.015625 65.03125 
Q 15.375 64.15625 9.8125 62.3125 
L 9.8125 71.09375 
Q 15.4375 72.65625 20.34375 73.4375 
Q 25.25 74.21875 29.59375 74.21875 
Q 40.828125 74.21875 47.359375 69.109375 
Q 53.90625 64.015625 53.90625 55.328125 
Q 53.90625 49.265625 50.4375 45.09375 
Q 46.96875 40.921875 40.578125 39.3125 
" id="BitstreamVeraSans-Roman-33"/>
      </defs>
      <g transform="translate(181.6194375 418.7509375)rotate(-90.0)scale(0.09 -0.09)">
       <use xlink:href="#BitstreamVeraSans-Roman-4d"/>
       <use x="86.279296875" xlink:href="#BitstreamVeraSans-Roman-4e"/>
       <use x="161.083984375" xlink:href="#BitstreamVeraSans-Roman-31"/>
       <use x="224.70703125" xlink:href="#BitstreamVeraSans-Roman-33"/>
      </g>
     </g>
    </g>
    <g id="xtick_3">
     <g id="line2d_5"/>
     <g id="line2d_6"/>
     <g id="text_3">
      <!-- MN15 -->
      <defs>
       <path d="M 10.796875 72.90625 
L 49.515625 72.90625 
L 49.515625 64.59375 
L 19.828125 64.59375 
L 19.828125 46.734375 
Q 21.96875 47.46875 24.109375 47.828125 
Q 26.265625 48.1875 28.421875 48.1875 
Q 40.625 48.1875 47.75 41.5 
Q 54.890625 34.8125 54.890625 23.390625 
Q 54.890625 11.625 47.5625 5.09375 
Q 40.234375 -1.421875 26.90625 -1.421875 
Q 22.3125 -1.421875 17.546875 -0.640625 
Q 12.796875 0.140625 7.71875 1.703125 
L 7.71875 11.625 
Q 12.109375 9.234375 16.796875 8.0625 
Q 21.484375 6.890625 26.703125 6.890625 
Q 35.15625 6.890625 40.078125 11.328125 
Q 45.015625 15.765625 45.015625 23.390625 
Q 45.015625 31 40.078125 35.4375 
Q 35.15625 39.890625 26.703125 39.890625 
Q 22.75 39.890625 18.8125 39.015625 
Q 14.890625 38.140625 10.796875 36.28125 
z
" id="BitstreamVeraSans-Roman-35"/>
      </defs>
      <g transform="translate(199.4754375 418.7509375)rotate(-90.0)scale(0.09 -0.09)">
       <use xlink:href="#BitstreamVeraSans-Roman-4d"/>
       <use x="86.279296875" xlink:href="#BitstreamVeraSans-Roman-4e"/>
       <use x="161.083984375" xlink:href="#BitstreamVeraSans-Roman-31"/>
       <use x="224.70703125" xlink:href="#BitstreamVeraSans-Roman-35"/>
      </g>
     </g>
    </g>
    <g id="xtick_4">
     <g id="line2d_7"/>
     <g id="line2d_8"/>
     <g id="text_4">
      <!-- MT209 -->
      <defs>
       <path d="M 31.78125 66.40625 
Q 24.171875 66.40625 20.328125 58.90625 
Q 16.5 51.421875 16.5 36.375 
Q 16.5 21.390625 20.328125 13.890625 
Q 24.171875 6.390625 31.78125 6.390625 
Q 39.453125 6.390625 43.28125 13.890625 
Q 47.125 21.390625 47.125 36.375 
Q 47.125 51.421875 43.28125 58.90625 
Q 39.453125 66.40625 31.78125 66.40625 
M 31.78125 74.21875 
Q 44.046875 74.21875 50.515625 64.515625 
Q 56.984375 54.828125 56.984375 36.375 
Q 56.984375 17.96875 50.515625 8.265625 
Q 44.046875 -1.421875 31.78125 -1.421875 
Q 19.53125 -1.421875 13.0625 8.265625 
Q 6.59375 17.96875 6.59375 36.375 
Q 6.59375 54.828125 13.0625 64.515625 
Q 19.53125 74.21875 31.78125 74.21875 
" id="BitstreamVeraSans-Roman-30"/>
       <path d="M 10.984375 1.515625 
L 10.984375 10.5 
Q 14.703125 8.734375 18.5 7.8125 
Q 22.3125 6.890625 25.984375 6.890625 
Q 35.75 6.890625 40.890625 13.453125 
Q 46.046875 20.015625 46.78125 33.40625 
Q 43.953125 29.203125 39.59375 26.953125 
Q 35.25 24.703125 29.984375 24.703125 
Q 19.046875 24.703125 12.671875 31.3125 
Q 6.296875 37.9375 6.296875 49.421875 
Q 6.296875 60.640625 12.9375 67.421875 
Q 19.578125 74.21875 30.609375 74.21875 
Q 43.265625 74.21875 49.921875 64.515625 
Q 56.59375 54.828125 56.59375 36.375 
Q 56.59375 19.140625 48.40625 8.859375 
Q 40.234375 -1.421875 26.421875 -1.421875 
Q 22.703125 -1.421875 18.890625 -0.6875 
Q 15.09375 0.046875 10.984375 1.515625 
M 30.609375 32.421875 
Q 37.25 32.421875 41.125 36.953125 
Q 45.015625 41.5 45.015625 49.421875 
Q 45.015625 57.28125 41.125 61.84375 
Q 37.25 66.40625 30.609375 66.40625 
Q 23.96875 66.40625 20.09375 61.84375 
Q 16.21875 57.28125 16.21875 49.421875 
Q 16.21875 41.5 20.09375 36.953125 
Q 23.96875 32.421875 30.609375 32.421875 
" id="BitstreamVeraSans-Roman-39"/>
       <path d="M -0.296875 72.90625 
L 61.375 72.90625 
L 61.375 64.59375 
L 35.5 64.59375 
L 35.5 0 
L 25.59375 0 
L 25.59375 64.59375 
L -0.296875 64.59375 
z
" id="BitstreamVeraSans-Roman-54"/>
      </defs>
      <g transform="translate(217.33143750000002 423.24109375)rotate(-90.0)scale(0.09 -0.09)">
       <use xlink:href="#BitstreamVeraSans-Roman-4d"/>
       <use x="86.279296875" xlink:href="#BitstreamVeraSans-Roman-54"/>
       <use x="147.36328125" xlink:href="#BitstreamVeraSans-Roman-32"/>
       <use x="210.986328125" xlink:href="#BitstreamVeraSans-Roman-30"/>
       <use x="274.609375" xlink:href="#BitstreamVeraSans-Roman-39"/>
      </g>
     </g>
    </g>
    <g id="xtick_5">
     <g id="line2d_9"/>
     <g id="line2d_10"/>
     <g id="text_5">
      <!-- MT210 -->
      <g transform="translate(235.18743750000002 423.24109375)rotate(-90.0)scale(0.09 -0.09)">
       <use xlink:href="#BitstreamVeraSans-Roman-4d"/>
       <use x="86.279296875" xlink:href="#BitstreamVeraSans-Roman-54"/>
       <use x="147.36328125" xlink:href="#BitstreamVeraSans-Roman-32"/>
       <use x="210.986328125" xlink:href="#BitstreamVeraSans-Roman-31"/>
       <use x="274.609375" xlink:href="#BitstreamVeraSans-Roman-30"/>
      </g>
     </g>
    </g>
    <g id="xtick_6">
     <g id="line2d_11"/>
     <g id="line2d_12"/>
     <g id="text_6">
      <!-- MT213 -->
      <g transform="translate(253.0434375 423.24109375)rotate(-90.0)scale(0.09 -0.09)">
       <use xlink:href="#BitstreamVeraSans-Roman-4d"/>
       <use x="86.279296875" xlink:href="#BitstreamVeraSans-Roman-54"/>
       <use x="147.36328125" xlink:href="#BitstreamVeraSans-Roman-32"/>
       <use x="210.986328125" xlink:href="#BitstreamVeraSans-Roman-31"/>
       <use x="274.609375" xlink:href="#BitstreamVeraSans-Roman-33"/>
      </g>
     </g>
    </g>
    <g id="xtick_7">
     <g id="line2d_13"/>
     <g id="line2d_14"/>
     <g id="text_7">
      <!-- SM2 -->
      <defs>
       <path d="M 53.515625 70.515625 
L 53.515625 60.890625 
Q 47.90625 63.578125 42.921875 64.890625 
Q 37.9375 66.21875 33.296875 66.21875 
Q 25.25 66.21875 20.875 63.09375 
Q 16.5 59.96875 16.5 54.203125 
Q 16.5 49.359375 19.40625 46.890625 
Q 22.3125 44.4375 30.421875 42.921875 
L 36.375 41.703125 
Q 47.40625 39.59375 52.65625 34.296875 
Q 57.90625 29 57.90625 20.125 
Q 57.90625 9.515625 50.796875 4.046875 
Q 43.703125 -1.421875 29.984375 -1.421875 
Q 24.8125 -1.421875 18.96875 -0.25 
Q 13.140625 0.921875 6.890625 3.21875 
L 6.890625 13.375 
Q 12.890625 10.015625 18.65625 8.296875 
Q 24.421875 6.59375 29.984375 6.59375 
Q 38.421875 6.59375 43.015625 9.90625 
Q 47.609375 13.234375 47.609375 19.390625 
Q 47.609375 24.75 44.3125 27.78125 
Q 41.015625 30.8125 33.5 32.328125 
L 27.484375 33.5 
Q 16.453125 35.6875 11.515625 40.375 
Q 6.59375 45.0625 6.59375 53.421875 
Q 6.59375 63.09375 13.40625 68.65625 
Q 20.21875 74.21875 32.171875 74.21875 
Q 37.3125 74.21875 42.625 73.28125 
Q 47.953125 72.359375 53.515625 70.515625 
" id="BitstreamVeraSans-Roman-53"/>
      </defs>
      <g transform="translate(270.8994375 412.00515625)rotate(-90.0)scale(0.09 -0.09)">
       <use xlink:href="#BitstreamVeraSans-Roman-53"/>
       <use x="63.4765625" xlink:href="#BitstreamVeraSans-Roman-4d"/>
       <use x="149.755859375" xlink:href="#BitstreamVeraSans-Roman-32"/>
      </g>
     </g>
    </g>
    <g id="xtick_8">
     <g id="line2d_15"/>
     <g id="line2d_16"/>
     <g id="text_8">
      <!-- SM4 -->
      <defs>
       <path d="M 37.796875 64.3125 
L 12.890625 25.390625 
L 37.796875 25.390625 
z
M 35.203125 72.90625 
L 47.609375 72.90625 
L 47.609375 25.390625 
L 58.015625 25.390625 
L 58.015625 17.1875 
L 47.609375 17.1875 
L 47.609375 0 
L 37.796875 0 
L 37.796875 17.1875 
L 4.890625 17.1875 
L 4.890625 26.703125 
z
" id="BitstreamVeraSans-Roman-34"/>
      </defs>
      <g transform="translate(288.75543749999997 412.00515625)rotate(-90.0)scale(0.09 -0.09)">
       <use xlink:href="#BitstreamVeraSans-Roman-53"/>
       <use x="63.4765625" xlink:href="#BitstreamVeraSans-Roman-4d"/>
       <use x="149.755859375" xlink:href="#BitstreamVeraSans-Roman-34"/>
      </g>
     </g>
    </g>
    <g id="xtick_9">
     <g id="line2d_17"/>
     <g id="line2d_18"/>
     <g id="text_9">
      <!-- SM5 -->
      <g transform="translate(306.61143749999997 412.00515625)rotate(-90.0)scale(0.09 -0.09)">
       <use xlink:href="#BitstreamVeraSans-Roman-53"/>
       <use x="63.4765625" xlink:href="#BitstreamVeraSans-Roman-4d"/>
       <use x="149.755859375" xlink:href="#BitstreamVeraSans-Roman-35"/>
      </g>
     </g>
    </g>
    <g id="xtick_10">
     <g id="line2d_19"/>
     <g id="line2d_20"/>
     <g id="text_10">
      <!-- T1 -->
      <g transform="translate(324.46743749999996 404.02328125)rotate(-90.0)scale(0.09 -0.09)">
       <use xlink:href="#BitstreamVeraSans-Roman-54"/>
       <use x="61.083984375" xlink:href="#BitstreamVeraSans-Roman-31"/>
      </g>
     </g>
    </g>
    <g id="xtick_11">
     <g id="line2d_21"/>
     <g id="line2d_22"/>
     <g id="text_11">
      <!-- T2 -->
      <g transform="translate(342.32343749999995 404.02328125)rotate(-90.0)scale(0.09 -0.09)">
       <use xlink:href="#BitstreamVeraSans-Roman-54"/>
       <use x="61.083984375" xlink:href="#BitstreamVeraSans-Roman-32"/>
      </g>
     </g>
    </g>
    <g id="xtick_12">
     <g id="line2d_23"/>
     <g id="line2d_24"/>
     <g id="text_12">
      <!-- T9 -->
      <g transform="translate(360.17943749999995 404.02328125)rotate(-90.0)scale(0.09 -0.09)">
       <use xlink:href="#BitstreamVeraSans-Roman-54"/>
       <use x="61.083984375" xlink:href="#BitstreamVeraSans-Roman-39"/>
      </g>
     </g>
    </g>
    <g id="xtick_13">
     <g id="line2d_25"/>
     <g id="line2d_26"/>
     <g id="text_13">
      <!-- TL1 -->
      <defs>
       <path d="M 9.8125 72.90625 
L 19.671875 72.90625 
L 19.671875 8.296875 
L 55.171875 8.296875 
L 55.171875 0 
L 9.8125 0 
z
" id="BitstreamVeraSans-Roman-4c"/>
      </defs>
      <g transform="translate(378.0354375 409.03796875)rotate(-90.0)scale(0.09 -0.09)">
       <use xlink:href="#BitstreamVeraSans-Roman-54"/>
       <use x="61.083984375" xlink:href="#BitstreamVeraSans-Roman-4c"/>
       <use x="116.796875" xlink:href="#BitstreamVeraSans-Roman-31"/>
      </g>
     </g>
    </g>
    <g id="xtick_14">
     <g id="line2d_27"/>
     <g id="line2d_28"/>
     <g id="text_14">
      <!-- TL2 -->
      <g transform="translate(395.8914375 409.03796875)rotate(-90.0)scale(0.09 -0.09)">
       <use xlink:href="#BitstreamVeraSans-Roman-54"/>
       <use x="61.083984375" xlink:href="#BitstreamVeraSans-Roman-4c"/>
       <use x="116.796875" xlink:href="#BitstreamVeraSans-Roman-32"/>
      </g>
     </g>
    </g>
    <g id="xtick_15">
     <g id="line2d_29"/>
     <g id="line2d_30"/>
     <g id="text_15">
      <!-- TL3 -->
      <g transform="translate(413.7474375 409.03796875)rotate(-90.0)scale(0.09 -0.09)">
       <use xlink:href="#BitstreamVeraSans-Roman-54"/>
       <use x="61.083984375" xlink:href="#BitstreamVeraSans-Roman-4c"/>
       <use x="116.796875" xlink:href="#BitstreamVeraSans-Roman-33"/>
      </g>
     </g>
    </g>
    <g id="xtick_16">
     <g id="line2d_31"/>
     <g id="line2d_32"/>
     <g id="text_16">
      <!-- TS4 -->
      <g transform="translate(431.6034375 409.736875)rotate(-90.0)scale(0.09 -0.09)">
       <use xlink:href="#BitstreamVeraSans-Roman-54"/>
       <use x="61.083984375" xlink:href="#BitstreamVeraSans-Roman-53"/>
       <use x="124.560546875" xlink:href="#BitstreamVeraSans-Roman-34"/>
      </g>
     </g>
    </g>
    <g id="xtick_17">
     <g id="line2d_33"/>
     <g id="line2d_34"/>
     <g id="text_17">
      <!-- TS6 -->
      <defs>
       <path d="M 33.015625 40.375 
Q 26.375 40.375 22.484375 35.828125 
Q 18.609375 31.296875 18.609375 23.390625 
Q 18.609375 15.53125 22.484375 10.953125 
Q 26.375 6.390625 33.015625 6.390625 
Q 39.65625 6.390625 43.53125 10.953125 
Q 47.40625 15.53125 47.40625 23.390625 
Q 47.40625 31.296875 43.53125 35.828125 
Q 39.65625 40.375 33.015625 40.375 
M 52.59375 71.296875 
L 52.59375 62.3125 
Q 48.875 64.0625 45.09375 64.984375 
Q 41.3125 65.921875 37.59375 65.921875 
Q 27.828125 65.921875 22.671875 59.328125 
Q 17.53125 52.734375 16.796875 39.40625 
Q 19.671875 43.65625 24.015625 45.921875 
Q 28.375 48.1875 33.59375 48.1875 
Q 44.578125 48.1875 50.953125 41.515625 
Q 57.328125 34.859375 57.328125 23.390625 
Q 57.328125 12.15625 50.6875 5.359375 
Q 44.046875 -1.421875 33.015625 -1.421875 
Q 20.359375 -1.421875 13.671875 8.265625 
Q 6.984375 17.96875 6.984375 36.375 
Q 6.984375 53.65625 15.1875 63.9375 
Q 23.390625 74.21875 37.203125 74.21875 
Q 40.921875 74.21875 44.703125 73.484375 
Q 48.484375 72.75 52.59375 71.296875 
" id="BitstreamVeraSans-Roman-36"/>
      </defs>
      <g transform="translate(449.4594375 409.736875)rotate(-90.0)scale(0.09 -0.09)">
       <use xlink:href="#BitstreamVeraSans-Roman-54"/>
       <use x="61.083984375" xlink:href="#BitstreamVeraSans-Roman-53"/>
       <use x="124.560546875" xlink:href="#BitstreamVeraSans-Roman-36"/>
      </g>
     </g>
    </g>
    <g id="xtick_18">
     <g id="line2d_35"/>
     <g id="line2d_36"/>
     <g id="text_18">
      <!-- TS8 -->
      <defs>
       <path d="M 31.78125 34.625 
Q 24.75 34.625 20.71875 30.859375 
Q 16.703125 27.09375 16.703125 20.515625 
Q 16.703125 13.921875 20.71875 10.15625 
Q 24.75 6.390625 31.78125 6.390625 
Q 38.8125 6.390625 42.859375 10.171875 
Q 46.921875 13.96875 46.921875 20.515625 
Q 46.921875 27.09375 42.890625 30.859375 
Q 38.875 34.625 31.78125 34.625 
M 21.921875 38.8125 
Q 15.578125 40.375 12.03125 44.71875 
Q 8.5 49.078125 8.5 55.328125 
Q 8.5 64.0625 14.71875 69.140625 
Q 20.953125 74.21875 31.78125 74.21875 
Q 42.671875 74.21875 48.875 69.140625 
Q 55.078125 64.0625 55.078125 55.328125 
Q 55.078125 49.078125 51.53125 44.71875 
Q 48 40.375 41.703125 38.8125 
Q 48.828125 37.15625 52.796875 32.3125 
Q 56.78125 27.484375 56.78125 20.515625 
Q 56.78125 9.90625 50.3125 4.234375 
Q 43.84375 -1.421875 31.78125 -1.421875 
Q 19.734375 -1.421875 13.25 4.234375 
Q 6.78125 9.90625 6.78125 20.515625 
Q 6.78125 27.484375 10.78125 32.3125 
Q 14.796875 37.15625 21.921875 38.8125 
M 18.3125 54.390625 
Q 18.3125 48.734375 21.84375 45.5625 
Q 25.390625 42.390625 31.78125 42.390625 
Q 38.140625 42.390625 41.71875 45.5625 
Q 45.3125 48.734375 45.3125 54.390625 
Q 45.3125 60.0625 41.71875 63.234375 
Q 38.140625 66.40625 31.78125 66.40625 
Q 25.390625 66.40625 21.84375 63.234375 
Q 18.3125 60.0625 18.3125 54.390625 
" id="BitstreamVeraSans-Roman-38"/>
      </defs>
      <g transform="translate(467.3154375 409.736875)rotate(-90.0)scale(0.09 -0.09)">
       <use xlink:href="#BitstreamVeraSans-Roman-54"/>
       <use x="61.083984375" xlink:href="#BitstreamVeraSans-Roman-53"/>
       <use x="124.560546875" xlink:href="#BitstreamVeraSans-Roman-38"/>
      </g>
     </g>
    </g>
   </g>
   <g id="matplotlib.axis_2"/>
  </g>
 </g>
 <defs>
  <clipPath id="p9cac7e6796">
   <rect height="345.6" width="446.4" x="72.0" y="43.19999999999999"/>
  </clipPath>
 </defs>
</svg>
