<?xml version="1.0" encoding="utf-8" standalone="no"?>
<!DOCTYPE svg PUBLIC "-//W3C//DTD SVG 1.1//EN"
  "http://www.w3.org/Graphics/SVG/1.1/DTD/svg11.dtd">
<!-- Created with matplotlib (http://matplotlib.org/) -->
<svg height="432pt" version="1.1" viewBox="0 0 576 432" width="576pt" xmlns="http://www.w3.org/2000/svg" xmlns:xlink="http://www.w3.org/1999/xlink">
 <defs>
  <style type="text/css">
*{stroke-linecap:butt;stroke-linejoin:round;stroke-miterlimit:100000;}
  </style>
 </defs>
 <g id="figure_1">
  <g id="patch_1">
   <path d="M 0 432 
L 576 432 
L 576 0 
L 0 0 
z
" style="fill:#ffffff;"/>
  </g>
  <g id="axes_1">
   <g id="patch_2">
    <path d="M 72 388.8 
L 518.4 388.8 
L 518.4 43.2 
L 72 43.2 
z
" style="fill:#ffffff;"/>
   </g>
   <g id="patch_3">
    <path clip-path="url(#p01af2d99ca)" d="M 154.584 388.8 
L 167.976 388.8 
L 167.976 386.97591 
L 154.584 386.97591 
z
" style="fill:#ff0000;"/>
   </g>
   <g id="patch_4">
    <path clip-path="url(#p01af2d99ca)" d="M 172.44 388.8 
L 185.832 388.8 
L 185.832 384.132395 
L 172.44 384.132395 
z
" style="fill:#ff0000;"/>
   </g>
   <g id="patch_5">
    <path clip-path="url(#p01af2d99ca)" d="M 190.296 388.8 
L 203.688 388.8 
L 203.688 377.821975 
L 190.296 377.821975 
z
" style="fill:#ff0000;"/>
   </g>
   <g id="patch_6">
    <path clip-path="url(#p01af2d99ca)" d="M 208.152 388.8 
L 221.544 388.8 
L 221.544 386.178476 
L 208.152 386.178476 
z
" style="fill:#ff0000;"/>
   </g>
   <g id="patch_7">
    <path clip-path="url(#p01af2d99ca)" d="M 226.008 388.8 
L 239.4 388.8 
L 239.4 388.713111 
L 226.008 388.713111 
z
" style="fill:#ff0000;"/>
   </g>
   <g id="patch_8">
    <path clip-path="url(#p01af2d99ca)" d="M 243.864 388.8 
L 257.256 388.8 
L 257.256 385.185603 
L 243.864 385.185603 
z
" style="fill:#ff0000;"/>
   </g>
   <g id="patch_9">
    <path clip-path="url(#p01af2d99ca)" d="M 261.72 388.8 
L 275.112 388.8 
L 275.112 388.417956 
L 261.72 388.417956 
z
" style="fill:#ff0000;"/>
   </g>
   <g id="patch_10">
    <path clip-path="url(#p01af2d99ca)" d="M 279.576 388.8 
L 292.968 388.8 
L 292.968 386.720294 
L 279.576 386.720294 
z
" style="fill:#ff0000;"/>
   </g>
   <g id="patch_11">
    <path clip-path="url(#p01af2d99ca)" d="M 297.432 388.8 
L 310.824 388.8 
L 310.824 388.710965 
L 297.432 388.710965 
z
" style="fill:#ff0000;"/>
   </g>
   <g id="patch_12">
    <path clip-path="url(#p01af2d99ca)" d="M 315.288 388.8 
L 328.68 388.8 
L 328.68 388.697071 
L 315.288 388.697071 
z
" style="fill:#ff0000;"/>
   </g>
   <g id="patch_13">
    <path clip-path="url(#p01af2d99ca)" d="M 333.144 388.8 
L 346.536 388.8 
L 346.536 388.268199 
L 333.144 388.268199 
z
" style="fill:#ff0000;"/>
   </g>
   <g id="patch_14">
    <path clip-path="url(#p01af2d99ca)" d="M 351 388.8 
L 364.392 388.8 
L 364.392 388.090013 
L 351 388.090013 
z
" style="fill:#ff0000;"/>
   </g>
   <g id="patch_15">
    <path clip-path="url(#p01af2d99ca)" d="M 368.856 388.8 
L 382.248 388.8 
L 382.248 385.394517 
L 368.856 385.394517 
z
" style="fill:#ff0000;"/>
   </g>
   <g id="patch_16">
    <path clip-path="url(#p01af2d99ca)" d="M 386.712 388.8 
L 400.104 388.8 
L 400.104 385.37805 
L 386.712 385.37805 
z
" style="fill:#ff0000;"/>
   </g>
   <g id="patch_17">
    <path clip-path="url(#p01af2d99ca)" d="M 404.568 388.8 
L 417.96 388.8 
L 417.96 382.751709 
L 404.568 382.751709 
z
" style="fill:#ff0000;"/>
   </g>
   <g id="patch_18">
    <path clip-path="url(#p01af2d99ca)" d="M 422.424 388.8 
L 435.816 388.8 
L 435.816 387.135501 
L 422.424 387.135501 
z
" style="fill:#ff0000;"/>
   </g>
   <g id="patch_19">
    <path clip-path="url(#p01af2d99ca)" d="M 440.28 388.8 
L 453.672 388.8 
L 453.672 385.888182 
L 440.28 385.888182 
z
" style="fill:#ff0000;"/>
   </g>
   <g id="patch_20">
    <path clip-path="url(#p01af2d99ca)" d="M 458.136 388.8 
L 471.528 388.8 
L 471.528 388.422236 
L 458.136 388.422236 
z
" style="fill:#ff0000;"/>
   </g>
   <g id="patch_21">
    <path clip-path="url(#p01af2d99ca)" d="M 154.584 386.97591 
L 167.976 386.97591 
L 167.976 386.97591 
L 154.584 386.97591 
z
" style="fill:#0000ff;"/>
   </g>
   <g id="patch_22">
    <path clip-path="url(#p01af2d99ca)" d="M 172.44 384.132395 
L 185.832 384.132395 
L 185.832 384.132395 
L 172.44 384.132395 
z
" style="fill:#0000ff;"/>
   </g>
   <g id="patch_23">
    <path clip-path="url(#p01af2d99ca)" d="M 190.296 377.821975 
L 203.688 377.821975 
L 203.688 377.821975 
L 190.296 377.821975 
z
" style="fill:#0000ff;"/>
   </g>
   <g id="patch_24">
    <path clip-path="url(#p01af2d99ca)" d="M 208.152 386.178476 
L 221.544 386.178476 
L 221.544 386.178476 
L 208.152 386.178476 
z
" style="fill:#0000ff;"/>
   </g>
   <g id="patch_25">
    <path clip-path="url(#p01af2d99ca)" d="M 226.008 388.713111 
L 239.4 388.713111 
L 239.4 388.678356 
L 226.008 388.678356 
z
" style="fill:#0000ff;"/>
   </g>
   <g id="patch_26">
    <path clip-path="url(#p01af2d99ca)" d="M 243.864 385.185603 
L 257.256 385.185603 
L 257.256 385.155024 
L 243.864 385.155024 
z
" style="fill:#0000ff;"/>
   </g>
   <g id="patch_27">
    <path clip-path="url(#p01af2d99ca)" d="M 261.72 388.417956 
L 275.112 388.417956 
L 275.112 388.417956 
L 261.72 388.417956 
z
" style="fill:#0000ff;"/>
   </g>
   <g id="patch_28">
    <path clip-path="url(#p01af2d99ca)" d="M 279.576 386.720294 
L 292.968 386.720294 
L 292.968 386.705544 
L 279.576 386.705544 
z
" style="fill:#0000ff;"/>
   </g>
   <g id="patch_29">
    <path clip-path="url(#p01af2d99ca)" d="M 297.432 388.710965 
L 310.824 388.710965 
L 310.824 388.666448 
L 297.432 388.666448 
z
" style="fill:#0000ff;"/>
   </g>
   <g id="patch_30">
    <path clip-path="url(#p01af2d99ca)" d="M 315.288 388.697071 
L 328.68 388.697071 
L 328.68 388.353976 
L 315.288 388.353976 
z
" style="fill:#0000ff;"/>
   </g>
   <g id="patch_31">
    <path clip-path="url(#p01af2d99ca)" d="M 333.144 388.268199 
L 346.536 388.268199 
L 346.536 387.754124 
L 333.144 387.754124 
z
" style="fill:#0000ff;"/>
   </g>
   <g id="patch_32">
    <path clip-path="url(#p01af2d99ca)" d="M 351 388.090013 
L 364.392 388.090013 
L 364.392 387.642174 
L 351 387.642174 
z
" style="fill:#0000ff;"/>
   </g>
   <g id="patch_33">
    <path clip-path="url(#p01af2d99ca)" d="M 368.856 385.394517 
L 382.248 385.394517 
L 382.248 384.490693 
L 368.856 384.490693 
z
" style="fill:#0000ff;"/>
   </g>
   <g id="patch_34">
    <path clip-path="url(#p01af2d99ca)" d="M 386.712 385.37805 
L 400.104 385.37805 
L 400.104 385.36111 
L 386.712 385.36111 
z
" style="fill:#0000ff;"/>
   </g>
   <g id="patch_35">
    <path clip-path="url(#p01af2d99ca)" d="M 404.568 382.751709 
L 417.96 382.751709 
L 417.96 381.472263 
L 404.568 381.472263 
z
" style="fill:#0000ff;"/>
   </g>
   <g id="patch_36">
    <path clip-path="url(#p01af2d99ca)" d="M 422.424 387.135501 
L 435.816 387.135501 
L 435.816 387.035631 
L 422.424 387.035631 
z
" style="fill:#0000ff;"/>
   </g>
   <g id="patch_37">
    <path clip-path="url(#p01af2d99ca)" d="M 440.28 385.888182 
L 453.672 385.888182 
L 453.672 385.791764 
L 440.28 385.791764 
z
" style="fill:#0000ff;"/>
   </g>
   <g id="patch_38">
    <path clip-path="url(#p01af2d99ca)" d="M 458.136 388.422236 
L 471.528 388.422236 
L 471.528 388.233354 
L 458.136 388.233354 
z
" style="fill:#0000ff;"/>
   </g>
   <g id="patch_39">
    <path clip-path="url(#p01af2d99ca)" d="M 154.584 386.97591 
L 167.976 386.97591 
L 167.976 386.97591 
L 154.584 386.97591 
z
" style="fill:#f27304;"/>
   </g>
   <g id="patch_40">
    <path clip-path="url(#p01af2d99ca)" d="M 172.44 384.132395 
L 185.832 384.132395 
L 185.832 384.132395 
L 172.44 384.132395 
z
" style="fill:#f27304;"/>
   </g>
   <g id="patch_41">
    <path clip-path="url(#p01af2d99ca)" d="M 190.296 377.821975 
L 203.688 377.821975 
L 203.688 377.787344 
L 190.296 377.787344 
z
" style="fill:#f27304;"/>
   </g>
   <g id="patch_42">
    <path clip-path="url(#p01af2d99ca)" d="M 208.152 386.178476 
L 221.544 386.178476 
L 221.544 386.178476 
L 208.152 386.178476 
z
" style="fill:#f27304;"/>
   </g>
   <g id="patch_43">
    <path clip-path="url(#p01af2d99ca)" d="M 226.008 388.678356 
L 239.4 388.678356 
L 239.4 388.678356 
L 226.008 388.678356 
z
" style="fill:#f27304;"/>
   </g>
   <g id="patch_44">
    <path clip-path="url(#p01af2d99ca)" d="M 243.864 385.155024 
L 257.256 385.155024 
L 257.256 385.155024 
L 243.864 385.155024 
z
" style="fill:#f27304;"/>
   </g>
   <g id="patch_45">
    <path clip-path="url(#p01af2d99ca)" d="M 261.72 388.417956 
L 275.112 388.417956 
L 275.112 388.384735 
L 261.72 388.384735 
z
" style="fill:#f27304;"/>
   </g>
   <g id="patch_46">
    <path clip-path="url(#p01af2d99ca)" d="M 279.576 386.705544 
L 292.968 386.705544 
L 292.968 386.661295 
L 279.576 386.661295 
z
" style="fill:#f27304;"/>
   </g>
   <g id="patch_47">
    <path clip-path="url(#p01af2d99ca)" d="M 297.432 388.666448 
L 310.824 388.666448 
L 310.824 388.655318 
L 297.432 388.655318 
z
" style="fill:#f27304;"/>
   </g>
   <g id="patch_48">
    <path clip-path="url(#p01af2d99ca)" d="M 315.288 388.353976 
L 328.68 388.353976 
L 328.68 388.336821 
L 315.288 388.336821 
z
" style="fill:#f27304;"/>
   </g>
   <g id="patch_49">
    <path clip-path="url(#p01af2d99ca)" d="M 333.144 387.754124 
L 346.536 387.754124 
L 346.536 387.045055 
L 333.144 387.045055 
z
" style="fill:#f27304;"/>
   </g>
   <g id="patch_50">
    <path clip-path="url(#p01af2d99ca)" d="M 351 387.642174 
L 364.392 387.642174 
L 364.392 387.554791 
L 351 387.554791 
z
" style="fill:#f27304;"/>
   </g>
   <g id="patch_51">
    <path clip-path="url(#p01af2d99ca)" d="M 368.856 384.490693 
L 382.248 384.490693 
L 382.248 383.748265 
L 368.856 383.748265 
z
" style="fill:#f27304;"/>
   </g>
   <g id="patch_52">
    <path clip-path="url(#p01af2d99ca)" d="M 386.712 385.36111 
L 400.104 385.36111 
L 400.104 385.073124 
L 386.712 385.073124 
z
" style="fill:#f27304;"/>
   </g>
   <g id="patch_53">
    <path clip-path="url(#p01af2d99ca)" d="M 404.568 381.472263 
L 417.96 381.472263 
L 417.96 381.439031 
L 404.568 381.439031 
z
" style="fill:#f27304;"/>
   </g>
   <g id="patch_54">
    <path clip-path="url(#p01af2d99ca)" d="M 422.424 387.035631 
L 435.816 387.035631 
L 435.816 386.686086 
L 422.424 386.686086 
z
" style="fill:#f27304;"/>
   </g>
   <g id="patch_55">
    <path clip-path="url(#p01af2d99ca)" d="M 440.28 385.791764 
L 453.672 385.791764 
L 453.672 385.71463 
L 440.28 385.71463 
z
" style="fill:#f27304;"/>
   </g>
   <g id="patch_56">
    <path clip-path="url(#p01af2d99ca)" d="M 458.136 388.233354 
L 471.528 388.233354 
L 471.528 388.233354 
L 458.136 388.233354 
z
" style="fill:#f27304;"/>
   </g>
   <g id="patch_57">
    <path clip-path="url(#p01af2d99ca)" d="M 154.584 386.97591 
L 167.976 386.97591 
L 167.976 386.959623 
L 154.584 386.959623 
z
" style="fill:#008000;"/>
   </g>
   <g id="patch_58">
    <path clip-path="url(#p01af2d99ca)" d="M 172.44 384.132395 
L 185.832 384.132395 
L 185.832 384.110481 
L 172.44 384.110481 
z
" style="fill:#008000;"/>
   </g>
   <g id="patch_59">
    <path clip-path="url(#p01af2d99ca)" d="M 190.296 377.787344 
L 203.688 377.787344 
L 203.688 377.770029 
L 190.296 377.770029 
z
" style="fill:#008000;"/>
   </g>
   <g id="patch_60">
    <path clip-path="url(#p01af2d99ca)" d="M 208.152 386.178476 
L 221.544 386.178476 
L 221.544 386.178476 
L 208.152 386.178476 
z
" style="fill:#008000;"/>
   </g>
   <g id="patch_61">
    <path clip-path="url(#p01af2d99ca)" d="M 226.008 388.678356 
L 239.4 388.678356 
L 239.4 388.660978 
L 226.008 388.660978 
z
" style="fill:#008000;"/>
   </g>
   <g id="patch_62">
    <path clip-path="url(#p01af2d99ca)" d="M 243.864 385.155024 
L 257.256 385.155024 
L 257.256 385.155024 
L 243.864 385.155024 
z
" style="fill:#008000;"/>
   </g>
   <g id="patch_63">
    <path clip-path="url(#p01af2d99ca)" d="M 261.72 388.384735 
L 275.112 388.384735 
L 275.112 388.37643 
L 261.72 388.37643 
z
" style="fill:#008000;"/>
   </g>
   <g id="patch_64">
    <path clip-path="url(#p01af2d99ca)" d="M 279.576 386.661295 
L 292.968 386.661295 
L 292.968 386.027058 
L 279.576 386.027058 
z
" style="fill:#008000;"/>
   </g>
   <g id="patch_65">
    <path clip-path="url(#p01af2d99ca)" d="M 297.432 388.655318 
L 310.824 388.655318 
L 310.824 388.655318 
L 297.432 388.655318 
z
" style="fill:#008000;"/>
   </g>
   <g id="patch_66">
    <path clip-path="url(#p01af2d99ca)" d="M 315.288 388.336821 
L 328.68 388.336821 
L 328.68 387.221761 
L 315.288 387.221761 
z
" style="fill:#008000;"/>
   </g>
   <g id="patch_67">
    <path clip-path="url(#p01af2d99ca)" d="M 333.144 387.045055 
L 346.536 387.045055 
L 346.536 385.02421 
L 333.144 385.02421 
z
" style="fill:#008000;"/>
   </g>
   <g id="patch_68">
    <path clip-path="url(#p01af2d99ca)" d="M 351 387.554791 
L 364.392 387.554791 
L 364.392 384.550999 
L 351 384.550999 
z
" style="fill:#008000;"/>
   </g>
   <g id="patch_69">
    <path clip-path="url(#p01af2d99ca)" d="M 368.856 383.748265 
L 382.248 383.748265 
L 382.248 380.116826 
L 368.856 380.116826 
z
" style="fill:#008000;"/>
   </g>
   <g id="patch_70">
    <path clip-path="url(#p01af2d99ca)" d="M 386.712 385.073124 
L 400.104 385.073124 
L 400.104 383.057223 
L 386.712 383.057223 
z
" style="fill:#008000;"/>
   </g>
   <g id="patch_71">
    <path clip-path="url(#p01af2d99ca)" d="M 404.568 381.439031 
L 417.96 381.439031 
L 417.96 378.48135 
L 404.568 378.48135 
z
" style="fill:#008000;"/>
   </g>
   <g id="patch_72">
    <path clip-path="url(#p01af2d99ca)" d="M 422.424 386.686086 
L 435.816 386.686086 
L 435.816 386.519636 
L 422.424 386.519636 
z
" style="fill:#008000;"/>
   </g>
   <g id="patch_73">
    <path clip-path="url(#p01af2d99ca)" d="M 440.28 385.71463 
L 453.672 385.71463 
L 453.672 385.656779 
L 440.28 385.656779 
z
" style="fill:#008000;"/>
   </g>
   <g id="patch_74">
    <path clip-path="url(#p01af2d99ca)" d="M 458.136 388.233354 
L 471.528 388.233354 
L 471.528 388.233354 
L 458.136 388.233354 
z
" style="fill:#008000;"/>
   </g>
   <g id="patch_75">
    <path clip-path="url(#p01af2d99ca)" d="M 154.584 386.959623 
L 167.976 386.959623 
L 167.976 384.288633 
L 154.584 384.288633 
z
" style="fill:#91278d;"/>
   </g>
   <g id="patch_76">
    <path clip-path="url(#p01af2d99ca)" d="M 172.44 384.110481 
L 185.832 384.110481 
L 185.832 383.365418 
L 172.44 383.365418 
z
" style="fill:#91278d;"/>
   </g>
   <g id="patch_77">
    <path clip-path="url(#p01af2d99ca)" d="M 190.296 377.770029 
L 203.688 377.770029 
L 203.688 375.103442 
L 190.296 375.103442 
z
" style="fill:#91278d;"/>
   </g>
   <g id="patch_78">
    <path clip-path="url(#p01af2d99ca)" d="M 208.152 386.178476 
L 221.544 386.178476 
L 221.544 374.648861 
L 208.152 374.648861 
z
" style="fill:#91278d;"/>
   </g>
   <g id="patch_79">
    <path clip-path="url(#p01af2d99ca)" d="M 226.008 388.660978 
L 239.4 388.660978 
L 239.4 386.957959 
L 226.008 386.957959 
z
" style="fill:#91278d;"/>
   </g>
   <g id="patch_80">
    <path clip-path="url(#p01af2d99ca)" d="M 243.864 385.155024 
L 257.256 385.155024 
L 257.256 371.675951 
L 243.864 371.675951 
z
" style="fill:#91278d;"/>
   </g>
   <g id="patch_81">
    <path clip-path="url(#p01af2d99ca)" d="M 261.72 388.37643 
L 275.112 388.37643 
L 275.112 386.55757 
L 261.72 386.55757 
z
" style="fill:#91278d;"/>
   </g>
   <g id="patch_82">
    <path clip-path="url(#p01af2d99ca)" d="M 279.576 386.027058 
L 292.968 386.027058 
L 292.968 375.584277 
L 279.576 375.584277 
z
" style="fill:#91278d;"/>
   </g>
   <g id="patch_83">
    <path clip-path="url(#p01af2d99ca)" d="M 297.432 388.655318 
L 310.824 388.655318 
L 310.824 388.377084 
L 297.432 388.377084 
z
" style="fill:#91278d;"/>
   </g>
   <g id="patch_84">
    <path clip-path="url(#p01af2d99ca)" d="M 315.288 387.221761 
L 328.68 387.221761 
L 328.68 355.262424 
L 315.288 355.262424 
z
" style="fill:#91278d;"/>
   </g>
   <g id="patch_85">
    <path clip-path="url(#p01af2d99ca)" d="M 333.144 385.02421 
L 346.536 385.02421 
L 346.536 337.321625 
L 333.144 337.321625 
z
" style="fill:#91278d;"/>
   </g>
   <g id="patch_86">
    <path clip-path="url(#p01af2d99ca)" d="M 351 384.550999 
L 364.392 384.550999 
L 364.392 346.987206 
L 351 346.987206 
z
" style="fill:#91278d;"/>
   </g>
   <g id="patch_87">
    <path clip-path="url(#p01af2d99ca)" d="M 368.856 380.116826 
L 382.248 380.116826 
L 382.248 290.557474 
L 368.856 290.557474 
z
" style="fill:#91278d;"/>
   </g>
   <g id="patch_88">
    <path clip-path="url(#p01af2d99ca)" d="M 386.712 383.057223 
L 400.104 383.057223 
L 400.104 322.139738 
L 386.712 322.139738 
z
" style="fill:#91278d;"/>
   </g>
   <g id="patch_89">
    <path clip-path="url(#p01af2d99ca)" d="M 404.568 378.48135 
L 417.96 378.48135 
L 417.96 287.906534 
L 404.568 287.906534 
z
" style="fill:#91278d;"/>
   </g>
   <g id="patch_90">
    <path clip-path="url(#p01af2d99ca)" d="M 422.424 386.519636 
L 435.816 386.519636 
L 435.816 379.079324 
L 422.424 379.079324 
z
" style="fill:#91278d;"/>
   </g>
   <g id="patch_91">
    <path clip-path="url(#p01af2d99ca)" d="M 440.28 385.656779 
L 453.672 385.656779 
L 453.672 384.364781 
L 440.28 384.364781 
z
" style="fill:#91278d;"/>
   </g>
   <g id="patch_92">
    <path clip-path="url(#p01af2d99ca)" d="M 458.136 388.233354 
L 471.528 388.233354 
L 471.528 386.236602 
L 458.136 386.236602 
z
" style="fill:#91278d;"/>
   </g>
   <g id="patch_93">
    <path clip-path="url(#p01af2d99ca)" d="M 154.584 384.288633 
L 167.976 384.288633 
L 167.976 384.25606 
L 154.584 384.25606 
z
" style="fill:#ffff00;"/>
   </g>
   <g id="patch_94">
    <path clip-path="url(#p01af2d99ca)" d="M 172.44 383.365418 
L 185.832 383.365418 
L 185.832 383.365418 
L 172.44 383.365418 
z
" style="fill:#ffff00;"/>
   </g>
   <g id="patch_95">
    <path clip-path="url(#p01af2d99ca)" d="M 190.296 375.103442 
L 203.688 375.103442 
L 203.688 375.103442 
L 190.296 375.103442 
z
" style="fill:#ffff00;"/>
   </g>
   <g id="patch_96">
    <path clip-path="url(#p01af2d99ca)" d="M 208.152 374.648861 
L 221.544 374.648861 
L 221.544 373.308405 
L 208.152 373.308405 
z
" style="fill:#ffff00;"/>
   </g>
   <g id="patch_97">
    <path clip-path="url(#p01af2d99ca)" d="M 226.008 386.957959 
L 239.4 386.957959 
L 239.4 386.888448 
L 226.008 386.888448 
z
" style="fill:#ffff00;"/>
   </g>
   <g id="patch_98">
    <path clip-path="url(#p01af2d99ca)" d="M 243.864 371.675951 
L 257.256 371.675951 
L 257.256 371.639257 
L 243.864 371.639257 
z
" style="fill:#ffff00;"/>
   </g>
   <g id="patch_99">
    <path clip-path="url(#p01af2d99ca)" d="M 261.72 386.55757 
L 275.112 386.55757 
L 275.112 386.383159 
L 261.72 386.383159 
z
" style="fill:#ffff00;"/>
   </g>
   <g id="patch_100">
    <path clip-path="url(#p01af2d99ca)" d="M 279.576 375.584277 
L 292.968 375.584277 
L 292.968 375.082788 
L 279.576 375.082788 
z
" style="fill:#ffff00;"/>
   </g>
   <g id="patch_101">
    <path clip-path="url(#p01af2d99ca)" d="M 297.432 388.377084 
L 310.824 388.377084 
L 310.824 388.232403 
L 297.432 388.232403 
z
" style="fill:#ffff00;"/>
   </g>
   <g id="patch_102">
    <path clip-path="url(#p01af2d99ca)" d="M 315.288 355.262424 
L 328.68 355.262424 
L 328.68 354.25887 
L 315.288 354.25887 
z
" style="fill:#ffff00;"/>
   </g>
   <g id="patch_103">
    <path clip-path="url(#p01af2d99ca)" d="M 333.144 337.321625 
L 346.536 337.321625 
L 346.536 337.002544 
L 333.144 337.002544 
z
" style="fill:#ffff00;"/>
   </g>
   <g id="patch_104">
    <path clip-path="url(#p01af2d99ca)" d="M 351 346.987206 
L 364.392 346.987206 
L 364.392 342.792819 
L 351 342.792819 
z
" style="fill:#ffff00;"/>
   </g>
   <g id="patch_105">
    <path clip-path="url(#p01af2d99ca)" d="M 368.856 290.557474 
L 382.248 290.557474 
L 382.248 284.198422 
L 368.856 284.198422 
z
" style="fill:#ffff00;"/>
   </g>
   <g id="patch_106">
    <path clip-path="url(#p01af2d99ca)" d="M 386.712 322.139738 
L 400.104 322.139738 
L 400.104 314.973972 
L 386.712 314.973972 
z
" style="fill:#ffff00;"/>
   </g>
   <g id="patch_107">
    <path clip-path="url(#p01af2d99ca)" d="M 404.568 287.906534 
L 417.96 287.906534 
L 417.96 279.448897 
L 404.568 279.448897 
z
" style="fill:#ffff00;"/>
   </g>
   <g id="patch_108">
    <path clip-path="url(#p01af2d99ca)" d="M 422.424 379.079324 
L 435.816 379.079324 
L 435.816 378.846294 
L 422.424 378.846294 
z
" style="fill:#ffff00;"/>
   </g>
   <g id="patch_109">
    <path clip-path="url(#p01af2d99ca)" d="M 440.28 384.364781 
L 453.672 384.364781 
L 453.672 384.364781 
L 440.28 384.364781 
z
" style="fill:#ffff00;"/>
   </g>
   <g id="patch_110">
    <path clip-path="url(#p01af2d99ca)" d="M 458.136 386.236602 
L 471.528 386.236602 
L 471.528 386.209619 
L 458.136 386.209619 
z
" style="fill:#ffff00;"/>
   </g>
   <g id="patch_111">
    <path clip-path="url(#p01af2d99ca)" d="M 154.584 384.25606 
L 167.976 384.25606 
L 167.976 384.239774 
L 154.584 384.239774 
z
" style="fill:#7cecf4;"/>
   </g>
   <g id="patch_112">
    <path clip-path="url(#p01af2d99ca)" d="M 172.44 383.365418 
L 185.832 383.365418 
L 185.832 383.299677 
L 172.44 383.299677 
z
" style="fill:#7cecf4;"/>
   </g>
   <g id="patch_113">
    <path clip-path="url(#p01af2d99ca)" d="M 190.296 375.103442 
L 203.688 375.103442 
L 203.688 375.016865 
L 190.296 375.016865 
z
" style="fill:#7cecf4;"/>
   </g>
   <g id="patch_114">
    <path clip-path="url(#p01af2d99ca)" d="M 208.152 373.308405 
L 221.544 373.308405 
L 221.544 370.050589 
L 208.152 370.050589 
z
" style="fill:#7cecf4;"/>
   </g>
   <g id="patch_115">
    <path clip-path="url(#p01af2d99ca)" d="M 226.008 386.888448 
L 239.4 386.888448 
L 239.4 386.141204 
L 226.008 386.141204 
z
" style="fill:#7cecf4;"/>
   </g>
   <g id="patch_116">
    <path clip-path="url(#p01af2d99ca)" d="M 243.864 371.639257 
L 257.256 371.639257 
L 257.256 370.783054 
L 243.864 370.783054 
z
" style="fill:#7cecf4;"/>
   </g>
   <g id="patch_117">
    <path clip-path="url(#p01af2d99ca)" d="M 261.72 386.383159 
L 275.112 386.383159 
L 275.112 386.233663 
L 261.72 386.233663 
z
" style="fill:#7cecf4;"/>
   </g>
   <g id="patch_118">
    <path clip-path="url(#p01af2d99ca)" d="M 279.576 375.082788 
L 292.968 375.082788 
L 292.968 372.472093 
L 279.576 372.472093 
z
" style="fill:#7cecf4;"/>
   </g>
   <g id="patch_119">
    <path clip-path="url(#p01af2d99ca)" d="M 297.432 388.232403 
L 310.824 388.232403 
L 310.824 388.187885 
L 297.432 388.187885 
z
" style="fill:#7cecf4;"/>
   </g>
   <g id="patch_120">
    <path clip-path="url(#p01af2d99ca)" d="M 315.288 354.25887 
L 328.68 354.25887 
L 328.68 347.199682 
L 315.288 347.199682 
z
" style="fill:#7cecf4;"/>
   </g>
   <g id="patch_121">
    <path clip-path="url(#p01af2d99ca)" d="M 333.144 337.002544 
L 346.536 337.002544 
L 346.536 328.653262 
L 333.144 328.653262 
z
" style="fill:#7cecf4;"/>
   </g>
   <g id="patch_122">
    <path clip-path="url(#p01af2d99ca)" d="M 351 342.792819 
L 364.392 342.792819 
L 364.392 334.327585 
L 351 334.327585 
z
" style="fill:#7cecf4;"/>
   </g>
   <g id="patch_123">
    <path clip-path="url(#p01af2d99ca)" d="M 368.856 284.198422 
L 382.248 284.198422 
L 382.248 258.907467 
L 368.856 258.907467 
z
" style="fill:#7cecf4;"/>
   </g>
   <g id="patch_124">
    <path clip-path="url(#p01af2d99ca)" d="M 386.712 314.973972 
L 400.104 314.973972 
L 400.104 299.897064 
L 386.712 299.897064 
z
" style="fill:#7cecf4;"/>
   </g>
   <g id="patch_125">
    <path clip-path="url(#p01af2d99ca)" d="M 404.568 279.448897 
L 417.96 279.448897 
L 417.96 261.004933 
L 404.568 261.004933 
z
" style="fill:#7cecf4;"/>
   </g>
   <g id="patch_126">
    <path clip-path="url(#p01af2d99ca)" d="M 422.424 378.846294 
L 435.816 378.846294 
L 435.816 375.250975 
L 422.424 375.250975 
z
" style="fill:#7cecf4;"/>
   </g>
   <g id="patch_127">
    <path clip-path="url(#p01af2d99ca)" d="M 440.28 384.364781 
L 453.672 384.364781 
L 453.672 383.998393 
L 440.28 383.998393 
z
" style="fill:#7cecf4;"/>
   </g>
   <g id="patch_128">
    <path clip-path="url(#p01af2d99ca)" d="M 458.136 386.209619 
L 471.528 386.209619 
L 471.528 385.912804 
L 458.136 385.912804 
z
" style="fill:#7cecf4;"/>
   </g>
   <g id="patch_129">
    <path clip-path="url(#p01af2d99ca)" d="M 154.584 384.239774 
L 167.976 384.239774 
L 167.976 340.7059 
L 154.584 340.7059 
z
" style="fill:#f49ac2;"/>
   </g>
   <g id="patch_130">
    <path clip-path="url(#p01af2d99ca)" d="M 172.44 383.299677 
L 185.832 383.299677 
L 185.832 289.443561 
L 172.44 289.443561 
z
" style="fill:#f49ac2;"/>
   </g>
   <g id="patch_131">
    <path clip-path="url(#p01af2d99ca)" d="M 190.296 375.016865 
L 203.688 375.016865 
L 203.688 361.337622 
L 190.296 361.337622 
z
" style="fill:#f49ac2;"/>
   </g>
   <g id="patch_132">
    <path clip-path="url(#p01af2d99ca)" d="M 208.152 370.050589 
L 221.544 370.050589 
L 221.544 370.050589 
L 208.152 370.050589 
z
" style="fill:#f49ac2;"/>
   </g>
   <g id="patch_133">
    <path clip-path="url(#p01af2d99ca)" d="M 226.008 386.141204 
L 239.4 386.141204 
L 239.4 386.141204 
L 226.008 386.141204 
z
" style="fill:#f49ac2;"/>
   </g>
   <g id="patch_134">
    <path clip-path="url(#p01af2d99ca)" d="M 243.864 370.783054 
L 257.256 370.783054 
L 257.256 370.783054 
L 243.864 370.783054 
z
" style="fill:#f49ac2;"/>
   </g>
   <g id="patch_135">
    <path clip-path="url(#p01af2d99ca)" d="M 261.72 386.233663 
L 275.112 386.233663 
L 275.112 386.208747 
L 261.72 386.208747 
z
" style="fill:#f49ac2;"/>
   </g>
   <g id="patch_136">
    <path clip-path="url(#p01af2d99ca)" d="M 279.576 372.472093 
L 292.968 372.472093 
L 292.968 372.472093 
L 279.576 372.472093 
z
" style="fill:#f49ac2;"/>
   </g>
   <g id="patch_137">
    <path clip-path="url(#p01af2d99ca)" d="M 297.432 388.187885 
L 310.824 388.187885 
L 310.824 388.176756 
L 297.432 388.176756 
z
" style="fill:#f49ac2;"/>
   </g>
   <g id="patch_138">
    <path clip-path="url(#p01af2d99ca)" d="M 315.288 347.199682 
L 328.68 347.199682 
L 328.68 347.199682 
L 315.288 347.199682 
z
" style="fill:#f49ac2;"/>
   </g>
   <g id="patch_139">
    <path clip-path="url(#p01af2d99ca)" d="M 333.144 328.653262 
L 346.536 328.653262 
L 346.536 328.653262 
L 333.144 328.653262 
z
" style="fill:#f49ac2;"/>
   </g>
   <g id="patch_140">
    <path clip-path="url(#p01af2d99ca)" d="M 351 334.327585 
L 364.392 334.327585 
L 364.392 334.327585 
L 351 334.327585 
z
" style="fill:#f49ac2;"/>
   </g>
   <g id="patch_141">
    <path clip-path="url(#p01af2d99ca)" d="M 368.856 258.907467 
L 382.248 258.907467 
L 382.248 258.907467 
L 368.856 258.907467 
z
" style="fill:#f49ac2;"/>
   </g>
   <g id="patch_142">
    <path clip-path="url(#p01af2d99ca)" d="M 386.712 299.897064 
L 400.104 299.897064 
L 400.104 299.863183 
L 386.712 299.863183 
z
" style="fill:#f49ac2;"/>
   </g>
   <g id="patch_143">
    <path clip-path="url(#p01af2d99ca)" d="M 404.568 261.004933 
L 417.96 261.004933 
L 417.96 260.921852 
L 404.568 260.921852 
z
" style="fill:#f49ac2;"/>
   </g>
   <g id="patch_144">
    <path clip-path="url(#p01af2d99ca)" d="M 422.424 375.250975 
L 435.816 375.250975 
L 435.816 375.250975 
L 422.424 375.250975 
z
" style="fill:#f49ac2;"/>
   </g>
   <g id="patch_145">
    <path clip-path="url(#p01af2d99ca)" d="M 440.28 383.998393 
L 453.672 383.998393 
L 453.672 383.998393 
L 440.28 383.998393 
z
" style="fill:#f49ac2;"/>
   </g>
   <g id="patch_146">
    <path clip-path="url(#p01af2d99ca)" d="M 458.136 385.912804 
L 471.528 385.912804 
L 471.528 385.912804 
L 458.136 385.912804 
z
" style="fill:#f49ac2;"/>
   </g>
   <g id="patch_147">
    <path clip-path="url(#p01af2d99ca)" d="M 154.584 340.7059 
L 167.976 340.7059 
L 167.976 340.33131 
L 154.584 340.33131 
z
" style="fill:#5da09e;"/>
   </g>
   <g id="patch_148">
    <path clip-path="url(#p01af2d99ca)" d="M 172.44 289.443561 
L 185.832 289.443561 
L 185.832 289.443561 
L 172.44 289.443561 
z
" style="fill:#5da09e;"/>
   </g>
   <g id="patch_149">
    <path clip-path="url(#p01af2d99ca)" d="M 190.296 361.337622 
L 203.688 361.337622 
L 203.688 361.320307 
L 190.296 361.320307 
z
" style="fill:#5da09e;"/>
   </g>
   <g id="patch_150">
    <path clip-path="url(#p01af2d99ca)" d="M 208.152 370.050589 
L 221.544 370.050589 
L 221.544 370.050589 
L 208.152 370.050589 
z
" style="fill:#5da09e;"/>
   </g>
   <g id="patch_151">
    <path clip-path="url(#p01af2d99ca)" d="M 226.008 386.141204 
L 239.4 386.141204 
L 239.4 386.141204 
L 226.008 386.141204 
z
" style="fill:#5da09e;"/>
   </g>
   <g id="patch_152">
    <path clip-path="url(#p01af2d99ca)" d="M 243.864 370.783054 
L 257.256 370.783054 
L 257.256 370.783054 
L 243.864 370.783054 
z
" style="fill:#5da09e;"/>
   </g>
   <g id="patch_153">
    <path clip-path="url(#p01af2d99ca)" d="M 261.72 386.208747 
L 275.112 386.208747 
L 275.112 386.208747 
L 261.72 386.208747 
z
" style="fill:#5da09e;"/>
   </g>
   <g id="patch_154">
    <path clip-path="url(#p01af2d99ca)" d="M 279.576 372.472093 
L 292.968 372.472093 
L 292.968 372.472093 
L 279.576 372.472093 
z
" style="fill:#5da09e;"/>
   </g>
   <g id="patch_155">
    <path clip-path="url(#p01af2d99ca)" d="M 297.432 388.176756 
L 310.824 388.176756 
L 310.824 388.176756 
L 297.432 388.176756 
z
" style="fill:#5da09e;"/>
   </g>
   <g id="patch_156">
    <path clip-path="url(#p01af2d99ca)" d="M 315.288 347.199682 
L 328.68 347.199682 
L 328.68 347.199682 
L 315.288 347.199682 
z
" style="fill:#5da09e;"/>
   </g>
   <g id="patch_157">
    <path clip-path="url(#p01af2d99ca)" d="M 333.144 328.653262 
L 346.536 328.653262 
L 346.536 328.653262 
L 333.144 328.653262 
z
" style="fill:#5da09e;"/>
   </g>
   <g id="patch_158">
    <path clip-path="url(#p01af2d99ca)" d="M 351 334.327585 
L 364.392 334.327585 
L 364.392 334.327585 
L 351 334.327585 
z
" style="fill:#5da09e;"/>
   </g>
   <g id="patch_159">
    <path clip-path="url(#p01af2d99ca)" d="M 368.856 258.907467 
L 382.248 258.907467 
L 382.248 258.907467 
L 368.856 258.907467 
z
" style="fill:#5da09e;"/>
   </g>
   <g id="patch_160">
    <path clip-path="url(#p01af2d99ca)" d="M 386.712 299.863183 
L 400.104 299.863183 
L 400.104 299.863183 
L 386.712 299.863183 
z
" style="fill:#5da09e;"/>
   </g>
   <g id="patch_161">
    <path clip-path="url(#p01af2d99ca)" d="M 404.568 260.921852 
L 417.96 260.921852 
L 417.96 260.672609 
L 404.568 260.672609 
z
" style="fill:#5da09e;"/>
   </g>
   <g id="patch_162">
    <path clip-path="url(#p01af2d99ca)" d="M 422.424 375.250975 
L 435.816 375.250975 
L 435.816 375.250975 
L 422.424 375.250975 
z
" style="fill:#5da09e;"/>
   </g>
   <g id="patch_163">
    <path clip-path="url(#p01af2d99ca)" d="M 440.28 383.998393 
L 453.672 383.998393 
L 453.672 383.998393 
L 440.28 383.998393 
z
" style="fill:#5da09e;"/>
   </g>
   <g id="patch_164">
    <path clip-path="url(#p01af2d99ca)" d="M 458.136 385.912804 
L 471.528 385.912804 
L 471.528 385.912804 
L 458.136 385.912804 
z
" style="fill:#5da09e;"/>
   </g>
   <g id="patch_165">
    <path clip-path="url(#p01af2d99ca)" d="M 154.584 340.33131 
L 167.976 340.33131 
L 167.976 340.33131 
L 154.584 340.33131 
z
" style="fill:#6b440b;"/>
   </g>
   <g id="patch_166">
    <path clip-path="url(#p01af2d99ca)" d="M 172.44 289.443561 
L 185.832 289.443561 
L 185.832 289.443561 
L 172.44 289.443561 
z
" style="fill:#6b440b;"/>
   </g>
   <g id="patch_167">
    <path clip-path="url(#p01af2d99ca)" d="M 190.296 361.320307 
L 203.688 361.320307 
L 203.688 361.320307 
L 190.296 361.320307 
z
" style="fill:#6b440b;"/>
   </g>
   <g id="patch_168">
    <path clip-path="url(#p01af2d99ca)" d="M 208.152 370.050589 
L 221.544 370.050589 
L 221.544 370.050589 
L 208.152 370.050589 
z
" style="fill:#6b440b;"/>
   </g>
   <g id="patch_169">
    <path clip-path="url(#p01af2d99ca)" d="M 226.008 386.141204 
L 239.4 386.141204 
L 239.4 386.141204 
L 226.008 386.141204 
z
" style="fill:#6b440b;"/>
   </g>
   <g id="patch_170">
    <path clip-path="url(#p01af2d99ca)" d="M 243.864 370.783054 
L 257.256 370.783054 
L 257.256 370.783054 
L 243.864 370.783054 
z
" style="fill:#6b440b;"/>
   </g>
   <g id="patch_171">
    <path clip-path="url(#p01af2d99ca)" d="M 261.72 386.208747 
L 275.112 386.208747 
L 275.112 386.208747 
L 261.72 386.208747 
z
" style="fill:#6b440b;"/>
   </g>
   <g id="patch_172">
    <path clip-path="url(#p01af2d99ca)" d="M 279.576 372.472093 
L 292.968 372.472093 
L 292.968 372.029602 
L 279.576 372.029602 
z
" style="fill:#6b440b;"/>
   </g>
   <g id="patch_173">
    <path clip-path="url(#p01af2d99ca)" d="M 297.432 388.176756 
L 310.824 388.176756 
L 310.824 388.176756 
L 297.432 388.176756 
z
" style="fill:#6b440b;"/>
   </g>
   <g id="patch_174">
    <path clip-path="url(#p01af2d99ca)" d="M 315.288 347.199682 
L 328.68 347.199682 
L 328.68 347.199682 
L 315.288 347.199682 
z
" style="fill:#6b440b;"/>
   </g>
   <g id="patch_175">
    <path clip-path="url(#p01af2d99ca)" d="M 333.144 328.653262 
L 346.536 328.653262 
L 346.536 328.653262 
L 333.144 328.653262 
z
" style="fill:#6b440b;"/>
   </g>
   <g id="patch_176">
    <path clip-path="url(#p01af2d99ca)" d="M 351 334.327585 
L 364.392 334.327585 
L 364.392 334.327585 
L 351 334.327585 
z
" style="fill:#6b440b;"/>
   </g>
   <g id="patch_177">
    <path clip-path="url(#p01af2d99ca)" d="M 368.856 258.907467 
L 382.248 258.907467 
L 382.248 258.907467 
L 368.856 258.907467 
z
" style="fill:#6b440b;"/>
   </g>
   <g id="patch_178">
    <path clip-path="url(#p01af2d99ca)" d="M 386.712 299.863183 
L 400.104 299.863183 
L 400.104 299.863183 
L 386.712 299.863183 
z
" style="fill:#6b440b;"/>
   </g>
   <g id="patch_179">
    <path clip-path="url(#p01af2d99ca)" d="M 404.568 260.672609 
L 417.96 260.672609 
L 417.96 260.672609 
L 404.568 260.672609 
z
" style="fill:#6b440b;"/>
   </g>
   <g id="patch_180">
    <path clip-path="url(#p01af2d99ca)" d="M 422.424 375.250975 
L 435.816 375.250975 
L 435.816 375.250975 
L 422.424 375.250975 
z
" style="fill:#6b440b;"/>
   </g>
   <g id="patch_181">
    <path clip-path="url(#p01af2d99ca)" d="M 440.28 383.998393 
L 453.672 383.998393 
L 453.672 383.998393 
L 440.28 383.998393 
z
" style="fill:#6b440b;"/>
   </g>
   <g id="patch_182">
    <path clip-path="url(#p01af2d99ca)" d="M 458.136 385.912804 
L 471.528 385.912804 
L 471.528 385.912804 
L 458.136 385.912804 
z
" style="fill:#6b440b;"/>
   </g>
   <g id="patch_183">
    <path clip-path="url(#p01af2d99ca)" d="M 154.584 340.33131 
L 167.976 340.33131 
L 167.976 333.702696 
L 154.584 333.702696 
z
" style="fill:#808080;"/>
   </g>
   <g id="patch_184">
    <path clip-path="url(#p01af2d99ca)" d="M 172.44 289.443561 
L 185.832 289.443561 
L 185.832 237.815028 
L 172.44 237.815028 
z
" style="fill:#808080;"/>
   </g>
   <g id="patch_185">
    <path clip-path="url(#p01af2d99ca)" d="M 190.296 361.320307 
L 203.688 361.320307 
L 203.688 213.220863 
L 190.296 213.220863 
z
" style="fill:#808080;"/>
   </g>
   <g id="patch_186">
    <path clip-path="url(#p01af2d99ca)" d="M 208.152 370.050589 
L 221.544 370.050589 
L 221.544 370.050589 
L 208.152 370.050589 
z
" style="fill:#808080;"/>
   </g>
   <g id="patch_187">
    <path clip-path="url(#p01af2d99ca)" d="M 226.008 386.141204 
L 239.4 386.141204 
L 239.4 386.123827 
L 226.008 386.123827 
z
" style="fill:#808080;"/>
   </g>
   <g id="patch_188">
    <path clip-path="url(#p01af2d99ca)" d="M 243.864 370.783054 
L 257.256 370.783054 
L 257.256 370.770823 
L 243.864 370.770823 
z
" style="fill:#808080;"/>
   </g>
   <g id="patch_189">
    <path clip-path="url(#p01af2d99ca)" d="M 261.72 386.208747 
L 275.112 386.208747 
L 275.112 386.175526 
L 261.72 386.175526 
z
" style="fill:#808080;"/>
   </g>
   <g id="patch_190">
    <path clip-path="url(#p01af2d99ca)" d="M 279.576 372.029602 
L 292.968 372.029602 
L 292.968 372.029602 
L 279.576 372.029602 
z
" style="fill:#808080;"/>
   </g>
   <g id="patch_191">
    <path clip-path="url(#p01af2d99ca)" d="M 297.432 388.176756 
L 310.824 388.176756 
L 310.824 388.154497 
L 297.432 388.154497 
z
" style="fill:#808080;"/>
   </g>
   <g id="patch_192">
    <path clip-path="url(#p01af2d99ca)" d="M 315.288 347.199682 
L 328.68 347.199682 
L 328.68 346.659307 
L 315.288 346.659307 
z
" style="fill:#808080;"/>
   </g>
   <g id="patch_193">
    <path clip-path="url(#p01af2d99ca)" d="M 333.144 328.653262 
L 346.536 328.653262 
L 346.536 328.086007 
L 333.144 328.086007 
z
" style="fill:#808080;"/>
   </g>
   <g id="patch_194">
    <path clip-path="url(#p01af2d99ca)" d="M 351 334.327585 
L 364.392 334.327585 
L 364.392 334.327585 
L 351 334.327585 
z
" style="fill:#808080;"/>
   </g>
   <g id="patch_195">
    <path clip-path="url(#p01af2d99ca)" d="M 368.856 258.907467 
L 382.248 258.907467 
L 382.248 258.907467 
L 368.856 258.907467 
z
" style="fill:#808080;"/>
   </g>
   <g id="patch_196">
    <path clip-path="url(#p01af2d99ca)" d="M 386.712 299.863183 
L 400.104 299.863183 
L 400.104 298.74512 
L 386.712 298.74512 
z
" style="fill:#808080;"/>
   </g>
   <g id="patch_197">
    <path clip-path="url(#p01af2d99ca)" d="M 404.568 260.672609 
L 417.96 260.672609 
L 417.96 260.639377 
L 404.568 260.639377 
z
" style="fill:#808080;"/>
   </g>
   <g id="patch_198">
    <path clip-path="url(#p01af2d99ca)" d="M 422.424 375.250975 
L 435.816 375.250975 
L 435.816 375.250975 
L 422.424 375.250975 
z
" style="fill:#808080;"/>
   </g>
   <g id="patch_199">
    <path clip-path="url(#p01af2d99ca)" d="M 440.28 383.998393 
L 453.672 383.998393 
L 453.672 383.998393 
L 440.28 383.998393 
z
" style="fill:#808080;"/>
   </g>
   <g id="patch_200">
    <path clip-path="url(#p01af2d99ca)" d="M 458.136 385.912804 
L 471.528 385.912804 
L 471.528 385.912804 
L 458.136 385.912804 
z
" style="fill:#808080;"/>
   </g>
   <g id="patch_201">
    <path clip-path="url(#p01af2d99ca)" d="M 154.584 333.702696 
L 167.976 333.702696 
L 167.976 333.686409 
L 154.584 333.686409 
z
" style="fill:#02f40e;"/>
   </g>
   <g id="patch_202">
    <path clip-path="url(#p01af2d99ca)" d="M 172.44 237.815028 
L 185.832 237.815028 
L 185.832 237.815028 
L 172.44 237.815028 
z
" style="fill:#02f40e;"/>
   </g>
   <g id="patch_203">
    <path clip-path="url(#p01af2d99ca)" d="M 190.296 213.220863 
L 203.688 213.220863 
L 203.688 213.186232 
L 190.296 213.186232 
z
" style="fill:#02f40e;"/>
   </g>
   <g id="patch_204">
    <path clip-path="url(#p01af2d99ca)" d="M 208.152 370.050589 
L 221.544 370.050589 
L 221.544 369.779104 
L 208.152 369.779104 
z
" style="fill:#02f40e;"/>
   </g>
   <g id="patch_205">
    <path clip-path="url(#p01af2d99ca)" d="M 226.008 386.123827 
L 239.4 386.123827 
L 239.4 386.123827 
L 226.008 386.123827 
z
" style="fill:#02f40e;"/>
   </g>
   <g id="patch_206">
    <path clip-path="url(#p01af2d99ca)" d="M 243.864 370.770823 
L 257.256 370.770823 
L 257.256 370.110324 
L 243.864 370.110324 
z
" style="fill:#02f40e;"/>
   </g>
   <g id="patch_207">
    <path clip-path="url(#p01af2d99ca)" d="M 261.72 386.175526 
L 275.112 386.175526 
L 275.112 386.100779 
L 261.72 386.100779 
z
" style="fill:#02f40e;"/>
   </g>
   <g id="patch_208">
    <path clip-path="url(#p01af2d99ca)" d="M 279.576 372.029602 
L 292.968 372.029602 
L 292.968 371.896855 
L 279.576 371.896855 
z
" style="fill:#02f40e;"/>
   </g>
   <g id="patch_209">
    <path clip-path="url(#p01af2d99ca)" d="M 297.432 388.154497 
L 310.824 388.154497 
L 310.824 388.154497 
L 297.432 388.154497 
z
" style="fill:#02f40e;"/>
   </g>
   <g id="patch_210">
    <path clip-path="url(#p01af2d99ca)" d="M 315.288 346.659307 
L 328.68 346.659307 
L 328.68 345.930229 
L 315.288 345.930229 
z
" style="fill:#02f40e;"/>
   </g>
   <g id="patch_211">
    <path clip-path="url(#p01af2d99ca)" d="M 333.144 328.086007 
L 346.536 328.086007 
L 346.536 325.37382 
L 333.144 325.37382 
z
" style="fill:#02f40e;"/>
   </g>
   <g id="patch_212">
    <path clip-path="url(#p01af2d99ca)" d="M 351 334.327585 
L 364.392 334.327585 
L 364.392 331.946397 
L 351 331.946397 
z
" style="fill:#02f40e;"/>
   </g>
   <g id="patch_213">
    <path clip-path="url(#p01af2d99ca)" d="M 368.856 258.907467 
L 382.248 258.907467 
L 382.248 258.1489 
L 368.856 258.1489 
z
" style="fill:#02f40e;"/>
   </g>
   <g id="patch_214">
    <path clip-path="url(#p01af2d99ca)" d="M 386.712 298.74512 
L 400.104 298.74512 
L 400.104 298.186089 
L 386.712 298.186089 
z
" style="fill:#02f40e;"/>
   </g>
   <g id="patch_215">
    <path clip-path="url(#p01af2d99ca)" d="M 404.568 260.639377 
L 417.96 260.639377 
L 417.96 257.149978 
L 404.568 257.149978 
z
" style="fill:#02f40e;"/>
   </g>
   <g id="patch_216">
    <path clip-path="url(#p01af2d99ca)" d="M 422.424 375.250975 
L 435.816 375.250975 
L 435.816 374.485306 
L 422.424 374.485306 
z
" style="fill:#02f40e;"/>
   </g>
   <g id="patch_217">
    <path clip-path="url(#p01af2d99ca)" d="M 440.28 383.998393 
L 453.672 383.998393 
L 453.672 383.959826 
L 440.28 383.959826 
z
" style="fill:#02f40e;"/>
   </g>
   <g id="patch_218">
    <path clip-path="url(#p01af2d99ca)" d="M 458.136 385.912804 
L 471.528 385.912804 
L 471.528 385.912804 
L 458.136 385.912804 
z
" style="fill:#02f40e;"/>
   </g>
   <g id="patch_219">
    <path clip-path="url(#p01af2d99ca)" d="M 154.584 333.686409 
L 167.976 333.686409 
L 167.976 43.2 
L 154.584 43.2 
z
" style="fill:#f79679;"/>
   </g>
   <g id="patch_220">
    <path clip-path="url(#p01af2d99ca)" d="M 172.44 237.815028 
L 185.832 237.815028 
L 185.832 43.2 
L 172.44 43.2 
z
" style="fill:#f79679;"/>
   </g>
   <g id="patch_221">
    <path clip-path="url(#p01af2d99ca)" d="M 190.296 213.186232 
L 203.688 213.186232 
L 203.688 43.2 
L 190.296 43.2 
z
" style="fill:#f79679;"/>
   </g>
   <g id="patch_222">
    <path clip-path="url(#p01af2d99ca)" d="M 208.152 369.779104 
L 221.544 369.779104 
L 221.544 43.2 
L 208.152 43.2 
z
" style="fill:#f79679;"/>
   </g>
   <g id="patch_223">
    <path clip-path="url(#p01af2d99ca)" d="M 226.008 386.123827 
L 239.4 386.123827 
L 239.4 43.2 
L 226.008 43.2 
z
" style="fill:#f79679;"/>
   </g>
   <g id="patch_224">
    <path clip-path="url(#p01af2d99ca)" d="M 243.864 370.110324 
L 257.256 370.110324 
L 257.256 43.2 
L 243.864 43.2 
z
" style="fill:#f79679;"/>
   </g>
   <g id="patch_225">
    <path clip-path="url(#p01af2d99ca)" d="M 261.72 386.100779 
L 275.112 386.100779 
L 275.112 43.2 
L 261.72 43.2 
z
" style="fill:#f79679;"/>
   </g>
   <g id="patch_226">
    <path clip-path="url(#p01af2d99ca)" d="M 279.576 371.896855 
L 292.968 371.896855 
L 292.968 43.2 
L 279.576 43.2 
z
" style="fill:#f79679;"/>
   </g>
   <g id="patch_227">
    <path clip-path="url(#p01af2d99ca)" d="M 297.432 388.154497 
L 310.824 388.154497 
L 310.824 43.2 
L 297.432 43.2 
z
" style="fill:#f79679;"/>
   </g>
   <g id="patch_228">
    <path clip-path="url(#p01af2d99ca)" d="M 315.288 345.930229 
L 328.68 345.930229 
L 328.68 43.448744 
L 315.288 43.448744 
z
" style="fill:#f79679;"/>
   </g>
   <g id="patch_229">
    <path clip-path="url(#p01af2d99ca)" d="M 333.144 325.37382 
L 346.536 325.37382 
L 346.536 44.104062 
L 333.144 44.104062 
z
" style="fill:#f79679;"/>
   </g>
   <g id="patch_230">
    <path clip-path="url(#p01af2d99ca)" d="M 351 331.946397 
L 364.392 331.946397 
L 364.392 43.669684 
L 351 43.669684 
z
" style="fill:#f79679;"/>
   </g>
   <g id="patch_231">
    <path clip-path="url(#p01af2d99ca)" d="M 368.856 258.1489 
L 382.248 258.1489 
L 382.248 43.2 
L 368.856 43.2 
z
" style="fill:#f79679;"/>
   </g>
   <g id="patch_232">
    <path clip-path="url(#p01af2d99ca)" d="M 386.712 298.186089 
L 400.104 298.186089 
L 400.104 44.318063 
L 386.712 44.318063 
z
" style="fill:#f79679;"/>
   </g>
   <g id="patch_233">
    <path clip-path="url(#p01af2d99ca)" d="M 404.568 257.149978 
L 417.96 257.149978 
L 417.96 43.266465 
L 404.568 43.266465 
z
" style="fill:#f79679;"/>
   </g>
   <g id="patch_234">
    <path clip-path="url(#p01af2d99ca)" d="M 422.424 374.485306 
L 435.816 374.485306 
L 435.816 43.2 
L 422.424 43.2 
z
" style="fill:#f79679;"/>
   </g>
   <g id="patch_235">
    <path clip-path="url(#p01af2d99ca)" d="M 440.28 383.959826 
L 453.672 383.959826 
L 453.672 43.277134 
L 440.28 43.277134 
z
" style="fill:#f79679;"/>
   </g>
   <g id="patch_236">
    <path clip-path="url(#p01af2d99ca)" d="M 458.136 385.912804 
L 471.528 385.912804 
L 471.528 43.2 
L 458.136 43.2 
z
" style="fill:#f79679;"/>
   </g>
   <g id="patch_237">
    <path clip-path="url(#p01af2d99ca)" d="M 154.584 43.2 
L 167.976 43.2 
L 167.976 43.2 
L 154.584 43.2 
z
" style="fill:#7da9d8;"/>
   </g>
   <g id="patch_238">
    <path clip-path="url(#p01af2d99ca)" d="M 172.44 43.2 
L 185.832 43.2 
L 185.832 43.2 
L 172.44 43.2 
z
" style="fill:#7da9d8;"/>
   </g>
   <g id="patch_239">
    <path clip-path="url(#p01af2d99ca)" d="M 190.296 43.2 
L 203.688 43.2 
L 203.688 43.2 
L 190.296 43.2 
z
" style="fill:#7da9d8;"/>
   </g>
   <g id="patch_240">
    <path clip-path="url(#p01af2d99ca)" d="M 208.152 43.2 
L 221.544 43.2 
L 221.544 43.2 
L 208.152 43.2 
z
" style="fill:#7da9d8;"/>
   </g>
   <g id="patch_241">
    <path clip-path="url(#p01af2d99ca)" d="M 226.008 43.2 
L 239.4 43.2 
L 239.4 43.2 
L 226.008 43.2 
z
" style="fill:#7da9d8;"/>
   </g>
   <g id="patch_242">
    <path clip-path="url(#p01af2d99ca)" d="M 243.864 43.2 
L 257.256 43.2 
L 257.256 43.2 
L 243.864 43.2 
z
" style="fill:#7da9d8;"/>
   </g>
   <g id="patch_243">
    <path clip-path="url(#p01af2d99ca)" d="M 261.72 43.2 
L 275.112 43.2 
L 275.112 43.2 
L 261.72 43.2 
z
" style="fill:#7da9d8;"/>
   </g>
   <g id="patch_244">
    <path clip-path="url(#p01af2d99ca)" d="M 279.576 43.2 
L 292.968 43.2 
L 292.968 43.2 
L 279.576 43.2 
z
" style="fill:#7da9d8;"/>
   </g>
   <g id="patch_245">
    <path clip-path="url(#p01af2d99ca)" d="M 297.432 43.2 
L 310.824 43.2 
L 310.824 43.2 
L 297.432 43.2 
z
" style="fill:#7da9d8;"/>
   </g>
   <g id="patch_246">
    <path clip-path="url(#p01af2d99ca)" d="M 315.288 43.448744 
L 328.68 43.448744 
L 328.68 43.440167 
L 315.288 43.440167 
z
" style="fill:#7da9d8;"/>
   </g>
   <g id="patch_247">
    <path clip-path="url(#p01af2d99ca)" d="M 333.144 44.104062 
L 346.536 44.104062 
L 346.536 43.2 
L 333.144 43.2 
z
" style="fill:#7da9d8;"/>
   </g>
   <g id="patch_248">
    <path clip-path="url(#p01af2d99ca)" d="M 351 43.669684 
L 364.392 43.669684 
L 364.392 43.669684 
L 351 43.669684 
z
" style="fill:#7da9d8;"/>
   </g>
   <g id="patch_249">
    <path clip-path="url(#p01af2d99ca)" d="M 368.856 43.2 
L 382.248 43.2 
L 382.248 43.2 
L 368.856 43.2 
z
" style="fill:#7da9d8;"/>
   </g>
   <g id="patch_250">
    <path clip-path="url(#p01af2d99ca)" d="M 386.712 44.318063 
L 400.104 44.318063 
L 400.104 44.148659 
L 386.712 44.148659 
z
" style="fill:#7da9d8;"/>
   </g>
   <g id="patch_251">
    <path clip-path="url(#p01af2d99ca)" d="M 404.568 43.266465 
L 417.96 43.266465 
L 417.96 43.266465 
L 404.568 43.266465 
z
" style="fill:#7da9d8;"/>
   </g>
   <g id="patch_252">
    <path clip-path="url(#p01af2d99ca)" d="M 422.424 43.2 
L 435.816 43.2 
L 435.816 43.2 
L 422.424 43.2 
z
" style="fill:#7da9d8;"/>
   </g>
   <g id="patch_253">
    <path clip-path="url(#p01af2d99ca)" d="M 440.28 43.277134 
L 453.672 43.277134 
L 453.672 43.2 
L 440.28 43.2 
z
" style="fill:#7da9d8;"/>
   </g>
   <g id="patch_254">
    <path clip-path="url(#p01af2d99ca)" d="M 458.136 43.2 
L 471.528 43.2 
L 471.528 43.2 
L 458.136 43.2 
z
" style="fill:#7da9d8;"/>
   </g>
   <g id="patch_255">
    <path clip-path="url(#p01af2d99ca)" d="M 154.584 43.2 
L 167.976 43.2 
L 167.976 43.2 
L 154.584 43.2 
z
" style="fill:#fcc688;"/>
   </g>
   <g id="patch_256">
    <path clip-path="url(#p01af2d99ca)" d="M 172.44 43.2 
L 185.832 43.2 
L 185.832 43.2 
L 172.44 43.2 
z
" style="fill:#fcc688;"/>
   </g>
   <g id="patch_257">
    <path clip-path="url(#p01af2d99ca)" d="M 190.296 43.2 
L 203.688 43.2 
L 203.688 43.2 
L 190.296 43.2 
z
" style="fill:#fcc688;"/>
   </g>
   <g id="patch_258">
    <path clip-path="url(#p01af2d99ca)" d="M 208.152 43.2 
L 221.544 43.2 
L 221.544 43.2 
L 208.152 43.2 
z
" style="fill:#fcc688;"/>
   </g>
   <g id="patch_259">
    <path clip-path="url(#p01af2d99ca)" d="M 226.008 43.2 
L 239.4 43.2 
L 239.4 43.2 
L 226.008 43.2 
z
" style="fill:#fcc688;"/>
   </g>
   <g id="patch_260">
    <path clip-path="url(#p01af2d99ca)" d="M 243.864 43.2 
L 257.256 43.2 
L 257.256 43.2 
L 243.864 43.2 
z
" style="fill:#fcc688;"/>
   </g>
   <g id="patch_261">
    <path clip-path="url(#p01af2d99ca)" d="M 261.72 43.2 
L 275.112 43.2 
L 275.112 43.2 
L 261.72 43.2 
z
" style="fill:#fcc688;"/>
   </g>
   <g id="patch_262">
    <path clip-path="url(#p01af2d99ca)" d="M 279.576 43.2 
L 292.968 43.2 
L 292.968 43.2 
L 279.576 43.2 
z
" style="fill:#fcc688;"/>
   </g>
   <g id="patch_263">
    <path clip-path="url(#p01af2d99ca)" d="M 297.432 43.2 
L 310.824 43.2 
L 310.824 43.2 
L 297.432 43.2 
z
" style="fill:#fcc688;"/>
   </g>
   <g id="patch_264">
    <path clip-path="url(#p01af2d99ca)" d="M 315.288 43.440167 
L 328.68 43.440167 
L 328.68 43.440167 
L 315.288 43.440167 
z
" style="fill:#fcc688;"/>
   </g>
   <g id="patch_265">
    <path clip-path="url(#p01af2d99ca)" d="M 333.144 43.2 
L 346.536 43.2 
L 346.536 43.2 
L 333.144 43.2 
z
" style="fill:#fcc688;"/>
   </g>
   <g id="patch_266">
    <path clip-path="url(#p01af2d99ca)" d="M 351 43.669684 
L 364.392 43.669684 
L 364.392 43.210923 
L 351 43.210923 
z
" style="fill:#fcc688;"/>
   </g>
   <g id="patch_267">
    <path clip-path="url(#p01af2d99ca)" d="M 368.856 43.2 
L 382.248 43.2 
L 382.248 43.2 
L 368.856 43.2 
z
" style="fill:#fcc688;"/>
   </g>
   <g id="patch_268">
    <path clip-path="url(#p01af2d99ca)" d="M 386.712 44.148659 
L 400.104 44.148659 
L 400.104 44.030077 
L 386.712 44.030077 
z
" style="fill:#fcc688;"/>
   </g>
   <g id="patch_269">
    <path clip-path="url(#p01af2d99ca)" d="M 404.568 43.266465 
L 417.96 43.266465 
L 417.96 43.2 
L 404.568 43.2 
z
" style="fill:#fcc688;"/>
   </g>
   <g id="patch_270">
    <path clip-path="url(#p01af2d99ca)" d="M 422.424 43.2 
L 435.816 43.2 
L 435.816 43.2 
L 422.424 43.2 
z
" style="fill:#fcc688;"/>
   </g>
   <g id="patch_271">
    <path clip-path="url(#p01af2d99ca)" d="M 440.28 43.2 
L 453.672 43.2 
L 453.672 43.2 
L 440.28 43.2 
z
" style="fill:#fcc688;"/>
   </g>
   <g id="patch_272">
    <path clip-path="url(#p01af2d99ca)" d="M 458.136 43.2 
L 471.528 43.2 
L 471.528 43.2 
L 458.136 43.2 
z
" style="fill:#fcc688;"/>
   </g>
   <g id="patch_273">
    <path clip-path="url(#p01af2d99ca)" d="M 154.584 43.2 
L 167.976 43.2 
L 167.976 43.2 
L 154.584 43.2 
z
" style="fill:#80c99b;"/>
   </g>
   <g id="patch_274">
    <path clip-path="url(#p01af2d99ca)" d="M 172.44 43.2 
L 185.832 43.2 
L 185.832 43.2 
L 172.44 43.2 
z
" style="fill:#80c99b;"/>
   </g>
   <g id="patch_275">
    <path clip-path="url(#p01af2d99ca)" d="M 190.296 43.2 
L 203.688 43.2 
L 203.688 43.2 
L 190.296 43.2 
z
" style="fill:#80c99b;"/>
   </g>
   <g id="patch_276">
    <path clip-path="url(#p01af2d99ca)" d="M 208.152 43.2 
L 221.544 43.2 
L 221.544 43.2 
L 208.152 43.2 
z
" style="fill:#80c99b;"/>
   </g>
   <g id="patch_277">
    <path clip-path="url(#p01af2d99ca)" d="M 226.008 43.2 
L 239.4 43.2 
L 239.4 43.2 
L 226.008 43.2 
z
" style="fill:#80c99b;"/>
   </g>
   <g id="patch_278">
    <path clip-path="url(#p01af2d99ca)" d="M 243.864 43.2 
L 257.256 43.2 
L 257.256 43.2 
L 243.864 43.2 
z
" style="fill:#80c99b;"/>
   </g>
   <g id="patch_279">
    <path clip-path="url(#p01af2d99ca)" d="M 261.72 43.2 
L 275.112 43.2 
L 275.112 43.2 
L 261.72 43.2 
z
" style="fill:#80c99b;"/>
   </g>
   <g id="patch_280">
    <path clip-path="url(#p01af2d99ca)" d="M 279.576 43.2 
L 292.968 43.2 
L 292.968 43.2 
L 279.576 43.2 
z
" style="fill:#80c99b;"/>
   </g>
   <g id="patch_281">
    <path clip-path="url(#p01af2d99ca)" d="M 297.432 43.2 
L 310.824 43.2 
L 310.824 43.2 
L 297.432 43.2 
z
" style="fill:#80c99b;"/>
   </g>
   <g id="patch_282">
    <path clip-path="url(#p01af2d99ca)" d="M 315.288 43.440167 
L 328.68 43.440167 
L 328.68 43.2 
L 315.288 43.2 
z
" style="fill:#80c99b;"/>
   </g>
   <g id="patch_283">
    <path clip-path="url(#p01af2d99ca)" d="M 333.144 43.2 
L 346.536 43.2 
L 346.536 43.2 
L 333.144 43.2 
z
" style="fill:#80c99b;"/>
   </g>
   <g id="patch_284">
    <path clip-path="url(#p01af2d99ca)" d="M 351 43.210923 
L 364.392 43.210923 
L 364.392 43.2 
L 351 43.2 
z
" style="fill:#80c99b;"/>
   </g>
   <g id="patch_285">
    <path clip-path="url(#p01af2d99ca)" d="M 368.856 43.2 
L 382.248 43.2 
L 382.248 43.2 
L 368.856 43.2 
z
" style="fill:#80c99b;"/>
   </g>
   <g id="patch_286">
    <path clip-path="url(#p01af2d99ca)" d="M 386.712 44.030077 
L 400.104 44.030077 
L 400.104 43.2 
L 386.712 43.2 
z
" style="fill:#80c99b;"/>
   </g>
   <g id="patch_287">
    <path clip-path="url(#p01af2d99ca)" d="M 404.568 43.2 
L 417.96 43.2 
L 417.96 43.2 
L 404.568 43.2 
z
" style="fill:#80c99b;"/>
   </g>
   <g id="patch_288">
    <path clip-path="url(#p01af2d99ca)" d="M 422.424 43.2 
L 435.816 43.2 
L 435.816 43.2 
L 422.424 43.2 
z
" style="fill:#80c99b;"/>
   </g>
   <g id="patch_289">
    <path clip-path="url(#p01af2d99ca)" d="M 440.28 43.2 
L 453.672 43.2 
L 453.672 43.2 
L 440.28 43.2 
z
" style="fill:#80c99b;"/>
   </g>
   <g id="patch_290">
    <path clip-path="url(#p01af2d99ca)" d="M 458.136 43.2 
L 471.528 43.2 
L 471.528 43.2 
L 458.136 43.2 
z
" style="fill:#80c99b;"/>
   </g>
   <g id="patch_291">
    <path d="M 72 43.2 
L 518.4 43.2 
" style="fill:none;"/>
   </g>
   <g id="patch_292">
    <path d="M 518.4 388.8 
L 518.4 43.2 
" style="fill:none;"/>
   </g>
   <g id="patch_293">
    <path d="M 72 388.8 
L 518.4 388.8 
" style="fill:none;"/>
   </g>
   <g id="patch_294">
    <path d="M 72 388.8 
L 72 43.2 
" style="fill:none;"/>
   </g>
   <g id="matplotlib.axis_1">
    <g id="xtick_1">
     <g id="line2d_1"/>
     <g id="line2d_2"/>
     <g id="text_1">
      <!-- MN12 -->
      <defs>
       <path d="M 19.1875 8.296875 
L 53.609375 8.296875 
L 53.609375 0 
L 7.328125 0 
L 7.328125 8.296875 
Q 12.9375 14.109375 22.625 23.890625 
Q 32.328125 33.6875 34.8125 36.53125 
Q 39.546875 41.84375 41.421875 45.53125 
Q 43.3125 49.21875 43.3125 52.78125 
Q 43.3125 58.59375 39.234375 62.25 
Q 35.15625 65.921875 28.609375 65.921875 
Q 23.96875 65.921875 18.8125 64.3125 
Q 13.671875 62.703125 7.8125 59.421875 
L 7.8125 69.390625 
Q 13.765625 71.78125 18.9375 73 
Q 24.125 74.21875 28.421875 74.21875 
Q 39.75 74.21875 46.484375 68.546875 
Q 53.21875 62.890625 53.21875 53.421875 
Q 53.21875 48.921875 51.53125 44.890625 
Q 49.859375 40.875 45.40625 35.40625 
Q 44.1875 33.984375 37.640625 27.21875 
Q 31.109375 20.453125 19.1875 8.296875 
" id="BitstreamVeraSans-Roman-32"/>
       <path d="M 9.8125 72.90625 
L 23.09375 72.90625 
L 55.421875 11.921875 
L 55.421875 72.90625 
L 64.984375 72.90625 
L 64.984375 0 
L 51.703125 0 
L 19.390625 60.984375 
L 19.390625 0 
L 9.8125 0 
z
" id="BitstreamVeraSans-Roman-4e"/>
       <path d="M 9.8125 72.90625 
L 24.515625 72.90625 
L 43.109375 23.296875 
L 61.8125 72.90625 
L 76.515625 72.90625 
L 76.515625 0 
L 66.890625 0 
L 66.890625 64.015625 
L 48.09375 14.015625 
L 38.1875 14.015625 
L 19.390625 64.015625 
L 19.390625 0 
L 9.8125 0 
z
" id="BitstreamVeraSans-Roman-4d"/>
       <path d="M 12.40625 8.296875 
L 28.515625 8.296875 
L 28.515625 63.921875 
L 10.984375 60.40625 
L 10.984375 69.390625 
L 28.421875 72.90625 
L 38.28125 72.90625 
L 38.28125 8.296875 
L 54.390625 8.296875 
L 54.390625 0 
L 12.40625 0 
z
" id="BitstreamVeraSans-Roman-31"/>
      </defs>
      <g transform="translate(163.7634375 418.7509375)rotate(-90.0)scale(0.09 -0.09)">
       <use xlink:href="#BitstreamVeraSans-Roman-4d"/>
       <use x="86.279296875" xlink:href="#BitstreamVeraSans-Roman-4e"/>
       <use x="161.083984375" xlink:href="#BitstreamVeraSans-Roman-31"/>
       <use x="224.70703125" xlink:href="#BitstreamVeraSans-Roman-32"/>
      </g>
     </g>
    </g>
    <g id="xtick_2">
     <g id="line2d_3"/>
     <g id="line2d_4"/>
     <g id="text_2">
      <!-- MN13 -->
      <defs>
       <path d="M 40.578125 39.3125 
Q 47.65625 37.796875 51.625 33 
Q 55.609375 28.21875 55.609375 21.1875 
Q 55.609375 10.40625 48.1875 4.484375 
Q 40.765625 -1.421875 27.09375 -1.421875 
Q 22.515625 -1.421875 17.65625 -0.515625 
Q 12.796875 0.390625 7.625 2.203125 
L 7.625 11.71875 
Q 11.71875 9.328125 16.59375 8.109375 
Q 21.484375 6.890625 26.8125 6.890625 
Q 36.078125 6.890625 40.9375 10.546875 
Q 45.796875 14.203125 45.796875 21.1875 
Q 45.796875 27.640625 41.28125 31.265625 
Q 36.765625 34.90625 28.71875 34.90625 
L 20.21875 34.90625 
L 20.21875 43.015625 
L 29.109375 43.015625 
Q 36.375 43.015625 40.234375 45.921875 
Q 44.09375 48.828125 44.09375 54.296875 
Q 44.09375 59.90625 40.109375 62.90625 
Q 36.140625 65.921875 28.71875 65.921875 
Q 24.65625 65.921875 20.015625 65.03125 
Q 15.375 64.15625 9.8125 62.3125 
L 9.8125 71.09375 
Q 15.4375 72.65625 20.34375 73.4375 
Q 25.25 74.21875 29.59375 74.21875 
Q 40.828125 74.21875 47.359375 69.109375 
Q 53.90625 64.015625 53.90625 55.328125 
Q 53.90625 49.265625 50.4375 45.09375 
Q 46.96875 40.921875 40.578125 39.3125 
" id="BitstreamVeraSans-Roman-33"/>
      </defs>
      <g transform="translate(181.6194375 418.7509375)rotate(-90.0)scale(0.09 -0.09)">
       <use xlink:href="#BitstreamVeraSans-Roman-4d"/>
       <use x="86.279296875" xlink:href="#BitstreamVeraSans-Roman-4e"/>
       <use x="161.083984375" xlink:href="#BitstreamVeraSans-Roman-31"/>
       <use x="224.70703125" xlink:href="#BitstreamVeraSans-Roman-33"/>
      </g>
     </g>
    </g>
    <g id="xtick_3">
     <g id="line2d_5"/>
     <g id="line2d_6"/>
     <g id="text_3">
      <!-- MN15 -->
      <defs>
       <path d="M 10.796875 72.90625 
L 49.515625 72.90625 
L 49.515625 64.59375 
L 19.828125 64.59375 
L 19.828125 46.734375 
Q 21.96875 47.46875 24.109375 47.828125 
Q 26.265625 48.1875 28.421875 48.1875 
Q 40.625 48.1875 47.75 41.5 
Q 54.890625 34.8125 54.890625 23.390625 
Q 54.890625 11.625 47.5625 5.09375 
Q 40.234375 -1.421875 26.90625 -1.421875 
Q 22.3125 -1.421875 17.546875 -0.640625 
Q 12.796875 0.140625 7.71875 1.703125 
L 7.71875 11.625 
Q 12.109375 9.234375 16.796875 8.0625 
Q 21.484375 6.890625 26.703125 6.890625 
Q 35.15625 6.890625 40.078125 11.328125 
Q 45.015625 15.765625 45.015625 23.390625 
Q 45.015625 31 40.078125 35.4375 
Q 35.15625 39.890625 26.703125 39.890625 
Q 22.75 39.890625 18.8125 39.015625 
Q 14.890625 38.140625 10.796875 36.28125 
z
" id="BitstreamVeraSans-Roman-35"/>
      </defs>
      <g transform="translate(199.4754375 418.7509375)rotate(-90.0)scale(0.09 -0.09)">
       <use xlink:href="#BitstreamVeraSans-Roman-4d"/>
       <use x="86.279296875" xlink:href="#BitstreamVeraSans-Roman-4e"/>
       <use x="161.083984375" xlink:href="#BitstreamVeraSans-Roman-31"/>
       <use x="224.70703125" xlink:href="#BitstreamVeraSans-Roman-35"/>
      </g>
     </g>
    </g>
    <g id="xtick_4">
     <g id="line2d_7"/>
     <g id="line2d_8"/>
     <g id="text_4">
      <!-- MT209 -->
      <defs>
       <path d="M 31.78125 66.40625 
Q 24.171875 66.40625 20.328125 58.90625 
Q 16.5 51.421875 16.5 36.375 
Q 16.5 21.390625 20.328125 13.890625 
Q 24.171875 6.390625 31.78125 6.390625 
Q 39.453125 6.390625 43.28125 13.890625 
Q 47.125 21.390625 47.125 36.375 
Q 47.125 51.421875 43.28125 58.90625 
Q 39.453125 66.40625 31.78125 66.40625 
M 31.78125 74.21875 
Q 44.046875 74.21875 50.515625 64.515625 
Q 56.984375 54.828125 56.984375 36.375 
Q 56.984375 17.96875 50.515625 8.265625 
Q 44.046875 -1.421875 31.78125 -1.421875 
Q 19.53125 -1.421875 13.0625 8.265625 
Q 6.59375 17.96875 6.59375 36.375 
Q 6.59375 54.828125 13.0625 64.515625 
Q 19.53125 74.21875 31.78125 74.21875 
" id="BitstreamVeraSans-Roman-30"/>
       <path d="M 10.984375 1.515625 
L 10.984375 10.5 
Q 14.703125 8.734375 18.5 7.8125 
Q 22.3125 6.890625 25.984375 6.890625 
Q 35.75 6.890625 40.890625 13.453125 
Q 46.046875 20.015625 46.78125 33.40625 
Q 43.953125 29.203125 39.59375 26.953125 
Q 35.25 24.703125 29.984375 24.703125 
Q 19.046875 24.703125 12.671875 31.3125 
Q 6.296875 37.9375 6.296875 49.421875 
Q 6.296875 60.640625 12.9375 67.421875 
Q 19.578125 74.21875 30.609375 74.21875 
Q 43.265625 74.21875 49.921875 64.515625 
Q 56.59375 54.828125 56.59375 36.375 
Q 56.59375 19.140625 48.40625 8.859375 
Q 40.234375 -1.421875 26.421875 -1.421875 
Q 22.703125 -1.421875 18.890625 -0.6875 
Q 15.09375 0.046875 10.984375 1.515625 
M 30.609375 32.421875 
Q 37.25 32.421875 41.125 36.953125 
Q 45.015625 41.5 45.015625 49.421875 
Q 45.015625 57.28125 41.125 61.84375 
Q 37.25 66.40625 30.609375 66.40625 
Q 23.96875 66.40625 20.09375 61.84375 
Q 16.21875 57.28125 16.21875 49.421875 
Q 16.21875 41.5 20.09375 36.953125 
Q 23.96875 32.421875 30.609375 32.421875 
" id="BitstreamVeraSans-Roman-39"/>
       <path d="M -0.296875 72.90625 
L 61.375 72.90625 
L 61.375 64.59375 
L 35.5 64.59375 
L 35.5 0 
L 25.59375 0 
L 25.59375 64.59375 
L -0.296875 64.59375 
z
" id="BitstreamVeraSans-Roman-54"/>
      </defs>
      <g transform="translate(217.33143750000002 423.24109375)rotate(-90.0)scale(0.09 -0.09)">
       <use xlink:href="#BitstreamVeraSans-Roman-4d"/>
       <use x="86.279296875" xlink:href="#BitstreamVeraSans-Roman-54"/>
       <use x="147.36328125" xlink:href="#BitstreamVeraSans-Roman-32"/>
       <use x="210.986328125" xlink:href="#BitstreamVeraSans-Roman-30"/>
       <use x="274.609375" xlink:href="#BitstreamVeraSans-Roman-39"/>
      </g>
     </g>
    </g>
    <g id="xtick_5">
     <g id="line2d_9"/>
     <g id="line2d_10"/>
     <g id="text_5">
      <!-- MT210 -->
      <g transform="translate(235.18743750000002 423.24109375)rotate(-90.0)scale(0.09 -0.09)">
       <use xlink:href="#BitstreamVeraSans-Roman-4d"/>
       <use x="86.279296875" xlink:href="#BitstreamVeraSans-Roman-54"/>
       <use x="147.36328125" xlink:href="#BitstreamVeraSans-Roman-32"/>
       <use x="210.986328125" xlink:href="#BitstreamVeraSans-Roman-31"/>
       <use x="274.609375" xlink:href="#BitstreamVeraSans-Roman-30"/>
      </g>
     </g>
    </g>
    <g id="xtick_6">
     <g id="line2d_11"/>
     <g id="line2d_12"/>
     <g id="text_6">
      <!-- MT213 -->
      <g transform="translate(253.0434375 423.24109375)rotate(-90.0)scale(0.09 -0.09)">
       <use xlink:href="#BitstreamVeraSans-Roman-4d"/>
       <use x="86.279296875" xlink:href="#BitstreamVeraSans-Roman-54"/>
       <use x="147.36328125" xlink:href="#BitstreamVeraSans-Roman-32"/>
       <use x="210.986328125" xlink:href="#BitstreamVeraSans-Roman-31"/>
       <use x="274.609375" xlink:href="#BitstreamVeraSans-Roman-33"/>
      </g>
     </g>
    </g>
    <g id="xtick_7">
     <g id="line2d_13"/>
     <g id="line2d_14"/>
     <g id="text_7">
      <!-- SM2 -->
      <defs>
       <path d="M 53.515625 70.515625 
L 53.515625 60.890625 
Q 47.90625 63.578125 42.921875 64.890625 
Q 37.9375 66.21875 33.296875 66.21875 
Q 25.25 66.21875 20.875 63.09375 
Q 16.5 59.96875 16.5 54.203125 
Q 16.5 49.359375 19.40625 46.890625 
Q 22.3125 44.4375 30.421875 42.921875 
L 36.375 41.703125 
Q 47.40625 39.59375 52.65625 34.296875 
Q 57.90625 29 57.90625 20.125 
Q 57.90625 9.515625 50.796875 4.046875 
Q 43.703125 -1.421875 29.984375 -1.421875 
Q 24.8125 -1.421875 18.96875 -0.25 
Q 13.140625 0.921875 6.890625 3.21875 
L 6.890625 13.375 
Q 12.890625 10.015625 18.65625 8.296875 
Q 24.421875 6.59375 29.984375 6.59375 
Q 38.421875 6.59375 43.015625 9.90625 
Q 47.609375 13.234375 47.609375 19.390625 
Q 47.609375 24.75 44.3125 27.78125 
Q 41.015625 30.8125 33.5 32.328125 
L 27.484375 33.5 
Q 16.453125 35.6875 11.515625 40.375 
Q 6.59375 45.0625 6.59375 53.421875 
Q 6.59375 63.09375 13.40625 68.65625 
Q 20.21875 74.21875 32.171875 74.21875 
Q 37.3125 74.21875 42.625 73.28125 
Q 47.953125 72.359375 53.515625 70.515625 
" id="BitstreamVeraSans-Roman-53"/>
      </defs>
      <g transform="translate(270.8994375 412.00515625)rotate(-90.0)scale(0.09 -0.09)">
       <use xlink:href="#BitstreamVeraSans-Roman-53"/>
       <use x="63.4765625" xlink:href="#BitstreamVeraSans-Roman-4d"/>
       <use x="149.755859375" xlink:href="#BitstreamVeraSans-Roman-32"/>
      </g>
     </g>
    </g>
    <g id="xtick_8">
     <g id="line2d_15"/>
     <g id="line2d_16"/>
     <g id="text_8">
      <!-- SM4 -->
      <defs>
       <path d="M 37.796875 64.3125 
L 12.890625 25.390625 
L 37.796875 25.390625 
z
M 35.203125 72.90625 
L 47.609375 72.90625 
L 47.609375 25.390625 
L 58.015625 25.390625 
L 58.015625 17.1875 
L 47.609375 17.1875 
L 47.609375 0 
L 37.796875 0 
L 37.796875 17.1875 
L 4.890625 17.1875 
L 4.890625 26.703125 
z
" id="BitstreamVeraSans-Roman-34"/>
      </defs>
      <g transform="translate(288.75543749999997 412.00515625)rotate(-90.0)scale(0.09 -0.09)">
       <use xlink:href="#BitstreamVeraSans-Roman-53"/>
       <use x="63.4765625" xlink:href="#BitstreamVeraSans-Roman-4d"/>
       <use x="149.755859375" xlink:href="#BitstreamVeraSans-Roman-34"/>
      </g>
     </g>
    </g>
    <g id="xtick_9">
     <g id="line2d_17"/>
     <g id="line2d_18"/>
     <g id="text_9">
      <!-- SM5 -->
      <g transform="translate(306.61143749999997 412.00515625)rotate(-90.0)scale(0.09 -0.09)">
       <use xlink:href="#BitstreamVeraSans-Roman-53"/>
       <use x="63.4765625" xlink:href="#BitstreamVeraSans-Roman-4d"/>
       <use x="149.755859375" xlink:href="#BitstreamVeraSans-Roman-35"/>
      </g>
     </g>
    </g>
    <g id="xtick_10">
     <g id="line2d_19"/>
     <g id="line2d_20"/>
     <g id="text_10">
      <!-- T1 -->
      <g transform="translate(324.46743749999996 404.02328125)rotate(-90.0)scale(0.09 -0.09)">
       <use xlink:href="#BitstreamVeraSans-Roman-54"/>
       <use x="61.083984375" xlink:href="#BitstreamVeraSans-Roman-31"/>
      </g>
     </g>
    </g>
    <g id="xtick_11">
     <g id="line2d_21"/>
     <g id="line2d_22"/>
     <g id="text_11">
      <!-- T2 -->
      <g transform="translate(342.32343749999995 404.02328125)rotate(-90.0)scale(0.09 -0.09)">
       <use xlink:href="#BitstreamVeraSans-Roman-54"/>
       <use x="61.083984375" xlink:href="#BitstreamVeraSans-Roman-32"/>
      </g>
     </g>
    </g>
    <g id="xtick_12">
     <g id="line2d_23"/>
     <g id="line2d_24"/>
     <g id="text_12">
      <!-- T9 -->
      <g transform="translate(360.17943749999995 404.02328125)rotate(-90.0)scale(0.09 -0.09)">
       <use xlink:href="#BitstreamVeraSans-Roman-54"/>
       <use x="61.083984375" xlink:href="#BitstreamVeraSans-Roman-39"/>
      </g>
     </g>
    </g>
    <g id="xtick_13">
     <g id="line2d_25"/>
     <g id="line2d_26"/>
     <g id="text_13">
      <!-- TL1 -->
      <defs>
       <path d="M 9.8125 72.90625 
L 19.671875 72.90625 
L 19.671875 8.296875 
L 55.171875 8.296875 
L 55.171875 0 
L 9.8125 0 
z
" id="BitstreamVeraSans-Roman-4c"/>
      </defs>
      <g transform="translate(378.0354375 409.03796875)rotate(-90.0)scale(0.09 -0.09)">
       <use xlink:href="#BitstreamVeraSans-Roman-54"/>
       <use x="61.083984375" xlink:href="#BitstreamVeraSans-Roman-4c"/>
       <use x="116.796875" xlink:href="#BitstreamVeraSans-Roman-31"/>
      </g>
     </g>
    </g>
    <g id="xtick_14">
     <g id="line2d_27"/>
     <g id="line2d_28"/>
     <g id="text_14">
      <!-- TL2 -->
      <g transform="translate(395.8914375 409.03796875)rotate(-90.0)scale(0.09 -0.09)">
       <use xlink:href="#BitstreamVeraSans-Roman-54"/>
       <use x="61.083984375" xlink:href="#BitstreamVeraSans-Roman-4c"/>
       <use x="116.796875" xlink:href="#BitstreamVeraSans-Roman-32"/>
      </g>
     </g>
    </g>
    <g id="xtick_15">
     <g id="line2d_29"/>
     <g id="line2d_30"/>
     <g id="text_15">
      <!-- TL3 -->
      <g transform="translate(413.7474375 409.03796875)rotate(-90.0)scale(0.09 -0.09)">
       <use xlink:href="#BitstreamVeraSans-Roman-54"/>
       <use x="61.083984375" xlink:href="#BitstreamVeraSans-Roman-4c"/>
       <use x="116.796875" xlink:href="#BitstreamVeraSans-Roman-33"/>
      </g>
     </g>
    </g>
    <g id="xtick_16">
     <g id="line2d_31"/>
     <g id="line2d_32"/>
     <g id="text_16">
      <!-- TS4 -->
      <g transform="translate(431.6034375 409.736875)rotate(-90.0)scale(0.09 -0.09)">
       <use xlink:href="#BitstreamVeraSans-Roman-54"/>
       <use x="61.083984375" xlink:href="#BitstreamVeraSans-Roman-53"/>
       <use x="124.560546875" xlink:href="#BitstreamVeraSans-Roman-34"/>
      </g>
     </g>
    </g>
    <g id="xtick_17">
     <g id="line2d_33"/>
     <g id="line2d_34"/>
     <g id="text_17">
      <!-- TS6 -->
      <defs>
       <path d="M 33.015625 40.375 
Q 26.375 40.375 22.484375 35.828125 
Q 18.609375 31.296875 18.609375 23.390625 
Q 18.609375 15.53125 22.484375 10.953125 
Q 26.375 6.390625 33.015625 6.390625 
Q 39.65625 6.390625 43.53125 10.953125 
Q 47.40625 15.53125 47.40625 23.390625 
Q 47.40625 31.296875 43.53125 35.828125 
Q 39.65625 40.375 33.015625 40.375 
M 52.59375 71.296875 
L 52.59375 62.3125 
Q 48.875 64.0625 45.09375 64.984375 
Q 41.3125 65.921875 37.59375 65.921875 
Q 27.828125 65.921875 22.671875 59.328125 
Q 17.53125 52.734375 16.796875 39.40625 
Q 19.671875 43.65625 24.015625 45.921875 
Q 28.375 48.1875 33.59375 48.1875 
Q 44.578125 48.1875 50.953125 41.515625 
Q 57.328125 34.859375 57.328125 23.390625 
Q 57.328125 12.15625 50.6875 5.359375 
Q 44.046875 -1.421875 33.015625 -1.421875 
Q 20.359375 -1.421875 13.671875 8.265625 
Q 6.984375 17.96875 6.984375 36.375 
Q 6.984375 53.65625 15.1875 63.9375 
Q 23.390625 74.21875 37.203125 74.21875 
Q 40.921875 74.21875 44.703125 73.484375 
Q 48.484375 72.75 52.59375 71.296875 
" id="BitstreamVeraSans-Roman-36"/>
      </defs>
      <g transform="translate(449.4594375 409.736875)rotate(-90.0)scale(0.09 -0.09)">
       <use xlink:href="#BitstreamVeraSans-Roman-54"/>
       <use x="61.083984375" xlink:href="#BitstreamVeraSans-Roman-53"/>
       <use x="124.560546875" xlink:href="#BitstreamVeraSans-Roman-36"/>
      </g>
     </g>
    </g>
    <g id="xtick_18">
     <g id="line2d_35"/>
     <g id="line2d_36"/>
     <g id="text_18">
      <!-- TS8 -->
      <defs>
       <path d="M 31.78125 34.625 
Q 24.75 34.625 20.71875 30.859375 
Q 16.703125 27.09375 16.703125 20.515625 
Q 16.703125 13.921875 20.71875 10.15625 
Q 24.75 6.390625 31.78125 6.390625 
Q 38.8125 6.390625 42.859375 10.171875 
Q 46.921875 13.96875 46.921875 20.515625 
Q 46.921875 27.09375 42.890625 30.859375 
Q 38.875 34.625 31.78125 34.625 
M 21.921875 38.8125 
Q 15.578125 40.375 12.03125 44.71875 
Q 8.5 49.078125 8.5 55.328125 
Q 8.5 64.0625 14.71875 69.140625 
Q 20.953125 74.21875 31.78125 74.21875 
Q 42.671875 74.21875 48.875 69.140625 
Q 55.078125 64.0625 55.078125 55.328125 
Q 55.078125 49.078125 51.53125 44.71875 
Q 48 40.375 41.703125 38.8125 
Q 48.828125 37.15625 52.796875 32.3125 
Q 56.78125 27.484375 56.78125 20.515625 
Q 56.78125 9.90625 50.3125 4.234375 
Q 43.84375 -1.421875 31.78125 -1.421875 
Q 19.734375 -1.421875 13.25 4.234375 
Q 6.78125 9.90625 6.78125 20.515625 
Q 6.78125 27.484375 10.78125 32.3125 
Q 14.796875 37.15625 21.921875 38.8125 
M 18.3125 54.390625 
Q 18.3125 48.734375 21.84375 45.5625 
Q 25.390625 42.390625 31.78125 42.390625 
Q 38.140625 42.390625 41.71875 45.5625 
Q 45.3125 48.734375 45.3125 54.390625 
Q 45.3125 60.0625 41.71875 63.234375 
Q 38.140625 66.40625 31.78125 66.40625 
Q 25.390625 66.40625 21.84375 63.234375 
Q 18.3125 60.0625 18.3125 54.390625 
" id="BitstreamVeraSans-Roman-38"/>
      </defs>
      <g transform="translate(467.3154375 409.736875)rotate(-90.0)scale(0.09 -0.09)">
       <use xlink:href="#BitstreamVeraSans-Roman-54"/>
       <use x="61.083984375" xlink:href="#BitstreamVeraSans-Roman-53"/>
       <use x="124.560546875" xlink:href="#BitstreamVeraSans-Roman-38"/>
      </g>
     </g>
    </g>
   </g>
   <g id="matplotlib.axis_2"/>
  </g>
 </g>
 <defs>
  <clipPath id="p01af2d99ca">
   <rect height="345.6" width="446.4" x="72.0" y="43.19999999999999"/>
  </clipPath>
 </defs>
</svg>
