<?xml version="1.0" encoding="UTF-8" standalone="no"?>
<!-- Created with Inkscape (http://www.inkscape.org/) -->

<svg
   xmlns:svg="http://www.w3.org/2000/svg"
   xmlns="http://www.w3.org/2000/svg"
   version="1.1"
   width="1080"
   height="540"
   id="svg2"
   xml:space="preserve"><defs
     id="defs6"><clipPath
       id="clipPath22"><path
         d="m 108,43.2 669.6,0 0,345.6 -669.6,0 0,-345.6 z"
         id="path24" /></clipPath><clipPath
       id="clipPath32"><path
         d="m 108,43.2 669.6,0 0,345.6 -669.6,0 0,-345.6 z"
         id="path34" /></clipPath><clipPath
       id="clipPath42"><path
         d="m 108,43.2 669.6,0 0,345.6 -669.6,0 0,-345.6 z"
         id="path44" /></clipPath><clipPath
       id="clipPath52"><path
         d="m 108,43.2 669.6,0 0,345.6 -669.6,0 0,-345.6 z"
         id="path54" /></clipPath><clipPath
       id="clipPath62"><path
         d="m 108,43.2 669.6,0 0,345.6 -669.6,0 0,-345.6 z"
         id="path64" /></clipPath><clipPath
       id="clipPath72"><path
         d="m 108,43.2 669.6,0 0,345.6 -669.6,0 0,-345.6 z"
         id="path74" /></clipPath><clipPath
       id="clipPath82"><path
         d="m 108,43.2 669.6,0 0,345.6 -669.6,0 0,-345.6 z"
         id="path84" /></clipPath><clipPath
       id="clipPath92"><path
         d="m 108,43.2 669.6,0 0,345.6 -669.6,0 0,-345.6 z"
         id="path94" /></clipPath><clipPath
       id="clipPath102"><path
         d="m 108,43.2 669.6,0 0,345.6 -669.6,0 0,-345.6 z"
         id="path104" /></clipPath><clipPath
       id="clipPath112"><path
         d="m 108,43.2 669.6,0 0,345.6 -669.6,0 0,-345.6 z"
         id="path114" /></clipPath><clipPath
       id="clipPath122"><path
         d="m 108,43.2 669.6,0 0,345.6 -669.6,0 0,-345.6 z"
         id="path124" /></clipPath><clipPath
       id="clipPath132"><path
         d="m 108,43.2 669.6,0 0,345.6 -669.6,0 0,-345.6 z"
         id="path134" /></clipPath><clipPath
       id="clipPath142"><path
         d="m 108,43.2 669.6,0 0,345.6 -669.6,0 0,-345.6 z"
         id="path144" /></clipPath><clipPath
       id="clipPath152"><path
         d="m 108,43.2 669.6,0 0,345.6 -669.6,0 0,-345.6 z"
         id="path154" /></clipPath><clipPath
       id="clipPath162"><path
         d="m 108,43.2 669.6,0 0,345.6 -669.6,0 0,-345.6 z"
         id="path164" /></clipPath><clipPath
       id="clipPath172"><path
         d="m 108,43.2 669.6,0 0,345.6 -669.6,0 0,-345.6 z"
         id="path174" /></clipPath><clipPath
       id="clipPath182"><path
         d="m 108,43.2 669.6,0 0,345.6 -669.6,0 0,-345.6 z"
         id="path184" /></clipPath><clipPath
       id="clipPath192"><path
         d="m 108,43.2 669.6,0 0,345.6 -669.6,0 0,-345.6 z"
         id="path194" /></clipPath><clipPath
       id="clipPath202"><path
         d="m 108,43.2 669.6,0 0,345.6 -669.6,0 0,-345.6 z"
         id="path204" /></clipPath><clipPath
       id="clipPath212"><path
         d="m 108,43.2 669.6,0 0,345.6 -669.6,0 0,-345.6 z"
         id="path214" /></clipPath><clipPath
       id="clipPath222"><path
         d="m 108,43.2 669.6,0 0,345.6 -669.6,0 0,-345.6 z"
         id="path224" /></clipPath><clipPath
       id="clipPath232"><path
         d="m 108,43.2 669.6,0 0,345.6 -669.6,0 0,-345.6 z"
         id="path234" /></clipPath><clipPath
       id="clipPath242"><path
         d="m 108,43.2 669.6,0 0,345.6 -669.6,0 0,-345.6 z"
         id="path244" /></clipPath><clipPath
       id="clipPath252"><path
         d="m 108,43.2 669.6,0 0,345.6 -669.6,0 0,-345.6 z"
         id="path254" /></clipPath><clipPath
       id="clipPath262"><path
         d="m 108,43.2 669.6,0 0,345.6 -669.6,0 0,-345.6 z"
         id="path264" /></clipPath><clipPath
       id="clipPath272"><path
         d="m 108,43.2 669.6,0 0,345.6 -669.6,0 0,-345.6 z"
         id="path274" /></clipPath><clipPath
       id="clipPath282"><path
         d="m 108,43.2 669.6,0 0,345.6 -669.6,0 0,-345.6 z"
         id="path284" /></clipPath><clipPath
       id="clipPath292"><path
         d="m 108,43.2 669.6,0 0,345.6 -669.6,0 0,-345.6 z"
         id="path294" /></clipPath><clipPath
       id="clipPath302"><path
         d="m 108,43.2 669.6,0 0,345.6 -669.6,0 0,-345.6 z"
         id="path304" /></clipPath><clipPath
       id="clipPath312"><path
         d="m 108,43.2 669.6,0 0,345.6 -669.6,0 0,-345.6 z"
         id="path314" /></clipPath><clipPath
       id="clipPath322"><path
         d="m 108,43.2 669.6,0 0,345.6 -669.6,0 0,-345.6 z"
         id="path324" /></clipPath><clipPath
       id="clipPath332"><path
         d="m 108,43.2 669.6,0 0,345.6 -669.6,0 0,-345.6 z"
         id="path334" /></clipPath><clipPath
       id="clipPath342"><path
         d="m 108,43.2 669.6,0 0,345.6 -669.6,0 0,-345.6 z"
         id="path344" /></clipPath><clipPath
       id="clipPath352"><path
         d="m 108,43.2 669.6,0 0,345.6 -669.6,0 0,-345.6 z"
         id="path354" /></clipPath><clipPath
       id="clipPath362"><path
         d="m 108,43.2 669.6,0 0,345.6 -669.6,0 0,-345.6 z"
         id="path364" /></clipPath><clipPath
       id="clipPath372"><path
         d="m 108,43.2 669.6,0 0,345.6 -669.6,0 0,-345.6 z"
         id="path374" /></clipPath><clipPath
       id="clipPath382"><path
         d="m 108,43.2 669.6,0 0,345.6 -669.6,0 0,-345.6 z"
         id="path384" /></clipPath><clipPath
       id="clipPath392"><path
         d="m 108,43.2 669.6,0 0,345.6 -669.6,0 0,-345.6 z"
         id="path394" /></clipPath><clipPath
       id="clipPath402"><path
         d="m 108,43.2 669.6,0 0,345.6 -669.6,0 0,-345.6 z"
         id="path404" /></clipPath><clipPath
       id="clipPath412"><path
         d="m 108,43.2 669.6,0 0,345.6 -669.6,0 0,-345.6 z"
         id="path414" /></clipPath><clipPath
       id="clipPath422"><path
         d="m 108,43.2 669.6,0 0,345.6 -669.6,0 0,-345.6 z"
         id="path424" /></clipPath><clipPath
       id="clipPath432"><path
         d="m 108,43.2 669.6,0 0,345.6 -669.6,0 0,-345.6 z"
         id="path434" /></clipPath><clipPath
       id="clipPath442"><path
         d="m 108,43.2 669.6,0 0,345.6 -669.6,0 0,-345.6 z"
         id="path444" /></clipPath><clipPath
       id="clipPath452"><path
         d="m 108,43.2 669.6,0 0,345.6 -669.6,0 0,-345.6 z"
         id="path454" /></clipPath><clipPath
       id="clipPath462"><path
         d="m 108,43.2 669.6,0 0,345.6 -669.6,0 0,-345.6 z"
         id="path464" /></clipPath><clipPath
       id="clipPath472"><path
         d="m 108,43.2 669.6,0 0,345.6 -669.6,0 0,-345.6 z"
         id="path474" /></clipPath><clipPath
       id="clipPath482"><path
         d="m 108,43.2 669.6,0 0,345.6 -669.6,0 0,-345.6 z"
         id="path484" /></clipPath><clipPath
       id="clipPath492"><path
         d="m 108,43.2 669.6,0 0,345.6 -669.6,0 0,-345.6 z"
         id="path494" /></clipPath><clipPath
       id="clipPath502"><path
         d="m 108,43.2 669.6,0 0,345.6 -669.6,0 0,-345.6 z"
         id="path504" /></clipPath><clipPath
       id="clipPath512"><path
         d="m 108,43.2 669.6,0 0,345.6 -669.6,0 0,-345.6 z"
         id="path514" /></clipPath><clipPath
       id="clipPath522"><path
         d="m 108,43.2 669.6,0 0,345.6 -669.6,0 0,-345.6 z"
         id="path524" /></clipPath><clipPath
       id="clipPath532"><path
         d="m 108,43.2 669.6,0 0,345.6 -669.6,0 0,-345.6 z"
         id="path534" /></clipPath><clipPath
       id="clipPath542"><path
         d="m 108,43.2 669.6,0 0,345.6 -669.6,0 0,-345.6 z"
         id="path544" /></clipPath><clipPath
       id="clipPath552"><path
         d="m 108,43.2 669.6,0 0,345.6 -669.6,0 0,-345.6 z"
         id="path554" /></clipPath><clipPath
       id="clipPath562"><path
         d="m 108,43.2 669.6,0 0,345.6 -669.6,0 0,-345.6 z"
         id="path564" /></clipPath><clipPath
       id="clipPath572"><path
         d="m 108,43.2 669.6,0 0,345.6 -669.6,0 0,-345.6 z"
         id="path574" /></clipPath><clipPath
       id="clipPath582"><path
         d="m 108,43.2 669.6,0 0,345.6 -669.6,0 0,-345.6 z"
         id="path584" /></clipPath><clipPath
       id="clipPath592"><path
         d="m 108,43.2 669.6,0 0,345.6 -669.6,0 0,-345.6 z"
         id="path594" /></clipPath><clipPath
       id="clipPath602"><path
         d="m 108,43.2 669.6,0 0,345.6 -669.6,0 0,-345.6 z"
         id="path604" /></clipPath><clipPath
       id="clipPath612"><path
         d="m 108,43.2 669.6,0 0,345.6 -669.6,0 0,-345.6 z"
         id="path614" /></clipPath><clipPath
       id="clipPath622"><path
         d="m 108,43.2 669.6,0 0,345.6 -669.6,0 0,-345.6 z"
         id="path624" /></clipPath><clipPath
       id="clipPath632"><path
         d="m 108,43.2 669.6,0 0,345.6 -669.6,0 0,-345.6 z"
         id="path634" /></clipPath><clipPath
       id="clipPath642"><path
         d="m 108,43.2 669.6,0 0,345.6 -669.6,0 0,-345.6 z"
         id="path644" /></clipPath><clipPath
       id="clipPath652"><path
         d="m 108,43.2 669.6,0 0,345.6 -669.6,0 0,-345.6 z"
         id="path654" /></clipPath><clipPath
       id="clipPath662"><path
         d="m 108,43.2 669.6,0 0,345.6 -669.6,0 0,-345.6 z"
         id="path664" /></clipPath><clipPath
       id="clipPath672"><path
         d="m 108,43.2 669.6,0 0,345.6 -669.6,0 0,-345.6 z"
         id="path674" /></clipPath><clipPath
       id="clipPath682"><path
         d="m 108,43.2 669.6,0 0,345.6 -669.6,0 0,-345.6 z"
         id="path684" /></clipPath><clipPath
       id="clipPath692"><path
         d="m 108,43.2 669.6,0 0,345.6 -669.6,0 0,-345.6 z"
         id="path694" /></clipPath><clipPath
       id="clipPath702"><path
         d="m 108,43.2 669.6,0 0,345.6 -669.6,0 0,-345.6 z"
         id="path704" /></clipPath><clipPath
       id="clipPath712"><path
         d="m 108,43.2 669.6,0 0,345.6 -669.6,0 0,-345.6 z"
         id="path714" /></clipPath><clipPath
       id="clipPath722"><path
         d="m 108,43.2 669.6,0 0,345.6 -669.6,0 0,-345.6 z"
         id="path724" /></clipPath><clipPath
       id="clipPath732"><path
         d="m 108,43.2 669.6,0 0,345.6 -669.6,0 0,-345.6 z"
         id="path734" /></clipPath></defs><g
     transform="matrix(1.25,0,0,-1.25,0,540)"
     id="g12"><path
       d="M 0,0 864,0 864,432 0,432 0,0 z"
       id="path14"
       style="fill:#ffffff;fill-opacity:1;fill-rule:nonzero;stroke:none" /><path
       d="m 108,43.2 669.6,0 0,345.6 -669.6,0 0,-345.6 z"
       id="path16"
       style="fill:#ffffff;fill-opacity:1;fill-rule:nonzero;stroke:none" /><g
       id="g18"><g
         clip-path="url(#clipPath22)"
         id="g20"><path
           d="m 167.78571,43.2 71.74286,0 0,0 -71.74286,0 z"
           id="path26"
           style="fill:#ff0000;fill-opacity:1;fill-rule:nonzero;stroke:none" /></g></g><g
       id="g28"><g
         clip-path="url(#clipPath32)"
         id="g30"><path
           d="m 263.44286,43.2 71.74285,0 0,0 -71.74285,0 z"
           id="path36"
           style="fill:#ff0000;fill-opacity:1;fill-rule:nonzero;stroke:none" /></g></g><g
       id="g38"><g
         clip-path="url(#clipPath42)"
         id="g40"><path
           d="m 359.1,43.2 71.74286,0 0,0.371613 -71.74286,0 0,-0.371613 z"
           id="path46"
           style="fill:#ff0000;fill-opacity:1;fill-rule:nonzero;stroke:none" /></g></g><g
       id="g48"><g
         clip-path="url(#clipPath52)"
         id="g50"><path
           d="m 454.75714,43.2 71.74286,0 0,0 -71.74286,0 z"
           id="path56"
           style="fill:#ff0000;fill-opacity:1;fill-rule:nonzero;stroke:none" /></g></g><g
       id="g58"><g
         clip-path="url(#clipPath62)"
         id="g60"><path
           d="m 550.41429,43.2 71.74285,0 0,0 -71.74285,0 z"
           id="path66"
           style="fill:#ff0000;fill-opacity:1;fill-rule:nonzero;stroke:none" /></g></g><g
       id="g68"><g
         clip-path="url(#clipPath72)"
         id="g70"><path
           d="m 646.07143,43.2 71.74286,0 0,1.296738 -71.74286,0 0,-1.296738 z"
           id="path76"
           style="fill:#ff0000;fill-opacity:1;fill-rule:nonzero;stroke:none" /></g></g><g
       id="g78"><g
         clip-path="url(#clipPath82)"
         id="g80"><path
           d="m 167.78571,43.2 71.74286,0 0,0 -71.74286,0 z"
           id="path86"
           style="fill:#0000ff;fill-opacity:1;fill-rule:nonzero;stroke:none" /></g></g><g
       id="g88"><g
         clip-path="url(#clipPath92)"
         id="g90"><path
           d="m 263.44286,43.2 71.74285,0 0,0 -71.74285,0 z"
           id="path96"
           style="fill:#0000ff;fill-opacity:1;fill-rule:nonzero;stroke:none" /></g></g><g
       id="g98"><g
         clip-path="url(#clipPath102)"
         id="g100"><path
           d="m 359.1,43.571613 71.74286,0 0,0.603871 -71.74286,0 0,-0.603871 z"
           id="path106"
           style="fill:#0000ff;fill-opacity:1;fill-rule:nonzero;stroke:none" /></g></g><g
       id="g108"><g
         clip-path="url(#clipPath112)"
         id="g110"><path
           d="m 454.75714,43.2 71.74286,0 0,0 -71.74286,0 z"
           id="path116"
           style="fill:#0000ff;fill-opacity:1;fill-rule:nonzero;stroke:none" /></g></g><g
       id="g118"><g
         clip-path="url(#clipPath122)"
         id="g120"><path
           d="m 550.41429,43.2 71.74285,0 0,0 -71.74285,0 z"
           id="path126"
           style="fill:#0000ff;fill-opacity:1;fill-rule:nonzero;stroke:none" /></g></g><g
       id="g128"><g
         clip-path="url(#clipPath132)"
         id="g130"><path
           d="m 646.07143,44.496738 71.74286,0 0,0 -71.74286,0 z"
           id="path136"
           style="fill:#0000ff;fill-opacity:1;fill-rule:nonzero;stroke:none" /></g></g><g
       id="g138"><g
         clip-path="url(#clipPath142)"
         id="g140"><path
           d="m 167.78571,43.2 71.74286,0 0,0.402466 -71.74286,0 0,-0.402466 z"
           id="path146"
           style="fill:#f27304;fill-opacity:1;fill-rule:nonzero;stroke:none" /></g></g><g
       id="g148"><g
         clip-path="url(#clipPath152)"
         id="g150"><path
           d="m 263.44286,43.2 71.74285,0 0,0.09945 -71.74285,0 0,-0.09945 z"
           id="path156"
           style="fill:#f27304;fill-opacity:1;fill-rule:nonzero;stroke:none" /></g></g><g
       id="g158"><g
         clip-path="url(#clipPath162)"
         id="g160"><path
           d="m 359.1,44.175484 71.74286,0 0,23.643871 -71.74286,0 0,-23.643871 z"
           id="path166"
           style="fill:#f27304;fill-opacity:1;fill-rule:nonzero;stroke:none" /></g></g><g
       id="g168"><g
         clip-path="url(#clipPath172)"
         id="g170"><path
           d="m 454.75714,43.2 71.74286,0 0,1.584867 -71.74286,0 0,-1.584867 z"
           id="path176"
           style="fill:#f27304;fill-opacity:1;fill-rule:nonzero;stroke:none" /></g></g><g
       id="g178"><g
         clip-path="url(#clipPath182)"
         id="g180"><path
           d="m 550.41429,43.2 71.74285,0 0,12.578017 -71.74285,0 0,-12.578017 z"
           id="path186"
           style="fill:#f27304;fill-opacity:1;fill-rule:nonzero;stroke:none" /></g></g><g
       id="g188"><g
         clip-path="url(#clipPath192)"
         id="g190"><path
           d="m 646.07143,44.496738 71.74286,0 0,21.903321 -71.74286,0 0,-21.903321 z"
           id="path196"
           style="fill:#f27304;fill-opacity:1;fill-rule:nonzero;stroke:none" /></g></g><g
       id="g198"><g
         clip-path="url(#clipPath202)"
         id="g200"><path
           d="m 167.78571,43.602466 71.74286,0 0,1.183724 -71.74286,0 0,-1.183724 z"
           id="path206"
           style="fill:#008000;fill-opacity:1;fill-rule:nonzero;stroke:none" /></g></g><g
       id="g208"><g
         clip-path="url(#clipPath212)"
         id="g210"><path
           d="m 263.44286,43.299453 71.74285,0 0,0.29836 -71.74285,0 0,-0.29836 z"
           id="path216"
           style="fill:#008000;fill-opacity:1;fill-rule:nonzero;stroke:none" /></g></g><g
       id="g218"><g
         clip-path="url(#clipPath222)"
         id="g220"><path
           d="m 359.1,67.819355 71.74286,0 0,2.787097 -71.74286,0 0,-2.787097 z"
           id="path226"
           style="fill:#008000;fill-opacity:1;fill-rule:nonzero;stroke:none" /></g></g><g
       id="g228"><g
         clip-path="url(#clipPath232)"
         id="g230"><path
           d="m 454.75714,44.784867 71.74286,0 0,0.594325 -71.74286,0 0,-0.594325 z"
           id="path236"
           style="fill:#008000;fill-opacity:1;fill-rule:nonzero;stroke:none" /></g></g><g
       id="g238"><g
         clip-path="url(#clipPath242)"
         id="g240"><path
           d="m 550.41429,55.778017 71.74285,0 0,0.422081 -71.74285,0 0,-0.422081 z"
           id="path246"
           style="fill:#008000;fill-opacity:1;fill-rule:nonzero;stroke:none" /></g></g><g
       id="g248"><g
         clip-path="url(#clipPath252)"
         id="g250"><path
           d="m 646.07143,66.400059 71.74286,0 0,2.850257 -71.74286,0 0,-2.850257 z"
           id="path256"
           style="fill:#008000;fill-opacity:1;fill-rule:nonzero;stroke:none" /></g></g><g
       id="g258"><g
         clip-path="url(#clipPath262)"
         id="g260"><path
           d="m 167.78571,44.78619 71.74286,0 0,0 -71.74286,0 z"
           id="path266"
           style="fill:#91278d;fill-opacity:1;fill-rule:nonzero;stroke:none" /></g></g><g
       id="g268"><g
         clip-path="url(#clipPath272)"
         id="g270"><path
           d="m 263.44286,43.597813 71.74285,0 0,0 -71.74285,0 z"
           id="path276"
           style="fill:#91278d;fill-opacity:1;fill-rule:nonzero;stroke:none" /></g></g><g
       id="g278"><g
         clip-path="url(#clipPath282)"
         id="g280"><path
           d="m 359.1,70.606452 71.74286,0 0,0 -71.74286,0 z"
           id="path286"
           style="fill:#91278d;fill-opacity:1;fill-rule:nonzero;stroke:none" /></g></g><g
       id="g288"><g
         clip-path="url(#clipPath292)"
         id="g290"><path
           d="m 454.75714,45.379192 71.74286,0 0,0 -71.74286,0 z"
           id="path296"
           style="fill:#91278d;fill-opacity:1;fill-rule:nonzero;stroke:none" /></g></g><g
       id="g298"><g
         clip-path="url(#clipPath302)"
         id="g300"><path
           d="m 550.41429,56.200098 71.74285,0 0,0 -71.74285,0 z"
           id="path306"
           style="fill:#91278d;fill-opacity:1;fill-rule:nonzero;stroke:none" /></g></g><g
       id="g308"><g
         clip-path="url(#clipPath312)"
         id="g310"><path
           d="m 646.07143,69.250316 71.74286,0 0,0.154068 -71.74286,0 0,-0.154068 z"
           id="path316"
           style="fill:#91278d;fill-opacity:1;fill-rule:nonzero;stroke:none" /></g></g><g
       id="g318"><g
         clip-path="url(#clipPath322)"
         id="g320"><path
           d="m 167.78571,44.78619 71.74286,0 0,0.02367 -71.74286,0 0,-0.02367 z"
           id="path326"
           style="fill:#ffff00;fill-opacity:1;fill-rule:nonzero;stroke:none" /></g></g><g
       id="g328"><g
         clip-path="url(#clipPath332)"
         id="g330"><path
           d="m 263.44286,43.597813 71.74285,0 0,0 -71.74285,0 z"
           id="path336"
           style="fill:#ffff00;fill-opacity:1;fill-rule:nonzero;stroke:none" /></g></g><g
       id="g338"><g
         clip-path="url(#clipPath342)"
         id="g340"><path
           d="m 359.1,70.606452 71.74286,0 0,0 -71.74286,0 z"
           id="path346"
           style="fill:#ffff00;fill-opacity:1;fill-rule:nonzero;stroke:none" /></g></g><g
       id="g348"><g
         clip-path="url(#clipPath352)"
         id="g350"><path
           d="m 454.75714,45.379192 71.74286,0 0,0.297162 -71.74286,0 0,-0.297162 z"
           id="path356"
           style="fill:#ffff00;fill-opacity:1;fill-rule:nonzero;stroke:none" /></g></g><g
       id="g358"><g
         clip-path="url(#clipPath362)"
         id="g360"><path
           d="m 550.41429,56.200098 71.74285,0 0,0 -71.74285,0 z"
           id="path366"
           style="fill:#ffff00;fill-opacity:1;fill-rule:nonzero;stroke:none" /></g></g><g
       id="g368"><g
         clip-path="url(#clipPath372)"
         id="g370"><path
           d="m 646.07143,69.404384 71.74286,0 0,5.071402 -71.74286,0 0,-5.071402 z"
           id="path376"
           style="fill:#ffff00;fill-opacity:1;fill-rule:nonzero;stroke:none" /></g></g><g
       id="g378"><g
         clip-path="url(#clipPath382)"
         id="g380"><path
           d="m 167.78571,44.809864 71.74286,0 0,0.639211 -71.74286,0 0,-0.639211 z"
           id="path386"
           style="fill:#7cecf4;fill-opacity:1;fill-rule:nonzero;stroke:none" /></g></g><g
       id="g388"><g
         clip-path="url(#clipPath392)"
         id="g390"><path
           d="m 263.44286,43.597813 71.74285,0 0,0.29836 -71.74285,0 0,-0.29836 z"
           id="path396"
           style="fill:#7cecf4;fill-opacity:1;fill-rule:nonzero;stroke:none" /></g></g><g
       id="g398"><g
         clip-path="url(#clipPath402)"
         id="g400"><path
           d="m 359.1,70.606452 71.74286,0 0,132.572898 -71.74286,0 0,-132.572898 z"
           id="path406"
           style="fill:#7cecf4;fill-opacity:1;fill-rule:nonzero;stroke:none" /></g></g><g
       id="g408"><g
         clip-path="url(#clipPath412)"
         id="g410"><path
           d="m 454.75714,45.676354 71.74286,0 0,69.635086 -71.74286,0 0,-69.635086 z"
           id="path416"
           style="fill:#7cecf4;fill-opacity:1;fill-rule:nonzero;stroke:none" /></g></g><g
       id="g418"><g
         clip-path="url(#clipPath422)"
         id="g420"><path
           d="m 550.41429,56.200098 71.74285,0 0,314.366002 -71.74285,0 0,-314.366002 z"
           id="path426"
           style="fill:#7cecf4;fill-opacity:1;fill-rule:nonzero;stroke:none" /></g></g><g
       id="g428"><g
         clip-path="url(#clipPath432)"
         id="g430"><path
           d="m 646.07143,74.475786 71.74286,0 0,68.457504 -71.74286,0 0,-68.457504 z"
           id="path436"
           style="fill:#7cecf4;fill-opacity:1;fill-rule:nonzero;stroke:none" /></g></g><g
       id="g438"><g
         clip-path="url(#clipPath442)"
         id="g440"><path
           d="m 167.78571,45.449075 71.74286,0 0,343.350925 -71.74286,0 0,-343.350925 z"
           id="path446"
           style="fill:#f49ac2;fill-opacity:1;fill-rule:nonzero;stroke:none" /></g></g><g
       id="g448"><g
         clip-path="url(#clipPath452)"
         id="g450"><path
           d="m 263.44286,43.896173 71.74285,0 0,344.903827 -71.74285,0 0,-344.903827 z"
           id="path456"
           style="fill:#f49ac2;fill-opacity:1;fill-rule:nonzero;stroke:none" /></g></g><g
       id="g458"><g
         clip-path="url(#clipPath462)"
         id="g460"><path
           d="m 359.1,203.17935 71.74286,0 0,185.34194 -71.74286,0 0,-185.34194 z"
           id="path466"
           style="fill:#f49ac2;fill-opacity:1;fill-rule:nonzero;stroke:none" /></g></g><g
       id="g468"><g
         clip-path="url(#clipPath472)"
         id="g470"><path
           d="m 454.75714,115.31144 71.74286,0 0,273.48856 -71.74286,0 0,-273.48856 z"
           id="path476"
           style="fill:#f49ac2;fill-opacity:1;fill-rule:nonzero;stroke:none" /></g></g><g
       id="g478"><g
         clip-path="url(#clipPath482)"
         id="g480"><path
           d="m 550.41429,370.5661 71.74285,0 0,17.05207 -71.74285,0 0,-17.05207 z"
           id="path486"
           style="fill:#f49ac2;fill-opacity:1;fill-rule:nonzero;stroke:none" /></g></g><g
       id="g488"><g
         clip-path="url(#clipPath492)"
         id="g490"><path
           d="m 646.07143,142.93329 71.74286,0 0,242.05353 -71.74286,0 0,-242.05353 z"
           id="path496"
           style="fill:#f49ac2;fill-opacity:1;fill-rule:nonzero;stroke:none" /></g></g><g
       id="g498"><g
         clip-path="url(#clipPath502)"
         id="g500"><path
           d="m 167.78571,388.8 71.74286,0 0,0 -71.74286,0 z"
           id="path506"
           style="fill:#5da09e;fill-opacity:1;fill-rule:nonzero;stroke:none" /></g></g><g
       id="g508"><g
         clip-path="url(#clipPath512)"
         id="g510"><path
           d="m 263.44286,388.8 71.74285,0 0,0 -71.74285,0 z"
           id="path516"
           style="fill:#5da09e;fill-opacity:1;fill-rule:nonzero;stroke:none" /></g></g><g
       id="g518"><g
         clip-path="url(#clipPath522)"
         id="g520"><path
           d="m 359.1,388.52129 71.74286,0 0,0.27871 -71.74286,0 0,-0.27871 z"
           id="path526"
           style="fill:#5da09e;fill-opacity:1;fill-rule:nonzero;stroke:none" /></g></g><g
       id="g528"><g
         clip-path="url(#clipPath532)"
         id="g530"><path
           d="m 454.75714,388.8 71.74286,0 0,0 -71.74286,0 z"
           id="path536"
           style="fill:#5da09e;fill-opacity:1;fill-rule:nonzero;stroke:none" /></g></g><g
       id="g538"><g
         clip-path="url(#clipPath542)"
         id="g540"><path
           d="m 550.41429,387.61817 71.74285,0 0,0 -71.74285,0 z"
           id="path546"
           style="fill:#5da09e;fill-opacity:1;fill-rule:nonzero;stroke:none" /></g></g><g
       id="g548"><g
         clip-path="url(#clipPath552)"
         id="g550"><path
           d="m 646.07143,384.98682 71.74286,0 0,0 -71.74286,0 z"
           id="path556"
           style="fill:#5da09e;fill-opacity:1;fill-rule:nonzero;stroke:none" /></g></g><g
       id="g558"><g
         clip-path="url(#clipPath562)"
         id="g560"><path
           d="m 167.78571,388.8 71.74286,0 0,0 -71.74286,0 z"
           id="path566"
           style="fill:#6b440b;fill-opacity:1;fill-rule:nonzero;stroke:none" /></g></g><g
       id="g568"><g
         clip-path="url(#clipPath572)"
         id="g570"><path
           d="m 263.44286,388.8 71.74285,0 0,0 -71.74285,0 z"
           id="path576"
           style="fill:#6b440b;fill-opacity:1;fill-rule:nonzero;stroke:none" /></g></g><g
       id="g578"><g
         clip-path="url(#clipPath582)"
         id="g580"><path
           d="m 359.1,388.8 71.74286,0 0,0 -71.74286,0 z"
           id="path586"
           style="fill:#6b440b;fill-opacity:1;fill-rule:nonzero;stroke:none" /></g></g><g
       id="g588"><g
         clip-path="url(#clipPath592)"
         id="g590"><path
           d="m 454.75714,388.8 71.74286,0 0,0 -71.74286,0 z"
           id="path596"
           style="fill:#6b440b;fill-opacity:1;fill-rule:nonzero;stroke:none" /></g></g><g
       id="g598"><g
         clip-path="url(#clipPath602)"
         id="g600"><path
           d="m 550.41429,387.61817 71.74285,0 0,0 -71.74285,0 z"
           id="path606"
           style="fill:#6b440b;fill-opacity:1;fill-rule:nonzero;stroke:none" /></g></g><g
       id="g608"><g
         clip-path="url(#clipPath612)"
         id="g610"><path
           d="m 646.07143,384.98682 71.74286,0 0,0.34665 -71.74286,0 0,-0.34665 z"
           id="path616"
           style="fill:#6b440b;fill-opacity:1;fill-rule:nonzero;stroke:none" /></g></g><g
       id="g618"><g
         clip-path="url(#clipPath622)"
         id="g620"><path
           d="m 167.78571,388.8 71.74286,0 0,0 -71.74286,0 z"
           id="path626"
           style="fill:#808080;fill-opacity:1;fill-rule:nonzero;stroke:none" /></g></g><g
       id="g628"><g
         clip-path="url(#clipPath632)"
         id="g630"><path
           d="m 263.44286,388.8 71.74285,0 0,0 -71.74285,0 z"
           id="path636"
           style="fill:#808080;fill-opacity:1;fill-rule:nonzero;stroke:none" /></g></g><g
       id="g638"><g
         clip-path="url(#clipPath642)"
         id="g640"><path
           d="m 359.1,388.8 71.74286,0 0,0 -71.74286,0 z"
           id="path646"
           style="fill:#808080;fill-opacity:1;fill-rule:nonzero;stroke:none" /></g></g><g
       id="g648"><g
         clip-path="url(#clipPath652)"
         id="g650"><path
           d="m 454.75714,388.8 71.74286,0 0,0 -71.74286,0 z"
           id="path656"
           style="fill:#808080;fill-opacity:1;fill-rule:nonzero;stroke:none" /></g></g><g
       id="g658"><g
         clip-path="url(#clipPath662)"
         id="g660"><path
           d="m 550.41429,387.61817 71.74285,0 0,0 -71.74285,0 z"
           id="path666"
           style="fill:#808080;fill-opacity:1;fill-rule:nonzero;stroke:none" /></g></g><g
       id="g668"><g
         clip-path="url(#clipPath672)"
         id="g670"><path
           d="m 646.07143,385.33347 71.74286,0 0,3.46653 -71.74286,0 0,-3.46653 z"
           id="path676"
           style="fill:#808080;fill-opacity:1;fill-rule:nonzero;stroke:none" /></g></g><g
       id="g678"><g
         clip-path="url(#clipPath682)"
         id="g680"><path
           d="m 167.78571,388.8 71.74286,0 0,0 -71.74286,0 z"
           id="path686"
           style="fill:#02f40e;fill-opacity:1;fill-rule:nonzero;stroke:none" /></g></g><g
       id="g688"><g
         clip-path="url(#clipPath692)"
         id="g690"><path
           d="m 263.44286,388.8 71.74285,0 0,0 -71.74285,0 z"
           id="path696"
           style="fill:#02f40e;fill-opacity:1;fill-rule:nonzero;stroke:none" /></g></g><g
       id="g698"><g
         clip-path="url(#clipPath702)"
         id="g700"><path
           d="m 359.1,388.8 71.74286,0 0,0 -71.74286,0 z"
           id="path706"
           style="fill:#02f40e;fill-opacity:1;fill-rule:nonzero;stroke:none" /></g></g><g
       id="g708"><g
         clip-path="url(#clipPath712)"
         id="g710"><path
           d="m 454.75714,388.8 71.74286,0 0,0 -71.74286,0 z"
           id="path716"
           style="fill:#02f40e;fill-opacity:1;fill-rule:nonzero;stroke:none" /></g></g><g
       id="g718"><g
         clip-path="url(#clipPath722)"
         id="g720"><path
           d="m 550.41429,387.61817 71.74285,0 0,1.18183 -71.74285,0 0,-1.18183 z"
           id="path726"
           style="fill:#02f40e;fill-opacity:1;fill-rule:nonzero;stroke:none" /></g></g><g
       id="g728"><g
         clip-path="url(#clipPath732)"
         id="g730"><path
           d="m 646.07143,388.8 71.74286,0 0,0 -71.74286,0 z"
           id="path736"
           style="fill:#02f40e;fill-opacity:1;fill-rule:nonzero;stroke:none" /></g></g><g
       id="g738"><text
         transform="matrix(0,1,1,0,206.41496,19.496875)"
         id="text740"><tspan
           x="0 6.98 13.34"
           y="0"
           id="tspan742"
           style="font-size:10px;font-variant:normal;font-weight:normal;writing-mode:lr-tb;fill:#000000;fill-opacity:1;fill-rule:nonzero;stroke:none;font-family:Bitstream Charter;-inkscape-font-specification:BitstreamVeraSans-Roman">C11</tspan></text>
<text
         transform="matrix(0,1,1,0,302.0721,19.496875)"
         id="text744"><tspan
           x="0 6.98 13.34"
           y="0"
           id="tspan746"
           style="font-size:10px;font-variant:normal;font-weight:normal;writing-mode:lr-tb;fill:#000000;fill-opacity:1;fill-rule:nonzero;stroke:none;font-family:Bitstream Charter;-inkscape-font-specification:BitstreamVeraSans-Roman">C12</tspan></text>
<text
         transform="matrix(0,1,1,0,397.72924,15.496875)"
         id="text748"><tspan
           x="0 7.6999998 14.06 20.190001"
           y="0"
           id="tspan750"
           style="font-size:10px;font-variant:normal;font-weight:normal;writing-mode:lr-tb;fill:#000000;fill-opacity:1;fill-rule:nonzero;stroke:none;font-family:Bitstream Charter;-inkscape-font-specification:BitstreamVeraSans-Roman">D1af</tspan></text>
<text
         transform="matrix(0,1,1,0,493.38638,15.278125)"
         id="text752"><tspan
           x="0 7.6999998 14.06 20.41"
           y="0"
           id="tspan754"
           style="font-size:10px;font-variant:normal;font-weight:normal;writing-mode:lr-tb;fill:#000000;fill-opacity:1;fill-rule:nonzero;stroke:none;font-family:Bitstream Charter;-inkscape-font-specification:BitstreamVeraSans-Roman">D1bf</tspan></text>
<text
         transform="matrix(0,1,1,0,589.04353,15.496875)"
         id="text756"><tspan
           x="0 7.6999998 14.06 20.190001"
           y="0"
           id="tspan758"
           style="font-size:10px;font-variant:normal;font-weight:normal;writing-mode:lr-tb;fill:#000000;fill-opacity:1;fill-rule:nonzero;stroke:none;font-family:Bitstream Charter;-inkscape-font-specification:BitstreamVeraSans-Roman">D3af</tspan></text>
<text
         transform="matrix(0,1,1,0,684.70067,15.278125)"
         id="text760"><tspan
           x="0 7.6999998 14.06 20.41"
           y="0"
           id="tspan762"
           style="font-size:10px;font-variant:normal;font-weight:normal;writing-mode:lr-tb;fill:#000000;fill-opacity:1;fill-rule:nonzero;stroke:none;font-family:Bitstream Charter;-inkscape-font-specification:BitstreamVeraSans-Roman">D5bf</tspan></text>
</g></g></svg>