<?xml version="1.0" encoding="UTF-8" standalone="no"?>
<!-- Created with Inkscape (http://www.inkscape.org/) -->

<svg
   xmlns:svg="http://www.w3.org/2000/svg"
   xmlns="http://www.w3.org/2000/svg"
   version="1.1"
   width="720"
   height="540"
   id="svg2"
   xml:space="preserve"><defs
     id="defs6"><clipPath
       id="clipPath22"><path
         d="m 37.82875,73.786563 525.21125,0 0,339.403437 -525.21125,0 0,-339.403437 z"
         id="path24" /></clipPath><clipPath
       id="clipPath32"><path
         d="m 37.82875,73.786563 525.21125,0 0,339.403437 -525.21125,0 0,-339.403437 z"
         id="path34" /></clipPath><clipPath
       id="clipPath42"><path
         d="m 37.82875,73.786563 525.21125,0 0,339.403437 -525.21125,0 0,-339.403437 z"
         id="path44" /></clipPath><clipPath
       id="clipPath52"><path
         d="m 37.82875,73.786563 525.21125,0 0,339.403437 -525.21125,0 0,-339.403437 z"
         id="path54" /></clipPath><clipPath
       id="clipPath62"><path
         d="m 37.82875,73.786563 525.21125,0 0,339.403437 -525.21125,0 0,-339.403437 z"
         id="path64" /></clipPath><clipPath
       id="clipPath72"><path
         d="m 37.82875,73.786563 525.21125,0 0,339.403437 -525.21125,0 0,-339.403437 z"
         id="path74" /></clipPath><clipPath
       id="clipPath82"><path
         d="m 37.82875,73.786563 525.21125,0 0,339.403437 -525.21125,0 0,-339.403437 z"
         id="path84" /></clipPath><clipPath
       id="clipPath92"><path
         d="m 37.82875,73.786563 525.21125,0 0,339.403437 -525.21125,0 0,-339.403437 z"
         id="path94" /></clipPath><clipPath
       id="clipPath102"><path
         d="m 37.82875,73.786563 525.21125,0 0,339.403437 -525.21125,0 0,-339.403437 z"
         id="path104" /></clipPath><clipPath
       id="clipPath112"><path
         d="m 37.82875,73.786563 525.21125,0 0,339.403437 -525.21125,0 0,-339.403437 z"
         id="path114" /></clipPath><clipPath
       id="clipPath122"><path
         d="m 37.82875,73.786563 525.21125,0 0,339.403437 -525.21125,0 0,-339.403437 z"
         id="path124" /></clipPath><clipPath
       id="clipPath132"><path
         d="m 37.82875,73.786563 525.21125,0 0,339.403437 -525.21125,0 0,-339.403437 z"
         id="path134" /></clipPath><clipPath
       id="clipPath142"><path
         d="m 37.82875,73.786563 525.21125,0 0,339.403437 -525.21125,0 0,-339.403437 z"
         id="path144" /></clipPath><clipPath
       id="clipPath152"><path
         d="m 37.82875,73.786563 525.21125,0 0,339.403437 -525.21125,0 0,-339.403437 z"
         id="path154" /></clipPath><clipPath
       id="clipPath162"><path
         d="m 37.82875,73.786563 525.21125,0 0,339.403437 -525.21125,0 0,-339.403437 z"
         id="path164" /></clipPath><clipPath
       id="clipPath172"><path
         d="m 37.82875,73.786563 525.21125,0 0,339.403437 -525.21125,0 0,-339.403437 z"
         id="path174" /></clipPath><clipPath
       id="clipPath182"><path
         d="m 37.82875,73.786563 525.21125,0 0,339.403437 -525.21125,0 0,-339.403437 z"
         id="path184" /></clipPath><clipPath
       id="clipPath192"><path
         d="m 37.82875,73.786563 525.21125,0 0,339.403437 -525.21125,0 0,-339.403437 z"
         id="path194" /></clipPath><clipPath
       id="clipPath202"><path
         d="m 37.82875,73.786563 525.21125,0 0,339.403437 -525.21125,0 0,-339.403437 z"
         id="path204" /></clipPath><clipPath
       id="clipPath212"><path
         d="m 37.82875,73.786563 525.21125,0 0,339.403437 -525.21125,0 0,-339.403437 z"
         id="path214" /></clipPath><clipPath
       id="clipPath222"><path
         d="m 37.82875,73.786563 525.21125,0 0,339.403437 -525.21125,0 0,-339.403437 z"
         id="path224" /></clipPath><clipPath
       id="clipPath232"><path
         d="m 37.82875,73.786563 525.21125,0 0,339.403437 -525.21125,0 0,-339.403437 z"
         id="path234" /></clipPath><clipPath
       id="clipPath242"><path
         d="m 37.82875,73.786563 525.21125,0 0,339.403437 -525.21125,0 0,-339.403437 z"
         id="path244" /></clipPath><clipPath
       id="clipPath252"><path
         d="m 37.82875,73.786563 525.21125,0 0,339.403437 -525.21125,0 0,-339.403437 z"
         id="path254" /></clipPath><clipPath
       id="clipPath262"><path
         d="m 37.82875,73.786563 525.21125,0 0,339.403437 -525.21125,0 0,-339.403437 z"
         id="path264" /></clipPath><clipPath
       id="clipPath272"><path
         d="m 37.82875,73.786563 525.21125,0 0,339.403437 -525.21125,0 0,-339.403437 z"
         id="path274" /></clipPath><clipPath
       id="clipPath282"><path
         d="m 37.82875,73.786563 525.21125,0 0,339.403437 -525.21125,0 0,-339.403437 z"
         id="path284" /></clipPath><clipPath
       id="clipPath292"><path
         d="m 37.82875,73.786563 525.21125,0 0,339.403437 -525.21125,0 0,-339.403437 z"
         id="path294" /></clipPath><clipPath
       id="clipPath302"><path
         d="m 37.82875,73.786563 525.21125,0 0,339.403437 -525.21125,0 0,-339.403437 z"
         id="path304" /></clipPath><clipPath
       id="clipPath312"><path
         d="m 37.82875,73.786563 525.21125,0 0,339.403437 -525.21125,0 0,-339.403437 z"
         id="path314" /></clipPath><clipPath
       id="clipPath322"><path
         d="m 37.82875,73.786563 525.21125,0 0,339.403437 -525.21125,0 0,-339.403437 z"
         id="path324" /></clipPath><clipPath
       id="clipPath332"><path
         d="m 37.82875,73.786563 525.21125,0 0,339.403437 -525.21125,0 0,-339.403437 z"
         id="path334" /></clipPath><clipPath
       id="clipPath342"><path
         d="m 37.82875,73.786563 525.21125,0 0,339.403437 -525.21125,0 0,-339.403437 z"
         id="path344" /></clipPath><clipPath
       id="clipPath352"><path
         d="m 37.82875,73.786563 525.21125,0 0,339.403437 -525.21125,0 0,-339.403437 z"
         id="path354" /></clipPath><clipPath
       id="clipPath362"><path
         d="m 37.82875,73.786563 525.21125,0 0,339.403437 -525.21125,0 0,-339.403437 z"
         id="path364" /></clipPath><clipPath
       id="clipPath372"><path
         d="m 37.82875,73.786563 525.21125,0 0,339.403437 -525.21125,0 0,-339.403437 z"
         id="path374" /></clipPath></defs><g
     transform="matrix(1.25,0,0,-1.25,0,540)"
     id="g12"><path
       d="M 0,0 576,0 576,432 0,432 0,0 z"
       id="path14"
       style="fill:#ffffff;fill-opacity:1;fill-rule:nonzero;stroke:none" /><path
       d="m 37.82875,73.786563 525.21125,0 0,339.403437 -525.21125,0 0,-339.403437 z"
       id="path16"
       style="fill:#ffffff;fill-opacity:1;fill-rule:nonzero;stroke:none" /><g
       id="g18"><g
         clip-path="url(#clipPath22)"
         id="g20"><path
           d="m 59.712552,316.3186 43.767608,0 0,38.64522 -43.767608,0 0,-38.64522"
           id="path26"
           style="fill:none;stroke:#0000ff;stroke-width:1;stroke-linecap:square;stroke-linejoin:round;stroke-miterlimit:10;stroke-opacity:1;stroke-dasharray:none" /></g></g><g
       id="g28"><g
         clip-path="url(#clipPath32)"
         id="g30"><path
           d="m 81.596354,316.3186 0,-33.94034"
           id="path36"
           style="fill:none;stroke:#0000ff;stroke-width:1;stroke-linecap:butt;stroke-linejoin:round;stroke-miterlimit:10;stroke-opacity:1;stroke-dasharray:6, 6;stroke-dashoffset:0" /></g></g><g
       id="g38"><g
         clip-path="url(#clipPath42)"
         id="g40"><path
           d="m 81.596354,354.96382 0,4.70487"
           id="path46"
           style="fill:none;stroke:#0000ff;stroke-width:1;stroke-linecap:butt;stroke-linejoin:round;stroke-miterlimit:10;stroke-opacity:1;stroke-dasharray:6, 6;stroke-dashoffset:0" /></g></g><g
       id="g48"><g
         clip-path="url(#clipPath52)"
         id="g50"><path
           d="m 70.654453,282.37826 21.883802,0"
           id="path56"
           style="fill:none;stroke:#000000;stroke-width:1;stroke-linecap:square;stroke-linejoin:round;stroke-miterlimit:10;stroke-opacity:1;stroke-dasharray:none" /></g></g><g
       id="g58"><g
         clip-path="url(#clipPath62)"
         id="g60"><path
           d="m 70.654453,359.66869 21.883802,0"
           id="path66"
           style="fill:none;stroke:#000000;stroke-width:1;stroke-linecap:square;stroke-linejoin:round;stroke-miterlimit:10;stroke-opacity:1;stroke-dasharray:none" /></g></g><g
       id="g68"><g
         clip-path="url(#clipPath72)"
         id="g70"><path
           d="m 59.712552,350.25895 43.767608,0"
           id="path76"
           style="fill:none;stroke:#ff0000;stroke-width:1;stroke-linecap:square;stroke-linejoin:round;stroke-miterlimit:10;stroke-opacity:1;stroke-dasharray:none" /></g></g><g
       id="g78"><g
         clip-path="url(#clipPath82)"
         id="g80"><path
           d="m 147.24776,209.24153 43.7676,0 0,11.03061 -43.7676,0 0,-11.03061"
           id="path86"
           style="fill:none;stroke:#0000ff;stroke-width:1;stroke-linecap:square;stroke-linejoin:round;stroke-miterlimit:10;stroke-opacity:1;stroke-dasharray:none" /></g></g><g
       id="g88"><g
         clip-path="url(#clipPath92)"
         id="g90"><path
           d="m 169.13156,209.24153 0,-4.78464"
           id="path96"
           style="fill:none;stroke:#0000ff;stroke-width:1;stroke-linecap:butt;stroke-linejoin:round;stroke-miterlimit:10;stroke-opacity:1;stroke-dasharray:6, 6;stroke-dashoffset:0" /></g></g><g
       id="g98"><g
         clip-path="url(#clipPath102)"
         id="g100"><path
           d="m 169.13156,220.27214 0,6.24597"
           id="path106"
           style="fill:none;stroke:#0000ff;stroke-width:1;stroke-linecap:butt;stroke-linejoin:round;stroke-miterlimit:10;stroke-opacity:1;stroke-dasharray:6, 6;stroke-dashoffset:0" /></g></g><g
       id="g108"><g
         clip-path="url(#clipPath112)"
         id="g110"><path
           d="m 158.18966,204.45689 21.8838,0"
           id="path116"
           style="fill:none;stroke:#000000;stroke-width:1;stroke-linecap:square;stroke-linejoin:round;stroke-miterlimit:10;stroke-opacity:1;stroke-dasharray:none" /></g></g><g
       id="g118"><g
         clip-path="url(#clipPath122)"
         id="g120"><path
           d="m 158.18966,226.51811 21.8838,0"
           id="path126"
           style="fill:none;stroke:#000000;stroke-width:1;stroke-linecap:square;stroke-linejoin:round;stroke-miterlimit:10;stroke-opacity:1;stroke-dasharray:none" /></g></g><g
       id="g128"><g
         clip-path="url(#clipPath132)"
         id="g130"><path
           d="m 147.24776,214.02618 43.7676,0"
           id="path136"
           style="fill:none;stroke:#ff0000;stroke-width:1;stroke-linecap:square;stroke-linejoin:round;stroke-miterlimit:10;stroke-opacity:1;stroke-dasharray:none" /></g></g><g
       id="g138"><g
         clip-path="url(#clipPath142)"
         id="g140"><path
           d="m 234.78297,131.03396 43.7676,0 0,81.69588 -43.7676,0 0,-81.69588"
           id="path146"
           style="fill:none;stroke:#0000ff;stroke-width:1;stroke-linecap:square;stroke-linejoin:round;stroke-miterlimit:10;stroke-opacity:1;stroke-dasharray:none" /></g></g><g
       id="g148"><g
         clip-path="url(#clipPath152)"
         id="g150"><path
           d="m 256.66677,131.03396 0,-18.1756"
           id="path156"
           style="fill:none;stroke:#0000ff;stroke-width:1;stroke-linecap:butt;stroke-linejoin:round;stroke-miterlimit:10;stroke-opacity:1;stroke-dasharray:6, 6;stroke-dashoffset:0" /></g></g><g
       id="g158"><g
         clip-path="url(#clipPath162)"
         id="g160"><path
           d="m 256.66677,212.72984 0,63.5203"
           id="path166"
           style="fill:none;stroke:#0000ff;stroke-width:1;stroke-linecap:butt;stroke-linejoin:round;stroke-miterlimit:10;stroke-opacity:1;stroke-dasharray:6, 6;stroke-dashoffset:0" /></g></g><g
       id="g168"><g
         clip-path="url(#clipPath172)"
         id="g170"><path
           d="m 245.72487,112.85836 21.8838,0"
           id="path176"
           style="fill:none;stroke:#000000;stroke-width:1;stroke-linecap:square;stroke-linejoin:round;stroke-miterlimit:10;stroke-opacity:1;stroke-dasharray:none" /></g></g><g
       id="g178"><g
         clip-path="url(#clipPath182)"
         id="g180"><path
           d="m 245.72487,276.25014 21.8838,0"
           id="path186"
           style="fill:none;stroke:#000000;stroke-width:1;stroke-linecap:square;stroke-linejoin:round;stroke-miterlimit:10;stroke-opacity:1;stroke-dasharray:none" /></g></g><g
       id="g188"><g
         clip-path="url(#clipPath192)"
         id="g190"><path
           d="m 234.78297,149.20955 43.7676,0"
           id="path196"
           style="fill:none;stroke:#ff0000;stroke-width:1;stroke-linecap:square;stroke-linejoin:round;stroke-miterlimit:10;stroke-opacity:1;stroke-dasharray:none" /></g></g><g
       id="g198"><g
         clip-path="url(#clipPath202)"
         id="g200"><path
           d="m 322.31818,332.81738 43.7676,0 0,23.04571 -43.7676,0 0,-23.04571"
           id="path206"
           style="fill:none;stroke:#0000ff;stroke-width:1;stroke-linecap:square;stroke-linejoin:round;stroke-miterlimit:10;stroke-opacity:1;stroke-dasharray:none" /></g></g><g
       id="g208"><g
         clip-path="url(#clipPath212)"
         id="g210"><path
           d="m 344.20198,332.81738 0,-0.2357"
           id="path216"
           style="fill:none;stroke:#0000ff;stroke-width:1;stroke-linecap:butt;stroke-linejoin:round;stroke-miterlimit:10;stroke-opacity:1;stroke-dasharray:6, 6;stroke-dashoffset:0" /></g></g><g
       id="g218"><g
         clip-path="url(#clipPath222)"
         id="g220"><path
           d="m 344.20198,355.86309 0,22.81002"
           id="path226"
           style="fill:none;stroke:#0000ff;stroke-width:1;stroke-linecap:butt;stroke-linejoin:round;stroke-miterlimit:10;stroke-opacity:1;stroke-dasharray:6, 6;stroke-dashoffset:0" /></g></g><g
       id="g228"><g
         clip-path="url(#clipPath232)"
         id="g230"><path
           d="m 333.26008,332.58168 21.8838,0"
           id="path236"
           style="fill:none;stroke:#000000;stroke-width:1;stroke-linecap:square;stroke-linejoin:round;stroke-miterlimit:10;stroke-opacity:1;stroke-dasharray:none" /></g></g><g
       id="g238"><g
         clip-path="url(#clipPath242)"
         id="g240"><path
           d="m 333.26008,378.67311 21.8838,0"
           id="path246"
           style="fill:none;stroke:#000000;stroke-width:1;stroke-linecap:square;stroke-linejoin:round;stroke-miterlimit:10;stroke-opacity:1;stroke-dasharray:none" /></g></g><g
       id="g248"><g
         clip-path="url(#clipPath252)"
         id="g250"><path
           d="m 322.31818,333.05308 43.7676,0"
           id="path256"
           style="fill:none;stroke:#ff0000;stroke-width:1;stroke-linecap:square;stroke-linejoin:round;stroke-miterlimit:10;stroke-opacity:1;stroke-dasharray:none" /></g></g><g
       id="g258"><g
         clip-path="url(#clipPath262)"
         id="g260"><path
           d="m 409.85339,233.94204 43.7676,0 0,28.30726 -43.7676,0 0,-28.30726"
           id="path266"
           style="fill:none;stroke:#0000ff;stroke-width:1;stroke-linecap:square;stroke-linejoin:round;stroke-miterlimit:10;stroke-opacity:1;stroke-dasharray:none" /></g></g><g
       id="g268"><g
         clip-path="url(#clipPath272)"
         id="g270"><path
           d="m 431.73719,233.94204 0,-12.69279"
           id="path276"
           style="fill:none;stroke:#0000ff;stroke-width:1;stroke-linecap:butt;stroke-linejoin:round;stroke-miterlimit:10;stroke-opacity:1;stroke-dasharray:6, 6;stroke-dashoffset:0" /></g></g><g
       id="g278"><g
         clip-path="url(#clipPath282)"
         id="g280"><path
           d="m 431.73719,262.2493 0,15.61446"
           id="path286"
           style="fill:none;stroke:#0000ff;stroke-width:1;stroke-linecap:butt;stroke-linejoin:round;stroke-miterlimit:10;stroke-opacity:1;stroke-dasharray:6, 6;stroke-dashoffset:0" /></g></g><g
       id="g288"><g
         clip-path="url(#clipPath292)"
         id="g290"><path
           d="m 420.79529,221.24925 21.8838,0"
           id="path296"
           style="fill:none;stroke:#000000;stroke-width:1;stroke-linecap:square;stroke-linejoin:round;stroke-miterlimit:10;stroke-opacity:1;stroke-dasharray:none" /></g></g><g
       id="g298"><g
         clip-path="url(#clipPath302)"
         id="g300"><path
           d="m 420.79529,277.86376 21.8838,0"
           id="path306"
           style="fill:none;stroke:#000000;stroke-width:1;stroke-linecap:square;stroke-linejoin:round;stroke-miterlimit:10;stroke-opacity:1;stroke-dasharray:none" /></g></g><g
       id="g308"><g
         clip-path="url(#clipPath312)"
         id="g310"><path
           d="m 409.85339,246.63483 43.7676,0"
           id="path316"
           style="fill:none;stroke:#ff0000;stroke-width:1;stroke-linecap:square;stroke-linejoin:round;stroke-miterlimit:10;stroke-opacity:1;stroke-dasharray:none" /></g></g><g
       id="g318"><g
         clip-path="url(#clipPath322)"
         id="g320"><path
           d="m 497.38859,266.95083 43.76761,0 0,39.8799 -43.76761,0 0,-39.8799"
           id="path326"
           style="fill:none;stroke:#0000ff;stroke-width:1;stroke-linecap:square;stroke-linejoin:round;stroke-miterlimit:10;stroke-opacity:1;stroke-dasharray:none" /></g></g><g
       id="g328"><g
         clip-path="url(#clipPath332)"
         id="g330"><path
           d="m 519.2724,266.95083 0,-5.0782"
           id="path336"
           style="fill:none;stroke:#0000ff;stroke-width:1;stroke-linecap:butt;stroke-linejoin:round;stroke-miterlimit:10;stroke-opacity:1;stroke-dasharray:6, 6;stroke-dashoffset:0" /></g></g><g
       id="g338"><g
         clip-path="url(#clipPath342)"
         id="g340"><path
           d="m 519.2724,306.83073 0,34.80171"
           id="path346"
           style="fill:none;stroke:#0000ff;stroke-width:1;stroke-linecap:butt;stroke-linejoin:round;stroke-miterlimit:10;stroke-opacity:1;stroke-dasharray:6, 6;stroke-dashoffset:0" /></g></g><g
       id="g348"><g
         clip-path="url(#clipPath352)"
         id="g350"><path
           d="m 508.33049,261.87263 21.88381,0"
           id="path356"
           style="fill:none;stroke:#000000;stroke-width:1;stroke-linecap:square;stroke-linejoin:round;stroke-miterlimit:10;stroke-opacity:1;stroke-dasharray:none" /></g></g><g
       id="g358"><g
         clip-path="url(#clipPath362)"
         id="g360"><path
           d="m 508.33049,341.63244 21.88381,0"
           id="path366"
           style="fill:none;stroke:#000000;stroke-width:1;stroke-linecap:square;stroke-linejoin:round;stroke-miterlimit:10;stroke-opacity:1;stroke-dasharray:none" /></g></g><g
       id="g368"><g
         clip-path="url(#clipPath372)"
         id="g370"><path
           d="m 497.38859,272.02902 43.76761,0"
           id="path376"
           style="fill:none;stroke:#ff0000;stroke-width:1;stroke-linecap:square;stroke-linejoin:round;stroke-miterlimit:10;stroke-opacity:1;stroke-dasharray:none" /></g></g><g
       id="g378"><path
         d="m 37.82875,413.19 525.21125,0"
         id="path380"
         style="fill:none;stroke:#000000;stroke-width:1;stroke-linecap:square;stroke-linejoin:miter;stroke-miterlimit:10;stroke-opacity:1;stroke-dasharray:none" /><path
         d="m 563.04,73.786563 0,339.403437"
         id="path382"
         style="fill:none;stroke:#000000;stroke-width:1;stroke-linecap:square;stroke-linejoin:miter;stroke-miterlimit:10;stroke-opacity:1;stroke-dasharray:none" /><path
         d="m 37.82875,73.786563 525.21125,0"
         id="path384"
         style="fill:none;stroke:#000000;stroke-width:1;stroke-linecap:square;stroke-linejoin:miter;stroke-miterlimit:10;stroke-opacity:1;stroke-dasharray:none" /><path
         d="m 37.82875,73.786563 0,339.403437"
         id="path386"
         style="fill:none;stroke:#000000;stroke-width:1;stroke-linecap:square;stroke-linejoin:miter;stroke-miterlimit:10;stroke-opacity:1;stroke-dasharray:none" /><path
         d="m 81.596354,73.786563 0,4"
         id="path388"
         style="fill:#000000;fill-opacity:1;fill-rule:nonzero;stroke:#000000;stroke-width:0.5;stroke-linecap:butt;stroke-linejoin:round;stroke-miterlimit:10;stroke-opacity:1;stroke-dasharray:none" /><path
         d="m 81.596354,413.19 0,-4"
         id="path390"
         style="fill:#000000;fill-opacity:1;fill-rule:nonzero;stroke:#000000;stroke-width:0.5;stroke-linecap:butt;stroke-linejoin:round;stroke-miterlimit:10;stroke-opacity:1;stroke-dasharray:none" /><text
         transform="matrix(0,1,1,0,84.908854,12.974063)"
         id="text392"><tspan
           x="0 10.356 19.332001 23.148001 27.827999 35.436001 45.492001 53.124001"
           y="0"
           id="tspan394"
           style="font-size:12px;font-variant:normal;font-weight:normal;writing-mode:lr-tb;fill:#000000;fill-opacity:1;fill-rule:nonzero;stroke:none;font-family:Bitstream Charter;-inkscape-font-specification:BitstreamVeraSans-Roman">MN (n=3)</tspan></text>
<path
         d="m 169.13156,73.786563 0,4"
         id="path396"
         style="fill:#000000;fill-opacity:1;fill-rule:nonzero;stroke:#000000;stroke-width:0.5;stroke-linecap:butt;stroke-linejoin:round;stroke-miterlimit:10;stroke-opacity:1;stroke-dasharray:none" /><path
         d="m 169.13156,413.19 0,-4"
         id="path398"
         style="fill:#000000;fill-opacity:1;fill-rule:nonzero;stroke:#000000;stroke-width:0.5;stroke-linecap:butt;stroke-linejoin:round;stroke-miterlimit:10;stroke-opacity:1;stroke-dasharray:none" /><text
         transform="matrix(0,1,1,0,172.44406,14.630312)"
         id="text400"><tspan
           x="0 10.356 17.688 21.504 26.184 33.792 43.848 51.48"
           y="0"
           id="tspan402"
           style="font-size:12px;font-variant:normal;font-weight:normal;writing-mode:lr-tb;fill:#000000;fill-opacity:1;fill-rule:nonzero;stroke:none;font-family:Bitstream Charter;-inkscape-font-specification:BitstreamVeraSans-Roman">MT (n=3)</tspan></text>
<path
         d="m 256.66677,73.786563 0,4"
         id="path404"
         style="fill:#000000;fill-opacity:1;fill-rule:nonzero;stroke:#000000;stroke-width:0.5;stroke-linecap:butt;stroke-linejoin:round;stroke-miterlimit:10;stroke-opacity:1;stroke-dasharray:none" /><path
         d="m 256.66677,413.19 0,-4"
         id="path406"
         style="fill:#000000;fill-opacity:1;fill-rule:nonzero;stroke:#000000;stroke-width:0.5;stroke-linecap:butt;stroke-linejoin:round;stroke-miterlimit:10;stroke-opacity:1;stroke-dasharray:none" /><text
         transform="matrix(0,1,1,0,259.97927,14.333438)"
         id="text408"><tspan
           x="0 7.6199999 17.976 21.792 26.472 34.080002 44.136002 51.768002"
           y="0"
           id="tspan410"
           style="font-size:12px;font-variant:normal;font-weight:normal;writing-mode:lr-tb;fill:#000000;fill-opacity:1;fill-rule:nonzero;stroke:none;font-family:Bitstream Charter;-inkscape-font-specification:BitstreamVeraSans-Roman">SM (n=3)</tspan></text>
<path
         d="m 344.20198,73.786563 0,4"
         id="path412"
         style="fill:#000000;fill-opacity:1;fill-rule:nonzero;stroke:#000000;stroke-width:0.5;stroke-linecap:butt;stroke-linejoin:round;stroke-miterlimit:10;stroke-opacity:1;stroke-dasharray:none" /><path
         d="m 344.20198,413.19 0,-4"
         id="path414"
         style="fill:#000000;fill-opacity:1;fill-rule:nonzero;stroke:#000000;stroke-width:0.5;stroke-linecap:butt;stroke-linejoin:round;stroke-miterlimit:10;stroke-opacity:1;stroke-dasharray:none" /><text
         transform="matrix(0,1,1,0,347.51448,17.630312)"
         id="text416"><tspan
           x="0 7.3319998 15.54 19.356001 24.035999 31.643999 41.700001 49.332001"
           y="0"
           id="tspan418"
           style="font-size:12px;font-variant:normal;font-weight:normal;writing-mode:lr-tb;fill:#000000;fill-opacity:1;fill-rule:nonzero;stroke:none;font-family:Bitstream Charter;-inkscape-font-specification:BitstreamVeraSans-Roman">TA (n=3)</tspan></text>
<path
         d="m 431.73719,73.786563 0,4"
         id="path420"
         style="fill:#000000;fill-opacity:1;fill-rule:nonzero;stroke:#000000;stroke-width:0.5;stroke-linecap:butt;stroke-linejoin:round;stroke-miterlimit:10;stroke-opacity:1;stroke-dasharray:none" /><path
         d="m 431.73719,413.19 0,-4"
         id="path422"
         style="fill:#000000;fill-opacity:1;fill-rule:nonzero;stroke:#000000;stroke-width:0.5;stroke-linecap:butt;stroke-linejoin:round;stroke-miterlimit:10;stroke-opacity:1;stroke-dasharray:none" /><text
         transform="matrix(0,1,1,0,435.04969,17.333437)"
         id="text424"><tspan
           x="0 7.3319998 15.708 19.524 24.204 31.812 41.868 49.5"
           y="0"
           id="tspan426"
           style="font-size:12px;font-variant:normal;font-weight:normal;writing-mode:lr-tb;fill:#000000;fill-opacity:1;fill-rule:nonzero;stroke:none;font-family:Bitstream Charter;-inkscape-font-specification:BitstreamVeraSans-Roman">TC (n=3)</tspan></text>
<path
         d="m 519.2724,73.786563 0,4"
         id="path428"
         style="fill:#000000;fill-opacity:1;fill-rule:nonzero;stroke:#000000;stroke-width:0.5;stroke-linecap:butt;stroke-linejoin:round;stroke-miterlimit:10;stroke-opacity:1;stroke-dasharray:none" /><path
         d="m 519.2724,413.19 0,-4"
         id="path430"
         style="fill:#000000;fill-opacity:1;fill-rule:nonzero;stroke:#000000;stroke-width:0.5;stroke-linecap:butt;stroke-linejoin:round;stroke-miterlimit:10;stroke-opacity:1;stroke-dasharray:none" /><text
         transform="matrix(0,1,1,0,522.5849,18.270937)"
         id="text432"><tspan
           x="0 7.3319998 14.016 17.832001 22.511999 30.120001 40.175999 47.807999"
           y="0"
           id="tspan434"
           style="font-size:12px;font-variant:normal;font-weight:normal;writing-mode:lr-tb;fill:#000000;fill-opacity:1;fill-rule:nonzero;stroke:none;font-family:Bitstream Charter;-inkscape-font-specification:BitstreamVeraSans-Roman">TL (n=3)</tspan></text>
<path
         d="m 37.82875,73.786563 4,0"
         id="path436"
         style="fill:#000000;fill-opacity:1;fill-rule:nonzero;stroke:#000000;stroke-width:0.5;stroke-linecap:butt;stroke-linejoin:round;stroke-miterlimit:10;stroke-opacity:1;stroke-dasharray:none" /><path
         d="m 563.04,73.786563 -4,0"
         id="path438"
         style="fill:#000000;fill-opacity:1;fill-rule:nonzero;stroke:#000000;stroke-width:0.5;stroke-linecap:butt;stroke-linejoin:round;stroke-miterlimit:10;stroke-opacity:1;stroke-dasharray:none" /><text
         transform="matrix(1,0,0,-1,19.938125,70.474063)"
         id="text440"><tspan
           x="0 7.632"
           y="0"
           id="tspan442"
           style="font-size:12px;font-variant:normal;font-weight:normal;writing-mode:lr-tb;fill:#000000;fill-opacity:1;fill-rule:nonzero;stroke:none;font-family:Bitstream Charter;-inkscape-font-specification:BitstreamVeraSans-Roman">40</tspan></text>
<path
         d="m 37.82875,130.3538 4,0"
         id="path444"
         style="fill:#000000;fill-opacity:1;fill-rule:nonzero;stroke:#000000;stroke-width:0.5;stroke-linecap:butt;stroke-linejoin:round;stroke-miterlimit:10;stroke-opacity:1;stroke-dasharray:none" /><path
         d="m 563.04,130.3538 -4,0"
         id="path446"
         style="fill:#000000;fill-opacity:1;fill-rule:nonzero;stroke:#000000;stroke-width:0.5;stroke-linecap:butt;stroke-linejoin:round;stroke-miterlimit:10;stroke-opacity:1;stroke-dasharray:none" /><text
         transform="matrix(1,0,0,-1,20.188125,127.0413)"
         id="text448"><tspan
           x="0 7.632"
           y="0"
           id="tspan450"
           style="font-size:12px;font-variant:normal;font-weight:normal;writing-mode:lr-tb;fill:#000000;fill-opacity:1;fill-rule:nonzero;stroke:none;font-family:Bitstream Charter;-inkscape-font-specification:BitstreamVeraSans-Roman">60</tspan></text>
<path
         d="m 37.82875,186.92104 4,0"
         id="path452"
         style="fill:#000000;fill-opacity:1;fill-rule:nonzero;stroke:#000000;stroke-width:0.5;stroke-linecap:butt;stroke-linejoin:round;stroke-miterlimit:10;stroke-opacity:1;stroke-dasharray:none" /><path
         d="m 563.04,186.92104 -4,0"
         id="path454"
         style="fill:#000000;fill-opacity:1;fill-rule:nonzero;stroke:#000000;stroke-width:0.5;stroke-linecap:butt;stroke-linejoin:round;stroke-miterlimit:10;stroke-opacity:1;stroke-dasharray:none" /><text
         transform="matrix(1,0,0,-1,20.156875,183.60854)"
         id="text456"><tspan
           x="0 7.632"
           y="0"
           id="tspan458"
           style="font-size:12px;font-variant:normal;font-weight:normal;writing-mode:lr-tb;fill:#000000;fill-opacity:1;fill-rule:nonzero;stroke:none;font-family:Bitstream Charter;-inkscape-font-specification:BitstreamVeraSans-Roman">80</tspan></text>
<path
         d="m 37.82875,243.48828 4,0"
         id="path460"
         style="fill:#000000;fill-opacity:1;fill-rule:nonzero;stroke:#000000;stroke-width:0.5;stroke-linecap:butt;stroke-linejoin:round;stroke-miterlimit:10;stroke-opacity:1;stroke-dasharray:none" /><path
         d="m 563.04,243.48828 -4,0"
         id="path462"
         style="fill:#000000;fill-opacity:1;fill-rule:nonzero;stroke:#000000;stroke-width:0.5;stroke-linecap:butt;stroke-linejoin:round;stroke-miterlimit:10;stroke-opacity:1;stroke-dasharray:none" /><text
         transform="matrix(1,0,0,-1,13.01625,240.17578)"
         id="text464"><tspan
           x="0 7.632 15.264"
           y="0"
           id="tspan466"
           style="font-size:12px;font-variant:normal;font-weight:normal;writing-mode:lr-tb;fill:#000000;fill-opacity:1;fill-rule:nonzero;stroke:none;font-family:Bitstream Charter;-inkscape-font-specification:BitstreamVeraSans-Roman">100</tspan></text>
<path
         d="m 37.82875,300.05552 4,0"
         id="path468"
         style="fill:#000000;fill-opacity:1;fill-rule:nonzero;stroke:#000000;stroke-width:0.5;stroke-linecap:butt;stroke-linejoin:round;stroke-miterlimit:10;stroke-opacity:1;stroke-dasharray:none" /><path
         d="m 563.04,300.05552 -4,0"
         id="path470"
         style="fill:#000000;fill-opacity:1;fill-rule:nonzero;stroke:#000000;stroke-width:0.5;stroke-linecap:butt;stroke-linejoin:round;stroke-miterlimit:10;stroke-opacity:1;stroke-dasharray:none" /><text
         transform="matrix(1,0,0,-1,13.01625,296.74302)"
         id="text472"><tspan
           x="0 7.632 15.264"
           y="0"
           id="tspan474"
           style="font-size:12px;font-variant:normal;font-weight:normal;writing-mode:lr-tb;fill:#000000;fill-opacity:1;fill-rule:nonzero;stroke:none;font-family:Bitstream Charter;-inkscape-font-specification:BitstreamVeraSans-Roman">120</tspan></text>
<path
         d="m 37.82875,356.62276 4,0"
         id="path476"
         style="fill:#000000;fill-opacity:1;fill-rule:nonzero;stroke:#000000;stroke-width:0.5;stroke-linecap:butt;stroke-linejoin:round;stroke-miterlimit:10;stroke-opacity:1;stroke-dasharray:none" /><path
         d="m 563.04,356.62276 -4,0"
         id="path478"
         style="fill:#000000;fill-opacity:1;fill-rule:nonzero;stroke:#000000;stroke-width:0.5;stroke-linecap:butt;stroke-linejoin:round;stroke-miterlimit:10;stroke-opacity:1;stroke-dasharray:none" /><text
         transform="matrix(1,0,0,-1,13.01625,353.31026)"
         id="text480"><tspan
           x="0 7.632 15.264"
           y="0"
           id="tspan482"
           style="font-size:12px;font-variant:normal;font-weight:normal;writing-mode:lr-tb;fill:#000000;fill-opacity:1;fill-rule:nonzero;stroke:none;font-family:Bitstream Charter;-inkscape-font-specification:BitstreamVeraSans-Roman">140</tspan></text>
<path
         d="m 37.82875,413.19 4,0"
         id="path484"
         style="fill:#000000;fill-opacity:1;fill-rule:nonzero;stroke:#000000;stroke-width:0.5;stroke-linecap:butt;stroke-linejoin:round;stroke-miterlimit:10;stroke-opacity:1;stroke-dasharray:none" /><path
         d="m 563.04,413.19 -4,0"
         id="path486"
         style="fill:#000000;fill-opacity:1;fill-rule:nonzero;stroke:#000000;stroke-width:0.5;stroke-linecap:butt;stroke-linejoin:round;stroke-miterlimit:10;stroke-opacity:1;stroke-dasharray:none" /><text
         transform="matrix(1,0,0,-1,13.01625,409.8775)"
         id="text488"><tspan
           x="0 7.632 15.264"
           y="0"
           id="tspan490"
           style="font-size:12px;font-variant:normal;font-weight:normal;writing-mode:lr-tb;fill:#000000;fill-opacity:1;fill-rule:nonzero;stroke:none;font-family:Bitstream Charter;-inkscape-font-specification:BitstreamVeraSans-Roman">160</tspan></text>
</g></g></svg>