<svg xmlns:svg="http://www.w3.org/2000/svg" xmlns="http://www.w3.org/2000/svg" width="100%" height="100%" viewBox="0 0 1500 1600 " >
<g>
<rect fill="white" stroke="white" x="0" y="0" width="1500" height="1600"/><text fill="black" class="seri" font-size="24" x="600" y="80" >Venn Diagram at distance 2</text>
<text fill="black" class="seri"  font-size="24" x="375"  y="1000">The number of species in group MN12 is 102</text>
<text fill="black" class="seri"  font-size="24" x="375" y="1040">The number of species in group MT209 is 40</text>
<text fill="black" class="seri"  font-size="24" x="375" y="1080">The number of species in group SM2 is 38</text>
<text fill="black" class="seri"  font-size="24" x="375" y="1120">The number of species in group T9 is 70</text>
<text fill="black" class="seri"  font-size="24" x="375" y="1160">The number of species shared between groups MN12 and MT209 is 17</text>
<text fill="black" class="seri"  font-size="24" x="375" y="1200">The number of species shared between groups MN12 and SM2 is 19</text>
<text fill="black" class="seri"  font-size="24" x="375" y="1240">The number of species shared between groups MN12 and T9 is 37</text>
<text fill="black" class="seri"  font-size="24" x="375" y="1280">The number of species shared between groups MT209 and SM2 is 22</text>
<text fill="black" class="seri"  font-size="24" x="375" y="1320">The number of species shared between groups MT209 and T9 is 28</text>
<text fill="black" class="seri"  font-size="24" x="375" y="1360">The number of species shared between groups SM2 and T9 is 27</text>
<text fill="black" class="seri"  font-size="24" x="375" y="1400">The number of species shared between groups MN12, MT209 and SM2 is 13</text>
<text fill="black" class="seri"  font-size="24" x="375" y="1440">The number of species shared between groups MN12, MT209 and T9 is 15</text>
<text fill="black" class="seri"  font-size="24" x="375" y="1480">The number of species shared between groups MN12, SM2 and T9 is 18</text>
<text fill="black" class="seri"  font-size="24" x="375" y="1520">The number of species shared between groups MT209, SM2 and T9 is 19</text>
<ellipse fill="red" stroke="black" opacity=".35" transform="rotate(-45 765 432) " cx="765" cy="432" rx="434" ry="224"/>
 <ellipse fill="green" stroke="black" opacity=".35" transform="rotate(+45 765 432) " cx="765" cy="432" rx="434" ry="224"/>
 <ellipse fill="blue" stroke="black" opacity=".35" transform="rotate(-40 945 576) " cx="945" cy="576" rx="434" ry="224"/>
 <ellipse fill="yellow" stroke="black" opacity=".35" transform="rotate(+40 540 576) " cx="540" cy="576" rx="434" ry="224"/>
 <text fill="black" class="seri" font-size="24" x="989" y="224">62</text>
<text fill="black" class="seri" font-size="24" x="988" y="176">MN12</text>
<text fill="black" class="seri" font-size="24" x="750"  y="320">2</text>
<text fill="black" class="seri" font-size="24" x="540"  y="224">7</text>
<text fill="black" class="seri" font-size="24" x="538"  y="176">MT209</text>
<text fill="black" class="seri" font-size="24" x="1050"  y="384">1</text>
<text fill="black" class="seri" font-size="24"  x="1177"   y="463">7</text>
<text fill="black" class="seri" font-size="24"  x="1176"   y="416">SM2</text>
<text fill="black" class="seri" font-size="24" x="465" y="384">7</text>
<text fill="black" class="seri" font-size="24"  x="329"   y="463">17</text>
<text fill="black" class="seri" font-size="24"  x="329"   y="416">T9</text>
<text fill="black" class="seri" font-size="24" x="509" y="656">17</text>
<text fill="black" class="seri" font-size="24" x="1012" y="656">3</text>
<text fill="black" class="seri" font-size="24" x="750" y="864">3</text>
<text fill="black" class="seri" font-size="24" x="585" y="480">2</text>
<text fill="black" class="seri" font-size="24" x="854" y="720">6</text>
<text fill="black" class="seri" font-size="24" x="652" y="720">5</text>
<text fill="black" class="seri" font-size="24" x="945"  y="480">0</text>
<text fill="black" class="seri" font-size="24" x="749"  y="640">13</text>
<text fill="black"  class="seri" font-size="24" x="375" y="1560">The total richness of all the groups is 152</text>
</g>
</svg>
