<?xml version="1.0" encoding="utf-8" standalone="no"?>
<!DOCTYPE svg PUBLIC "-//W3C//DTD SVG 1.1//EN"
  "http://www.w3.org/Graphics/SVG/1.1/DTD/svg11.dtd">
<!-- Created with matplotlib (http://matplotlib.org/) -->
<svg height="432pt" version="1.1" viewBox="0 0 432 432" width="432pt" xmlns="http://www.w3.org/2000/svg" xmlns:xlink="http://www.w3.org/1999/xlink">
 <defs>
  <style type="text/css">
*{stroke-linecap:butt;stroke-linejoin:round;stroke-miterlimit:100000;}
  </style>
 </defs>
 <g id="figure_1">
  <g id="patch_1">
   <path d="M 0 432 
L 432 432 
L 432 0 
L 0 0 
z
" style="fill:#ffffff;"/>
  </g>
  <g id="axes_1">
   <g id="patch_2">
    <path d="M 54 388.8 
L 388.8 388.8 
L 388.8 43.2 
L 54 43.2 
z
" style="fill:#ffffff;"/>
   </g>
   <g id="patch_3">
    <path clip-path="url(#p5c0f062318)" d="M 64.4625 388.8 
L 127.2375 388.8 
L 127.2375 388.8 
L 64.4625 388.8 
z
" style="fill:#ff0000;"/>
   </g>
   <g id="patch_4">
    <path clip-path="url(#p5c0f062318)" d="M 148.1625 388.8 
L 210.9375 388.8 
L 210.9375 388.8 
L 148.1625 388.8 
z
" style="fill:#ff0000;"/>
   </g>
   <g id="patch_5">
    <path clip-path="url(#p5c0f062318)" d="M 231.8625 388.8 
L 294.6375 388.8 
L 294.6375 388.8 
L 231.8625 388.8 
z
" style="fill:#ff0000;"/>
   </g>
   <g id="patch_6">
    <path clip-path="url(#p5c0f062318)" d="M 315.5625 388.8 
L 378.3375 388.8 
L 378.3375 374.274783 
L 315.5625 374.274783 
z
" style="fill:#ff0000;"/>
   </g>
   <g id="patch_7">
    <path clip-path="url(#p5c0f062318)" d="M 64.4625 388.8 
L 127.2375 388.8 
L 127.2375 387.297391 
L 64.4625 387.297391 
z
" style="fill:#0000ff;"/>
   </g>
   <g id="patch_8">
    <path clip-path="url(#p5c0f062318)" d="M 148.1625 388.8 
L 210.9375 388.8 
L 210.9375 388.8 
L 148.1625 388.8 
z
" style="fill:#0000ff;"/>
   </g>
   <g id="patch_9">
    <path clip-path="url(#p5c0f062318)" d="M 231.8625 388.8 
L 294.6375 388.8 
L 294.6375 263.081739 
L 231.8625 263.081739 
z
" style="fill:#0000ff;"/>
   </g>
   <g id="patch_10">
    <path clip-path="url(#p5c0f062318)" d="M 315.5625 374.274783 
L 378.3375 374.274783 
L 378.3375 373.773913 
L 315.5625 373.773913 
z
" style="fill:#0000ff;"/>
   </g>
   <g id="patch_11">
    <path clip-path="url(#p5c0f062318)" d="M 64.4625 387.297391 
L 127.2375 387.297391 
L 127.2375 381.286957 
L 64.4625 381.286957 
z
" style="fill:#f27304;"/>
   </g>
   <g id="patch_12">
    <path clip-path="url(#p5c0f062318)" d="M 148.1625 388.8 
L 210.9375 388.8 
L 210.9375 385.293913 
L 148.1625 385.293913 
z
" style="fill:#f27304;"/>
   </g>
   <g id="patch_13">
    <path clip-path="url(#p5c0f062318)" d="M 231.8625 263.081739 
L 294.6375 263.081739 
L 294.6375 263.081739 
L 231.8625 263.081739 
z
" style="fill:#f27304;"/>
   </g>
   <g id="patch_14">
    <path clip-path="url(#p5c0f062318)" d="M 315.5625 373.773913 
L 378.3375 373.773913 
L 378.3375 373.773913 
L 315.5625 373.773913 
z
" style="fill:#f27304;"/>
   </g>
   <g id="patch_15">
    <path clip-path="url(#p5c0f062318)" d="M 64.4625 381.286957 
L 127.2375 381.286957 
L 127.2375 282.615652 
L 64.4625 282.615652 
z
" style="fill:#008000;"/>
   </g>
   <g id="patch_16">
    <path clip-path="url(#p5c0f062318)" d="M 148.1625 385.293913 
L 210.9375 385.293913 
L 210.9375 286.622609 
L 148.1625 286.622609 
z
" style="fill:#008000;"/>
   </g>
   <g id="patch_17">
    <path clip-path="url(#p5c0f062318)" d="M 231.8625 263.081739 
L 294.6375 263.081739 
L 294.6375 261.57913 
L 231.8625 261.57913 
z
" style="fill:#008000;"/>
   </g>
   <g id="patch_18">
    <path clip-path="url(#p5c0f062318)" d="M 315.5625 373.773913 
L 378.3375 373.773913 
L 378.3375 245.551304 
L 315.5625 245.551304 
z
" style="fill:#008000;"/>
   </g>
   <g id="patch_19">
    <path clip-path="url(#p5c0f062318)" d="M 64.4625 282.615652 
L 127.2375 282.615652 
L 127.2375 269.092174 
L 64.4625 269.092174 
z
" style="fill:#91278d;"/>
   </g>
   <g id="patch_20">
    <path clip-path="url(#p5c0f062318)" d="M 148.1625 286.622609 
L 210.9375 286.622609 
L 210.9375 270.594783 
L 148.1625 270.594783 
z
" style="fill:#91278d;"/>
   </g>
   <g id="patch_21">
    <path clip-path="url(#p5c0f062318)" d="M 231.8625 261.57913 
L 294.6375 261.57913 
L 294.6375 256.570435 
L 231.8625 256.570435 
z
" style="fill:#91278d;"/>
   </g>
   <g id="patch_22">
    <path clip-path="url(#p5c0f062318)" d="M 315.5625 245.551304 
L 378.3375 245.551304 
L 378.3375 227.01913 
L 315.5625 227.01913 
z
" style="fill:#91278d;"/>
   </g>
   <g id="patch_23">
    <path clip-path="url(#p5c0f062318)" d="M 64.4625 269.092174 
L 127.2375 269.092174 
L 127.2375 266.086957 
L 64.4625 266.086957 
z
" style="fill:#ffff00;"/>
   </g>
   <g id="patch_24">
    <path clip-path="url(#p5c0f062318)" d="M 148.1625 270.594783 
L 210.9375 270.594783 
L 210.9375 266.587826 
L 148.1625 266.587826 
z
" style="fill:#ffff00;"/>
   </g>
   <g id="patch_25">
    <path clip-path="url(#p5c0f062318)" d="M 231.8625 256.570435 
L 294.6375 256.570435 
L 294.6375 208.987826 
L 231.8625 208.987826 
z
" style="fill:#ffff00;"/>
   </g>
   <g id="patch_26">
    <path clip-path="url(#p5c0f062318)" d="M 315.5625 227.01913 
L 378.3375 227.01913 
L 378.3375 218.003478 
L 315.5625 218.003478 
z
" style="fill:#ffff00;"/>
   </g>
   <g id="patch_27">
    <path clip-path="url(#p5c0f062318)" d="M 64.4625 266.086957 
L 127.2375 266.086957 
L 127.2375 258.573913 
L 64.4625 258.573913 
z
" style="fill:#7cecf4;"/>
   </g>
   <g id="patch_28">
    <path clip-path="url(#p5c0f062318)" d="M 148.1625 266.587826 
L 210.9375 266.587826 
L 210.9375 266.086957 
L 148.1625 266.086957 
z
" style="fill:#7cecf4;"/>
   </g>
   <g id="patch_29">
    <path clip-path="url(#p5c0f062318)" d="M 231.8625 208.987826 
L 294.6375 208.987826 
L 294.6375 192.45913 
L 231.8625 192.45913 
z
" style="fill:#7cecf4;"/>
   </g>
   <g id="patch_30">
    <path clip-path="url(#p5c0f062318)" d="M 315.5625 218.003478 
L 378.3375 218.003478 
L 378.3375 216.50087 
L 315.5625 216.50087 
z
" style="fill:#7cecf4;"/>
   </g>
   <g id="patch_31">
    <path clip-path="url(#p5c0f062318)" d="M 64.4625 258.573913 
L 127.2375 258.573913 
L 127.2375 258.073043 
L 64.4625 258.073043 
z
" style="fill:#f49ac2;"/>
   </g>
   <g id="patch_32">
    <path clip-path="url(#p5c0f062318)" d="M 148.1625 266.086957 
L 210.9375 266.086957 
L 210.9375 266.086957 
L 148.1625 266.086957 
z
" style="fill:#f49ac2;"/>
   </g>
   <g id="patch_33">
    <path clip-path="url(#p5c0f062318)" d="M 231.8625 192.45913 
L 294.6375 192.45913 
L 294.6375 192.45913 
L 231.8625 192.45913 
z
" style="fill:#f49ac2;"/>
   </g>
   <g id="patch_34">
    <path clip-path="url(#p5c0f062318)" d="M 315.5625 216.50087 
L 378.3375 216.50087 
L 378.3375 215.49913 
L 315.5625 215.49913 
z
" style="fill:#f49ac2;"/>
   </g>
   <g id="patch_35">
    <path clip-path="url(#p5c0f062318)" d="M 64.4625 258.073043 
L 127.2375 258.073043 
L 127.2375 256.069565 
L 64.4625 256.069565 
z
" style="fill:#5da09e;"/>
   </g>
   <g id="patch_36">
    <path clip-path="url(#p5c0f062318)" d="M 148.1625 266.086957 
L 210.9375 266.086957 
L 210.9375 262.58087 
L 148.1625 262.58087 
z
" style="fill:#5da09e;"/>
   </g>
   <g id="patch_37">
    <path clip-path="url(#p5c0f062318)" d="M 231.8625 192.45913 
L 294.6375 192.45913 
L 294.6375 190.455652 
L 231.8625 190.455652 
z
" style="fill:#5da09e;"/>
   </g>
   <g id="patch_38">
    <path clip-path="url(#p5c0f062318)" d="M 315.5625 215.49913 
L 378.3375 215.49913 
L 378.3375 212.994783 
L 315.5625 212.994783 
z
" style="fill:#5da09e;"/>
   </g>
   <g id="patch_39">
    <path clip-path="url(#p5c0f062318)" d="M 64.4625 256.069565 
L 127.2375 256.069565 
L 127.2375 252.563478 
L 64.4625 252.563478 
z
" style="fill:#6b440b;"/>
   </g>
   <g id="patch_40">
    <path clip-path="url(#p5c0f062318)" d="M 148.1625 262.58087 
L 210.9375 262.58087 
L 210.9375 251.561739 
L 148.1625 251.561739 
z
" style="fill:#6b440b;"/>
   </g>
   <g id="patch_41">
    <path clip-path="url(#p5c0f062318)" d="M 231.8625 190.455652 
L 294.6375 190.455652 
L 294.6375 161.906087 
L 231.8625 161.906087 
z
" style="fill:#6b440b;"/>
   </g>
   <g id="patch_42">
    <path clip-path="url(#p5c0f062318)" d="M 315.5625 212.994783 
L 378.3375 212.994783 
L 378.3375 211.492174 
L 315.5625 211.492174 
z
" style="fill:#6b440b;"/>
   </g>
   <g id="patch_43">
    <path clip-path="url(#p5c0f062318)" d="M 64.4625 252.563478 
L 127.2375 252.563478 
L 127.2375 240.542609 
L 64.4625 240.542609 
z
" style="fill:#808080;"/>
   </g>
   <g id="patch_44">
    <path clip-path="url(#p5c0f062318)" d="M 148.1625 251.561739 
L 210.9375 251.561739 
L 210.9375 236.535652 
L 148.1625 236.535652 
z
" style="fill:#808080;"/>
   </g>
   <g id="patch_45">
    <path clip-path="url(#p5c0f062318)" d="M 231.8625 161.906087 
L 294.6375 161.906087 
L 294.6375 161.906087 
L 231.8625 161.906087 
z
" style="fill:#808080;"/>
   </g>
   <g id="patch_46">
    <path clip-path="url(#p5c0f062318)" d="M 315.5625 211.492174 
L 378.3375 211.492174 
L 378.3375 206.984348 
L 315.5625 206.984348 
z
" style="fill:#808080;"/>
   </g>
   <g id="patch_47">
    <path clip-path="url(#p5c0f062318)" d="M 64.4625 240.542609 
L 127.2375 240.542609 
L 127.2375 240.542609 
L 64.4625 240.542609 
z
" style="fill:#02f40e;"/>
   </g>
   <g id="patch_48">
    <path clip-path="url(#p5c0f062318)" d="M 148.1625 236.535652 
L 210.9375 236.535652 
L 210.9375 236.535652 
L 148.1625 236.535652 
z
" style="fill:#02f40e;"/>
   </g>
   <g id="patch_49">
    <path clip-path="url(#p5c0f062318)" d="M 231.8625 161.906087 
L 294.6375 161.906087 
L 294.6375 129.349565 
L 231.8625 129.349565 
z
" style="fill:#02f40e;"/>
   </g>
   <g id="patch_50">
    <path clip-path="url(#p5c0f062318)" d="M 315.5625 206.984348 
L 378.3375 206.984348 
L 378.3375 206.984348 
L 315.5625 206.984348 
z
" style="fill:#02f40e;"/>
   </g>
   <g id="patch_51">
    <path clip-path="url(#p5c0f062318)" d="M 64.4625 240.542609 
L 127.2375 240.542609 
L 127.2375 240.542609 
L 64.4625 240.542609 
z
" style="fill:#f79679;"/>
   </g>
   <g id="patch_52">
    <path clip-path="url(#p5c0f062318)" d="M 148.1625 236.535652 
L 210.9375 236.535652 
L 210.9375 236.535652 
L 148.1625 236.535652 
z
" style="fill:#f79679;"/>
   </g>
   <g id="patch_53">
    <path clip-path="url(#p5c0f062318)" d="M 231.8625 129.349565 
L 294.6375 129.349565 
L 294.6375 127.846957 
L 231.8625 127.846957 
z
" style="fill:#f79679;"/>
   </g>
   <g id="patch_54">
    <path clip-path="url(#p5c0f062318)" d="M 315.5625 206.984348 
L 378.3375 206.984348 
L 378.3375 206.984348 
L 315.5625 206.984348 
z
" style="fill:#f79679;"/>
   </g>
   <g id="patch_55">
    <path clip-path="url(#p5c0f062318)" d="M 64.4625 240.542609 
L 127.2375 240.542609 
L 127.2375 240.542609 
L 64.4625 240.542609 
z
" style="fill:#7da9d8;"/>
   </g>
   <g id="patch_56">
    <path clip-path="url(#p5c0f062318)" d="M 148.1625 236.535652 
L 210.9375 236.535652 
L 210.9375 235.533913 
L 148.1625 235.533913 
z
" style="fill:#7da9d8;"/>
   </g>
   <g id="patch_57">
    <path clip-path="url(#p5c0f062318)" d="M 231.8625 127.846957 
L 294.6375 127.846957 
L 294.6375 127.846957 
L 231.8625 127.846957 
z
" style="fill:#7da9d8;"/>
   </g>
   <g id="patch_58">
    <path clip-path="url(#p5c0f062318)" d="M 315.5625 206.984348 
L 378.3375 206.984348 
L 378.3375 206.984348 
L 315.5625 206.984348 
z
" style="fill:#7da9d8;"/>
   </g>
   <g id="patch_59">
    <path clip-path="url(#p5c0f062318)" d="M 64.4625 240.542609 
L 127.2375 240.542609 
L 127.2375 144.876522 
L 64.4625 144.876522 
z
" style="fill:#fcc688;"/>
   </g>
   <g id="patch_60">
    <path clip-path="url(#p5c0f062318)" d="M 148.1625 235.533913 
L 210.9375 235.533913 
L 210.9375 142.372174 
L 148.1625 142.372174 
z
" style="fill:#fcc688;"/>
   </g>
   <g id="patch_61">
    <path clip-path="url(#p5c0f062318)" d="M 231.8625 127.846957 
L 294.6375 127.846957 
L 294.6375 46.706087 
L 231.8625 46.706087 
z
" style="fill:#fcc688;"/>
   </g>
   <g id="patch_62">
    <path clip-path="url(#p5c0f062318)" d="M 315.5625 206.984348 
L 378.3375 206.984348 
L 378.3375 81.766957 
L 315.5625 81.766957 
z
" style="fill:#fcc688;"/>
   </g>
   <g id="patch_63">
    <path clip-path="url(#p5c0f062318)" d="M 64.4625 144.876522 
L 127.2375 144.876522 
L 127.2375 144.876522 
L 64.4625 144.876522 
z
" style="fill:#80c99b;"/>
   </g>
   <g id="patch_64">
    <path clip-path="url(#p5c0f062318)" d="M 148.1625 142.372174 
L 210.9375 142.372174 
L 210.9375 142.372174 
L 148.1625 142.372174 
z
" style="fill:#80c99b;"/>
   </g>
   <g id="patch_65">
    <path clip-path="url(#p5c0f062318)" d="M 231.8625 46.706087 
L 294.6375 46.706087 
L 294.6375 43.70087 
L 231.8625 43.70087 
z
" style="fill:#80c99b;"/>
   </g>
   <g id="patch_66">
    <path clip-path="url(#p5c0f062318)" d="M 315.5625 81.766957 
L 378.3375 81.766957 
L 378.3375 81.766957 
L 315.5625 81.766957 
z
" style="fill:#80c99b;"/>
   </g>
   <g id="patch_67">
    <path clip-path="url(#p5c0f062318)" d="M 64.4625 144.876522 
L 127.2375 144.876522 
L 127.2375 43.70087 
L 64.4625 43.70087 
z
" style="fill:#a287bf;"/>
   </g>
   <g id="patch_68">
    <path clip-path="url(#p5c0f062318)" d="M 148.1625 142.372174 
L 210.9375 142.372174 
L 210.9375 43.2 
L 148.1625 43.2 
z
" style="fill:#a287bf;"/>
   </g>
   <g id="patch_69">
    <path clip-path="url(#p5c0f062318)" d="M 231.8625 43.70087 
L 294.6375 43.70087 
L 294.6375 43.2 
L 231.8625 43.2 
z
" style="fill:#a287bf;"/>
   </g>
   <g id="patch_70">
    <path clip-path="url(#p5c0f062318)" d="M 315.5625 81.766957 
L 378.3375 81.766957 
L 378.3375 48.709565 
L 315.5625 48.709565 
z
" style="fill:#a287bf;"/>
   </g>
   <g id="patch_71">
    <path clip-path="url(#p5c0f062318)" d="M 64.4625 43.70087 
L 127.2375 43.70087 
L 127.2375 43.2 
L 64.4625 43.2 
z
" style="fill:#fff899;"/>
   </g>
   <g id="patch_72">
    <path clip-path="url(#p5c0f062318)" d="M 148.1625 43.2 
L 210.9375 43.2 
L 210.9375 43.2 
L 148.1625 43.2 
z
" style="fill:#fff899;"/>
   </g>
   <g id="patch_73">
    <path clip-path="url(#p5c0f062318)" d="M 231.8625 43.2 
L 294.6375 43.2 
L 294.6375 43.2 
L 231.8625 43.2 
z
" style="fill:#fff899;"/>
   </g>
   <g id="patch_74">
    <path clip-path="url(#p5c0f062318)" d="M 315.5625 48.709565 
L 378.3375 48.709565 
L 378.3375 43.2 
L 315.5625 43.2 
z
" style="fill:#fff899;"/>
   </g>
   <g id="patch_75">
    <path d="M 54 43.2 
L 388.8 43.2 
" style="fill:none;"/>
   </g>
   <g id="patch_76">
    <path d="M 388.8 388.8 
L 388.8 43.2 
" style="fill:none;"/>
   </g>
   <g id="patch_77">
    <path d="M 54 388.8 
L 388.8 388.8 
" style="fill:none;"/>
   </g>
   <g id="patch_78">
    <path d="M 54 388.8 
L 54 43.2 
" style="fill:none;"/>
   </g>
   <g id="matplotlib.axis_1">
    <g id="xtick_1">
     <g id="line2d_1"/>
     <g id="line2d_2"/>
     <g id="text_1">
      <!-- S1t1t16s -->
      <defs>
       <path d="M 12.40625 8.296875 
L 28.515625 8.296875 
L 28.515625 63.921875 
L 10.984375 60.40625 
L 10.984375 69.390625 
L 28.421875 72.90625 
L 38.28125 72.90625 
L 38.28125 8.296875 
L 54.390625 8.296875 
L 54.390625 0 
L 12.40625 0 
z
" id="BitstreamVeraSans-Roman-31"/>
       <path d="M 53.515625 70.515625 
L 53.515625 60.890625 
Q 47.90625 63.578125 42.921875 64.890625 
Q 37.9375 66.21875 33.296875 66.21875 
Q 25.25 66.21875 20.875 63.09375 
Q 16.5 59.96875 16.5 54.203125 
Q 16.5 49.359375 19.40625 46.890625 
Q 22.3125 44.4375 30.421875 42.921875 
L 36.375 41.703125 
Q 47.40625 39.59375 52.65625 34.296875 
Q 57.90625 29 57.90625 20.125 
Q 57.90625 9.515625 50.796875 4.046875 
Q 43.703125 -1.421875 29.984375 -1.421875 
Q 24.8125 -1.421875 18.96875 -0.25 
Q 13.140625 0.921875 6.890625 3.21875 
L 6.890625 13.375 
Q 12.890625 10.015625 18.65625 8.296875 
Q 24.421875 6.59375 29.984375 6.59375 
Q 38.421875 6.59375 43.015625 9.90625 
Q 47.609375 13.234375 47.609375 19.390625 
Q 47.609375 24.75 44.3125 27.78125 
Q 41.015625 30.8125 33.5 32.328125 
L 27.484375 33.5 
Q 16.453125 35.6875 11.515625 40.375 
Q 6.59375 45.0625 6.59375 53.421875 
Q 6.59375 63.09375 13.40625 68.65625 
Q 20.21875 74.21875 32.171875 74.21875 
Q 37.3125 74.21875 42.625 73.28125 
Q 47.953125 72.359375 53.515625 70.515625 
" id="BitstreamVeraSans-Roman-53"/>
       <path d="M 33.015625 40.375 
Q 26.375 40.375 22.484375 35.828125 
Q 18.609375 31.296875 18.609375 23.390625 
Q 18.609375 15.53125 22.484375 10.953125 
Q 26.375 6.390625 33.015625 6.390625 
Q 39.65625 6.390625 43.53125 10.953125 
Q 47.40625 15.53125 47.40625 23.390625 
Q 47.40625 31.296875 43.53125 35.828125 
Q 39.65625 40.375 33.015625 40.375 
M 52.59375 71.296875 
L 52.59375 62.3125 
Q 48.875 64.0625 45.09375 64.984375 
Q 41.3125 65.921875 37.59375 65.921875 
Q 27.828125 65.921875 22.671875 59.328125 
Q 17.53125 52.734375 16.796875 39.40625 
Q 19.671875 43.65625 24.015625 45.921875 
Q 28.375 48.1875 33.59375 48.1875 
Q 44.578125 48.1875 50.953125 41.515625 
Q 57.328125 34.859375 57.328125 23.390625 
Q 57.328125 12.15625 50.6875 5.359375 
Q 44.046875 -1.421875 33.015625 -1.421875 
Q 20.359375 -1.421875 13.671875 8.265625 
Q 6.984375 17.96875 6.984375 36.375 
Q 6.984375 53.65625 15.1875 63.9375 
Q 23.390625 74.21875 37.203125 74.21875 
Q 40.921875 74.21875 44.703125 73.484375 
Q 48.484375 72.75 52.59375 71.296875 
" id="BitstreamVeraSans-Roman-36"/>
       <path d="M 18.3125 70.21875 
L 18.3125 54.6875 
L 36.8125 54.6875 
L 36.8125 47.703125 
L 18.3125 47.703125 
L 18.3125 18.015625 
Q 18.3125 11.328125 20.140625 9.421875 
Q 21.96875 7.515625 27.59375 7.515625 
L 36.8125 7.515625 
L 36.8125 0 
L 27.59375 0 
Q 17.1875 0 13.234375 3.875 
Q 9.28125 7.765625 9.28125 18.015625 
L 9.28125 47.703125 
L 2.6875 47.703125 
L 2.6875 54.6875 
L 9.28125 54.6875 
L 9.28125 70.21875 
z
" id="BitstreamVeraSans-Roman-74"/>
       <path d="M 44.28125 53.078125 
L 44.28125 44.578125 
Q 40.484375 46.53125 36.375 47.5 
Q 32.28125 48.484375 27.875 48.484375 
Q 21.1875 48.484375 17.84375 46.4375 
Q 14.5 44.390625 14.5 40.28125 
Q 14.5 37.15625 16.890625 35.375 
Q 19.28125 33.59375 26.515625 31.984375 
L 29.59375 31.296875 
Q 39.15625 29.25 43.1875 25.515625 
Q 47.21875 21.78125 47.21875 15.09375 
Q 47.21875 7.46875 41.1875 3.015625 
Q 35.15625 -1.421875 24.609375 -1.421875 
Q 20.21875 -1.421875 15.453125 -0.5625 
Q 10.6875 0.296875 5.421875 2 
L 5.421875 11.28125 
Q 10.40625 8.6875 15.234375 7.390625 
Q 20.0625 6.109375 24.8125 6.109375 
Q 31.15625 6.109375 34.5625 8.28125 
Q 37.984375 10.453125 37.984375 14.40625 
Q 37.984375 18.0625 35.515625 20.015625 
Q 33.0625 21.96875 24.703125 23.78125 
L 21.578125 24.515625 
Q 13.234375 26.265625 9.515625 29.90625 
Q 5.8125 33.546875 5.8125 39.890625 
Q 5.8125 47.609375 11.28125 51.796875 
Q 16.75 56 26.8125 56 
Q 31.78125 56 36.171875 55.265625 
Q 40.578125 54.546875 44.28125 53.078125 
" id="BitstreamVeraSans-Roman-73"/>
      </defs>
      <g transform="translate(98.609375 437.6484375)rotate(-90.0)scale(0.1 -0.1)">
       <use xlink:href="#BitstreamVeraSans-Roman-53"/>
       <use x="63.4765625" xlink:href="#BitstreamVeraSans-Roman-31"/>
       <use x="127.099609375" xlink:href="#BitstreamVeraSans-Roman-74"/>
       <use x="166.30859375" xlink:href="#BitstreamVeraSans-Roman-31"/>
       <use x="229.931640625" xlink:href="#BitstreamVeraSans-Roman-74"/>
       <use x="269.140625" xlink:href="#BitstreamVeraSans-Roman-31"/>
       <use x="332.763671875" xlink:href="#BitstreamVeraSans-Roman-36"/>
       <use x="396.38671875" xlink:href="#BitstreamVeraSans-Roman-73"/>
      </g>
     </g>
    </g>
    <g id="xtick_2">
     <g id="line2d_3"/>
     <g id="line2d_4"/>
     <g id="text_2">
      <!-- S2t1t16s -->
      <defs>
       <path d="M 19.1875 8.296875 
L 53.609375 8.296875 
L 53.609375 0 
L 7.328125 0 
L 7.328125 8.296875 
Q 12.9375 14.109375 22.625 23.890625 
Q 32.328125 33.6875 34.8125 36.53125 
Q 39.546875 41.84375 41.421875 45.53125 
Q 43.3125 49.21875 43.3125 52.78125 
Q 43.3125 58.59375 39.234375 62.25 
Q 35.15625 65.921875 28.609375 65.921875 
Q 23.96875 65.921875 18.8125 64.3125 
Q 13.671875 62.703125 7.8125 59.421875 
L 7.8125 69.390625 
Q 13.765625 71.78125 18.9375 73 
Q 24.125 74.21875 28.421875 74.21875 
Q 39.75 74.21875 46.484375 68.546875 
Q 53.21875 62.890625 53.21875 53.421875 
Q 53.21875 48.921875 51.53125 44.890625 
Q 49.859375 40.875 45.40625 35.40625 
Q 44.1875 33.984375 37.640625 27.21875 
Q 31.109375 20.453125 19.1875 8.296875 
" id="BitstreamVeraSans-Roman-32"/>
      </defs>
      <g transform="translate(182.30937500000002 437.6484375)rotate(-90.0)scale(0.1 -0.1)">
       <use xlink:href="#BitstreamVeraSans-Roman-53"/>
       <use x="63.4765625" xlink:href="#BitstreamVeraSans-Roman-32"/>
       <use x="127.099609375" xlink:href="#BitstreamVeraSans-Roman-74"/>
       <use x="166.30859375" xlink:href="#BitstreamVeraSans-Roman-31"/>
       <use x="229.931640625" xlink:href="#BitstreamVeraSans-Roman-74"/>
       <use x="269.140625" xlink:href="#BitstreamVeraSans-Roman-31"/>
       <use x="332.763671875" xlink:href="#BitstreamVeraSans-Roman-36"/>
       <use x="396.38671875" xlink:href="#BitstreamVeraSans-Roman-73"/>
      </g>
     </g>
    </g>
    <g id="xtick_3">
     <g id="line2d_5"/>
     <g id="line2d_6"/>
     <g id="text_3">
      <!-- S3t1t16s -->
      <defs>
       <path d="M 40.578125 39.3125 
Q 47.65625 37.796875 51.625 33 
Q 55.609375 28.21875 55.609375 21.1875 
Q 55.609375 10.40625 48.1875 4.484375 
Q 40.765625 -1.421875 27.09375 -1.421875 
Q 22.515625 -1.421875 17.65625 -0.515625 
Q 12.796875 0.390625 7.625 2.203125 
L 7.625 11.71875 
Q 11.71875 9.328125 16.59375 8.109375 
Q 21.484375 6.890625 26.8125 6.890625 
Q 36.078125 6.890625 40.9375 10.546875 
Q 45.796875 14.203125 45.796875 21.1875 
Q 45.796875 27.640625 41.28125 31.265625 
Q 36.765625 34.90625 28.71875 34.90625 
L 20.21875 34.90625 
L 20.21875 43.015625 
L 29.109375 43.015625 
Q 36.375 43.015625 40.234375 45.921875 
Q 44.09375 48.828125 44.09375 54.296875 
Q 44.09375 59.90625 40.109375 62.90625 
Q 36.140625 65.921875 28.71875 65.921875 
Q 24.65625 65.921875 20.015625 65.03125 
Q 15.375 64.15625 9.8125 62.3125 
L 9.8125 71.09375 
Q 15.4375 72.65625 20.34375 73.4375 
Q 25.25 74.21875 29.59375 74.21875 
Q 40.828125 74.21875 47.359375 69.109375 
Q 53.90625 64.015625 53.90625 55.328125 
Q 53.90625 49.265625 50.4375 45.09375 
Q 46.96875 40.921875 40.578125 39.3125 
" id="BitstreamVeraSans-Roman-33"/>
      </defs>
      <g transform="translate(266.009375 437.6484375)rotate(-90.0)scale(0.1 -0.1)">
       <use xlink:href="#BitstreamVeraSans-Roman-53"/>
       <use x="63.4765625" xlink:href="#BitstreamVeraSans-Roman-33"/>
       <use x="127.099609375" xlink:href="#BitstreamVeraSans-Roman-74"/>
       <use x="166.30859375" xlink:href="#BitstreamVeraSans-Roman-31"/>
       <use x="229.931640625" xlink:href="#BitstreamVeraSans-Roman-74"/>
       <use x="269.140625" xlink:href="#BitstreamVeraSans-Roman-31"/>
       <use x="332.763671875" xlink:href="#BitstreamVeraSans-Roman-36"/>
       <use x="396.38671875" xlink:href="#BitstreamVeraSans-Roman-73"/>
      </g>
     </g>
    </g>
    <g id="xtick_4">
     <g id="line2d_7"/>
     <g id="line2d_8"/>
     <g id="text_4">
      <!-- S4t1t16s -->
      <defs>
       <path d="M 37.796875 64.3125 
L 12.890625 25.390625 
L 37.796875 25.390625 
z
M 35.203125 72.90625 
L 47.609375 72.90625 
L 47.609375 25.390625 
L 58.015625 25.390625 
L 58.015625 17.1875 
L 47.609375 17.1875 
L 47.609375 0 
L 37.796875 0 
L 37.796875 17.1875 
L 4.890625 17.1875 
L 4.890625 26.703125 
z
" id="BitstreamVeraSans-Roman-34"/>
      </defs>
      <g transform="translate(349.709375 437.6484375)rotate(-90.0)scale(0.1 -0.1)">
       <use xlink:href="#BitstreamVeraSans-Roman-53"/>
       <use x="63.4765625" xlink:href="#BitstreamVeraSans-Roman-34"/>
       <use x="127.099609375" xlink:href="#BitstreamVeraSans-Roman-74"/>
       <use x="166.30859375" xlink:href="#BitstreamVeraSans-Roman-31"/>
       <use x="229.931640625" xlink:href="#BitstreamVeraSans-Roman-74"/>
       <use x="269.140625" xlink:href="#BitstreamVeraSans-Roman-31"/>
       <use x="332.763671875" xlink:href="#BitstreamVeraSans-Roman-36"/>
       <use x="396.38671875" xlink:href="#BitstreamVeraSans-Roman-73"/>
      </g>
     </g>
    </g>
   </g>
   <g id="matplotlib.axis_2"/>
  </g>
 </g>
 <defs>
  <clipPath id="p5c0f062318">
   <rect height="345.6" width="334.8" x="54.0" y="43.19999999999999"/>
  </clipPath>
 </defs>
</svg>
