<?xml version="1.0" encoding="utf-8" standalone="no"?>
<!DOCTYPE svg PUBLIC "-//W3C//DTD SVG 1.1//EN"
  "http://www.w3.org/Graphics/SVG/1.1/DTD/svg11.dtd">
<!-- Created with matplotlib (http://matplotlib.org/) -->
<svg height="285pt" version="1.1" viewBox="0 0 334 285" width="334pt" xmlns="http://www.w3.org/2000/svg" xmlns:xlink="http://www.w3.org/1999/xlink">
 <defs>
  <style type="text/css">
*{stroke-linecap:butt;stroke-linejoin:round;stroke-miterlimit:100000;}
  </style>
 </defs>
 <g id="figure_1">
  <g id="patch_1">
   <path d="M 0 285.12 
L 334.8 285.12 
L 334.8 0 
L 0 0 
z
" style="fill:#ffffff;"/>
  </g>
  <g id="legend_1">
   <g id="patch_2">
    <path d="M 3.6 240.5565 
L 158.691375 240.5565 
L 158.691375 44.5635 
L 3.6 44.5635 
z
" style="fill:none;opacity:0;"/>
   </g>
   <g id="patch_3">
    <path d="M 6.48 52.914375 
L 20.88 52.914375 
L 20.88 47.874375 
L 6.48 47.874375 
z
" style="fill:#ff0000;"/>
   </g>
   <g id="text_1">
    <!-- k__Archaea;p__Crenarchaeota -->
    <defs>
     <path d="M 18.109375 8.203125 
L 18.109375 -20.796875 
L 9.078125 -20.796875 
L 9.078125 54.6875 
L 18.109375 54.6875 
L 18.109375 46.390625 
Q 20.953125 51.265625 25.265625 53.625 
Q 29.59375 56 35.59375 56 
Q 45.5625 56 51.78125 48.09375 
Q 58.015625 40.1875 58.015625 27.296875 
Q 58.015625 14.40625 51.78125 6.484375 
Q 45.5625 -1.421875 35.59375 -1.421875 
Q 29.59375 -1.421875 25.265625 0.953125 
Q 20.953125 3.328125 18.109375 8.203125 
M 48.6875 27.296875 
Q 48.6875 37.203125 44.609375 42.84375 
Q 40.53125 48.484375 33.40625 48.484375 
Q 26.265625 48.484375 22.1875 42.84375 
Q 18.109375 37.203125 18.109375 27.296875 
Q 18.109375 17.390625 22.1875 11.75 
Q 26.265625 6.109375 33.40625 6.109375 
Q 40.53125 6.109375 44.609375 11.75 
Q 48.6875 17.390625 48.6875 27.296875 
" id="BitstreamVeraSans-Roman-70"/>
     <path d="M 50.984375 -16.609375 
L 50.984375 -23.578125 
L -0.984375 -23.578125 
L -0.984375 -16.609375 
z
" id="BitstreamVeraSans-Roman-5f"/>
     <path d="M 54.890625 33.015625 
L 54.890625 0 
L 45.90625 0 
L 45.90625 32.71875 
Q 45.90625 40.484375 42.875 44.328125 
Q 39.84375 48.1875 33.796875 48.1875 
Q 26.515625 48.1875 22.3125 43.546875 
Q 18.109375 38.921875 18.109375 30.90625 
L 18.109375 0 
L 9.078125 0 
L 9.078125 54.6875 
L 18.109375 54.6875 
L 18.109375 46.1875 
Q 21.34375 51.125 25.703125 53.5625 
Q 30.078125 56 35.796875 56 
Q 45.21875 56 50.046875 50.171875 
Q 54.890625 44.34375 54.890625 33.015625 
" id="BitstreamVeraSans-Roman-6e"/>
     <path d="M 34.28125 27.484375 
Q 23.390625 27.484375 19.1875 25 
Q 14.984375 22.515625 14.984375 16.5 
Q 14.984375 11.71875 18.140625 8.90625 
Q 21.296875 6.109375 26.703125 6.109375 
Q 34.1875 6.109375 38.703125 11.40625 
Q 43.21875 16.703125 43.21875 25.484375 
L 43.21875 27.484375 
z
M 52.203125 31.203125 
L 52.203125 0 
L 43.21875 0 
L 43.21875 8.296875 
Q 40.140625 3.328125 35.546875 0.953125 
Q 30.953125 -1.421875 24.3125 -1.421875 
Q 15.921875 -1.421875 10.953125 3.296875 
Q 6 8.015625 6 15.921875 
Q 6 25.140625 12.171875 29.828125 
Q 18.359375 34.515625 30.609375 34.515625 
L 43.21875 34.515625 
L 43.21875 35.40625 
Q 43.21875 41.609375 39.140625 45 
Q 35.0625 48.390625 27.6875 48.390625 
Q 23 48.390625 18.546875 47.265625 
Q 14.109375 46.140625 10.015625 43.890625 
L 10.015625 52.203125 
Q 14.9375 54.109375 19.578125 55.046875 
Q 24.21875 56 28.609375 56 
Q 40.484375 56 46.34375 49.84375 
Q 52.203125 43.703125 52.203125 31.203125 
" id="BitstreamVeraSans-Roman-61"/>
     <path d="M 30.609375 48.390625 
Q 23.390625 48.390625 19.1875 42.75 
Q 14.984375 37.109375 14.984375 27.296875 
Q 14.984375 17.484375 19.15625 11.84375 
Q 23.34375 6.203125 30.609375 6.203125 
Q 37.796875 6.203125 41.984375 11.859375 
Q 46.1875 17.53125 46.1875 27.296875 
Q 46.1875 37.015625 41.984375 42.703125 
Q 37.796875 48.390625 30.609375 48.390625 
M 30.609375 56 
Q 42.328125 56 49.015625 48.375 
Q 55.71875 40.765625 55.71875 27.296875 
Q 55.71875 13.875 49.015625 6.21875 
Q 42.328125 -1.421875 30.609375 -1.421875 
Q 18.84375 -1.421875 12.171875 6.21875 
Q 5.515625 13.875 5.515625 27.296875 
Q 5.515625 40.765625 12.171875 48.375 
Q 18.84375 56 30.609375 56 
" id="BitstreamVeraSans-Roman-6f"/>
     <path d="M 9.078125 75.984375 
L 18.109375 75.984375 
L 18.109375 31.109375 
L 44.921875 54.6875 
L 56.390625 54.6875 
L 27.390625 29.109375 
L 57.625 0 
L 45.90625 0 
L 18.109375 26.703125 
L 18.109375 0 
L 9.078125 0 
z
" id="BitstreamVeraSans-Roman-6b"/>
     <path d="M 11.71875 51.703125 
L 22.015625 51.703125 
L 22.015625 39.3125 
L 11.71875 39.3125 
z
M 11.71875 12.40625 
L 22.015625 12.40625 
L 22.015625 4 
L 14.015625 -11.625 
L 7.71875 -11.625 
L 11.71875 4 
z
" id="BitstreamVeraSans-Roman-3b"/>
     <path d="M 64.40625 67.28125 
L 64.40625 56.890625 
Q 59.421875 61.53125 53.78125 63.8125 
Q 48.140625 66.109375 41.796875 66.109375 
Q 29.296875 66.109375 22.65625 58.46875 
Q 16.015625 50.828125 16.015625 36.375 
Q 16.015625 21.96875 22.65625 14.328125 
Q 29.296875 6.6875 41.796875 6.6875 
Q 48.140625 6.6875 53.78125 8.984375 
Q 59.421875 11.28125 64.40625 15.921875 
L 64.40625 5.609375 
Q 59.234375 2.09375 53.4375 0.328125 
Q 47.65625 -1.421875 41.21875 -1.421875 
Q 24.65625 -1.421875 15.125 8.703125 
Q 5.609375 18.84375 5.609375 36.375 
Q 5.609375 53.953125 15.125 64.078125 
Q 24.65625 74.21875 41.21875 74.21875 
Q 47.75 74.21875 53.53125 72.484375 
Q 59.328125 70.75 64.40625 67.28125 
" id="BitstreamVeraSans-Roman-43"/>
     <path d="M 54.890625 33.015625 
L 54.890625 0 
L 45.90625 0 
L 45.90625 32.71875 
Q 45.90625 40.484375 42.875 44.328125 
Q 39.84375 48.1875 33.796875 48.1875 
Q 26.515625 48.1875 22.3125 43.546875 
Q 18.109375 38.921875 18.109375 30.90625 
L 18.109375 0 
L 9.078125 0 
L 9.078125 75.984375 
L 18.109375 75.984375 
L 18.109375 46.1875 
Q 21.34375 51.125 25.703125 53.5625 
Q 30.078125 56 35.796875 56 
Q 45.21875 56 50.046875 50.171875 
Q 54.890625 44.34375 54.890625 33.015625 
" id="BitstreamVeraSans-Roman-68"/>
     <path d="M 34.1875 63.1875 
L 20.796875 26.90625 
L 47.609375 26.90625 
z
M 28.609375 72.90625 
L 39.796875 72.90625 
L 67.578125 0 
L 57.328125 0 
L 50.6875 18.703125 
L 17.828125 18.703125 
L 11.1875 0 
L 0.78125 0 
z
" id="BitstreamVeraSans-Roman-41"/>
     <path d="M 56.203125 29.59375 
L 56.203125 25.203125 
L 14.890625 25.203125 
Q 15.484375 15.921875 20.484375 11.0625 
Q 25.484375 6.203125 34.421875 6.203125 
Q 39.59375 6.203125 44.453125 7.46875 
Q 49.3125 8.734375 54.109375 11.28125 
L 54.109375 2.78125 
Q 49.265625 0.734375 44.1875 -0.34375 
Q 39.109375 -1.421875 33.890625 -1.421875 
Q 20.796875 -1.421875 13.15625 6.1875 
Q 5.515625 13.8125 5.515625 26.8125 
Q 5.515625 40.234375 12.765625 48.109375 
Q 20.015625 56 32.328125 56 
Q 43.359375 56 49.78125 48.890625 
Q 56.203125 41.796875 56.203125 29.59375 
M 47.21875 32.234375 
Q 47.125 39.59375 43.09375 43.984375 
Q 39.0625 48.390625 32.421875 48.390625 
Q 24.90625 48.390625 20.390625 44.140625 
Q 15.875 39.890625 15.1875 32.171875 
z
" id="BitstreamVeraSans-Roman-65"/>
     <path d="M 18.3125 70.21875 
L 18.3125 54.6875 
L 36.8125 54.6875 
L 36.8125 47.703125 
L 18.3125 47.703125 
L 18.3125 18.015625 
Q 18.3125 11.328125 20.140625 9.421875 
Q 21.96875 7.515625 27.59375 7.515625 
L 36.8125 7.515625 
L 36.8125 0 
L 27.59375 0 
Q 17.1875 0 13.234375 3.875 
Q 9.28125 7.765625 9.28125 18.015625 
L 9.28125 47.703125 
L 2.6875 47.703125 
L 2.6875 54.6875 
L 9.28125 54.6875 
L 9.28125 70.21875 
z
" id="BitstreamVeraSans-Roman-74"/>
     <path d="M 41.109375 46.296875 
Q 39.59375 47.171875 37.8125 47.578125 
Q 36.03125 48 33.890625 48 
Q 26.265625 48 22.1875 43.046875 
Q 18.109375 38.09375 18.109375 28.8125 
L 18.109375 0 
L 9.078125 0 
L 9.078125 54.6875 
L 18.109375 54.6875 
L 18.109375 46.1875 
Q 20.953125 51.171875 25.484375 53.578125 
Q 30.03125 56 36.53125 56 
Q 37.453125 56 38.578125 55.875 
Q 39.703125 55.765625 41.0625 55.515625 
z
" id="BitstreamVeraSans-Roman-72"/>
     <path d="M 48.78125 52.59375 
L 48.78125 44.1875 
Q 44.96875 46.296875 41.140625 47.34375 
Q 37.3125 48.390625 33.40625 48.390625 
Q 24.65625 48.390625 19.8125 42.84375 
Q 14.984375 37.3125 14.984375 27.296875 
Q 14.984375 17.28125 19.8125 11.734375 
Q 24.65625 6.203125 33.40625 6.203125 
Q 37.3125 6.203125 41.140625 7.25 
Q 44.96875 8.296875 48.78125 10.40625 
L 48.78125 2.09375 
Q 45.015625 0.34375 40.984375 -0.53125 
Q 36.96875 -1.421875 32.421875 -1.421875 
Q 20.0625 -1.421875 12.78125 6.34375 
Q 5.515625 14.109375 5.515625 27.296875 
Q 5.515625 40.671875 12.859375 48.328125 
Q 20.21875 56 33.015625 56 
Q 37.15625 56 41.109375 55.140625 
Q 45.0625 54.296875 48.78125 52.59375 
" id="BitstreamVeraSans-Roman-63"/>
    </defs>
    <g transform="translate(26.639999999999997 52.914375000000064)scale(0.072 -0.072)">
     <use xlink:href="#BitstreamVeraSans-Roman-6b"/>
     <use x="57.91015625" xlink:href="#BitstreamVeraSans-Roman-5f"/>
     <use x="107.91015625" xlink:href="#BitstreamVeraSans-Roman-5f"/>
     <use x="157.91015625" xlink:href="#BitstreamVeraSans-Roman-41"/>
     <use x="226.318359375" xlink:href="#BitstreamVeraSans-Roman-72"/>
     <use x="267.400390625" xlink:href="#BitstreamVeraSans-Roman-63"/>
     <use x="322.380859375" xlink:href="#BitstreamVeraSans-Roman-68"/>
     <use x="385.759765625" xlink:href="#BitstreamVeraSans-Roman-61"/>
     <use x="447.0390625" xlink:href="#BitstreamVeraSans-Roman-65"/>
     <use x="508.5625" xlink:href="#BitstreamVeraSans-Roman-61"/>
     <use x="569.841796875" xlink:href="#BitstreamVeraSans-Roman-3b"/>
     <use x="603.533203125" xlink:href="#BitstreamVeraSans-Roman-70"/>
     <use x="667.009765625" xlink:href="#BitstreamVeraSans-Roman-5f"/>
     <use x="717.009765625" xlink:href="#BitstreamVeraSans-Roman-5f"/>
     <use x="767.009765625" xlink:href="#BitstreamVeraSans-Roman-43"/>
     <use x="836.833984375" xlink:href="#BitstreamVeraSans-Roman-72"/>
     <use x="877.916015625" xlink:href="#BitstreamVeraSans-Roman-65"/>
     <use x="939.439453125" xlink:href="#BitstreamVeraSans-Roman-6e"/>
     <use x="1002.81835938" xlink:href="#BitstreamVeraSans-Roman-61"/>
     <use x="1064.09765625" xlink:href="#BitstreamVeraSans-Roman-72"/>
     <use x="1105.1796875" xlink:href="#BitstreamVeraSans-Roman-63"/>
     <use x="1160.16015625" xlink:href="#BitstreamVeraSans-Roman-68"/>
     <use x="1223.5390625" xlink:href="#BitstreamVeraSans-Roman-61"/>
     <use x="1284.81835938" xlink:href="#BitstreamVeraSans-Roman-65"/>
     <use x="1346.34179688" xlink:href="#BitstreamVeraSans-Roman-6f"/>
     <use x="1407.5234375" xlink:href="#BitstreamVeraSans-Roman-74"/>
     <use x="1446.73242188" xlink:href="#BitstreamVeraSans-Roman-61"/>
    </g>
   </g>
   <g id="patch_4">
    <path d="M 6.48 63.682875 
L 20.88 63.682875 
L 20.88 58.642875 
L 6.48 58.642875 
z
" style="fill:#0000ff;"/>
   </g>
   <g id="text_2">
    <!-- k__Archaea;p__Euryarchaeota -->
    <defs>
     <path d="M 9.8125 72.90625 
L 55.90625 72.90625 
L 55.90625 64.59375 
L 19.671875 64.59375 
L 19.671875 43.015625 
L 54.390625 43.015625 
L 54.390625 34.71875 
L 19.671875 34.71875 
L 19.671875 8.296875 
L 56.78125 8.296875 
L 56.78125 0 
L 9.8125 0 
z
" id="BitstreamVeraSans-Roman-45"/>
     <path d="M 8.5 21.578125 
L 8.5 54.6875 
L 17.484375 54.6875 
L 17.484375 21.921875 
Q 17.484375 14.15625 20.5 10.265625 
Q 23.53125 6.390625 29.59375 6.390625 
Q 36.859375 6.390625 41.078125 11.03125 
Q 45.3125 15.671875 45.3125 23.6875 
L 45.3125 54.6875 
L 54.296875 54.6875 
L 54.296875 0 
L 45.3125 0 
L 45.3125 8.40625 
Q 42.046875 3.421875 37.71875 1 
Q 33.40625 -1.421875 27.6875 -1.421875 
Q 18.265625 -1.421875 13.375 4.4375 
Q 8.5 10.296875 8.5 21.578125 
" id="BitstreamVeraSans-Roman-75"/>
     <path d="M 32.171875 -5.078125 
Q 28.375 -14.84375 24.75 -17.8125 
Q 21.140625 -20.796875 15.09375 -20.796875 
L 7.90625 -20.796875 
L 7.90625 -13.28125 
L 13.1875 -13.28125 
Q 16.890625 -13.28125 18.9375 -11.515625 
Q 21 -9.765625 23.484375 -3.21875 
L 25.09375 0.875 
L 2.984375 54.6875 
L 12.5 54.6875 
L 29.59375 11.921875 
L 46.6875 54.6875 
L 56.203125 54.6875 
z
" id="BitstreamVeraSans-Roman-79"/>
    </defs>
    <g transform="translate(26.639999999999997 63.68287500000005)scale(0.072 -0.072)">
     <use xlink:href="#BitstreamVeraSans-Roman-6b"/>
     <use x="57.91015625" xlink:href="#BitstreamVeraSans-Roman-5f"/>
     <use x="107.91015625" xlink:href="#BitstreamVeraSans-Roman-5f"/>
     <use x="157.91015625" xlink:href="#BitstreamVeraSans-Roman-41"/>
     <use x="226.318359375" xlink:href="#BitstreamVeraSans-Roman-72"/>
     <use x="267.400390625" xlink:href="#BitstreamVeraSans-Roman-63"/>
     <use x="322.380859375" xlink:href="#BitstreamVeraSans-Roman-68"/>
     <use x="385.759765625" xlink:href="#BitstreamVeraSans-Roman-61"/>
     <use x="447.0390625" xlink:href="#BitstreamVeraSans-Roman-65"/>
     <use x="508.5625" xlink:href="#BitstreamVeraSans-Roman-61"/>
     <use x="569.841796875" xlink:href="#BitstreamVeraSans-Roman-3b"/>
     <use x="603.533203125" xlink:href="#BitstreamVeraSans-Roman-70"/>
     <use x="667.009765625" xlink:href="#BitstreamVeraSans-Roman-5f"/>
     <use x="717.009765625" xlink:href="#BitstreamVeraSans-Roman-5f"/>
     <use x="767.009765625" xlink:href="#BitstreamVeraSans-Roman-45"/>
     <use x="830.193359375" xlink:href="#BitstreamVeraSans-Roman-75"/>
     <use x="893.572265625" xlink:href="#BitstreamVeraSans-Roman-72"/>
     <use x="934.685546875" xlink:href="#BitstreamVeraSans-Roman-79"/>
     <use x="993.865234375" xlink:href="#BitstreamVeraSans-Roman-61"/>
     <use x="1055.14453125" xlink:href="#BitstreamVeraSans-Roman-72"/>
     <use x="1096.2265625" xlink:href="#BitstreamVeraSans-Roman-63"/>
     <use x="1151.20703125" xlink:href="#BitstreamVeraSans-Roman-68"/>
     <use x="1214.5859375" xlink:href="#BitstreamVeraSans-Roman-61"/>
     <use x="1275.86523438" xlink:href="#BitstreamVeraSans-Roman-65"/>
     <use x="1337.38867188" xlink:href="#BitstreamVeraSans-Roman-6f"/>
     <use x="1398.5703125" xlink:href="#BitstreamVeraSans-Roman-74"/>
     <use x="1437.77929688" xlink:href="#BitstreamVeraSans-Roman-61"/>
    </g>
   </g>
   <g id="patch_5">
    <path d="M 6.48 74.451375 
L 20.88 74.451375 
L 20.88 69.411375 
L 6.48 69.411375 
z
" style="fill:#f27304;"/>
   </g>
   <g id="text_3">
    <!-- k__Bacteria;p__AD3 -->
    <defs>
     <path d="M 40.578125 39.3125 
Q 47.65625 37.796875 51.625 33 
Q 55.609375 28.21875 55.609375 21.1875 
Q 55.609375 10.40625 48.1875 4.484375 
Q 40.765625 -1.421875 27.09375 -1.421875 
Q 22.515625 -1.421875 17.65625 -0.515625 
Q 12.796875 0.390625 7.625 2.203125 
L 7.625 11.71875 
Q 11.71875 9.328125 16.59375 8.109375 
Q 21.484375 6.890625 26.8125 6.890625 
Q 36.078125 6.890625 40.9375 10.546875 
Q 45.796875 14.203125 45.796875 21.1875 
Q 45.796875 27.640625 41.28125 31.265625 
Q 36.765625 34.90625 28.71875 34.90625 
L 20.21875 34.90625 
L 20.21875 43.015625 
L 29.109375 43.015625 
Q 36.375 43.015625 40.234375 45.921875 
Q 44.09375 48.828125 44.09375 54.296875 
Q 44.09375 59.90625 40.109375 62.90625 
Q 36.140625 65.921875 28.71875 65.921875 
Q 24.65625 65.921875 20.015625 65.03125 
Q 15.375 64.15625 9.8125 62.3125 
L 9.8125 71.09375 
Q 15.4375 72.65625 20.34375 73.4375 
Q 25.25 74.21875 29.59375 74.21875 
Q 40.828125 74.21875 47.359375 69.109375 
Q 53.90625 64.015625 53.90625 55.328125 
Q 53.90625 49.265625 50.4375 45.09375 
Q 46.96875 40.921875 40.578125 39.3125 
" id="BitstreamVeraSans-Roman-33"/>
     <path d="M 19.671875 64.796875 
L 19.671875 8.109375 
L 31.59375 8.109375 
Q 46.6875 8.109375 53.6875 14.9375 
Q 60.6875 21.78125 60.6875 36.53125 
Q 60.6875 51.171875 53.6875 57.984375 
Q 46.6875 64.796875 31.59375 64.796875 
z
M 9.8125 72.90625 
L 30.078125 72.90625 
Q 51.265625 72.90625 61.171875 64.09375 
Q 71.09375 55.28125 71.09375 36.53125 
Q 71.09375 17.671875 61.125 8.828125 
Q 51.171875 0 30.078125 0 
L 9.8125 0 
z
" id="BitstreamVeraSans-Roman-44"/>
     <path d="M 9.421875 54.6875 
L 18.40625 54.6875 
L 18.40625 0 
L 9.421875 0 
z
M 9.421875 75.984375 
L 18.40625 75.984375 
L 18.40625 64.59375 
L 9.421875 64.59375 
z
" id="BitstreamVeraSans-Roman-69"/>
     <path d="M 19.671875 34.8125 
L 19.671875 8.109375 
L 35.5 8.109375 
Q 43.453125 8.109375 47.28125 11.40625 
Q 51.125 14.703125 51.125 21.484375 
Q 51.125 28.328125 47.28125 31.5625 
Q 43.453125 34.8125 35.5 34.8125 
z
M 19.671875 64.796875 
L 19.671875 42.828125 
L 34.28125 42.828125 
Q 41.5 42.828125 45.03125 45.53125 
Q 48.578125 48.25 48.578125 53.8125 
Q 48.578125 59.328125 45.03125 62.0625 
Q 41.5 64.796875 34.28125 64.796875 
z
M 9.8125 72.90625 
L 35.015625 72.90625 
Q 46.296875 72.90625 52.390625 68.21875 
Q 58.5 63.53125 58.5 54.890625 
Q 58.5 48.1875 55.375 44.234375 
Q 52.25 40.28125 46.1875 39.3125 
Q 53.46875 37.75 57.5 32.78125 
Q 61.53125 27.828125 61.53125 20.40625 
Q 61.53125 10.640625 54.890625 5.3125 
Q 48.25 0 35.984375 0 
L 9.8125 0 
z
" id="BitstreamVeraSans-Roman-42"/>
    </defs>
    <g transform="translate(26.639999999999997 74.45137500000007)scale(0.072 -0.072)">
     <use xlink:href="#BitstreamVeraSans-Roman-6b"/>
     <use x="57.91015625" xlink:href="#BitstreamVeraSans-Roman-5f"/>
     <use x="107.91015625" xlink:href="#BitstreamVeraSans-Roman-5f"/>
     <use x="157.91015625" xlink:href="#BitstreamVeraSans-Roman-42"/>
     <use x="226.513671875" xlink:href="#BitstreamVeraSans-Roman-61"/>
     <use x="287.79296875" xlink:href="#BitstreamVeraSans-Roman-63"/>
     <use x="342.7734375" xlink:href="#BitstreamVeraSans-Roman-74"/>
     <use x="381.982421875" xlink:href="#BitstreamVeraSans-Roman-65"/>
     <use x="443.505859375" xlink:href="#BitstreamVeraSans-Roman-72"/>
     <use x="484.619140625" xlink:href="#BitstreamVeraSans-Roman-69"/>
     <use x="512.40234375" xlink:href="#BitstreamVeraSans-Roman-61"/>
     <use x="573.681640625" xlink:href="#BitstreamVeraSans-Roman-3b"/>
     <use x="607.373046875" xlink:href="#BitstreamVeraSans-Roman-70"/>
     <use x="670.849609375" xlink:href="#BitstreamVeraSans-Roman-5f"/>
     <use x="720.849609375" xlink:href="#BitstreamVeraSans-Roman-5f"/>
     <use x="770.849609375" xlink:href="#BitstreamVeraSans-Roman-41"/>
     <use x="839.2578125" xlink:href="#BitstreamVeraSans-Roman-44"/>
     <use x="916.259765625" xlink:href="#BitstreamVeraSans-Roman-33"/>
    </g>
   </g>
   <g id="patch_6">
    <path d="M 6.48 85.219875 
L 20.88 85.219875 
L 20.88 80.179875 
L 6.48 80.179875 
z
" style="fill:#008000;"/>
   </g>
   <g id="text_4">
    <!-- k__Bacteria;p__Acidobacteria -->
    <defs>
     <path d="M 45.40625 46.390625 
L 45.40625 75.984375 
L 54.390625 75.984375 
L 54.390625 0 
L 45.40625 0 
L 45.40625 8.203125 
Q 42.578125 3.328125 38.25 0.953125 
Q 33.9375 -1.421875 27.875 -1.421875 
Q 17.96875 -1.421875 11.734375 6.484375 
Q 5.515625 14.40625 5.515625 27.296875 
Q 5.515625 40.1875 11.734375 48.09375 
Q 17.96875 56 27.875 56 
Q 33.9375 56 38.25 53.625 
Q 42.578125 51.265625 45.40625 46.390625 
M 14.796875 27.296875 
Q 14.796875 17.390625 18.875 11.75 
Q 22.953125 6.109375 30.078125 6.109375 
Q 37.203125 6.109375 41.296875 11.75 
Q 45.40625 17.390625 45.40625 27.296875 
Q 45.40625 37.203125 41.296875 42.84375 
Q 37.203125 48.484375 30.078125 48.484375 
Q 22.953125 48.484375 18.875 42.84375 
Q 14.796875 37.203125 14.796875 27.296875 
" id="BitstreamVeraSans-Roman-64"/>
     <path d="M 48.6875 27.296875 
Q 48.6875 37.203125 44.609375 42.84375 
Q 40.53125 48.484375 33.40625 48.484375 
Q 26.265625 48.484375 22.1875 42.84375 
Q 18.109375 37.203125 18.109375 27.296875 
Q 18.109375 17.390625 22.1875 11.75 
Q 26.265625 6.109375 33.40625 6.109375 
Q 40.53125 6.109375 44.609375 11.75 
Q 48.6875 17.390625 48.6875 27.296875 
M 18.109375 46.390625 
Q 20.953125 51.265625 25.265625 53.625 
Q 29.59375 56 35.59375 56 
Q 45.5625 56 51.78125 48.09375 
Q 58.015625 40.1875 58.015625 27.296875 
Q 58.015625 14.40625 51.78125 6.484375 
Q 45.5625 -1.421875 35.59375 -1.421875 
Q 29.59375 -1.421875 25.265625 0.953125 
Q 20.953125 3.328125 18.109375 8.203125 
L 18.109375 0 
L 9.078125 0 
L 9.078125 75.984375 
L 18.109375 75.984375 
z
" id="BitstreamVeraSans-Roman-62"/>
    </defs>
    <g transform="translate(26.639999999999997 85.21987500000006)scale(0.072 -0.072)">
     <use xlink:href="#BitstreamVeraSans-Roman-6b"/>
     <use x="57.91015625" xlink:href="#BitstreamVeraSans-Roman-5f"/>
     <use x="107.91015625" xlink:href="#BitstreamVeraSans-Roman-5f"/>
     <use x="157.91015625" xlink:href="#BitstreamVeraSans-Roman-42"/>
     <use x="226.513671875" xlink:href="#BitstreamVeraSans-Roman-61"/>
     <use x="287.79296875" xlink:href="#BitstreamVeraSans-Roman-63"/>
     <use x="342.7734375" xlink:href="#BitstreamVeraSans-Roman-74"/>
     <use x="381.982421875" xlink:href="#BitstreamVeraSans-Roman-65"/>
     <use x="443.505859375" xlink:href="#BitstreamVeraSans-Roman-72"/>
     <use x="484.619140625" xlink:href="#BitstreamVeraSans-Roman-69"/>
     <use x="512.40234375" xlink:href="#BitstreamVeraSans-Roman-61"/>
     <use x="573.681640625" xlink:href="#BitstreamVeraSans-Roman-3b"/>
     <use x="607.373046875" xlink:href="#BitstreamVeraSans-Roman-70"/>
     <use x="670.849609375" xlink:href="#BitstreamVeraSans-Roman-5f"/>
     <use x="720.849609375" xlink:href="#BitstreamVeraSans-Roman-5f"/>
     <use x="770.849609375" xlink:href="#BitstreamVeraSans-Roman-41"/>
     <use x="839.2421875" xlink:href="#BitstreamVeraSans-Roman-63"/>
     <use x="894.22265625" xlink:href="#BitstreamVeraSans-Roman-69"/>
     <use x="922.005859375" xlink:href="#BitstreamVeraSans-Roman-64"/>
     <use x="985.482421875" xlink:href="#BitstreamVeraSans-Roman-6f"/>
     <use x="1046.6640625" xlink:href="#BitstreamVeraSans-Roman-62"/>
     <use x="1110.140625" xlink:href="#BitstreamVeraSans-Roman-61"/>
     <use x="1171.41992188" xlink:href="#BitstreamVeraSans-Roman-63"/>
     <use x="1226.40039062" xlink:href="#BitstreamVeraSans-Roman-74"/>
     <use x="1265.609375" xlink:href="#BitstreamVeraSans-Roman-65"/>
     <use x="1327.1328125" xlink:href="#BitstreamVeraSans-Roman-72"/>
     <use x="1368.24609375" xlink:href="#BitstreamVeraSans-Roman-69"/>
     <use x="1396.02929688" xlink:href="#BitstreamVeraSans-Roman-61"/>
    </g>
   </g>
   <g id="patch_7">
    <path d="M 6.48 95.988375 
L 20.88 95.988375 
L 20.88 90.948375 
L 6.48 90.948375 
z
" style="fill:#91278d;"/>
   </g>
   <g id="text_5">
    <!-- k__Bacteria;p__Actinobacteria -->
    <g transform="translate(26.639999999999997 95.98837500000005)scale(0.072 -0.072)">
     <use xlink:href="#BitstreamVeraSans-Roman-6b"/>
     <use x="57.91015625" xlink:href="#BitstreamVeraSans-Roman-5f"/>
     <use x="107.91015625" xlink:href="#BitstreamVeraSans-Roman-5f"/>
     <use x="157.91015625" xlink:href="#BitstreamVeraSans-Roman-42"/>
     <use x="226.513671875" xlink:href="#BitstreamVeraSans-Roman-61"/>
     <use x="287.79296875" xlink:href="#BitstreamVeraSans-Roman-63"/>
     <use x="342.7734375" xlink:href="#BitstreamVeraSans-Roman-74"/>
     <use x="381.982421875" xlink:href="#BitstreamVeraSans-Roman-65"/>
     <use x="443.505859375" xlink:href="#BitstreamVeraSans-Roman-72"/>
     <use x="484.619140625" xlink:href="#BitstreamVeraSans-Roman-69"/>
     <use x="512.40234375" xlink:href="#BitstreamVeraSans-Roman-61"/>
     <use x="573.681640625" xlink:href="#BitstreamVeraSans-Roman-3b"/>
     <use x="607.373046875" xlink:href="#BitstreamVeraSans-Roman-70"/>
     <use x="670.849609375" xlink:href="#BitstreamVeraSans-Roman-5f"/>
     <use x="720.849609375" xlink:href="#BitstreamVeraSans-Roman-5f"/>
     <use x="770.849609375" xlink:href="#BitstreamVeraSans-Roman-41"/>
     <use x="839.2421875" xlink:href="#BitstreamVeraSans-Roman-63"/>
     <use x="894.22265625" xlink:href="#BitstreamVeraSans-Roman-74"/>
     <use x="933.431640625" xlink:href="#BitstreamVeraSans-Roman-69"/>
     <use x="961.21484375" xlink:href="#BitstreamVeraSans-Roman-6e"/>
     <use x="1024.59375" xlink:href="#BitstreamVeraSans-Roman-6f"/>
     <use x="1085.77539062" xlink:href="#BitstreamVeraSans-Roman-62"/>
     <use x="1149.25195312" xlink:href="#BitstreamVeraSans-Roman-61"/>
     <use x="1210.53125" xlink:href="#BitstreamVeraSans-Roman-63"/>
     <use x="1265.51171875" xlink:href="#BitstreamVeraSans-Roman-74"/>
     <use x="1304.72070312" xlink:href="#BitstreamVeraSans-Roman-65"/>
     <use x="1366.24414062" xlink:href="#BitstreamVeraSans-Roman-72"/>
     <use x="1407.35742188" xlink:href="#BitstreamVeraSans-Roman-69"/>
     <use x="1435.140625" xlink:href="#BitstreamVeraSans-Roman-61"/>
    </g>
   </g>
   <g id="patch_8">
    <path d="M 6.48 106.756875 
L 20.88 106.756875 
L 20.88 101.716875 
L 6.48 101.716875 
z
" style="fill:#ffff00;"/>
   </g>
   <g id="text_6">
    <!-- k__Bacteria;p__Bacteroidetes -->
    <defs>
     <path d="M 44.28125 53.078125 
L 44.28125 44.578125 
Q 40.484375 46.53125 36.375 47.5 
Q 32.28125 48.484375 27.875 48.484375 
Q 21.1875 48.484375 17.84375 46.4375 
Q 14.5 44.390625 14.5 40.28125 
Q 14.5 37.15625 16.890625 35.375 
Q 19.28125 33.59375 26.515625 31.984375 
L 29.59375 31.296875 
Q 39.15625 29.25 43.1875 25.515625 
Q 47.21875 21.78125 47.21875 15.09375 
Q 47.21875 7.46875 41.1875 3.015625 
Q 35.15625 -1.421875 24.609375 -1.421875 
Q 20.21875 -1.421875 15.453125 -0.5625 
Q 10.6875 0.296875 5.421875 2 
L 5.421875 11.28125 
Q 10.40625 8.6875 15.234375 7.390625 
Q 20.0625 6.109375 24.8125 6.109375 
Q 31.15625 6.109375 34.5625 8.28125 
Q 37.984375 10.453125 37.984375 14.40625 
Q 37.984375 18.0625 35.515625 20.015625 
Q 33.0625 21.96875 24.703125 23.78125 
L 21.578125 24.515625 
Q 13.234375 26.265625 9.515625 29.90625 
Q 5.8125 33.546875 5.8125 39.890625 
Q 5.8125 47.609375 11.28125 51.796875 
Q 16.75 56 26.8125 56 
Q 31.78125 56 36.171875 55.265625 
Q 40.578125 54.546875 44.28125 53.078125 
" id="BitstreamVeraSans-Roman-73"/>
    </defs>
    <g transform="translate(26.639999999999997 106.75687500000006)scale(0.072 -0.072)">
     <use xlink:href="#BitstreamVeraSans-Roman-6b"/>
     <use x="57.91015625" xlink:href="#BitstreamVeraSans-Roman-5f"/>
     <use x="107.91015625" xlink:href="#BitstreamVeraSans-Roman-5f"/>
     <use x="157.91015625" xlink:href="#BitstreamVeraSans-Roman-42"/>
     <use x="226.513671875" xlink:href="#BitstreamVeraSans-Roman-61"/>
     <use x="287.79296875" xlink:href="#BitstreamVeraSans-Roman-63"/>
     <use x="342.7734375" xlink:href="#BitstreamVeraSans-Roman-74"/>
     <use x="381.982421875" xlink:href="#BitstreamVeraSans-Roman-65"/>
     <use x="443.505859375" xlink:href="#BitstreamVeraSans-Roman-72"/>
     <use x="484.619140625" xlink:href="#BitstreamVeraSans-Roman-69"/>
     <use x="512.40234375" xlink:href="#BitstreamVeraSans-Roman-61"/>
     <use x="573.681640625" xlink:href="#BitstreamVeraSans-Roman-3b"/>
     <use x="607.373046875" xlink:href="#BitstreamVeraSans-Roman-70"/>
     <use x="670.849609375" xlink:href="#BitstreamVeraSans-Roman-5f"/>
     <use x="720.849609375" xlink:href="#BitstreamVeraSans-Roman-5f"/>
     <use x="770.849609375" xlink:href="#BitstreamVeraSans-Roman-42"/>
     <use x="839.453125" xlink:href="#BitstreamVeraSans-Roman-61"/>
     <use x="900.732421875" xlink:href="#BitstreamVeraSans-Roman-63"/>
     <use x="955.712890625" xlink:href="#BitstreamVeraSans-Roman-74"/>
     <use x="994.921875" xlink:href="#BitstreamVeraSans-Roman-65"/>
     <use x="1056.4453125" xlink:href="#BitstreamVeraSans-Roman-72"/>
     <use x="1097.52734375" xlink:href="#BitstreamVeraSans-Roman-6f"/>
     <use x="1158.70898438" xlink:href="#BitstreamVeraSans-Roman-69"/>
     <use x="1186.4921875" xlink:href="#BitstreamVeraSans-Roman-64"/>
     <use x="1249.96875" xlink:href="#BitstreamVeraSans-Roman-65"/>
     <use x="1311.4921875" xlink:href="#BitstreamVeraSans-Roman-74"/>
     <use x="1350.70117188" xlink:href="#BitstreamVeraSans-Roman-65"/>
     <use x="1412.22460938" xlink:href="#BitstreamVeraSans-Roman-73"/>
    </g>
   </g>
   <g id="patch_9">
    <path d="M 6.48 117.525375 
L 20.88 117.525375 
L 20.88 112.485375 
L 6.48 112.485375 
z
" style="fill:#7cecf4;"/>
   </g>
   <g id="text_7">
    <!-- k__Bacteria;p__Chloroflexi -->
    <defs>
     <path d="M 37.109375 75.984375 
L 37.109375 68.5 
L 28.515625 68.5 
Q 23.6875 68.5 21.796875 66.546875 
Q 19.921875 64.59375 19.921875 59.515625 
L 19.921875 54.6875 
L 34.71875 54.6875 
L 34.71875 47.703125 
L 19.921875 47.703125 
L 19.921875 0 
L 10.890625 0 
L 10.890625 47.703125 
L 2.296875 47.703125 
L 2.296875 54.6875 
L 10.890625 54.6875 
L 10.890625 58.5 
Q 10.890625 67.625 15.140625 71.796875 
Q 19.390625 75.984375 28.609375 75.984375 
z
" id="BitstreamVeraSans-Roman-66"/>
     <path d="M 54.890625 54.6875 
L 35.109375 28.078125 
L 55.90625 0 
L 45.3125 0 
L 29.390625 21.484375 
L 13.484375 0 
L 2.875 0 
L 24.125 28.609375 
L 4.6875 54.6875 
L 15.28125 54.6875 
L 29.78125 35.203125 
L 44.28125 54.6875 
z
" id="BitstreamVeraSans-Roman-78"/>
     <path d="M 9.421875 75.984375 
L 18.40625 75.984375 
L 18.40625 0 
L 9.421875 0 
z
" id="BitstreamVeraSans-Roman-6c"/>
    </defs>
    <g transform="translate(26.639999999999997 117.52537500000005)scale(0.072 -0.072)">
     <use xlink:href="#BitstreamVeraSans-Roman-6b"/>
     <use x="57.91015625" xlink:href="#BitstreamVeraSans-Roman-5f"/>
     <use x="107.91015625" xlink:href="#BitstreamVeraSans-Roman-5f"/>
     <use x="157.91015625" xlink:href="#BitstreamVeraSans-Roman-42"/>
     <use x="226.513671875" xlink:href="#BitstreamVeraSans-Roman-61"/>
     <use x="287.79296875" xlink:href="#BitstreamVeraSans-Roman-63"/>
     <use x="342.7734375" xlink:href="#BitstreamVeraSans-Roman-74"/>
     <use x="381.982421875" xlink:href="#BitstreamVeraSans-Roman-65"/>
     <use x="443.505859375" xlink:href="#BitstreamVeraSans-Roman-72"/>
     <use x="484.619140625" xlink:href="#BitstreamVeraSans-Roman-69"/>
     <use x="512.40234375" xlink:href="#BitstreamVeraSans-Roman-61"/>
     <use x="573.681640625" xlink:href="#BitstreamVeraSans-Roman-3b"/>
     <use x="607.373046875" xlink:href="#BitstreamVeraSans-Roman-70"/>
     <use x="670.849609375" xlink:href="#BitstreamVeraSans-Roman-5f"/>
     <use x="720.849609375" xlink:href="#BitstreamVeraSans-Roman-5f"/>
     <use x="770.849609375" xlink:href="#BitstreamVeraSans-Roman-43"/>
     <use x="840.673828125" xlink:href="#BitstreamVeraSans-Roman-68"/>
     <use x="904.052734375" xlink:href="#BitstreamVeraSans-Roman-6c"/>
     <use x="931.8359375" xlink:href="#BitstreamVeraSans-Roman-6f"/>
     <use x="993.017578125" xlink:href="#BitstreamVeraSans-Roman-72"/>
     <use x="1034.09960938" xlink:href="#BitstreamVeraSans-Roman-6f"/>
     <use x="1095.28125" xlink:href="#BitstreamVeraSans-Roman-66"/>
     <use x="1130.48632812" xlink:href="#BitstreamVeraSans-Roman-6c"/>
     <use x="1158.26953125" xlink:href="#BitstreamVeraSans-Roman-65"/>
     <use x="1219.77734375" xlink:href="#BitstreamVeraSans-Roman-78"/>
     <use x="1278.95703125" xlink:href="#BitstreamVeraSans-Roman-69"/>
    </g>
   </g>
   <g id="patch_10">
    <path d="M 6.48 128.293875 
L 20.88 128.293875 
L 20.88 123.253875 
L 6.48 123.253875 
z
" style="fill:#f49ac2;"/>
   </g>
   <g id="text_8">
    <!-- k__Bacteria;p__Elusimicrobia -->
    <defs>
     <path d="M 52 44.1875 
Q 55.375 50.25 60.0625 53.125 
Q 64.75 56 71.09375 56 
Q 79.640625 56 84.28125 50.015625 
Q 88.921875 44.046875 88.921875 33.015625 
L 88.921875 0 
L 79.890625 0 
L 79.890625 32.71875 
Q 79.890625 40.578125 77.09375 44.375 
Q 74.3125 48.1875 68.609375 48.1875 
Q 61.625 48.1875 57.5625 43.546875 
Q 53.515625 38.921875 53.515625 30.90625 
L 53.515625 0 
L 44.484375 0 
L 44.484375 32.71875 
Q 44.484375 40.625 41.703125 44.40625 
Q 38.921875 48.1875 33.109375 48.1875 
Q 26.21875 48.1875 22.15625 43.53125 
Q 18.109375 38.875 18.109375 30.90625 
L 18.109375 0 
L 9.078125 0 
L 9.078125 54.6875 
L 18.109375 54.6875 
L 18.109375 46.1875 
Q 21.1875 51.21875 25.484375 53.609375 
Q 29.78125 56 35.6875 56 
Q 41.65625 56 45.828125 52.96875 
Q 50 49.953125 52 44.1875 
" id="BitstreamVeraSans-Roman-6d"/>
    </defs>
    <g transform="translate(26.639999999999997 128.29387500000007)scale(0.072 -0.072)">
     <use xlink:href="#BitstreamVeraSans-Roman-6b"/>
     <use x="57.91015625" xlink:href="#BitstreamVeraSans-Roman-5f"/>
     <use x="107.91015625" xlink:href="#BitstreamVeraSans-Roman-5f"/>
     <use x="157.91015625" xlink:href="#BitstreamVeraSans-Roman-42"/>
     <use x="226.513671875" xlink:href="#BitstreamVeraSans-Roman-61"/>
     <use x="287.79296875" xlink:href="#BitstreamVeraSans-Roman-63"/>
     <use x="342.7734375" xlink:href="#BitstreamVeraSans-Roman-74"/>
     <use x="381.982421875" xlink:href="#BitstreamVeraSans-Roman-65"/>
     <use x="443.505859375" xlink:href="#BitstreamVeraSans-Roman-72"/>
     <use x="484.619140625" xlink:href="#BitstreamVeraSans-Roman-69"/>
     <use x="512.40234375" xlink:href="#BitstreamVeraSans-Roman-61"/>
     <use x="573.681640625" xlink:href="#BitstreamVeraSans-Roman-3b"/>
     <use x="607.373046875" xlink:href="#BitstreamVeraSans-Roman-70"/>
     <use x="670.849609375" xlink:href="#BitstreamVeraSans-Roman-5f"/>
     <use x="720.849609375" xlink:href="#BitstreamVeraSans-Roman-5f"/>
     <use x="770.849609375" xlink:href="#BitstreamVeraSans-Roman-45"/>
     <use x="834.033203125" xlink:href="#BitstreamVeraSans-Roman-6c"/>
     <use x="861.81640625" xlink:href="#BitstreamVeraSans-Roman-75"/>
     <use x="925.1953125" xlink:href="#BitstreamVeraSans-Roman-73"/>
     <use x="977.294921875" xlink:href="#BitstreamVeraSans-Roman-69"/>
     <use x="1005.078125" xlink:href="#BitstreamVeraSans-Roman-6d"/>
     <use x="1102.49023438" xlink:href="#BitstreamVeraSans-Roman-69"/>
     <use x="1130.2734375" xlink:href="#BitstreamVeraSans-Roman-63"/>
     <use x="1185.25390625" xlink:href="#BitstreamVeraSans-Roman-72"/>
     <use x="1226.3359375" xlink:href="#BitstreamVeraSans-Roman-6f"/>
     <use x="1287.51757812" xlink:href="#BitstreamVeraSans-Roman-62"/>
     <use x="1350.99414062" xlink:href="#BitstreamVeraSans-Roman-69"/>
     <use x="1378.77734375" xlink:href="#BitstreamVeraSans-Roman-61"/>
    </g>
   </g>
   <g id="patch_11">
    <path d="M 6.48 139.062375 
L 20.88 139.062375 
L 20.88 134.022375 
L 6.48 134.022375 
z
" style="fill:#5da09e;"/>
   </g>
   <g id="text_9">
    <!-- k__Bacteria;p__Firmicutes -->
    <defs>
     <path d="M 9.8125 72.90625 
L 51.703125 72.90625 
L 51.703125 64.59375 
L 19.671875 64.59375 
L 19.671875 43.109375 
L 48.578125 43.109375 
L 48.578125 34.8125 
L 19.671875 34.8125 
L 19.671875 0 
L 9.8125 0 
z
" id="BitstreamVeraSans-Roman-46"/>
    </defs>
    <g transform="translate(26.639999999999997 139.06237500000006)scale(0.072 -0.072)">
     <use xlink:href="#BitstreamVeraSans-Roman-6b"/>
     <use x="57.91015625" xlink:href="#BitstreamVeraSans-Roman-5f"/>
     <use x="107.91015625" xlink:href="#BitstreamVeraSans-Roman-5f"/>
     <use x="157.91015625" xlink:href="#BitstreamVeraSans-Roman-42"/>
     <use x="226.513671875" xlink:href="#BitstreamVeraSans-Roman-61"/>
     <use x="287.79296875" xlink:href="#BitstreamVeraSans-Roman-63"/>
     <use x="342.7734375" xlink:href="#BitstreamVeraSans-Roman-74"/>
     <use x="381.982421875" xlink:href="#BitstreamVeraSans-Roman-65"/>
     <use x="443.505859375" xlink:href="#BitstreamVeraSans-Roman-72"/>
     <use x="484.619140625" xlink:href="#BitstreamVeraSans-Roman-69"/>
     <use x="512.40234375" xlink:href="#BitstreamVeraSans-Roman-61"/>
     <use x="573.681640625" xlink:href="#BitstreamVeraSans-Roman-3b"/>
     <use x="607.373046875" xlink:href="#BitstreamVeraSans-Roman-70"/>
     <use x="670.849609375" xlink:href="#BitstreamVeraSans-Roman-5f"/>
     <use x="720.849609375" xlink:href="#BitstreamVeraSans-Roman-5f"/>
     <use x="770.849609375" xlink:href="#BitstreamVeraSans-Roman-46"/>
     <use x="828.259765625" xlink:href="#BitstreamVeraSans-Roman-69"/>
     <use x="856.04296875" xlink:href="#BitstreamVeraSans-Roman-72"/>
     <use x="897.140625" xlink:href="#BitstreamVeraSans-Roman-6d"/>
     <use x="994.552734375" xlink:href="#BitstreamVeraSans-Roman-69"/>
     <use x="1022.3359375" xlink:href="#BitstreamVeraSans-Roman-63"/>
     <use x="1077.31640625" xlink:href="#BitstreamVeraSans-Roman-75"/>
     <use x="1140.6953125" xlink:href="#BitstreamVeraSans-Roman-74"/>
     <use x="1179.90429688" xlink:href="#BitstreamVeraSans-Roman-65"/>
     <use x="1241.42773438" xlink:href="#BitstreamVeraSans-Roman-73"/>
    </g>
   </g>
   <g id="patch_12">
    <path d="M 6.48 149.830875 
L 20.88 149.830875 
L 20.88 144.790875 
L 6.48 144.790875 
z
" style="fill:#6b440b;"/>
   </g>
   <g id="text_10">
    <!-- k__Bacteria;p__Gemmatimonadetes -->
    <defs>
     <path d="M 59.515625 10.40625 
L 59.515625 29.984375 
L 43.40625 29.984375 
L 43.40625 38.09375 
L 69.28125 38.09375 
L 69.28125 6.78125 
Q 63.578125 2.734375 56.6875 0.65625 
Q 49.8125 -1.421875 42 -1.421875 
Q 24.90625 -1.421875 15.25 8.5625 
Q 5.609375 18.5625 5.609375 36.375 
Q 5.609375 54.25 15.25 64.234375 
Q 24.90625 74.21875 42 74.21875 
Q 49.125 74.21875 55.546875 72.453125 
Q 61.96875 70.703125 67.390625 67.28125 
L 67.390625 56.78125 
Q 61.921875 61.421875 55.765625 63.765625 
Q 49.609375 66.109375 42.828125 66.109375 
Q 29.4375 66.109375 22.71875 58.640625 
Q 16.015625 51.171875 16.015625 36.375 
Q 16.015625 21.625 22.71875 14.15625 
Q 29.4375 6.6875 42.828125 6.6875 
Q 48.046875 6.6875 52.140625 7.59375 
Q 56.25 8.5 59.515625 10.40625 
" id="BitstreamVeraSans-Roman-47"/>
    </defs>
    <g transform="translate(26.639999999999997 149.83087500000008)scale(0.072 -0.072)">
     <use xlink:href="#BitstreamVeraSans-Roman-6b"/>
     <use x="57.91015625" xlink:href="#BitstreamVeraSans-Roman-5f"/>
     <use x="107.91015625" xlink:href="#BitstreamVeraSans-Roman-5f"/>
     <use x="157.91015625" xlink:href="#BitstreamVeraSans-Roman-42"/>
     <use x="226.513671875" xlink:href="#BitstreamVeraSans-Roman-61"/>
     <use x="287.79296875" xlink:href="#BitstreamVeraSans-Roman-63"/>
     <use x="342.7734375" xlink:href="#BitstreamVeraSans-Roman-74"/>
     <use x="381.982421875" xlink:href="#BitstreamVeraSans-Roman-65"/>
     <use x="443.505859375" xlink:href="#BitstreamVeraSans-Roman-72"/>
     <use x="484.619140625" xlink:href="#BitstreamVeraSans-Roman-69"/>
     <use x="512.40234375" xlink:href="#BitstreamVeraSans-Roman-61"/>
     <use x="573.681640625" xlink:href="#BitstreamVeraSans-Roman-3b"/>
     <use x="607.373046875" xlink:href="#BitstreamVeraSans-Roman-70"/>
     <use x="670.849609375" xlink:href="#BitstreamVeraSans-Roman-5f"/>
     <use x="720.849609375" xlink:href="#BitstreamVeraSans-Roman-5f"/>
     <use x="770.849609375" xlink:href="#BitstreamVeraSans-Roman-47"/>
     <use x="848.33984375" xlink:href="#BitstreamVeraSans-Roman-65"/>
     <use x="909.86328125" xlink:href="#BitstreamVeraSans-Roman-6d"/>
     <use x="1007.27539062" xlink:href="#BitstreamVeraSans-Roman-6d"/>
     <use x="1104.6875" xlink:href="#BitstreamVeraSans-Roman-61"/>
     <use x="1165.96679688" xlink:href="#BitstreamVeraSans-Roman-74"/>
     <use x="1205.17578125" xlink:href="#BitstreamVeraSans-Roman-69"/>
     <use x="1232.95898438" xlink:href="#BitstreamVeraSans-Roman-6d"/>
     <use x="1330.37109375" xlink:href="#BitstreamVeraSans-Roman-6f"/>
     <use x="1391.55273438" xlink:href="#BitstreamVeraSans-Roman-6e"/>
     <use x="1454.93164062" xlink:href="#BitstreamVeraSans-Roman-61"/>
     <use x="1516.2109375" xlink:href="#BitstreamVeraSans-Roman-64"/>
     <use x="1579.6875" xlink:href="#BitstreamVeraSans-Roman-65"/>
     <use x="1641.2109375" xlink:href="#BitstreamVeraSans-Roman-74"/>
     <use x="1680.41992188" xlink:href="#BitstreamVeraSans-Roman-65"/>
     <use x="1741.94335938" xlink:href="#BitstreamVeraSans-Roman-73"/>
    </g>
   </g>
   <g id="patch_13">
    <path d="M 6.48 160.599375 
L 20.88 160.599375 
L 20.88 155.559375 
L 6.48 155.559375 
z
" style="fill:#808080;"/>
   </g>
   <g id="text_11">
    <!-- k__Bacteria;p__Nitrospirae -->
    <defs>
     <path d="M 9.8125 72.90625 
L 23.09375 72.90625 
L 55.421875 11.921875 
L 55.421875 72.90625 
L 64.984375 72.90625 
L 64.984375 0 
L 51.703125 0 
L 19.390625 60.984375 
L 19.390625 0 
L 9.8125 0 
z
" id="BitstreamVeraSans-Roman-4e"/>
    </defs>
    <g transform="translate(26.639999999999997 160.59937500000007)scale(0.072 -0.072)">
     <use xlink:href="#BitstreamVeraSans-Roman-6b"/>
     <use x="57.91015625" xlink:href="#BitstreamVeraSans-Roman-5f"/>
     <use x="107.91015625" xlink:href="#BitstreamVeraSans-Roman-5f"/>
     <use x="157.91015625" xlink:href="#BitstreamVeraSans-Roman-42"/>
     <use x="226.513671875" xlink:href="#BitstreamVeraSans-Roman-61"/>
     <use x="287.79296875" xlink:href="#BitstreamVeraSans-Roman-63"/>
     <use x="342.7734375" xlink:href="#BitstreamVeraSans-Roman-74"/>
     <use x="381.982421875" xlink:href="#BitstreamVeraSans-Roman-65"/>
     <use x="443.505859375" xlink:href="#BitstreamVeraSans-Roman-72"/>
     <use x="484.619140625" xlink:href="#BitstreamVeraSans-Roman-69"/>
     <use x="512.40234375" xlink:href="#BitstreamVeraSans-Roman-61"/>
     <use x="573.681640625" xlink:href="#BitstreamVeraSans-Roman-3b"/>
     <use x="607.373046875" xlink:href="#BitstreamVeraSans-Roman-70"/>
     <use x="670.849609375" xlink:href="#BitstreamVeraSans-Roman-5f"/>
     <use x="720.849609375" xlink:href="#BitstreamVeraSans-Roman-5f"/>
     <use x="770.849609375" xlink:href="#BitstreamVeraSans-Roman-4e"/>
     <use x="845.654296875" xlink:href="#BitstreamVeraSans-Roman-69"/>
     <use x="873.4375" xlink:href="#BitstreamVeraSans-Roman-74"/>
     <use x="912.646484375" xlink:href="#BitstreamVeraSans-Roman-72"/>
     <use x="953.728515625" xlink:href="#BitstreamVeraSans-Roman-6f"/>
     <use x="1014.91015625" xlink:href="#BitstreamVeraSans-Roman-73"/>
     <use x="1067.00976562" xlink:href="#BitstreamVeraSans-Roman-70"/>
     <use x="1130.48632812" xlink:href="#BitstreamVeraSans-Roman-69"/>
     <use x="1158.26953125" xlink:href="#BitstreamVeraSans-Roman-72"/>
     <use x="1199.3828125" xlink:href="#BitstreamVeraSans-Roman-61"/>
     <use x="1260.66210938" xlink:href="#BitstreamVeraSans-Roman-65"/>
    </g>
   </g>
   <g id="patch_14">
    <path d="M 6.48 171.367875 
L 20.88 171.367875 
L 20.88 166.327875 
L 6.48 166.327875 
z
" style="fill:#02f40e;"/>
   </g>
   <g id="text_12">
    <!-- k__Bacteria;p__OP1 -->
    <defs>
     <path d="M 19.671875 64.796875 
L 19.671875 37.40625 
L 32.078125 37.40625 
Q 38.96875 37.40625 42.71875 40.96875 
Q 46.484375 44.53125 46.484375 51.125 
Q 46.484375 57.671875 42.71875 61.234375 
Q 38.96875 64.796875 32.078125 64.796875 
z
M 9.8125 72.90625 
L 32.078125 72.90625 
Q 44.34375 72.90625 50.609375 67.359375 
Q 56.890625 61.8125 56.890625 51.125 
Q 56.890625 40.328125 50.609375 34.8125 
Q 44.34375 29.296875 32.078125 29.296875 
L 19.671875 29.296875 
L 19.671875 0 
L 9.8125 0 
z
" id="BitstreamVeraSans-Roman-50"/>
     <path d="M 39.40625 66.21875 
Q 28.65625 66.21875 22.328125 58.203125 
Q 16.015625 50.203125 16.015625 36.375 
Q 16.015625 22.609375 22.328125 14.59375 
Q 28.65625 6.59375 39.40625 6.59375 
Q 50.140625 6.59375 56.421875 14.59375 
Q 62.703125 22.609375 62.703125 36.375 
Q 62.703125 50.203125 56.421875 58.203125 
Q 50.140625 66.21875 39.40625 66.21875 
M 39.40625 74.21875 
Q 54.734375 74.21875 63.90625 63.9375 
Q 73.09375 53.65625 73.09375 36.375 
Q 73.09375 19.140625 63.90625 8.859375 
Q 54.734375 -1.421875 39.40625 -1.421875 
Q 24.03125 -1.421875 14.8125 8.828125 
Q 5.609375 19.09375 5.609375 36.375 
Q 5.609375 53.65625 14.8125 63.9375 
Q 24.03125 74.21875 39.40625 74.21875 
" id="BitstreamVeraSans-Roman-4f"/>
     <path d="M 12.40625 8.296875 
L 28.515625 8.296875 
L 28.515625 63.921875 
L 10.984375 60.40625 
L 10.984375 69.390625 
L 28.421875 72.90625 
L 38.28125 72.90625 
L 38.28125 8.296875 
L 54.390625 8.296875 
L 54.390625 0 
L 12.40625 0 
z
" id="BitstreamVeraSans-Roman-31"/>
    </defs>
    <g transform="translate(26.639999999999997 171.36787500000008)scale(0.072 -0.072)">
     <use xlink:href="#BitstreamVeraSans-Roman-6b"/>
     <use x="57.91015625" xlink:href="#BitstreamVeraSans-Roman-5f"/>
     <use x="107.91015625" xlink:href="#BitstreamVeraSans-Roman-5f"/>
     <use x="157.91015625" xlink:href="#BitstreamVeraSans-Roman-42"/>
     <use x="226.513671875" xlink:href="#BitstreamVeraSans-Roman-61"/>
     <use x="287.79296875" xlink:href="#BitstreamVeraSans-Roman-63"/>
     <use x="342.7734375" xlink:href="#BitstreamVeraSans-Roman-74"/>
     <use x="381.982421875" xlink:href="#BitstreamVeraSans-Roman-65"/>
     <use x="443.505859375" xlink:href="#BitstreamVeraSans-Roman-72"/>
     <use x="484.619140625" xlink:href="#BitstreamVeraSans-Roman-69"/>
     <use x="512.40234375" xlink:href="#BitstreamVeraSans-Roman-61"/>
     <use x="573.681640625" xlink:href="#BitstreamVeraSans-Roman-3b"/>
     <use x="607.373046875" xlink:href="#BitstreamVeraSans-Roman-70"/>
     <use x="670.849609375" xlink:href="#BitstreamVeraSans-Roman-5f"/>
     <use x="720.849609375" xlink:href="#BitstreamVeraSans-Roman-5f"/>
     <use x="770.849609375" xlink:href="#BitstreamVeraSans-Roman-4f"/>
     <use x="849.560546875" xlink:href="#BitstreamVeraSans-Roman-50"/>
     <use x="909.86328125" xlink:href="#BitstreamVeraSans-Roman-31"/>
    </g>
   </g>
   <g id="patch_15">
    <path d="M 6.48 182.136375 
L 20.88 182.136375 
L 20.88 177.096375 
L 6.48 177.096375 
z
" style="fill:#f79679;"/>
   </g>
   <g id="text_13">
    <!-- k__Bacteria;p__OP8 -->
    <defs>
     <path d="M 31.78125 34.625 
Q 24.75 34.625 20.71875 30.859375 
Q 16.703125 27.09375 16.703125 20.515625 
Q 16.703125 13.921875 20.71875 10.15625 
Q 24.75 6.390625 31.78125 6.390625 
Q 38.8125 6.390625 42.859375 10.171875 
Q 46.921875 13.96875 46.921875 20.515625 
Q 46.921875 27.09375 42.890625 30.859375 
Q 38.875 34.625 31.78125 34.625 
M 21.921875 38.8125 
Q 15.578125 40.375 12.03125 44.71875 
Q 8.5 49.078125 8.5 55.328125 
Q 8.5 64.0625 14.71875 69.140625 
Q 20.953125 74.21875 31.78125 74.21875 
Q 42.671875 74.21875 48.875 69.140625 
Q 55.078125 64.0625 55.078125 55.328125 
Q 55.078125 49.078125 51.53125 44.71875 
Q 48 40.375 41.703125 38.8125 
Q 48.828125 37.15625 52.796875 32.3125 
Q 56.78125 27.484375 56.78125 20.515625 
Q 56.78125 9.90625 50.3125 4.234375 
Q 43.84375 -1.421875 31.78125 -1.421875 
Q 19.734375 -1.421875 13.25 4.234375 
Q 6.78125 9.90625 6.78125 20.515625 
Q 6.78125 27.484375 10.78125 32.3125 
Q 14.796875 37.15625 21.921875 38.8125 
M 18.3125 54.390625 
Q 18.3125 48.734375 21.84375 45.5625 
Q 25.390625 42.390625 31.78125 42.390625 
Q 38.140625 42.390625 41.71875 45.5625 
Q 45.3125 48.734375 45.3125 54.390625 
Q 45.3125 60.0625 41.71875 63.234375 
Q 38.140625 66.40625 31.78125 66.40625 
Q 25.390625 66.40625 21.84375 63.234375 
Q 18.3125 60.0625 18.3125 54.390625 
" id="BitstreamVeraSans-Roman-38"/>
    </defs>
    <g transform="translate(26.639999999999997 182.13637500000007)scale(0.072 -0.072)">
     <use xlink:href="#BitstreamVeraSans-Roman-6b"/>
     <use x="57.91015625" xlink:href="#BitstreamVeraSans-Roman-5f"/>
     <use x="107.91015625" xlink:href="#BitstreamVeraSans-Roman-5f"/>
     <use x="157.91015625" xlink:href="#BitstreamVeraSans-Roman-42"/>
     <use x="226.513671875" xlink:href="#BitstreamVeraSans-Roman-61"/>
     <use x="287.79296875" xlink:href="#BitstreamVeraSans-Roman-63"/>
     <use x="342.7734375" xlink:href="#BitstreamVeraSans-Roman-74"/>
     <use x="381.982421875" xlink:href="#BitstreamVeraSans-Roman-65"/>
     <use x="443.505859375" xlink:href="#BitstreamVeraSans-Roman-72"/>
     <use x="484.619140625" xlink:href="#BitstreamVeraSans-Roman-69"/>
     <use x="512.40234375" xlink:href="#BitstreamVeraSans-Roman-61"/>
     <use x="573.681640625" xlink:href="#BitstreamVeraSans-Roman-3b"/>
     <use x="607.373046875" xlink:href="#BitstreamVeraSans-Roman-70"/>
     <use x="670.849609375" xlink:href="#BitstreamVeraSans-Roman-5f"/>
     <use x="720.849609375" xlink:href="#BitstreamVeraSans-Roman-5f"/>
     <use x="770.849609375" xlink:href="#BitstreamVeraSans-Roman-4f"/>
     <use x="849.560546875" xlink:href="#BitstreamVeraSans-Roman-50"/>
     <use x="909.86328125" xlink:href="#BitstreamVeraSans-Roman-38"/>
    </g>
   </g>
   <g id="patch_16">
    <path d="M 6.48 192.904875 
L 20.88 192.904875 
L 20.88 187.864875 
L 6.48 187.864875 
z
" style="fill:#7da9d8;"/>
   </g>
   <g id="text_14">
    <!-- k__Bacteria;p__Planctomycetes -->
    <g transform="translate(26.639999999999997 192.90487500000006)scale(0.072 -0.072)">
     <use xlink:href="#BitstreamVeraSans-Roman-6b"/>
     <use x="57.91015625" xlink:href="#BitstreamVeraSans-Roman-5f"/>
     <use x="107.91015625" xlink:href="#BitstreamVeraSans-Roman-5f"/>
     <use x="157.91015625" xlink:href="#BitstreamVeraSans-Roman-42"/>
     <use x="226.513671875" xlink:href="#BitstreamVeraSans-Roman-61"/>
     <use x="287.79296875" xlink:href="#BitstreamVeraSans-Roman-63"/>
     <use x="342.7734375" xlink:href="#BitstreamVeraSans-Roman-74"/>
     <use x="381.982421875" xlink:href="#BitstreamVeraSans-Roman-65"/>
     <use x="443.505859375" xlink:href="#BitstreamVeraSans-Roman-72"/>
     <use x="484.619140625" xlink:href="#BitstreamVeraSans-Roman-69"/>
     <use x="512.40234375" xlink:href="#BitstreamVeraSans-Roman-61"/>
     <use x="573.681640625" xlink:href="#BitstreamVeraSans-Roman-3b"/>
     <use x="607.373046875" xlink:href="#BitstreamVeraSans-Roman-70"/>
     <use x="670.849609375" xlink:href="#BitstreamVeraSans-Roman-5f"/>
     <use x="720.849609375" xlink:href="#BitstreamVeraSans-Roman-5f"/>
     <use x="770.849609375" xlink:href="#BitstreamVeraSans-Roman-50"/>
     <use x="831.15234375" xlink:href="#BitstreamVeraSans-Roman-6c"/>
     <use x="858.935546875" xlink:href="#BitstreamVeraSans-Roman-61"/>
     <use x="920.21484375" xlink:href="#BitstreamVeraSans-Roman-6e"/>
     <use x="983.59375" xlink:href="#BitstreamVeraSans-Roman-63"/>
     <use x="1038.57421875" xlink:href="#BitstreamVeraSans-Roman-74"/>
     <use x="1077.78320312" xlink:href="#BitstreamVeraSans-Roman-6f"/>
     <use x="1138.96484375" xlink:href="#BitstreamVeraSans-Roman-6d"/>
     <use x="1236.37695312" xlink:href="#BitstreamVeraSans-Roman-79"/>
     <use x="1295.55664062" xlink:href="#BitstreamVeraSans-Roman-63"/>
     <use x="1350.53710938" xlink:href="#BitstreamVeraSans-Roman-65"/>
     <use x="1412.06054688" xlink:href="#BitstreamVeraSans-Roman-74"/>
     <use x="1451.26953125" xlink:href="#BitstreamVeraSans-Roman-65"/>
     <use x="1512.79296875" xlink:href="#BitstreamVeraSans-Roman-73"/>
    </g>
   </g>
   <g id="patch_17">
    <path d="M 6.48 203.673375 
L 20.88 203.673375 
L 20.88 198.633375 
L 6.48 198.633375 
z
" style="fill:#fcc688;"/>
   </g>
   <g id="text_15">
    <!-- k__Bacteria;p__Proteobacteria -->
    <g transform="translate(26.639999999999997 203.67337500000005)scale(0.072 -0.072)">
     <use xlink:href="#BitstreamVeraSans-Roman-6b"/>
     <use x="57.91015625" xlink:href="#BitstreamVeraSans-Roman-5f"/>
     <use x="107.91015625" xlink:href="#BitstreamVeraSans-Roman-5f"/>
     <use x="157.91015625" xlink:href="#BitstreamVeraSans-Roman-42"/>
     <use x="226.513671875" xlink:href="#BitstreamVeraSans-Roman-61"/>
     <use x="287.79296875" xlink:href="#BitstreamVeraSans-Roman-63"/>
     <use x="342.7734375" xlink:href="#BitstreamVeraSans-Roman-74"/>
     <use x="381.982421875" xlink:href="#BitstreamVeraSans-Roman-65"/>
     <use x="443.505859375" xlink:href="#BitstreamVeraSans-Roman-72"/>
     <use x="484.619140625" xlink:href="#BitstreamVeraSans-Roman-69"/>
     <use x="512.40234375" xlink:href="#BitstreamVeraSans-Roman-61"/>
     <use x="573.681640625" xlink:href="#BitstreamVeraSans-Roman-3b"/>
     <use x="607.373046875" xlink:href="#BitstreamVeraSans-Roman-70"/>
     <use x="670.849609375" xlink:href="#BitstreamVeraSans-Roman-5f"/>
     <use x="720.849609375" xlink:href="#BitstreamVeraSans-Roman-5f"/>
     <use x="770.849609375" xlink:href="#BitstreamVeraSans-Roman-50"/>
     <use x="831.13671875" xlink:href="#BitstreamVeraSans-Roman-72"/>
     <use x="872.21875" xlink:href="#BitstreamVeraSans-Roman-6f"/>
     <use x="933.400390625" xlink:href="#BitstreamVeraSans-Roman-74"/>
     <use x="972.609375" xlink:href="#BitstreamVeraSans-Roman-65"/>
     <use x="1034.1328125" xlink:href="#BitstreamVeraSans-Roman-6f"/>
     <use x="1095.31445312" xlink:href="#BitstreamVeraSans-Roman-62"/>
     <use x="1158.79101562" xlink:href="#BitstreamVeraSans-Roman-61"/>
     <use x="1220.0703125" xlink:href="#BitstreamVeraSans-Roman-63"/>
     <use x="1275.05078125" xlink:href="#BitstreamVeraSans-Roman-74"/>
     <use x="1314.25976562" xlink:href="#BitstreamVeraSans-Roman-65"/>
     <use x="1375.78320312" xlink:href="#BitstreamVeraSans-Roman-72"/>
     <use x="1416.89648438" xlink:href="#BitstreamVeraSans-Roman-69"/>
     <use x="1444.6796875" xlink:href="#BitstreamVeraSans-Roman-61"/>
    </g>
   </g>
   <g id="patch_18">
    <path d="M 6.48 214.441875 
L 20.88 214.441875 
L 20.88 209.401875 
L 6.48 209.401875 
z
" style="fill:#80c99b;"/>
   </g>
   <g id="text_16">
    <!-- k__Bacteria;p__Spirochaetes -->
    <defs>
     <path d="M 53.515625 70.515625 
L 53.515625 60.890625 
Q 47.90625 63.578125 42.921875 64.890625 
Q 37.9375 66.21875 33.296875 66.21875 
Q 25.25 66.21875 20.875 63.09375 
Q 16.5 59.96875 16.5 54.203125 
Q 16.5 49.359375 19.40625 46.890625 
Q 22.3125 44.4375 30.421875 42.921875 
L 36.375 41.703125 
Q 47.40625 39.59375 52.65625 34.296875 
Q 57.90625 29 57.90625 20.125 
Q 57.90625 9.515625 50.796875 4.046875 
Q 43.703125 -1.421875 29.984375 -1.421875 
Q 24.8125 -1.421875 18.96875 -0.25 
Q 13.140625 0.921875 6.890625 3.21875 
L 6.890625 13.375 
Q 12.890625 10.015625 18.65625 8.296875 
Q 24.421875 6.59375 29.984375 6.59375 
Q 38.421875 6.59375 43.015625 9.90625 
Q 47.609375 13.234375 47.609375 19.390625 
Q 47.609375 24.75 44.3125 27.78125 
Q 41.015625 30.8125 33.5 32.328125 
L 27.484375 33.5 
Q 16.453125 35.6875 11.515625 40.375 
Q 6.59375 45.0625 6.59375 53.421875 
Q 6.59375 63.09375 13.40625 68.65625 
Q 20.21875 74.21875 32.171875 74.21875 
Q 37.3125 74.21875 42.625 73.28125 
Q 47.953125 72.359375 53.515625 70.515625 
" id="BitstreamVeraSans-Roman-53"/>
    </defs>
    <g transform="translate(26.639999999999997 214.44187500000004)scale(0.072 -0.072)">
     <use xlink:href="#BitstreamVeraSans-Roman-6b"/>
     <use x="57.91015625" xlink:href="#BitstreamVeraSans-Roman-5f"/>
     <use x="107.91015625" xlink:href="#BitstreamVeraSans-Roman-5f"/>
     <use x="157.91015625" xlink:href="#BitstreamVeraSans-Roman-42"/>
     <use x="226.513671875" xlink:href="#BitstreamVeraSans-Roman-61"/>
     <use x="287.79296875" xlink:href="#BitstreamVeraSans-Roman-63"/>
     <use x="342.7734375" xlink:href="#BitstreamVeraSans-Roman-74"/>
     <use x="381.982421875" xlink:href="#BitstreamVeraSans-Roman-65"/>
     <use x="443.505859375" xlink:href="#BitstreamVeraSans-Roman-72"/>
     <use x="484.619140625" xlink:href="#BitstreamVeraSans-Roman-69"/>
     <use x="512.40234375" xlink:href="#BitstreamVeraSans-Roman-61"/>
     <use x="573.681640625" xlink:href="#BitstreamVeraSans-Roman-3b"/>
     <use x="607.373046875" xlink:href="#BitstreamVeraSans-Roman-70"/>
     <use x="670.849609375" xlink:href="#BitstreamVeraSans-Roman-5f"/>
     <use x="720.849609375" xlink:href="#BitstreamVeraSans-Roman-5f"/>
     <use x="770.849609375" xlink:href="#BitstreamVeraSans-Roman-53"/>
     <use x="834.326171875" xlink:href="#BitstreamVeraSans-Roman-70"/>
     <use x="897.802734375" xlink:href="#BitstreamVeraSans-Roman-69"/>
     <use x="925.5859375" xlink:href="#BitstreamVeraSans-Roman-72"/>
     <use x="966.66796875" xlink:href="#BitstreamVeraSans-Roman-6f"/>
     <use x="1027.84960938" xlink:href="#BitstreamVeraSans-Roman-63"/>
     <use x="1082.83007812" xlink:href="#BitstreamVeraSans-Roman-68"/>
     <use x="1146.20898438" xlink:href="#BitstreamVeraSans-Roman-61"/>
     <use x="1207.48828125" xlink:href="#BitstreamVeraSans-Roman-65"/>
     <use x="1269.01171875" xlink:href="#BitstreamVeraSans-Roman-74"/>
     <use x="1308.22070312" xlink:href="#BitstreamVeraSans-Roman-65"/>
     <use x="1369.74414062" xlink:href="#BitstreamVeraSans-Roman-73"/>
    </g>
   </g>
   <g id="patch_19">
    <path d="M 6.48 225.210375 
L 20.88 225.210375 
L 20.88 220.170375 
L 6.48 220.170375 
z
" style="fill:#a287bf;"/>
   </g>
   <g id="text_17">
    <!-- k__Bacteria;p__Verrucomicrobia -->
    <defs>
     <path d="M 28.609375 0 
L 0.78125 72.90625 
L 11.078125 72.90625 
L 34.1875 11.53125 
L 57.328125 72.90625 
L 67.578125 72.90625 
L 39.796875 0 
z
" id="BitstreamVeraSans-Roman-56"/>
    </defs>
    <g transform="translate(26.639999999999997 225.21037500000003)scale(0.072 -0.072)">
     <use xlink:href="#BitstreamVeraSans-Roman-6b"/>
     <use x="57.91015625" xlink:href="#BitstreamVeraSans-Roman-5f"/>
     <use x="107.91015625" xlink:href="#BitstreamVeraSans-Roman-5f"/>
     <use x="157.91015625" xlink:href="#BitstreamVeraSans-Roman-42"/>
     <use x="226.513671875" xlink:href="#BitstreamVeraSans-Roman-61"/>
     <use x="287.79296875" xlink:href="#BitstreamVeraSans-Roman-63"/>
     <use x="342.7734375" xlink:href="#BitstreamVeraSans-Roman-74"/>
     <use x="381.982421875" xlink:href="#BitstreamVeraSans-Roman-65"/>
     <use x="443.505859375" xlink:href="#BitstreamVeraSans-Roman-72"/>
     <use x="484.619140625" xlink:href="#BitstreamVeraSans-Roman-69"/>
     <use x="512.40234375" xlink:href="#BitstreamVeraSans-Roman-61"/>
     <use x="573.681640625" xlink:href="#BitstreamVeraSans-Roman-3b"/>
     <use x="607.373046875" xlink:href="#BitstreamVeraSans-Roman-70"/>
     <use x="670.849609375" xlink:href="#BitstreamVeraSans-Roman-5f"/>
     <use x="720.849609375" xlink:href="#BitstreamVeraSans-Roman-5f"/>
     <use x="770.849609375" xlink:href="#BitstreamVeraSans-Roman-56"/>
     <use x="839.1484375" xlink:href="#BitstreamVeraSans-Roman-65"/>
     <use x="900.671875" xlink:href="#BitstreamVeraSans-Roman-72"/>
     <use x="941.76953125" xlink:href="#BitstreamVeraSans-Roman-72"/>
     <use x="982.8828125" xlink:href="#BitstreamVeraSans-Roman-75"/>
     <use x="1046.26171875" xlink:href="#BitstreamVeraSans-Roman-63"/>
     <use x="1101.2421875" xlink:href="#BitstreamVeraSans-Roman-6f"/>
     <use x="1162.42382812" xlink:href="#BitstreamVeraSans-Roman-6d"/>
     <use x="1259.8359375" xlink:href="#BitstreamVeraSans-Roman-69"/>
     <use x="1287.61914062" xlink:href="#BitstreamVeraSans-Roman-63"/>
     <use x="1342.59960938" xlink:href="#BitstreamVeraSans-Roman-72"/>
     <use x="1383.68164062" xlink:href="#BitstreamVeraSans-Roman-6f"/>
     <use x="1444.86328125" xlink:href="#BitstreamVeraSans-Roman-62"/>
     <use x="1508.33984375" xlink:href="#BitstreamVeraSans-Roman-69"/>
     <use x="1536.12304688" xlink:href="#BitstreamVeraSans-Roman-61"/>
    </g>
   </g>
   <g id="patch_20">
    <path d="M 6.48 235.978875 
L 20.88 235.978875 
L 20.88 230.938875 
L 6.48 230.938875 
z
" style="fill:#fff899;"/>
   </g>
   <g id="text_18">
    <!-- k__Bacteria;p__WS3 -->
    <defs>
     <path d="M 3.328125 72.90625 
L 13.28125 72.90625 
L 28.609375 11.28125 
L 43.890625 72.90625 
L 54.984375 72.90625 
L 70.3125 11.28125 
L 85.59375 72.90625 
L 95.609375 72.90625 
L 77.296875 0 
L 64.890625 0 
L 49.515625 63.28125 
L 33.984375 0 
L 21.578125 0 
z
" id="BitstreamVeraSans-Roman-57"/>
    </defs>
    <g transform="translate(26.639999999999997 235.97887500000002)scale(0.072 -0.072)">
     <use xlink:href="#BitstreamVeraSans-Roman-6b"/>
     <use x="57.91015625" xlink:href="#BitstreamVeraSans-Roman-5f"/>
     <use x="107.91015625" xlink:href="#BitstreamVeraSans-Roman-5f"/>
     <use x="157.91015625" xlink:href="#BitstreamVeraSans-Roman-42"/>
     <use x="226.513671875" xlink:href="#BitstreamVeraSans-Roman-61"/>
     <use x="287.79296875" xlink:href="#BitstreamVeraSans-Roman-63"/>
     <use x="342.7734375" xlink:href="#BitstreamVeraSans-Roman-74"/>
     <use x="381.982421875" xlink:href="#BitstreamVeraSans-Roman-65"/>
     <use x="443.505859375" xlink:href="#BitstreamVeraSans-Roman-72"/>
     <use x="484.619140625" xlink:href="#BitstreamVeraSans-Roman-69"/>
     <use x="512.40234375" xlink:href="#BitstreamVeraSans-Roman-61"/>
     <use x="573.681640625" xlink:href="#BitstreamVeraSans-Roman-3b"/>
     <use x="607.373046875" xlink:href="#BitstreamVeraSans-Roman-70"/>
     <use x="670.849609375" xlink:href="#BitstreamVeraSans-Roman-5f"/>
     <use x="720.849609375" xlink:href="#BitstreamVeraSans-Roman-5f"/>
     <use x="770.849609375" xlink:href="#BitstreamVeraSans-Roman-57"/>
     <use x="869.7265625" xlink:href="#BitstreamVeraSans-Roman-53"/>
     <use x="933.203125" xlink:href="#BitstreamVeraSans-Roman-33"/>
    </g>
   </g>
  </g>
 </g>
</svg>
