<?xml version="1.0" encoding="UTF-8" standalone="no"?>
<!-- Created with Inkscape (http://www.inkscape.org/) -->

<svg
   xmlns:svg="http://www.w3.org/2000/svg"
   xmlns="http://www.w3.org/2000/svg"
   version="1.1"
   width="391.5"
   height="237.60001"
   id="svg2"
   xml:space="preserve"><defs
     id="defs6" /><g
     transform="matrix(1.25,0,0,-1.25,0,237.6)"
     id="g12"><path
       d="m 0,0 313.2,0 0,190.08 L 0,190.08 0,0 z"
       id="path14"
       style="fill:#ffffff;fill-opacity:1;fill-rule:nonzero;stroke:none" /><path
       d="m 6.48,151.23844 14.4,0 0,5.04 -14.4,0 0,-5.04 z"
       id="path16"
       style="fill:#ff0000;fill-opacity:1;fill-rule:nonzero;stroke:none" /><text
       transform="matrix(1,0,0,-1,26.64,151.23844)"
       id="text18"><tspan
         x="0 5.2704 9.8352003 14.2488 18 21.7512 23.7528 28.3248 32.889599 37.3176 41.889599 44.316002 49.982399 52.804798 57.369598 61.7976"
         y="0"
         id="tspan20"
         style="font-size:7.19999981px;font-variant:normal;font-weight:normal;writing-mode:lr-tb;fill:#000000;fill-opacity:1;fill-rule:nonzero;stroke:none;font-family:Bitstream Charter;-inkscape-font-specification:BitstreamVeraSans-Roman">Unassigned;Other</tspan></text>
<path
       d="m 6.48,140.87281 14.4,0 0,5.04 -14.4,0 0,-5.04 z"
       id="path22"
       style="fill:#0000ff;fill-opacity:1;fill-rule:nonzero;stroke:none" /><text
       transform="matrix(1,0,0,-1,26.64,140.87281)"
       id="text24"><tspan
         x="0 4.1687999 7.7687998 11.3688 16.308001 20.7216 24.681601 27.504 31.931999 34.891201 36.892799 41.3064 43.7328 48.304798 51.9048 55.504799 60.4296 64.389603 66.391197 70.963203 75.369598 79.941597 84.355202 88.315201 91.137604 95.565598 98.524803 100.5264"
         y="0"
         id="tspan26"
         style="font-size:7.19999981px;font-variant:normal;font-weight:normal;writing-mode:lr-tb;fill:#000000;fill-opacity:1;fill-rule:nonzero;stroke:none;font-family:Bitstream Charter;-inkscape-font-specification:BitstreamVeraSans-Roman">k__Bacteria;p__Acidobacteria</tspan></text>
<path
       d="m 6.48,130.30406 14.4,0 0,5.04 -14.4,0 0,-5.04 z"
       id="path28"
       style="fill:#f27304;fill-opacity:1;fill-rule:nonzero;stroke:none" /><text
       transform="matrix(1,0,0,-1,26.64,130.30406)"
       id="text30"><tspan
         x="0 4.1687999 7.7687998 11.3688 16.308001 20.7216 24.681601 27.504 31.931999 34.891201 36.892799 41.3064 43.7328 48.304798 51.9048 55.504799 60.4296 64.389603 67.211998 69.2136 73.778397 78.184799 82.756798 87.170403 91.130402 93.952797 98.380798 101.34 103.3416"
         y="0"
         id="tspan32"
         style="font-size:7.19999981px;font-variant:normal;font-weight:normal;writing-mode:lr-tb;fill:#000000;fill-opacity:1;fill-rule:nonzero;stroke:none;font-family:Bitstream Charter;-inkscape-font-specification:BitstreamVeraSans-Roman">k__Bacteria;p__Actinobacteria</tspan></text>
<path
       d="m 6.48,119.73531 14.4,0 0,5.04 -14.4,0 0,-5.04 z"
       id="path34"
       style="fill:#008000;fill-opacity:1;fill-rule:nonzero;stroke:none" /><text
       transform="matrix(1,0,0,-1,26.64,119.73531)"
       id="text36"><tspan
         x="0 4.1687999 7.7687998 11.3688 16.308001 20.7216 24.681601 27.504 31.931999 34.891201 36.892799 41.3064 43.7328 48.304798 51.9048 55.504799 60.444 64.857597 68.817596 71.639999 76.068001 79.027199 83.433601 85.435204 90.007202 94.435204 97.257599 101.6856"
         y="0"
         id="tspan38"
         style="font-size:7.19999981px;font-variant:normal;font-weight:normal;writing-mode:lr-tb;fill:#000000;fill-opacity:1;fill-rule:nonzero;stroke:none;font-family:Bitstream Charter;-inkscape-font-specification:BitstreamVeraSans-Roman">k__Bacteria;p__Bacteroidetes</tspan></text>
<path
       d="m 6.48,109.16656 14.4,0 0,5.04 -14.4,0 0,-5.04 z"
       id="path40"
       style="fill:#91278d;fill-opacity:1;fill-rule:nonzero;stroke:none" /><text
       transform="matrix(1,0,0,-1,26.64,109.16656)"
       id="text42"><tspan
         x="0 4.1687999 7.7687998 11.3688 16.308001 20.7216 24.681601 27.504 31.931999 34.891201 36.892799 41.3064 43.7328 48.304798 51.9048 55.504799 60.530399 65.0952 67.096802 71.503197 74.462402 78.868797 83.440804"
         y="0"
         id="tspan44"
         style="font-size:7.19999981px;font-variant:normal;font-weight:normal;writing-mode:lr-tb;fill:#000000;fill-opacity:1;fill-rule:nonzero;stroke:none;font-family:Bitstream Charter;-inkscape-font-specification:BitstreamVeraSans-Roman">k__Bacteria;p__Chlorobi</tspan></text>
<path
       d="m 6.48,98.597813 14.4,0 0,5.039997 -14.4,0 0,-5.039997 z"
       id="path46"
       style="fill:#ffff00;fill-opacity:1;fill-rule:nonzero;stroke:none" /><text
       transform="matrix(1,0,0,-1,26.64,98.597813)"
       id="text48"><tspan
         x="0 4.1687999 7.7687998 11.3688 16.308001 20.7216 24.681601 27.504 31.931999 34.891201 36.892799 41.3064 43.7328 48.304798 51.9048 55.504799 60.530399 65.0952 67.096802 71.503197 74.462402 78.868797 81.403198 83.4048 87.832802 92.0952"
         y="0"
         id="tspan50"
         style="font-size:7.19999981px;font-variant:normal;font-weight:normal;writing-mode:lr-tb;fill:#000000;fill-opacity:1;fill-rule:nonzero;stroke:none;font-family:Bitstream Charter;-inkscape-font-specification:BitstreamVeraSans-Roman">k__Bacteria;p__Chloroflexi</tspan></text>
<path
       d="m 6.48,88.029063 14.4,0 0,5.04 -14.4,0 0,-5.04 z"
       id="path52"
       style="fill:#7cecf4;fill-opacity:1;fill-rule:nonzero;stroke:none" /><text
       transform="matrix(1,0,0,-1,26.64,88.029062)"
       id="text54"><tspan
         x="0 4.1687999 7.7687998 11.3688 16.308001 20.7216 24.681601 27.504 31.931999 34.891201 36.892799 41.3064 43.7328 48.304798 51.9048 55.504799 59.644798 61.6464 64.605598 71.618401 73.620003 77.580002 82.144798 84.967201 89.395203"
         y="0"
         id="tspan56"
         style="font-size:7.19999981px;font-variant:normal;font-weight:normal;writing-mode:lr-tb;fill:#000000;fill-opacity:1;fill-rule:nonzero;stroke:none;font-family:Bitstream Charter;-inkscape-font-specification:BitstreamVeraSans-Roman">k__Bacteria;p__Firmicutes</tspan></text>
<path
       d="m 6.48,77.460313 14.4,0 0,5.04 -14.4,0 0,-5.04 z"
       id="path58"
       style="fill:#f49ac2;fill-opacity:1;fill-rule:nonzero;stroke:none" /><text
       transform="matrix(1,0,0,-1,26.64,77.460312)"
       id="text60"><tspan
         x="0 4.1687999 7.7687998 11.3688 16.308001 20.7216 24.681601 27.504 31.931999 34.891201 36.892799 41.3064 43.7328 48.304798 51.9048 55.504799 59.846401 62.805599 67.211998 70.034401 74.462402 78.868797 83.440804 87.854401 91.8144 94.636803 99.064796 102.024 104.0256"
         y="0"
         id="tspan62"
         style="font-size:7.19999981px;font-variant:normal;font-weight:normal;writing-mode:lr-tb;fill:#000000;fill-opacity:1;fill-rule:nonzero;stroke:none;font-family:Bitstream Charter;-inkscape-font-specification:BitstreamVeraSans-Roman">k__Bacteria;p__Proteobacteria</tspan></text>
<path
       d="m 6.48,66.891563 14.4,0 0,5.04 -14.4,0 0,-5.04 z"
       id="path64"
       style="fill:#5da09e;fill-opacity:1;fill-rule:nonzero;stroke:none" /><text
       transform="matrix(1,0,0,-1,26.64,66.891563)"
       id="text66"><tspan
         x="0 4.1687999 7.7687998 11.3688 16.308001 20.7216 24.681601 27.504 31.931999 34.891201 36.892799 41.3064 43.7328 48.304798 51.9048 55.504799 60.076801 65.015999 70.019997 74.599197 79.178398 83.757599"
         y="0"
         id="tspan68"
         style="font-size:7.19999981px;font-variant:normal;font-weight:normal;writing-mode:lr-tb;fill:#000000;fill-opacity:1;fill-rule:nonzero;stroke:none;font-family:Bitstream Charter;-inkscape-font-specification:BitstreamVeraSans-Roman">k__Bacteria;p__SBR1093</tspan></text>
<path
       d="m 6.48,56.322813 14.4,0 0,5.04 -14.4,0 0,-5.04 z"
       id="path70"
       style="fill:#6b440b;fill-opacity:1;fill-rule:nonzero;stroke:none" /><text
       transform="matrix(1,0,0,-1,26.64,56.322813)"
       id="text72"><tspan
         x="0 4.1687999 7.7687998 11.3688 16.308001 20.7216 24.681601 27.504 31.931999 34.891201 36.892799 41.3064 43.7328 48.304798 51.9048 55.504799 59.903999 66.117599"
         y="0"
         id="tspan74"
         style="font-size:7.19999981px;font-variant:normal;font-weight:normal;writing-mode:lr-tb;fill:#000000;fill-opacity:1;fill-rule:nonzero;stroke:none;font-family:Bitstream Charter;-inkscape-font-specification:BitstreamVeraSans-Roman">k__Bacteria;p__TM7</tspan></text>
<path
       d="m 6.48,45.754063 14.4,0 0,5.04 -14.4,0 0,-5.04 z"
       id="path76"
       style="fill:#808080;fill-opacity:1;fill-rule:nonzero;stroke:none" /><text
       transform="matrix(1,0,0,-1,26.64,45.754062)"
       id="text78"><tspan
         x="0 4.1687999 7.7687998 11.3688 16.308001 20.7216 24.681601 27.504 31.931999 34.891201 36.892799 41.3064 43.7328 48.304798 51.9048 55.504799 62.625599 66.967201 71.5392 74.138397"
         y="0"
         id="tspan80"
         style="font-size:7.19999981px;font-variant:normal;font-weight:normal;writing-mode:lr-tb;fill:#000000;fill-opacity:1;fill-rule:nonzero;stroke:none;font-family:Bitstream Charter;-inkscape-font-specification:BitstreamVeraSans-Roman">k__Bacteria;p__WPS-2</tspan></text>
<path
       d="m 6.48,35.185313 14.4,0 0,5.04 -14.4,0 0,-5.04 z"
       id="path82"
       style="fill:#02f40e;fill-opacity:1;fill-rule:nonzero;stroke:none" /><text
       transform="matrix(1,0,0,-1,26.64,35.185313)"
       id="text84"><tspan
         x="0 4.1687999 7.7687998 11.3688 16.308001 20.7216 24.681601 27.504 31.931999 34.891201 36.892799 41.3064 43.7328 48.304798 51.9048 55.504799 58.312801 62.712002 67.276802 71.704803 74.664001 81.676804 83.678398"
         y="0"
         id="tspan86"
         style="font-size:7.19999981px;font-variant:normal;font-weight:normal;writing-mode:lr-tb;fill:#000000;fill-opacity:1;fill-rule:nonzero;stroke:none;font-family:Bitstream Charter;-inkscape-font-specification:BitstreamVeraSans-Roman">k__Bacteria;p__[Thermi]</tspan></text>
</g></svg>