<?xml version="1.0" encoding="UTF-8" standalone="no"?>
<!-- Created with Inkscape (http://www.inkscape.org/) -->

<svg
   xmlns:svg="http://www.w3.org/2000/svg"
   xmlns="http://www.w3.org/2000/svg"
   version="1.1"
   width="720"
   height="540"
   id="svg2"
   xml:space="preserve"><defs
     id="defs6"><clipPath
       id="clipPath22"><path
         d="m 38.2225,73.786563 524.8175,0 0,339.403437 -524.8175,0 0,-339.403437 z"
         id="path24" /></clipPath><clipPath
       id="clipPath32"><path
         d="m 38.2225,73.786563 524.8175,0 0,339.403437 -524.8175,0 0,-339.403437 z"
         id="path34" /></clipPath><clipPath
       id="clipPath42"><path
         d="m 38.2225,73.786563 524.8175,0 0,339.403437 -524.8175,0 0,-339.403437 z"
         id="path44" /></clipPath><clipPath
       id="clipPath52"><path
         d="m 38.2225,73.786563 524.8175,0 0,339.403437 -524.8175,0 0,-339.403437 z"
         id="path54" /></clipPath><clipPath
       id="clipPath62"><path
         d="m 38.2225,73.786563 524.8175,0 0,339.403437 -524.8175,0 0,-339.403437 z"
         id="path64" /></clipPath><clipPath
       id="clipPath72"><path
         d="m 38.2225,73.786563 524.8175,0 0,339.403437 -524.8175,0 0,-339.403437 z"
         id="path74" /></clipPath><clipPath
       id="clipPath82"><path
         d="m 38.2225,73.786563 524.8175,0 0,339.403437 -524.8175,0 0,-339.403437 z"
         id="path84" /></clipPath><clipPath
       id="clipPath92"><path
         d="m 38.2225,73.786563 524.8175,0 0,339.403437 -524.8175,0 0,-339.403437 z"
         id="path94" /></clipPath><clipPath
       id="clipPath102"><path
         d="m 38.2225,73.786563 524.8175,0 0,339.403437 -524.8175,0 0,-339.403437 z"
         id="path104" /></clipPath><clipPath
       id="clipPath112"><path
         d="m 38.2225,73.786563 524.8175,0 0,339.403437 -524.8175,0 0,-339.403437 z"
         id="path114" /></clipPath><clipPath
       id="clipPath122"><path
         d="m 38.2225,73.786563 524.8175,0 0,339.403437 -524.8175,0 0,-339.403437 z"
         id="path124" /></clipPath><clipPath
       id="clipPath132"><path
         d="m 38.2225,73.786563 524.8175,0 0,339.403437 -524.8175,0 0,-339.403437 z"
         id="path134" /></clipPath><clipPath
       id="clipPath142"><path
         d="m 38.2225,73.786563 524.8175,0 0,339.403437 -524.8175,0 0,-339.403437 z"
         id="path144" /></clipPath><clipPath
       id="clipPath152"><path
         d="m 38.2225,73.786563 524.8175,0 0,339.403437 -524.8175,0 0,-339.403437 z"
         id="path154" /></clipPath><clipPath
       id="clipPath162"><path
         d="m 38.2225,73.786563 524.8175,0 0,339.403437 -524.8175,0 0,-339.403437 z"
         id="path164" /></clipPath><clipPath
       id="clipPath172"><path
         d="m 38.2225,73.786563 524.8175,0 0,339.403437 -524.8175,0 0,-339.403437 z"
         id="path174" /></clipPath><clipPath
       id="clipPath182"><path
         d="m 38.2225,73.786563 524.8175,0 0,339.403437 -524.8175,0 0,-339.403437 z"
         id="path184" /></clipPath><clipPath
       id="clipPath192"><path
         d="m 38.2225,73.786563 524.8175,0 0,339.403437 -524.8175,0 0,-339.403437 z"
         id="path194" /></clipPath><clipPath
       id="clipPath202"><path
         d="m 38.2225,73.786563 524.8175,0 0,339.403437 -524.8175,0 0,-339.403437 z"
         id="path204" /></clipPath><clipPath
       id="clipPath212"><path
         d="m 38.2225,73.786563 524.8175,0 0,339.403437 -524.8175,0 0,-339.403437 z"
         id="path214" /></clipPath><clipPath
       id="clipPath222"><path
         d="m 38.2225,73.786563 524.8175,0 0,339.403437 -524.8175,0 0,-339.403437 z"
         id="path224" /></clipPath><clipPath
       id="clipPath232"><path
         d="m 38.2225,73.786563 524.8175,0 0,339.403437 -524.8175,0 0,-339.403437 z"
         id="path234" /></clipPath><clipPath
       id="clipPath242"><path
         d="m 38.2225,73.786563 524.8175,0 0,339.403437 -524.8175,0 0,-339.403437 z"
         id="path244" /></clipPath><clipPath
       id="clipPath252"><path
         d="m 38.2225,73.786563 524.8175,0 0,339.403437 -524.8175,0 0,-339.403437 z"
         id="path254" /></clipPath><clipPath
       id="clipPath262"><path
         d="m 38.2225,73.786563 524.8175,0 0,339.403437 -524.8175,0 0,-339.403437 z"
         id="path264" /></clipPath><clipPath
       id="clipPath272"><path
         d="m 38.2225,73.786563 524.8175,0 0,339.403437 -524.8175,0 0,-339.403437 z"
         id="path274" /></clipPath><clipPath
       id="clipPath282"><path
         d="m 38.2225,73.786563 524.8175,0 0,339.403437 -524.8175,0 0,-339.403437 z"
         id="path284" /></clipPath><clipPath
       id="clipPath292"><path
         d="m 38.2225,73.786563 524.8175,0 0,339.403437 -524.8175,0 0,-339.403437 z"
         id="path294" /></clipPath><clipPath
       id="clipPath302"><path
         d="m 38.2225,73.786563 524.8175,0 0,339.403437 -524.8175,0 0,-339.403437 z"
         id="path304" /></clipPath><clipPath
       id="clipPath312"><path
         d="m 38.2225,73.786563 524.8175,0 0,339.403437 -524.8175,0 0,-339.403437 z"
         id="path314" /></clipPath><clipPath
       id="clipPath322"><path
         d="m 38.2225,73.786563 524.8175,0 0,339.403437 -524.8175,0 0,-339.403437 z"
         id="path324" /></clipPath><clipPath
       id="clipPath332"><path
         d="m 38.2225,73.786563 524.8175,0 0,339.403437 -524.8175,0 0,-339.403437 z"
         id="path334" /></clipPath><clipPath
       id="clipPath342"><path
         d="m 38.2225,73.786563 524.8175,0 0,339.403437 -524.8175,0 0,-339.403437 z"
         id="path344" /></clipPath><clipPath
       id="clipPath352"><path
         d="m 38.2225,73.786563 524.8175,0 0,339.403437 -524.8175,0 0,-339.403437 z"
         id="path354" /></clipPath><clipPath
       id="clipPath362"><path
         d="m 38.2225,73.786563 524.8175,0 0,339.403437 -524.8175,0 0,-339.403437 z"
         id="path364" /></clipPath><clipPath
       id="clipPath372"><path
         d="m 38.2225,73.786563 524.8175,0 0,339.403437 -524.8175,0 0,-339.403437 z"
         id="path374" /></clipPath></defs><g
     transform="matrix(1.25,0,0,-1.25,0,540)"
     id="g12"><path
       d="M 0,0 576,0 576,432 0,432 0,0 z"
       id="path14"
       style="fill:#ffffff;fill-opacity:1;fill-rule:nonzero;stroke:none" /><path
       d="m 38.2225,73.786563 524.8175,0 0,339.403437 -524.8175,0 0,-339.403437 z"
       id="path16"
       style="fill:#ffffff;fill-opacity:1;fill-rule:nonzero;stroke:none" /><g
       id="g18"><g
         clip-path="url(#clipPath22)"
         id="g20"><path
           d="m 60.089896,337.16141 43.734794,0 0,47.86554 -43.734794,0 0,-47.86554"
           id="path26"
           style="fill:none;stroke:#0000ff;stroke-width:1;stroke-linecap:square;stroke-linejoin:round;stroke-miterlimit:10;stroke-opacity:1;stroke-dasharray:none" /></g></g><g
       id="g28"><g
         clip-path="url(#clipPath32)"
         id="g30"><path
           d="m 81.957292,337.16141 0,-24.14643"
           id="path36"
           style="fill:none;stroke:#0000ff;stroke-width:1;stroke-linecap:butt;stroke-linejoin:round;stroke-miterlimit:10;stroke-opacity:1;stroke-dasharray:6, 6;stroke-dashoffset:0" /></g></g><g
       id="g38"><g
         clip-path="url(#clipPath42)"
         id="g40"><path
           d="m 81.957292,385.02695 0,23.71912"
           id="path46"
           style="fill:none;stroke:#0000ff;stroke-width:1;stroke-linecap:butt;stroke-linejoin:round;stroke-miterlimit:10;stroke-opacity:1;stroke-dasharray:6, 6;stroke-dashoffset:0" /></g></g><g
       id="g48"><g
         clip-path="url(#clipPath52)"
         id="g50"><path
           d="m 71.023594,313.01498 21.867396,0"
           id="path56"
           style="fill:none;stroke:#000000;stroke-width:1;stroke-linecap:square;stroke-linejoin:round;stroke-miterlimit:10;stroke-opacity:1;stroke-dasharray:none" /></g></g><g
       id="g58"><g
         clip-path="url(#clipPath62)"
         id="g60"><path
           d="m 71.023594,408.74607 21.867396,0"
           id="path66"
           style="fill:none;stroke:#000000;stroke-width:1;stroke-linecap:square;stroke-linejoin:round;stroke-miterlimit:10;stroke-opacity:1;stroke-dasharray:none" /></g></g><g
       id="g68"><g
         clip-path="url(#clipPath72)"
         id="g70"><path
           d="m 60.089896,361.30783 43.734794,0"
           id="path76"
           style="fill:none;stroke:#ff0000;stroke-width:1;stroke-linecap:square;stroke-linejoin:round;stroke-miterlimit:10;stroke-opacity:1;stroke-dasharray:none" /></g></g><g
       id="g78"><g
         clip-path="url(#clipPath82)"
         id="g80"><path
           d="m 147.55948,151.4393 43.73479,0 0,25.9445 -43.73479,0 0,-25.9445"
           id="path86"
           style="fill:none;stroke:#0000ff;stroke-width:1;stroke-linecap:square;stroke-linejoin:round;stroke-miterlimit:10;stroke-opacity:1;stroke-dasharray:none" /></g></g><g
       id="g88"><g
         clip-path="url(#clipPath92)"
         id="g90"><path
           d="m 169.42687,151.4393 0,-17.607"
           id="path96"
           style="fill:none;stroke:#0000ff;stroke-width:1;stroke-linecap:butt;stroke-linejoin:round;stroke-miterlimit:10;stroke-opacity:1;stroke-dasharray:6, 6;stroke-dashoffset:0" /></g></g><g
       id="g98"><g
         clip-path="url(#clipPath102)"
         id="g100"><path
           d="m 169.42687,177.3838 0,8.33748"
           id="path106"
           style="fill:none;stroke:#0000ff;stroke-width:1;stroke-linecap:butt;stroke-linejoin:round;stroke-miterlimit:10;stroke-opacity:1;stroke-dasharray:6, 6;stroke-dashoffset:0" /></g></g><g
       id="g108"><g
         clip-path="url(#clipPath112)"
         id="g110"><path
           d="m 158.49318,133.8323 21.86739,0"
           id="path116"
           style="fill:none;stroke:#000000;stroke-width:1;stroke-linecap:square;stroke-linejoin:round;stroke-miterlimit:10;stroke-opacity:1;stroke-dasharray:none" /></g></g><g
       id="g118"><g
         clip-path="url(#clipPath122)"
         id="g120"><path
           d="m 158.49318,185.72128 21.86739,0"
           id="path126"
           style="fill:none;stroke:#000000;stroke-width:1;stroke-linecap:square;stroke-linejoin:round;stroke-miterlimit:10;stroke-opacity:1;stroke-dasharray:none" /></g></g><g
       id="g128"><g
         clip-path="url(#clipPath132)"
         id="g130"><path
           d="m 147.55948,169.04631 43.73479,0"
           id="path136"
           style="fill:none;stroke:#ff0000;stroke-width:1;stroke-linecap:square;stroke-linejoin:round;stroke-miterlimit:10;stroke-opacity:1;stroke-dasharray:none" /></g></g><g
       id="g138"><g
         clip-path="url(#clipPath142)"
         id="g140"><path
           d="m 235.02906,137.63558 43.73479,0 0,96.23815 -43.73479,0 0,-96.23815"
           id="path146"
           style="fill:none;stroke:#0000ff;stroke-width:1;stroke-linecap:square;stroke-linejoin:round;stroke-miterlimit:10;stroke-opacity:1;stroke-dasharray:none" /></g></g><g
       id="g148"><g
         clip-path="url(#clipPath152)"
         id="g150"><path
           d="m 256.89646,137.63558 0,-41.218081"
           id="path156"
           style="fill:none;stroke:#0000ff;stroke-width:1;stroke-linecap:butt;stroke-linejoin:round;stroke-miterlimit:10;stroke-opacity:1;stroke-dasharray:6, 6;stroke-dashoffset:0" /></g></g><g
       id="g158"><g
         clip-path="url(#clipPath162)"
         id="g160"><path
           d="m 256.89646,233.87373 0,55.02009"
           id="path166"
           style="fill:none;stroke:#0000ff;stroke-width:1;stroke-linecap:butt;stroke-linejoin:round;stroke-miterlimit:10;stroke-opacity:1;stroke-dasharray:6, 6;stroke-dashoffset:0" /></g></g><g
       id="g168"><g
         clip-path="url(#clipPath172)"
         id="g170"><path
           d="m 245.96276,96.417499 21.8674,0"
           id="path176"
           style="fill:none;stroke:#000000;stroke-width:1;stroke-linecap:square;stroke-linejoin:round;stroke-miterlimit:10;stroke-opacity:1;stroke-dasharray:none" /></g></g><g
       id="g178"><g
         clip-path="url(#clipPath182)"
         id="g180"><path
           d="m 245.96276,288.89382 21.8674,0"
           id="path186"
           style="fill:none;stroke:#000000;stroke-width:1;stroke-linecap:square;stroke-linejoin:round;stroke-miterlimit:10;stroke-opacity:1;stroke-dasharray:none" /></g></g><g
       id="g188"><g
         clip-path="url(#clipPath192)"
         id="g190"><path
           d="m 235.02906,178.85365 43.73479,0"
           id="path196"
           style="fill:none;stroke:#ff0000;stroke-width:1;stroke-linecap:square;stroke-linejoin:round;stroke-miterlimit:10;stroke-opacity:1;stroke-dasharray:none" /></g></g><g
       id="g198"><g
         clip-path="url(#clipPath202)"
         id="g200"><path
           d="m 322.49865,357.4816 43.73479,0 0,13.41222 -43.73479,0 0,-13.41222"
           id="path206"
           style="fill:none;stroke:#0000ff;stroke-width:1;stroke-linecap:square;stroke-linejoin:round;stroke-miterlimit:10;stroke-opacity:1;stroke-dasharray:none" /></g></g><g
       id="g208"><g
         clip-path="url(#clipPath212)"
         id="g210"><path
           d="m 344.36604,357.4816 0,-10.42399"
           id="path216"
           style="fill:none;stroke:#0000ff;stroke-width:1;stroke-linecap:butt;stroke-linejoin:round;stroke-miterlimit:10;stroke-opacity:1;stroke-dasharray:6, 6;stroke-dashoffset:0" /></g></g><g
       id="g218"><g
         clip-path="url(#clipPath222)"
         id="g220"><path
           d="m 344.36604,370.89382 0,2.98824"
           id="path226"
           style="fill:none;stroke:#0000ff;stroke-width:1;stroke-linecap:butt;stroke-linejoin:round;stroke-miterlimit:10;stroke-opacity:1;stroke-dasharray:6, 6;stroke-dashoffset:0" /></g></g><g
       id="g228"><g
         clip-path="url(#clipPath232)"
         id="g230"><path
           d="m 333.43234,347.05761 21.8674,0"
           id="path236"
           style="fill:none;stroke:#000000;stroke-width:1;stroke-linecap:square;stroke-linejoin:round;stroke-miterlimit:10;stroke-opacity:1;stroke-dasharray:none" /></g></g><g
       id="g238"><g
         clip-path="url(#clipPath242)"
         id="g240"><path
           d="m 333.43234,373.88206 21.8674,0"
           id="path246"
           style="fill:none;stroke:#000000;stroke-width:1;stroke-linecap:square;stroke-linejoin:round;stroke-miterlimit:10;stroke-opacity:1;stroke-dasharray:none" /></g></g><g
       id="g248"><g
         clip-path="url(#clipPath252)"
         id="g250"><path
           d="m 322.49865,367.90559 43.73479,0"
           id="path256"
           style="fill:none;stroke:#ff0000;stroke-width:1;stroke-linecap:square;stroke-linejoin:round;stroke-miterlimit:10;stroke-opacity:1;stroke-dasharray:none" /></g></g><g
       id="g258"><g
         clip-path="url(#clipPath262)"
         id="g260"><path
           d="m 409.96823,280.75441 43.73479,0 0,32.49288 -43.73479,0 0,-32.49288"
           id="path266"
           style="fill:none;stroke:#0000ff;stroke-width:1;stroke-linecap:square;stroke-linejoin:round;stroke-miterlimit:10;stroke-opacity:1;stroke-dasharray:none" /></g></g><g
       id="g268"><g
         clip-path="url(#clipPath272)"
         id="g270"><path
           d="m 431.83562,280.75441 0,-28.33202"
           id="path276"
           style="fill:none;stroke:#0000ff;stroke-width:1;stroke-linecap:butt;stroke-linejoin:round;stroke-miterlimit:10;stroke-opacity:1;stroke-dasharray:6, 6;stroke-dashoffset:0" /></g></g><g
       id="g278"><g
         clip-path="url(#clipPath282)"
         id="g280"><path
           d="m 431.83562,313.24729 0,4.16086"
           id="path286"
           style="fill:none;stroke:#0000ff;stroke-width:1;stroke-linecap:butt;stroke-linejoin:round;stroke-miterlimit:10;stroke-opacity:1;stroke-dasharray:6, 6;stroke-dashoffset:0" /></g></g><g
       id="g288"><g
         clip-path="url(#clipPath292)"
         id="g290"><path
           d="m 420.90193,252.42239 21.86739,0"
           id="path296"
           style="fill:none;stroke:#000000;stroke-width:1;stroke-linecap:square;stroke-linejoin:round;stroke-miterlimit:10;stroke-opacity:1;stroke-dasharray:none" /></g></g><g
       id="g298"><g
         clip-path="url(#clipPath302)"
         id="g300"><path
           d="m 420.90193,317.40815 21.86739,0"
           id="path306"
           style="fill:none;stroke:#000000;stroke-width:1;stroke-linecap:square;stroke-linejoin:round;stroke-miterlimit:10;stroke-opacity:1;stroke-dasharray:none" /></g></g><g
       id="g308"><g
         clip-path="url(#clipPath312)"
         id="g310"><path
           d="m 409.96823,309.08643 43.73479,0"
           id="path316"
           style="fill:none;stroke:#ff0000;stroke-width:1;stroke-linecap:square;stroke-linejoin:round;stroke-miterlimit:10;stroke-opacity:1;stroke-dasharray:none" /></g></g><g
       id="g318"><g
         clip-path="url(#clipPath322)"
         id="g320"><path
           d="m 497.43781,246.72273 43.73479,0 0,44.97092 -43.73479,0 0,-44.97092"
           id="path326"
           style="fill:none;stroke:#0000ff;stroke-width:1;stroke-linecap:square;stroke-linejoin:round;stroke-miterlimit:10;stroke-opacity:1;stroke-dasharray:none" /></g></g><g
       id="g328"><g
         clip-path="url(#clipPath332)"
         id="g330"><path
           d="m 519.30521,246.72273 0,-24.09466"
           id="path336"
           style="fill:none;stroke:#0000ff;stroke-width:1;stroke-linecap:butt;stroke-linejoin:round;stroke-miterlimit:10;stroke-opacity:1;stroke-dasharray:6, 6;stroke-dashoffset:0" /></g></g><g
       id="g338"><g
         clip-path="url(#clipPath342)"
         id="g340"><path
           d="m 519.30521,291.69365 0,20.87627"
           id="path346"
           style="fill:none;stroke:#0000ff;stroke-width:1;stroke-linecap:butt;stroke-linejoin:round;stroke-miterlimit:10;stroke-opacity:1;stroke-dasharray:6, 6;stroke-dashoffset:0" /></g></g><g
       id="g348"><g
         clip-path="url(#clipPath352)"
         id="g350"><path
           d="m 508.37151,222.62807 21.8674,0"
           id="path356"
           style="fill:none;stroke:#000000;stroke-width:1;stroke-linecap:square;stroke-linejoin:round;stroke-miterlimit:10;stroke-opacity:1;stroke-dasharray:none" /></g></g><g
       id="g358"><g
         clip-path="url(#clipPath362)"
         id="g360"><path
           d="m 508.37151,312.56992 21.8674,0"
           id="path366"
           style="fill:none;stroke:#000000;stroke-width:1;stroke-linecap:square;stroke-linejoin:round;stroke-miterlimit:10;stroke-opacity:1;stroke-dasharray:none" /></g></g><g
       id="g368"><g
         clip-path="url(#clipPath372)"
         id="g370"><path
           d="m 497.43781,270.81738 43.73479,0"
           id="path376"
           style="fill:none;stroke:#ff0000;stroke-width:1;stroke-linecap:square;stroke-linejoin:round;stroke-miterlimit:10;stroke-opacity:1;stroke-dasharray:none" /></g></g><g
       id="g378"><path
         d="m 38.2225,413.19 524.8175,0"
         id="path380"
         style="fill:none;stroke:#000000;stroke-width:1;stroke-linecap:square;stroke-linejoin:miter;stroke-miterlimit:10;stroke-opacity:1;stroke-dasharray:none" /><path
         d="m 563.04,73.786563 0,339.403437"
         id="path382"
         style="fill:none;stroke:#000000;stroke-width:1;stroke-linecap:square;stroke-linejoin:miter;stroke-miterlimit:10;stroke-opacity:1;stroke-dasharray:none" /><path
         d="m 38.2225,73.786563 524.8175,0"
         id="path384"
         style="fill:none;stroke:#000000;stroke-width:1;stroke-linecap:square;stroke-linejoin:miter;stroke-miterlimit:10;stroke-opacity:1;stroke-dasharray:none" /><path
         d="m 38.2225,73.786563 0,339.403437"
         id="path386"
         style="fill:none;stroke:#000000;stroke-width:1;stroke-linecap:square;stroke-linejoin:miter;stroke-miterlimit:10;stroke-opacity:1;stroke-dasharray:none" /><path
         d="m 81.957292,73.786563 0,4"
         id="path388"
         style="fill:#000000;fill-opacity:1;fill-rule:nonzero;stroke:#000000;stroke-width:0.5;stroke-linecap:butt;stroke-linejoin:round;stroke-miterlimit:10;stroke-opacity:1;stroke-dasharray:none" /><path
         d="m 81.957292,413.19 0,-4"
         id="path390"
         style="fill:#000000;fill-opacity:1;fill-rule:nonzero;stroke:#000000;stroke-width:0.5;stroke-linecap:butt;stroke-linejoin:round;stroke-miterlimit:10;stroke-opacity:1;stroke-dasharray:none" /><text
         transform="matrix(0,1,1,0,85.269792,12.974063)"
         id="text392"><tspan
           x="0 10.356 19.332001 23.148001 27.827999 35.436001 45.492001 53.124001"
           y="0"
           id="tspan394"
           style="font-size:12px;font-variant:normal;font-weight:normal;writing-mode:lr-tb;fill:#000000;fill-opacity:1;fill-rule:nonzero;stroke:none;font-family:Bitstream Charter;-inkscape-font-specification:BitstreamVeraSans-Roman">MN (n=3)</tspan></text>
<path
         d="m 169.42687,73.786563 0,4"
         id="path396"
         style="fill:#000000;fill-opacity:1;fill-rule:nonzero;stroke:#000000;stroke-width:0.5;stroke-linecap:butt;stroke-linejoin:round;stroke-miterlimit:10;stroke-opacity:1;stroke-dasharray:none" /><path
         d="m 169.42687,413.19 0,-4"
         id="path398"
         style="fill:#000000;fill-opacity:1;fill-rule:nonzero;stroke:#000000;stroke-width:0.5;stroke-linecap:butt;stroke-linejoin:round;stroke-miterlimit:10;stroke-opacity:1;stroke-dasharray:none" /><text
         transform="matrix(0,1,1,0,172.73937,14.630312)"
         id="text400"><tspan
           x="0 10.356 17.688 21.504 26.184 33.792 43.848 51.48"
           y="0"
           id="tspan402"
           style="font-size:12px;font-variant:normal;font-weight:normal;writing-mode:lr-tb;fill:#000000;fill-opacity:1;fill-rule:nonzero;stroke:none;font-family:Bitstream Charter;-inkscape-font-specification:BitstreamVeraSans-Roman">MT (n=3)</tspan></text>
<path
         d="m 256.89646,73.786563 0,4"
         id="path404"
         style="fill:#000000;fill-opacity:1;fill-rule:nonzero;stroke:#000000;stroke-width:0.5;stroke-linecap:butt;stroke-linejoin:round;stroke-miterlimit:10;stroke-opacity:1;stroke-dasharray:none" /><path
         d="m 256.89646,413.19 0,-4"
         id="path406"
         style="fill:#000000;fill-opacity:1;fill-rule:nonzero;stroke:#000000;stroke-width:0.5;stroke-linecap:butt;stroke-linejoin:round;stroke-miterlimit:10;stroke-opacity:1;stroke-dasharray:none" /><text
         transform="matrix(0,1,1,0,260.20896,14.333438)"
         id="text408"><tspan
           x="0 7.6199999 17.976 21.792 26.472 34.080002 44.136002 51.768002"
           y="0"
           id="tspan410"
           style="font-size:12px;font-variant:normal;font-weight:normal;writing-mode:lr-tb;fill:#000000;fill-opacity:1;fill-rule:nonzero;stroke:none;font-family:Bitstream Charter;-inkscape-font-specification:BitstreamVeraSans-Roman">SM (n=3)</tspan></text>
<path
         d="m 344.36604,73.786563 0,4"
         id="path412"
         style="fill:#000000;fill-opacity:1;fill-rule:nonzero;stroke:#000000;stroke-width:0.5;stroke-linecap:butt;stroke-linejoin:round;stroke-miterlimit:10;stroke-opacity:1;stroke-dasharray:none" /><path
         d="m 344.36604,413.19 0,-4"
         id="path414"
         style="fill:#000000;fill-opacity:1;fill-rule:nonzero;stroke:#000000;stroke-width:0.5;stroke-linecap:butt;stroke-linejoin:round;stroke-miterlimit:10;stroke-opacity:1;stroke-dasharray:none" /><text
         transform="matrix(0,1,1,0,347.67854,17.630312)"
         id="text416"><tspan
           x="0 7.3319998 15.54 19.356001 24.035999 31.643999 41.700001 49.332001"
           y="0"
           id="tspan418"
           style="font-size:12px;font-variant:normal;font-weight:normal;writing-mode:lr-tb;fill:#000000;fill-opacity:1;fill-rule:nonzero;stroke:none;font-family:Bitstream Charter;-inkscape-font-specification:BitstreamVeraSans-Roman">TA (n=3)</tspan></text>
<path
         d="m 431.83562,73.786563 0,4"
         id="path420"
         style="fill:#000000;fill-opacity:1;fill-rule:nonzero;stroke:#000000;stroke-width:0.5;stroke-linecap:butt;stroke-linejoin:round;stroke-miterlimit:10;stroke-opacity:1;stroke-dasharray:none" /><path
         d="m 431.83562,413.19 0,-4"
         id="path422"
         style="fill:#000000;fill-opacity:1;fill-rule:nonzero;stroke:#000000;stroke-width:0.5;stroke-linecap:butt;stroke-linejoin:round;stroke-miterlimit:10;stroke-opacity:1;stroke-dasharray:none" /><text
         transform="matrix(0,1,1,0,435.14812,17.333437)"
         id="text424"><tspan
           x="0 7.3319998 15.708 19.524 24.204 31.812 41.868 49.5"
           y="0"
           id="tspan426"
           style="font-size:12px;font-variant:normal;font-weight:normal;writing-mode:lr-tb;fill:#000000;fill-opacity:1;fill-rule:nonzero;stroke:none;font-family:Bitstream Charter;-inkscape-font-specification:BitstreamVeraSans-Roman">TC (n=3)</tspan></text>
<path
         d="m 519.30521,73.786563 0,4"
         id="path428"
         style="fill:#000000;fill-opacity:1;fill-rule:nonzero;stroke:#000000;stroke-width:0.5;stroke-linecap:butt;stroke-linejoin:round;stroke-miterlimit:10;stroke-opacity:1;stroke-dasharray:none" /><path
         d="m 519.30521,413.19 0,-4"
         id="path430"
         style="fill:#000000;fill-opacity:1;fill-rule:nonzero;stroke:#000000;stroke-width:0.5;stroke-linecap:butt;stroke-linejoin:round;stroke-miterlimit:10;stroke-opacity:1;stroke-dasharray:none" /><text
         transform="matrix(0,1,1,0,522.61771,18.270937)"
         id="text432"><tspan
           x="0 7.3319998 14.016 17.832001 22.511999 30.120001 40.175999 47.807999"
           y="0"
           id="tspan434"
           style="font-size:12px;font-variant:normal;font-weight:normal;writing-mode:lr-tb;fill:#000000;fill-opacity:1;fill-rule:nonzero;stroke:none;font-family:Bitstream Charter;-inkscape-font-specification:BitstreamVeraSans-Roman">TL (n=3)</tspan></text>
<path
         d="m 38.2225,73.786563 4,0"
         id="path436"
         style="fill:#000000;fill-opacity:1;fill-rule:nonzero;stroke:#000000;stroke-width:0.5;stroke-linecap:butt;stroke-linejoin:round;stroke-miterlimit:10;stroke-opacity:1;stroke-dasharray:none" /><path
         d="m 563.04,73.786563 -4,0"
         id="path438"
         style="fill:#000000;fill-opacity:1;fill-rule:nonzero;stroke:#000000;stroke-width:0.5;stroke-linecap:butt;stroke-linejoin:round;stroke-miterlimit:10;stroke-opacity:1;stroke-dasharray:none" /><text
         transform="matrix(1,0,0,-1,20.331875,70.474063)"
         id="text440"><tspan
           x="0 7.632"
           y="0"
           id="tspan442"
           style="font-size:12px;font-variant:normal;font-weight:normal;writing-mode:lr-tb;fill:#000000;fill-opacity:1;fill-rule:nonzero;stroke:none;font-family:Bitstream Charter;-inkscape-font-specification:BitstreamVeraSans-Roman">40</tspan></text>
<path
         d="m 38.2225,111.49806 4,0"
         id="path444"
         style="fill:#000000;fill-opacity:1;fill-rule:nonzero;stroke:#000000;stroke-width:0.5;stroke-linecap:butt;stroke-linejoin:round;stroke-miterlimit:10;stroke-opacity:1;stroke-dasharray:none" /><path
         d="m 563.04,111.49806 -4,0"
         id="path446"
         style="fill:#000000;fill-opacity:1;fill-rule:nonzero;stroke:#000000;stroke-width:0.5;stroke-linecap:butt;stroke-linejoin:round;stroke-miterlimit:10;stroke-opacity:1;stroke-dasharray:none" /><text
         transform="matrix(1,0,0,-1,20.581875,108.18556)"
         id="text448"><tspan
           x="0 7.632"
           y="0"
           id="tspan450"
           style="font-size:12px;font-variant:normal;font-weight:normal;writing-mode:lr-tb;fill:#000000;fill-opacity:1;fill-rule:nonzero;stroke:none;font-family:Bitstream Charter;-inkscape-font-specification:BitstreamVeraSans-Roman">60</tspan></text>
<path
         d="m 38.2225,149.20955 4,0"
         id="path452"
         style="fill:#000000;fill-opacity:1;fill-rule:nonzero;stroke:#000000;stroke-width:0.5;stroke-linecap:butt;stroke-linejoin:round;stroke-miterlimit:10;stroke-opacity:1;stroke-dasharray:none" /><path
         d="m 563.04,149.20955 -4,0"
         id="path454"
         style="fill:#000000;fill-opacity:1;fill-rule:nonzero;stroke:#000000;stroke-width:0.5;stroke-linecap:butt;stroke-linejoin:round;stroke-miterlimit:10;stroke-opacity:1;stroke-dasharray:none" /><text
         transform="matrix(1,0,0,-1,20.550625,145.89705)"
         id="text456"><tspan
           x="0 7.632"
           y="0"
           id="tspan458"
           style="font-size:12px;font-variant:normal;font-weight:normal;writing-mode:lr-tb;fill:#000000;fill-opacity:1;fill-rule:nonzero;stroke:none;font-family:Bitstream Charter;-inkscape-font-specification:BitstreamVeraSans-Roman">80</tspan></text>
<path
         d="m 38.2225,186.92104 4,0"
         id="path460"
         style="fill:#000000;fill-opacity:1;fill-rule:nonzero;stroke:#000000;stroke-width:0.5;stroke-linecap:butt;stroke-linejoin:round;stroke-miterlimit:10;stroke-opacity:1;stroke-dasharray:none" /><path
         d="m 563.04,186.92104 -4,0"
         id="path462"
         style="fill:#000000;fill-opacity:1;fill-rule:nonzero;stroke:#000000;stroke-width:0.5;stroke-linecap:butt;stroke-linejoin:round;stroke-miterlimit:10;stroke-opacity:1;stroke-dasharray:none" /><text
         transform="matrix(1,0,0,-1,13.41,183.60854)"
         id="text464"><tspan
           x="0 7.632 15.264"
           y="0"
           id="tspan466"
           style="font-size:12px;font-variant:normal;font-weight:normal;writing-mode:lr-tb;fill:#000000;fill-opacity:1;fill-rule:nonzero;stroke:none;font-family:Bitstream Charter;-inkscape-font-specification:BitstreamVeraSans-Roman">100</tspan></text>
<path
         d="m 38.2225,224.63253 4,0"
         id="path468"
         style="fill:#000000;fill-opacity:1;fill-rule:nonzero;stroke:#000000;stroke-width:0.5;stroke-linecap:butt;stroke-linejoin:round;stroke-miterlimit:10;stroke-opacity:1;stroke-dasharray:none" /><path
         d="m 563.04,224.63253 -4,0"
         id="path470"
         style="fill:#000000;fill-opacity:1;fill-rule:nonzero;stroke:#000000;stroke-width:0.5;stroke-linecap:butt;stroke-linejoin:round;stroke-miterlimit:10;stroke-opacity:1;stroke-dasharray:none" /><text
         transform="matrix(1,0,0,-1,13.41,221.32003)"
         id="text472"><tspan
           x="0 7.632 15.264"
           y="0"
           id="tspan474"
           style="font-size:12px;font-variant:normal;font-weight:normal;writing-mode:lr-tb;fill:#000000;fill-opacity:1;fill-rule:nonzero;stroke:none;font-family:Bitstream Charter;-inkscape-font-specification:BitstreamVeraSans-Roman">120</tspan></text>
<path
         d="m 38.2225,262.34403 4,0"
         id="path476"
         style="fill:#000000;fill-opacity:1;fill-rule:nonzero;stroke:#000000;stroke-width:0.5;stroke-linecap:butt;stroke-linejoin:round;stroke-miterlimit:10;stroke-opacity:1;stroke-dasharray:none" /><path
         d="m 563.04,262.34403 -4,0"
         id="path478"
         style="fill:#000000;fill-opacity:1;fill-rule:nonzero;stroke:#000000;stroke-width:0.5;stroke-linecap:butt;stroke-linejoin:round;stroke-miterlimit:10;stroke-opacity:1;stroke-dasharray:none" /><text
         transform="matrix(1,0,0,-1,13.41,259.03153)"
         id="text480"><tspan
           x="0 7.632 15.264"
           y="0"
           id="tspan482"
           style="font-size:12px;font-variant:normal;font-weight:normal;writing-mode:lr-tb;fill:#000000;fill-opacity:1;fill-rule:nonzero;stroke:none;font-family:Bitstream Charter;-inkscape-font-specification:BitstreamVeraSans-Roman">140</tspan></text>
<path
         d="m 38.2225,300.05552 4,0"
         id="path484"
         style="fill:#000000;fill-opacity:1;fill-rule:nonzero;stroke:#000000;stroke-width:0.5;stroke-linecap:butt;stroke-linejoin:round;stroke-miterlimit:10;stroke-opacity:1;stroke-dasharray:none" /><path
         d="m 563.04,300.05552 -4,0"
         id="path486"
         style="fill:#000000;fill-opacity:1;fill-rule:nonzero;stroke:#000000;stroke-width:0.5;stroke-linecap:butt;stroke-linejoin:round;stroke-miterlimit:10;stroke-opacity:1;stroke-dasharray:none" /><text
         transform="matrix(1,0,0,-1,13.41,296.74302)"
         id="text488"><tspan
           x="0 7.632 15.264"
           y="0"
           id="tspan490"
           style="font-size:12px;font-variant:normal;font-weight:normal;writing-mode:lr-tb;fill:#000000;fill-opacity:1;fill-rule:nonzero;stroke:none;font-family:Bitstream Charter;-inkscape-font-specification:BitstreamVeraSans-Roman">160</tspan></text>
<path
         d="m 38.2225,337.76701 4,0"
         id="path492"
         style="fill:#000000;fill-opacity:1;fill-rule:nonzero;stroke:#000000;stroke-width:0.5;stroke-linecap:butt;stroke-linejoin:round;stroke-miterlimit:10;stroke-opacity:1;stroke-dasharray:none" /><path
         d="m 563.04,337.76701 -4,0"
         id="path494"
         style="fill:#000000;fill-opacity:1;fill-rule:nonzero;stroke:#000000;stroke-width:0.5;stroke-linecap:butt;stroke-linejoin:round;stroke-miterlimit:10;stroke-opacity:1;stroke-dasharray:none" /><text
         transform="matrix(1,0,0,-1,13.41,334.45451)"
         id="text496"><tspan
           x="0 7.632 15.264"
           y="0"
           id="tspan498"
           style="font-size:12px;font-variant:normal;font-weight:normal;writing-mode:lr-tb;fill:#000000;fill-opacity:1;fill-rule:nonzero;stroke:none;font-family:Bitstream Charter;-inkscape-font-specification:BitstreamVeraSans-Roman">180</tspan></text>
<path
         d="m 38.2225,375.47851 4,0"
         id="path500"
         style="fill:#000000;fill-opacity:1;fill-rule:nonzero;stroke:#000000;stroke-width:0.5;stroke-linecap:butt;stroke-linejoin:round;stroke-miterlimit:10;stroke-opacity:1;stroke-dasharray:none" /><path
         d="m 563.04,375.47851 -4,0"
         id="path502"
         style="fill:#000000;fill-opacity:1;fill-rule:nonzero;stroke:#000000;stroke-width:0.5;stroke-linecap:butt;stroke-linejoin:round;stroke-miterlimit:10;stroke-opacity:1;stroke-dasharray:none" /><text
         transform="matrix(1,0,0,-1,12.9725,372.16601)"
         id="text504"><tspan
           x="0 7.632 15.264"
           y="0"
           id="tspan506"
           style="font-size:12px;font-variant:normal;font-weight:normal;writing-mode:lr-tb;fill:#000000;fill-opacity:1;fill-rule:nonzero;stroke:none;font-family:Bitstream Charter;-inkscape-font-specification:BitstreamVeraSans-Roman">200</tspan></text>
<path
         d="m 38.2225,413.19 4,0"
         id="path508"
         style="fill:#000000;fill-opacity:1;fill-rule:nonzero;stroke:#000000;stroke-width:0.5;stroke-linecap:butt;stroke-linejoin:round;stroke-miterlimit:10;stroke-opacity:1;stroke-dasharray:none" /><path
         d="m 563.04,413.19 -4,0"
         id="path510"
         style="fill:#000000;fill-opacity:1;fill-rule:nonzero;stroke:#000000;stroke-width:0.5;stroke-linecap:butt;stroke-linejoin:round;stroke-miterlimit:10;stroke-opacity:1;stroke-dasharray:none" /><text
         transform="matrix(1,0,0,-1,12.9725,409.8775)"
         id="text512"><tspan
           x="0 7.632 15.264"
           y="0"
           id="tspan514"
           style="font-size:12px;font-variant:normal;font-weight:normal;writing-mode:lr-tb;fill:#000000;fill-opacity:1;fill-rule:nonzero;stroke:none;font-family:Bitstream Charter;-inkscape-font-specification:BitstreamVeraSans-Roman">220</tspan></text>
</g></g></svg>