<?xml version="1.0" encoding="UTF-8" standalone="no"?>
<!-- Created with Inkscape (http://www.inkscape.org/) -->

<svg
   xmlns:svg="http://www.w3.org/2000/svg"
   xmlns="http://www.w3.org/2000/svg"
   version="1.1"
   width="720"
   height="540"
   id="svg2"
   xml:space="preserve"><defs
     id="defs6"><clipPath
       id="clipPath22"><path
         d="m 37.82875,98.424063 525.21125,0 0,314.765937 -525.21125,0 0,-314.765937 z"
         id="path24" /></clipPath><clipPath
       id="clipPath32"><path
         d="m 37.82875,98.424063 525.21125,0 0,314.765937 -525.21125,0 0,-314.765937 z"
         id="path34" /></clipPath><clipPath
       id="clipPath42"><path
         d="m 37.82875,98.424063 525.21125,0 0,314.765937 -525.21125,0 0,-314.765937 z"
         id="path44" /></clipPath><clipPath
       id="clipPath52"><path
         d="m 37.82875,98.424063 525.21125,0 0,314.765937 -525.21125,0 0,-314.765937 z"
         id="path54" /></clipPath><clipPath
       id="clipPath62"><path
         d="m 37.82875,98.424063 525.21125,0 0,314.765937 -525.21125,0 0,-314.765937 z"
         id="path64" /></clipPath><clipPath
       id="clipPath72"><path
         d="m 37.82875,98.424063 525.21125,0 0,314.765937 -525.21125,0 0,-314.765937 z"
         id="path74" /></clipPath><clipPath
       id="clipPath82"><path
         d="m 37.82875,98.424063 525.21125,0 0,314.765937 -525.21125,0 0,-314.765937 z"
         id="path84" /></clipPath><clipPath
       id="clipPath92"><path
         d="m 37.82875,98.424063 525.21125,0 0,314.765937 -525.21125,0 0,-314.765937 z"
         id="path94" /></clipPath><clipPath
       id="clipPath102"><path
         d="m 37.82875,98.424063 525.21125,0 0,314.765937 -525.21125,0 0,-314.765937 z"
         id="path104" /></clipPath><clipPath
       id="clipPath112"><path
         d="m 37.82875,98.424063 525.21125,0 0,314.765937 -525.21125,0 0,-314.765937 z"
         id="path114" /></clipPath><clipPath
       id="clipPath122"><path
         d="m 37.82875,98.424063 525.21125,0 0,314.765937 -525.21125,0 0,-314.765937 z"
         id="path124" /></clipPath><clipPath
       id="clipPath132"><path
         d="m 37.82875,98.424063 525.21125,0 0,314.765937 -525.21125,0 0,-314.765937 z"
         id="path134" /></clipPath><clipPath
       id="clipPath142"><path
         d="m 37.82875,98.424063 525.21125,0 0,314.765937 -525.21125,0 0,-314.765937 z"
         id="path144" /></clipPath><clipPath
       id="clipPath152"><path
         d="m 37.82875,98.424063 525.21125,0 0,314.765937 -525.21125,0 0,-314.765937 z"
         id="path154" /></clipPath><clipPath
       id="clipPath162"><path
         d="m 37.82875,98.424063 525.21125,0 0,314.765937 -525.21125,0 0,-314.765937 z"
         id="path164" /></clipPath><clipPath
       id="clipPath172"><path
         d="m 37.82875,98.424063 525.21125,0 0,314.765937 -525.21125,0 0,-314.765937 z"
         id="path174" /></clipPath><clipPath
       id="clipPath182"><path
         d="m 37.82875,98.424063 525.21125,0 0,314.765937 -525.21125,0 0,-314.765937 z"
         id="path184" /></clipPath><clipPath
       id="clipPath192"><path
         d="m 37.82875,98.424063 525.21125,0 0,314.765937 -525.21125,0 0,-314.765937 z"
         id="path194" /></clipPath></defs><g
     transform="matrix(1.25,0,0,-1.25,0,540)"
     id="g12"><path
       d="M 0,0 576,0 576,432 0,432 0,0 z"
       id="path14"
       style="fill:#ffffff;fill-opacity:1;fill-rule:nonzero;stroke:none" /><path
       d="m 37.82875,98.424063 525.21125,0 0,314.765937 -525.21125,0 0,-314.765937 z"
       id="path16"
       style="fill:#ffffff;fill-opacity:1;fill-rule:nonzero;stroke:none" /><g
       id="g18"><g
         clip-path="url(#clipPath22)"
         id="g20"><path
           d="m 81.596354,299.15241 87.535206,0 0,70.56939 -87.535206,0 0,-70.56939"
           id="path26"
           style="fill:none;stroke:#0000ff;stroke-width:1;stroke-linecap:square;stroke-linejoin:round;stroke-miterlimit:10;stroke-opacity:1;stroke-dasharray:none" /></g></g><g
       id="g28"><g
         clip-path="url(#clipPath32)"
         id="g30"><path
           d="m 125.36396,299.15241 0,-35.28469"
           id="path36"
           style="fill:none;stroke:#0000ff;stroke-width:1;stroke-linecap:butt;stroke-linejoin:round;stroke-miterlimit:10;stroke-opacity:1;stroke-dasharray:6, 6;stroke-dashoffset:0" /></g></g><g
       id="g38"><g
         clip-path="url(#clipPath42)"
         id="g40"><path
           d="m 125.36396,369.7218 0,35.28469"
           id="path46"
           style="fill:none;stroke:#0000ff;stroke-width:1;stroke-linecap:butt;stroke-linejoin:round;stroke-miterlimit:10;stroke-opacity:1;stroke-dasharray:6, 6;stroke-dashoffset:0" /></g></g><g
       id="g48"><g
         clip-path="url(#clipPath52)"
         id="g50"><path
           d="m 103.48016,263.86772 43.7676,0"
           id="path56"
           style="fill:none;stroke:#000000;stroke-width:1;stroke-linecap:square;stroke-linejoin:round;stroke-miterlimit:10;stroke-opacity:1;stroke-dasharray:none" /></g></g><g
       id="g58"><g
         clip-path="url(#clipPath62)"
         id="g60"><path
           d="m 103.48016,405.00649 43.7676,0"
           id="path66"
           style="fill:none;stroke:#000000;stroke-width:1;stroke-linecap:square;stroke-linejoin:round;stroke-miterlimit:10;stroke-opacity:1;stroke-dasharray:none" /></g></g><g
       id="g68"><g
         clip-path="url(#clipPath72)"
         id="g70"><path
           d="m 81.596354,334.4371 87.535206,0"
           id="path76"
           style="fill:none;stroke:#ff0000;stroke-width:1;stroke-linecap:square;stroke-linejoin:round;stroke-miterlimit:10;stroke-opacity:1;stroke-dasharray:none" /></g></g><g
       id="g78"><g
         clip-path="url(#clipPath82)"
         id="g80"><path
           d="m 256.66677,255.11006 87.53521,0 0,59.27775 -87.53521,0 0,-59.27775"
           id="path86"
           style="fill:none;stroke:#0000ff;stroke-width:1;stroke-linecap:square;stroke-linejoin:round;stroke-miterlimit:10;stroke-opacity:1;stroke-dasharray:none" /></g></g><g
       id="g88"><g
         clip-path="url(#clipPath92)"
         id="g90"><path
           d="m 300.43437,255.11006 0,-29.63888"
           id="path96"
           style="fill:none;stroke:#0000ff;stroke-width:1;stroke-linecap:butt;stroke-linejoin:round;stroke-miterlimit:10;stroke-opacity:1;stroke-dasharray:6, 6;stroke-dashoffset:0" /></g></g><g
       id="g98"><g
         clip-path="url(#clipPath102)"
         id="g100"><path
           d="m 300.43437,314.38781 0,29.63888"
           id="path106"
           style="fill:none;stroke:#0000ff;stroke-width:1;stroke-linecap:butt;stroke-linejoin:round;stroke-miterlimit:10;stroke-opacity:1;stroke-dasharray:6, 6;stroke-dashoffset:0" /></g></g><g
       id="g108"><g
         clip-path="url(#clipPath112)"
         id="g110"><path
           d="m 278.55057,225.47118 43.76761,0"
           id="path116"
           style="fill:none;stroke:#000000;stroke-width:1;stroke-linecap:square;stroke-linejoin:round;stroke-miterlimit:10;stroke-opacity:1;stroke-dasharray:none" /></g></g><g
       id="g118"><g
         clip-path="url(#clipPath122)"
         id="g120"><path
           d="m 278.55057,344.02669 43.76761,0"
           id="path126"
           style="fill:none;stroke:#000000;stroke-width:1;stroke-linecap:square;stroke-linejoin:round;stroke-miterlimit:10;stroke-opacity:1;stroke-dasharray:none" /></g></g><g
       id="g128"><g
         clip-path="url(#clipPath132)"
         id="g130"><path
           d="m 256.66677,284.74894 87.53521,0"
           id="path136"
           style="fill:none;stroke:#ff0000;stroke-width:1;stroke-linecap:square;stroke-linejoin:round;stroke-miterlimit:10;stroke-opacity:1;stroke-dasharray:none" /></g></g><g
       id="g138"><g
         clip-path="url(#clipPath142)"
         id="g140"><path
           d="m 431.73719,145.86084 87.53521,0 0,15.13284 -87.53521,0 0,-15.13284"
           id="path146"
           style="fill:none;stroke:#0000ff;stroke-width:1;stroke-linecap:square;stroke-linejoin:round;stroke-miterlimit:10;stroke-opacity:1;stroke-dasharray:none" /></g></g><g
       id="g148"><g
         clip-path="url(#clipPath152)"
         id="g150"><path
           d="m 475.50479,145.86084 0,-7.56643"
           id="path156"
           style="fill:none;stroke:#0000ff;stroke-width:1;stroke-linecap:butt;stroke-linejoin:round;stroke-miterlimit:10;stroke-opacity:1;stroke-dasharray:6, 6;stroke-dashoffset:0" /></g></g><g
       id="g158"><g
         clip-path="url(#clipPath162)"
         id="g160"><path
           d="m 475.50479,160.99368 0,7.56643"
           id="path166"
           style="fill:none;stroke:#0000ff;stroke-width:1;stroke-linecap:butt;stroke-linejoin:round;stroke-miterlimit:10;stroke-opacity:1;stroke-dasharray:6, 6;stroke-dashoffset:0" /></g></g><g
       id="g168"><g
         clip-path="url(#clipPath172)"
         id="g170"><path
           d="m 453.62099,138.29441 43.7676,0"
           id="path176"
           style="fill:none;stroke:#000000;stroke-width:1;stroke-linecap:square;stroke-linejoin:round;stroke-miterlimit:10;stroke-opacity:1;stroke-dasharray:none" /></g></g><g
       id="g178"><g
         clip-path="url(#clipPath182)"
         id="g180"><path
           d="m 453.62099,168.56011 43.7676,0"
           id="path186"
           style="fill:none;stroke:#000000;stroke-width:1;stroke-linecap:square;stroke-linejoin:round;stroke-miterlimit:10;stroke-opacity:1;stroke-dasharray:none" /></g></g><g
       id="g188"><g
         clip-path="url(#clipPath192)"
         id="g190"><path
           d="m 431.73719,153.42726 87.53521,0"
           id="path196"
           style="fill:none;stroke:#ff0000;stroke-width:1;stroke-linecap:square;stroke-linejoin:round;stroke-miterlimit:10;stroke-opacity:1;stroke-dasharray:none" /></g></g><g
       id="g198"><path
         d="m 37.82875,413.19 525.21125,0"
         id="path200"
         style="fill:none;stroke:#000000;stroke-width:1;stroke-linecap:square;stroke-linejoin:miter;stroke-miterlimit:10;stroke-opacity:1;stroke-dasharray:none" /><path
         d="m 563.04,98.424063 0,314.765937"
         id="path202"
         style="fill:none;stroke:#000000;stroke-width:1;stroke-linecap:square;stroke-linejoin:miter;stroke-miterlimit:10;stroke-opacity:1;stroke-dasharray:none" /><path
         d="m 37.82875,98.424063 525.21125,0"
         id="path204"
         style="fill:none;stroke:#000000;stroke-width:1;stroke-linecap:square;stroke-linejoin:miter;stroke-miterlimit:10;stroke-opacity:1;stroke-dasharray:none" /><path
         d="m 37.82875,98.424063 0,314.765937"
         id="path206"
         style="fill:none;stroke:#000000;stroke-width:1;stroke-linecap:square;stroke-linejoin:miter;stroke-miterlimit:10;stroke-opacity:1;stroke-dasharray:none" /><path
         d="m 125.36396,98.424063 0,3.999997"
         id="path208"
         style="fill:#000000;fill-opacity:1;fill-rule:nonzero;stroke:#000000;stroke-width:0.5;stroke-linecap:butt;stroke-linejoin:round;stroke-miterlimit:10;stroke-opacity:1;stroke-dasharray:none" /><path
         d="m 125.36396,413.19 0,-4"
         id="path210"
         style="fill:#000000;fill-opacity:1;fill-rule:nonzero;stroke:#000000;stroke-width:0.5;stroke-linecap:butt;stroke-linejoin:round;stroke-miterlimit:10;stroke-opacity:1;stroke-dasharray:none" /><text
         transform="matrix(0,1,1,0,128.67646,28.127188)"
         id="text212"><tspan
           x="0 8.2080002 12.432 17.136 24.516001 29.448 33.264 37.944 45.551998 55.608002 63.240002"
           y="0"
           id="tspan214"
           style="font-size:12px;font-variant:normal;font-weight:normal;writing-mode:lr-tb;fill:#000000;fill-opacity:1;fill-rule:nonzero;stroke:none;font-family:Bitstream Charter;-inkscape-font-specification:BitstreamVeraSans-Roman">After (n=2)</tspan></text>
<path
         d="m 300.43437,98.424063 0,3.999997"
         id="path216"
         style="fill:#000000;fill-opacity:1;fill-rule:nonzero;stroke:#000000;stroke-width:0.5;stroke-linecap:butt;stroke-linejoin:round;stroke-miterlimit:10;stroke-opacity:1;stroke-dasharray:none" /><path
         d="m 300.43437,413.19 0,-4"
         id="path218"
         style="fill:#000000;fill-opacity:1;fill-rule:nonzero;stroke:#000000;stroke-width:0.5;stroke-linecap:butt;stroke-linejoin:round;stroke-miterlimit:10;stroke-opacity:1;stroke-dasharray:none" /><text
         transform="matrix(0,1,1,0,303.74687,17.689687)"
         id="text220"><tspan
           x="0 8.2320004 15.612 19.836 27.18 32.112 39.492001 43.307999 47.987999 55.596001 65.652 73.283997"
           y="0"
           id="tspan222"
           style="font-size:12px;font-variant:normal;font-weight:normal;writing-mode:lr-tb;fill:#000000;fill-opacity:1;fill-rule:nonzero;stroke:none;font-family:Bitstream Charter;-inkscape-font-specification:BitstreamVeraSans-Roman">Before (n=2)</tspan></text>
<path
         d="m 475.50479,98.424063 0,3.999997"
         id="path224"
         style="fill:#000000;fill-opacity:1;fill-rule:nonzero;stroke:#000000;stroke-width:0.5;stroke-linecap:butt;stroke-linejoin:round;stroke-miterlimit:10;stroke-opacity:1;stroke-dasharray:none" /><path
         d="m 475.50479,413.19 0,-4"
         id="path226"
         style="fill:#000000;fill-opacity:1;fill-rule:nonzero;stroke:#000000;stroke-width:0.5;stroke-linecap:butt;stroke-linejoin:round;stroke-miterlimit:10;stroke-opacity:1;stroke-dasharray:none" /><text
         transform="matrix(0,1,1,0,478.81729,13.564688)"
         id="text228"><tspan
           x="0 8.3760004 15.72 23.327999 28.032 32.964001 40.307999 43.644001 47.459999 52.139999 59.748001 69.804001 77.435997"
           y="0"
           id="tspan230"
           style="font-size:12px;font-variant:normal;font-weight:normal;writing-mode:lr-tb;fill:#000000;fill-opacity:1;fill-rule:nonzero;stroke:none;font-family:Bitstream Charter;-inkscape-font-specification:BitstreamVeraSans-Roman">Control (n=2)</tspan></text>
<path
         d="m 37.82875,98.424063 4,0"
         id="path232"
         style="fill:#000000;fill-opacity:1;fill-rule:nonzero;stroke:#000000;stroke-width:0.5;stroke-linecap:butt;stroke-linejoin:round;stroke-miterlimit:10;stroke-opacity:1;stroke-dasharray:none" /><path
         d="m 563.04,98.424063 -4,0"
         id="path234"
         style="fill:#000000;fill-opacity:1;fill-rule:nonzero;stroke:#000000;stroke-width:0.5;stroke-linecap:butt;stroke-linejoin:round;stroke-miterlimit:10;stroke-opacity:1;stroke-dasharray:none" /><text
         transform="matrix(1,0,0,-1,19.938125,95.111563)"
         id="text236"><tspan
           x="0 7.632"
           y="0"
           id="tspan238"
           style="font-size:12px;font-variant:normal;font-weight:normal;writing-mode:lr-tb;fill:#000000;fill-opacity:1;fill-rule:nonzero;stroke:none;font-family:Bitstream Charter;-inkscape-font-specification:BitstreamVeraSans-Roman">40</tspan></text>
<path
         d="m 37.82875,150.88505 4,0"
         id="path240"
         style="fill:#000000;fill-opacity:1;fill-rule:nonzero;stroke:#000000;stroke-width:0.5;stroke-linecap:butt;stroke-linejoin:round;stroke-miterlimit:10;stroke-opacity:1;stroke-dasharray:none" /><path
         d="m 563.04,150.88505 -4,0"
         id="path242"
         style="fill:#000000;fill-opacity:1;fill-rule:nonzero;stroke:#000000;stroke-width:0.5;stroke-linecap:butt;stroke-linejoin:round;stroke-miterlimit:10;stroke-opacity:1;stroke-dasharray:none" /><text
         transform="matrix(1,0,0,-1,20.188125,147.57255)"
         id="text244"><tspan
           x="0 7.632"
           y="0"
           id="tspan246"
           style="font-size:12px;font-variant:normal;font-weight:normal;writing-mode:lr-tb;fill:#000000;fill-opacity:1;fill-rule:nonzero;stroke:none;font-family:Bitstream Charter;-inkscape-font-specification:BitstreamVeraSans-Roman">60</tspan></text>
<path
         d="m 37.82875,203.34604 4,0"
         id="path248"
         style="fill:#000000;fill-opacity:1;fill-rule:nonzero;stroke:#000000;stroke-width:0.5;stroke-linecap:butt;stroke-linejoin:round;stroke-miterlimit:10;stroke-opacity:1;stroke-dasharray:none" /><path
         d="m 563.04,203.34604 -4,0"
         id="path250"
         style="fill:#000000;fill-opacity:1;fill-rule:nonzero;stroke:#000000;stroke-width:0.5;stroke-linecap:butt;stroke-linejoin:round;stroke-miterlimit:10;stroke-opacity:1;stroke-dasharray:none" /><text
         transform="matrix(1,0,0,-1,20.156875,200.03354)"
         id="text252"><tspan
           x="0 7.632"
           y="0"
           id="tspan254"
           style="font-size:12px;font-variant:normal;font-weight:normal;writing-mode:lr-tb;fill:#000000;fill-opacity:1;fill-rule:nonzero;stroke:none;font-family:Bitstream Charter;-inkscape-font-specification:BitstreamVeraSans-Roman">80</tspan></text>
<path
         d="m 37.82875,255.80703 4,0"
         id="path256"
         style="fill:#000000;fill-opacity:1;fill-rule:nonzero;stroke:#000000;stroke-width:0.5;stroke-linecap:butt;stroke-linejoin:round;stroke-miterlimit:10;stroke-opacity:1;stroke-dasharray:none" /><path
         d="m 563.04,255.80703 -4,0"
         id="path258"
         style="fill:#000000;fill-opacity:1;fill-rule:nonzero;stroke:#000000;stroke-width:0.5;stroke-linecap:butt;stroke-linejoin:round;stroke-miterlimit:10;stroke-opacity:1;stroke-dasharray:none" /><text
         transform="matrix(1,0,0,-1,13.01625,252.49453)"
         id="text260"><tspan
           x="0 7.632 15.264"
           y="0"
           id="tspan262"
           style="font-size:12px;font-variant:normal;font-weight:normal;writing-mode:lr-tb;fill:#000000;fill-opacity:1;fill-rule:nonzero;stroke:none;font-family:Bitstream Charter;-inkscape-font-specification:BitstreamVeraSans-Roman">100</tspan></text>
<path
         d="m 37.82875,308.26802 4,0"
         id="path264"
         style="fill:#000000;fill-opacity:1;fill-rule:nonzero;stroke:#000000;stroke-width:0.5;stroke-linecap:butt;stroke-linejoin:round;stroke-miterlimit:10;stroke-opacity:1;stroke-dasharray:none" /><path
         d="m 563.04,308.26802 -4,0"
         id="path266"
         style="fill:#000000;fill-opacity:1;fill-rule:nonzero;stroke:#000000;stroke-width:0.5;stroke-linecap:butt;stroke-linejoin:round;stroke-miterlimit:10;stroke-opacity:1;stroke-dasharray:none" /><text
         transform="matrix(1,0,0,-1,13.01625,304.95552)"
         id="text268"><tspan
           x="0 7.632 15.264"
           y="0"
           id="tspan270"
           style="font-size:12px;font-variant:normal;font-weight:normal;writing-mode:lr-tb;fill:#000000;fill-opacity:1;fill-rule:nonzero;stroke:none;font-family:Bitstream Charter;-inkscape-font-specification:BitstreamVeraSans-Roman">120</tspan></text>
<path
         d="m 37.82875,360.72901 4,0"
         id="path272"
         style="fill:#000000;fill-opacity:1;fill-rule:nonzero;stroke:#000000;stroke-width:0.5;stroke-linecap:butt;stroke-linejoin:round;stroke-miterlimit:10;stroke-opacity:1;stroke-dasharray:none" /><path
         d="m 563.04,360.72901 -4,0"
         id="path274"
         style="fill:#000000;fill-opacity:1;fill-rule:nonzero;stroke:#000000;stroke-width:0.5;stroke-linecap:butt;stroke-linejoin:round;stroke-miterlimit:10;stroke-opacity:1;stroke-dasharray:none" /><text
         transform="matrix(1,0,0,-1,13.01625,357.41651)"
         id="text276"><tspan
           x="0 7.632 15.264"
           y="0"
           id="tspan278"
           style="font-size:12px;font-variant:normal;font-weight:normal;writing-mode:lr-tb;fill:#000000;fill-opacity:1;fill-rule:nonzero;stroke:none;font-family:Bitstream Charter;-inkscape-font-specification:BitstreamVeraSans-Roman">140</tspan></text>
<path
         d="m 37.82875,413.19 4,0"
         id="path280"
         style="fill:#000000;fill-opacity:1;fill-rule:nonzero;stroke:#000000;stroke-width:0.5;stroke-linecap:butt;stroke-linejoin:round;stroke-miterlimit:10;stroke-opacity:1;stroke-dasharray:none" /><path
         d="m 563.04,413.19 -4,0"
         id="path282"
         style="fill:#000000;fill-opacity:1;fill-rule:nonzero;stroke:#000000;stroke-width:0.5;stroke-linecap:butt;stroke-linejoin:round;stroke-miterlimit:10;stroke-opacity:1;stroke-dasharray:none" /><text
         transform="matrix(1,0,0,-1,13.01625,409.8775)"
         id="text284"><tspan
           x="0 7.632 15.264"
           y="0"
           id="tspan286"
           style="font-size:12px;font-variant:normal;font-weight:normal;writing-mode:lr-tb;fill:#000000;fill-opacity:1;fill-rule:nonzero;stroke:none;font-family:Bitstream Charter;-inkscape-font-specification:BitstreamVeraSans-Roman">160</tspan></text>
</g></g></svg>